<svg width="65" height="65" viewBox="0 0 65 65" fill="none" xmlns="http://www.w3.org/2000/svg">
<g clip-path="url(#clip0_89_33)">
<path d="M4.95755 40.3268C4.95755 40.3268 4.95317 40.3303 4.95142 40.3311C4.95755 40.3311 4.96368 40.3311 4.96981 40.3311L4.95755 40.3259V40.3268Z" fill="#D90514"/>
<path d="M17.6565 57.5926L17.478 57.772C17.8465 57.9906 18.2192 58.2027 18.5967 58.4058C18.5918 58.3788 18.6164 58.3583 18.7531 58.3567C18.7965 58.3763 18.7556 58.3968 18.7982 58.4173L19.0455 58.2944C19.0504 58.3739 19.1831 58.5123 19.016 58.5139L19.0135 58.4746L18.7875 58.5066C19.527 58.8964 20.2829 59.2575 21.0585 59.5851C22.3409 60.1273 23.6513 60.5744 24.9845 60.9266C24.9902 60.9175 24.9984 60.9077 25.0091 60.8971C25.1753 60.9454 25.2163 60.956 25.1819 60.9781C25.2294 60.9904 25.2777 61.0027 25.3252 61.0142C25.4857 60.9495 25.516 60.7906 25.421 60.6923L25.2523 60.6948C25.5283 60.5965 25.2269 60.4139 25.4095 60.2222C25.4038 60.2206 25.3973 60.219 25.3915 60.2173L24.9845 60.4188L25.0238 60.3582L25.3375 60.2026C23.9878 59.8537 22.662 59.4066 21.3664 58.8579C20.0184 58.2879 18.7261 57.6188 17.4919 56.8572C17.4133 56.9391 17.5534 57.2339 17.2086 57.0791C17.4182 57.0562 17.3699 56.9186 17.4919 56.8564C15.6075 55.6935 13.8615 54.3144 12.2744 52.7264C9.64722 50.0992 7.58429 47.0396 6.14375 43.6336C5.79243 42.8024 5.48286 41.9597 5.21343 41.1055C5.13071 41.1047 5.04473 41.0687 4.9227 41.0891L4.93089 41.2087L4.75973 41.171C4.64835 41.058 4.93335 40.9679 5.1561 40.9262C5.12826 40.8353 5.10287 40.7444 5.07585 40.6535C4.90796 40.7034 4.70732 40.7558 4.65654 40.8533C4.48129 40.7354 5.06438 40.5691 4.88667 40.4119C4.76055 40.393 4.68111 40.5134 4.5509 40.4553C4.66883 40.4258 4.76301 40.3685 4.85309 40.3423C4.82443 40.2039 4.47228 40.434 4.42478 40.2686L4.85227 40.2784L4.70732 40.2137C4.74417 40.1572 4.82934 40.1744 4.9358 40.1998C4.88257 40.1727 4.79167 40.1547 4.69012 40.1433L4.6721 40.1449V40.1416C4.6418 40.1383 4.61232 40.1359 4.58202 40.1342L4.49603 40.1965L4.50176 40.131C4.45754 40.1293 4.41495 40.1285 4.37646 40.1293C4.43461 40.1121 4.47556 40.0933 4.50668 40.0736L4.52224 39.8976L4.65409 39.9115C4.65409 39.9115 4.65654 39.9082 4.65818 39.9074V39.9123L4.86128 39.9336L4.66801 40.0728L4.6721 40.1424C4.67865 40.1424 4.68439 40.1433 4.69094 40.1441L4.9227 40.1236C4.89322 40.0163 4.86456 39.909 4.83589 39.8009C4.67456 39.7665 4.41823 39.7985 4.51077 39.6584C4.28065 39.5561 4.44525 39.4168 4.71633 39.3284C4.17254 37.109 3.89574 34.8258 3.89574 32.5C3.89574 31.1373 3.99156 29.7893 4.1791 28.4601C4.16845 28.4642 4.1578 28.4691 4.14552 28.4732C4.14142 28.4814 4.12832 28.4863 4.09884 28.4872C4.11604 28.4831 4.1316 28.4781 4.14552 28.4732C4.16517 28.4356 3.98173 28.3307 4.20039 28.3078C4.55008 25.923 5.19869 23.6005 6.14375 21.3664C7.58429 17.9604 9.64722 14.9008 12.2744 12.2736C13.4365 11.1115 14.6838 10.06 16.0072 9.12391C16.0047 9.1231 16.0014 9.12309 15.999 9.12146H16.0088C16.1038 9.05512 16.2005 8.98961 16.2971 8.92327C16.2856 8.90771 16.2676 8.89215 16.2389 8.87987C16.1161 8.94129 15.5232 8.90853 15.827 9.08297C15.6583 9.0453 15.7762 8.90525 15.7738 8.82582L15.9032 8.88396C16.5764 8.83564 15.8467 8.62517 16.1341 8.48268L16.3086 8.56048C16.6402 8.43682 16.1685 8.30333 15.8745 8.36639C15.9114 8.26647 16.2103 8.32216 16.3389 8.341C16.5051 8.29923 16.6656 8.1379 16.3692 8.1207L16.2897 8.20178C16.2242 8.15919 16.1808 8.11415 16.1505 8.06911C15.7386 8.34509 15.3332 8.63173 14.9352 8.929C14.9573 8.93965 14.9851 8.94866 15.0212 8.95521C14.9851 8.95521 14.9499 8.95112 14.9172 8.94293C13.7919 9.78481 12.7232 10.7102 11.7175 11.7167C10.3425 13.0917 9.119 14.583 8.05273 16.1767C8.03307 16.2062 8.01424 16.2357 7.99458 16.2643C8.10678 16.2504 8.20423 16.243 8.22798 16.293L7.81933 16.537C7.81933 16.537 7.81687 16.537 7.81523 16.537C7.09046 17.6557 6.44349 18.8244 5.87432 20.0389L5.89152 20.0299L5.7785 20.2911L6.0766 20.3476C6.11919 20.4934 5.84156 20.4442 5.67204 20.4762C5.58523 20.6695 5.50006 20.8636 5.41735 21.0593C4.41413 23.4301 3.73523 25.8976 3.38553 28.4315C3.40928 28.4462 3.44614 28.4552 3.50674 28.4544L3.37161 28.5363C3.19636 29.8417 3.10791 31.1643 3.10791 32.5C3.10791 33.8357 3.19308 35.11 3.3626 36.3916C3.42648 36.3163 3.50756 36.2516 3.6648 36.2295C3.7516 36.2672 3.84005 36.3458 3.96535 36.3245C3.65251 36.3884 3.58536 36.6267 3.41338 36.7536C3.46088 37.0796 3.51329 37.4047 3.57144 37.7282C3.70165 37.7446 3.85233 37.7839 3.99647 37.8035C4.0063 37.7994 4.01612 37.7953 4.02513 37.7912C4.00957 37.7536 4.03578 37.7241 3.99975 37.7052L3.94242 37.6905C3.97026 37.6946 3.98828 37.6995 3.99975 37.7052L4.15698 37.747C4.11276 37.7568 4.06936 37.7724 4.02431 37.7912C4.02677 37.797 4.02923 37.8027 4.03414 37.8084C4.02104 37.8068 4.00875 37.8052 3.99565 37.8035C3.88182 37.8551 3.76143 37.9296 3.61975 37.9992C3.81794 39.0467 4.07345 40.081 4.38547 41.1006C4.42888 41.0965 4.48047 41.0891 4.54189 41.0736L4.39448 41.1325C4.68603 42.0825 5.02753 43.0194 5.41735 43.9415C6.89801 47.4417 9.01745 50.5857 11.7167 53.2849C12.8051 54.3733 13.9672 55.3659 15.1948 56.2626C15.2505 56.261 15.3176 56.2643 15.3938 56.2626L15.2759 56.3208C15.343 56.3699 15.4102 56.4199 15.4781 56.4682C15.5813 56.4215 15.7009 56.3863 15.9097 56.4166C15.7238 56.4059 15.6239 56.4813 15.5437 56.5149C15.8917 56.7614 16.2447 56.9989 16.6026 57.2298C16.682 57.2077 16.759 57.1807 16.8335 57.143C17.1799 57.2585 17.4387 57.4157 17.6598 57.5926H17.6565ZM4.86128 22.9535L5.07585 23.0108L4.78921 23.1935L4.86128 22.9535ZM3.60337 30.3273L3.46989 30.1889L3.77126 30.2847L3.60337 30.3273ZM3.77372 27.1342L3.97763 26.9926L3.82367 27.2735L3.7729 27.1342H3.77372ZM4.12013 39.3153C4.07755 39.2965 3.99074 39.2572 4.07509 39.2162C4.15698 39.2154 4.23806 39.1359 4.32405 39.1744L4.12013 39.3153ZM15.3021 56.1455C14.9638 56.148 15.1252 55.9866 15.1203 55.9072L15.3725 55.9039L15.3012 56.1455H15.3021ZM16.7328 56.8654C16.447 57.0087 16.8646 56.9637 16.9932 56.9817L16.6214 57.125C16.5731 57.0267 16.4846 56.9481 16.7328 56.8654Z" fill="#D90514"/>
<path d="M43.6188 59.7194C43.5868 59.7292 43.5549 59.7415 43.5254 59.7571C43.5565 59.7448 43.5876 59.7317 43.6188 59.7194Z" fill="#D90514"/>
<path d="M17.0252 7.7923L17.302 7.78984C17.3348 7.70631 17.3536 7.62524 17.3495 7.54989L17.4478 7.78821L17.302 7.78984C17.198 8.05682 16.9523 8.34509 16.8557 8.54655C17.6837 8.00523 18.5387 7.50567 19.4215 7.05197C19.2995 6.97581 19.0988 6.92585 19.0439 6.83167L19.3723 6.66788C18.9154 6.62448 19.2896 6.41974 19.1406 6.30836C18.8335 6.46478 18.5305 6.62857 18.2291 6.79564C18.2307 6.79564 18.2332 6.79564 18.2348 6.79646L18.7458 6.77517C18.7196 6.88081 18.2586 6.96844 18.1816 7.03805C18.1693 7.05852 18.184 7.079 18.2561 7.09947C18.1718 7.08063 18.157 7.06016 18.1816 7.03805C18.2143 6.98482 18.4453 6.93077 18.4117 6.8587C18.3536 6.8587 18.3118 6.81202 18.2356 6.79646H18.2283C17.8106 7.02904 17.3987 7.27063 16.9933 7.52287L17.0957 7.51222C17.1448 7.61131 17.0629 7.69157 17.0261 7.7923H17.0252ZM17.9122 7.02331C18.0432 7.08227 17.8794 7.16335 17.8401 7.22395C17.9203 7.14287 17.6632 7.06671 17.9122 7.02331Z" fill="#D90514"/>
<path d="M19.5589 6.20764C19.2272 6.29117 19.703 6.54504 19.2329 6.45087C19.3214 6.52948 19.6637 6.60483 19.7423 6.48444C19.8823 6.74241 19.1584 6.61138 19.2599 6.92913C19.5564 6.98482 19.549 6.78827 19.8815 6.82185C20.3688 6.58272 20.8626 6.35505 21.3655 6.14212C21.8667 5.93001 22.3728 5.7351 22.8821 5.55248C22.7863 5.54429 22.6021 5.58442 22.4825 5.61472L22.6823 5.39278C22.7675 5.43209 22.8478 5.35102 22.9771 5.36985L22.9542 5.52791C24.5577 4.95956 26.203 4.53862 27.8786 4.26673C27.881 4.24789 27.8745 4.22988 27.8655 4.21432H27.8556V4.19876C27.8384 4.17419 27.8221 4.1619 27.8556 4.17583V4.19876C27.8597 4.20367 27.863 4.20858 27.8663 4.21432L28.3609 4.17009C28.3495 4.17992 28.3331 4.18975 28.3151 4.19876C29.6909 3.99729 31.088 3.89493 32.4999 3.89493C35.2737 3.89493 37.9868 4.2872 40.6026 5.05947C40.7958 4.83344 40.9842 4.5419 41.0432 4.45181C41.0063 4.55172 41.3814 4.44772 41.3888 4.60659L41.5124 4.54599C41.8605 4.70159 41.225 4.68931 41.4879 4.88585C42.4206 4.95465 41.5681 5.58278 42.2413 5.53446C42.2233 5.55084 42.2061 5.56476 42.1889 5.57787C42.6745 5.75312 43.1569 5.94066 43.6351 6.14294C47.0412 7.58347 50.1007 9.64641 52.7279 12.2736C54.492 14.0376 56.0005 15.9974 57.2379 18.125C57.2731 18.0578 57.3607 17.9956 57.5065 17.9587C57.0987 18.1209 57.6293 18.1758 57.3689 18.3518C57.9217 19.3231 58.4188 20.328 58.8578 21.3656C60.3491 24.892 61.1058 28.6378 61.1058 32.5C61.1058 32.8718 61.0968 33.2428 61.0829 33.6121C61.5005 33.6039 61.7167 33.4221 61.8854 33.2674C61.8895 33.115 61.892 32.9619 61.8936 32.8096C61.7708 32.7891 61.548 32.9553 61.5382 32.7686C61.7937 32.8055 61.702 32.6867 61.7421 32.6269C61.6283 32.4779 61.7552 32.4099 61.8944 32.3207C61.8723 28.628 61.177 25.0386 59.8241 21.6407C59.8184 21.635 59.8159 21.6293 59.8168 21.6219C59.7414 21.4335 59.6653 21.2452 59.5858 21.0585C58.1052 17.5583 55.9857 14.4143 53.2865 11.7151C51.5249 9.95351 49.5733 8.44091 47.458 7.18956C47.2885 7.29193 46.8602 7.36318 47.3294 7.50895L46.9027 7.47291C46.933 7.5114 46.9109 7.55808 46.9142 7.59739L46.9568 7.65308C46.9257 7.63916 46.9158 7.61951 46.9142 7.59739L46.6915 7.30585L46.6022 7.33697L46.6849 7.29766L46.6915 7.30667L47.1411 7.15189C47.2279 7.1093 47.2385 7.07572 47.2156 7.04624C47.1738 7.02167 47.1321 6.99711 47.0903 6.97336C47.0567 6.9578 47.0256 6.94305 47.0092 6.92831C46.0216 6.36733 44.9995 5.86204 43.9447 5.41653C40.3209 3.88346 36.471 3.10628 32.5032 3.10628C28.5354 3.10628 24.6855 3.88346 21.0616 5.41653C20.9748 5.45339 20.8888 5.4927 20.802 5.53037C20.8995 5.69579 20.4179 5.74166 20.2165 5.80226C20.0125 5.94394 20.3917 5.91937 20.3098 5.96032L19.8471 5.9857C19.8709 5.96605 19.8987 5.94639 19.9282 5.92592C19.7742 5.99881 19.6211 6.07333 19.4688 6.14867C19.5023 6.15441 19.5335 6.1716 19.5621 6.20928L19.5589 6.20764ZM60.6013 24.6422C60.9035 24.7396 60.4924 24.9427 60.3196 24.9051L60.6013 24.6422ZM57.5679 18.3355C57.5696 18.3764 57.5311 18.4354 57.6572 18.455C57.8554 18.5074 58.1445 18.3412 58.1264 18.3142C58.1224 18.3133 58.1183 18.3109 58.115 18.3101C58.1224 18.3101 58.1248 18.3117 58.1264 18.3142C58.2911 18.3649 58.4221 18.686 58.097 18.7687C58.0044 18.6499 58.2894 18.4264 57.7858 18.473C57.7489 18.5738 57.916 18.532 57.9184 18.6114L57.536 18.5558C57.5319 18.4763 57.4844 18.3772 57.5679 18.3355ZM33.0797 3.31265C33.1534 3.3061 33.2288 3.29136 33.2525 3.25451C33.2861 3.32576 33.1853 3.31593 33.0797 3.31265C33.0355 3.31675 32.9921 3.31675 32.9601 3.31675C32.9954 3.31101 33.0379 3.31101 33.0797 3.31265ZM21.3605 5.92674L21.2385 6.02829L21.1468 5.90954L21.3605 5.92674Z" fill="#D90514"/>
<path d="M20.6047 5.61389C20.5138 5.65402 20.4228 5.69415 20.3328 5.7351C20.5064 5.7441 20.5416 5.67859 20.6047 5.61389Z" fill="#D90514"/>
<path d="M61.8938 32.7344C61.8938 32.7174 61.8938 32.6996 61.8938 32.6826C61.8862 32.6996 61.8871 32.7166 61.8938 32.7344Z" fill="#D90514"/>
<path d="M61.4729 34.7644C61.5155 34.7431 61.6007 34.7423 61.6432 34.7619C61.3517 34.8659 61.1764 34.7079 61.1461 34.9282C61.4844 34.9642 61.156 35.1272 61.6162 35.0617C61.5892 35.3205 61.3591 34.9446 61.156 35.1272C61.1183 35.187 61.287 35.1853 61.3705 35.1845C61.2461 35.2459 61.2936 35.3049 61.2133 35.386C61.269 35.386 61.3435 35.3925 61.3992 35.3794C61.4172 35.3671 61.4377 35.3549 61.4623 35.3418C61.45 35.3622 61.4262 35.3729 61.3992 35.3794C61.3279 35.4286 61.3099 35.4761 61.3451 35.5227H61.432L61.2289 35.7046C61.1347 35.6833 61.0389 35.6497 60.9373 35.6284C60.8235 36.6766 60.6531 37.7134 60.4255 38.7371C60.4255 38.7396 60.4255 38.7412 60.4238 38.7437C60.3812 38.9369 60.3354 39.1286 60.2879 39.321C60.3084 39.3677 60.3305 39.4152 60.2633 39.4226C60.2535 39.4627 60.2445 39.5037 60.2338 39.5446C60.3387 39.5462 60.3878 39.5913 60.4697 39.7207C60.3698 39.7698 60.3231 39.6609 60.2207 39.5962C60.2027 39.6666 60.1831 39.7362 60.1642 39.8067C60.2035 39.8271 60.265 39.8321 60.3903 39.8009C60.31 39.8951 60.26 39.8468 60.1618 39.8173C59.8194 41.1137 59.3862 42.388 58.8588 43.6336C57.9793 45.7137 56.8663 47.6637 55.5355 49.4654C55.5879 49.4613 55.5331 49.503 55.6919 49.485C55.6068 49.5554 55.5593 49.5489 55.4823 49.5391C54.6486 50.661 53.7297 51.7248 52.729 52.7264C51.7495 53.7059 50.7095 54.6075 49.6137 55.4273C49.6555 55.4273 49.7013 55.4265 49.7554 55.4208L49.5965 55.5813L49.4769 55.528C49.0101 55.8728 48.5327 56.2037 48.0462 56.519C48.2452 56.695 48.432 56.9309 48.1101 57.0554C47.9824 57.0374 47.7637 56.8596 47.5156 56.9825C47.4762 57.0423 47.649 57.0808 47.6892 57.0996C47.3206 57.2839 47.2772 57.2634 46.731 57.3305C46.7318 57.3273 46.7335 57.324 46.7343 57.3207C45.7376 57.8932 44.7041 58.4058 43.6362 58.8571C40.1098 60.3484 36.3639 61.1051 32.5018 61.1051C32.1799 61.1051 31.8589 61.0977 31.5387 61.0871C31.6664 61.1706 31.8409 61.2525 31.4502 61.2984L31.4797 61.0846C30.7042 61.0576 29.9344 61.0003 29.1695 60.9118C29.1629 61.1862 29.2038 61.4695 28.5077 61.5719C28.9631 61.3868 28.5798 61.3319 28.9901 61.0871C28.8181 61.0494 28.5716 61.1722 28.6543 61.1313C28.6494 61.0412 28.647 60.9446 28.6543 60.8471C27.7273 60.7226 26.8084 60.5531 25.901 60.3385C25.7381 60.5073 25.381 60.7087 25.9371 60.8438L26.0083 60.6047C26.2663 60.6407 26.2761 60.8397 26.2319 60.8209C25.9027 60.9839 25.6783 60.7284 25.6496 60.9872C25.8601 61.0052 25.7462 61.2255 26.1615 61.101C26.141 61.1403 26.1082 61.1681 26.0665 61.1886C26.9173 61.3786 27.7772 61.5309 28.6453 61.6439L28.6388 61.63C28.7641 61.6079 28.8468 61.5678 28.9328 61.6063C28.9573 61.6431 28.9696 61.6677 28.9729 61.6849C30.1366 61.8233 31.3135 61.8937 32.5018 61.8937C36.3082 61.8937 40.0058 61.178 43.5002 59.7661C43.4224 59.6998 42.9016 59.7645 42.927 59.6277L43.2931 59.364C43.3045 59.6031 43.6305 59.3599 43.8057 59.477C43.845 59.5589 43.8401 59.6064 43.8123 59.6375C43.8565 59.6195 43.9007 59.6015 43.9449 59.5827C44.3159 59.4254 44.6828 59.26 45.0456 59.0888C45.003 59.0708 44.9547 59.0782 44.8867 59.1462L44.7876 58.8677L44.4076 58.8915L44.8155 58.568C44.822 58.7269 45.1103 58.5852 45.1996 58.663L44.9137 58.8849C45.166 58.9218 45.3593 58.6302 45.5386 58.8489C45.5411 58.8472 45.5435 58.8464 45.546 58.8448L45.5386 58.6974C45.6156 58.7187 45.6721 58.74 45.7139 58.7612C48.5098 57.3543 51.051 55.5182 53.2867 53.2817C54.9131 51.6552 56.3266 49.8675 57.519 47.938C57.4535 47.9536 57.37 47.9544 57.2578 47.9298C57.5739 47.8422 57.4666 47.703 57.6558 47.7185C58.3871 46.5114 59.0316 45.2502 59.586 43.9383C60.8751 40.891 61.6293 37.6848 61.8373 34.3828C61.7243 34.4786 61.7341 34.6571 61.4745 34.7603L61.4729 34.7644ZM50.3106 55.5542L50.4286 55.4126C50.4711 55.3921 50.5555 55.3913 50.5571 55.4314L50.3106 55.5542ZM54.7362 51.5447C54.7575 51.7044 54.6961 51.8526 54.3792 51.8559C53.9623 51.6683 54.5405 51.6683 54.7362 51.5447C54.7231 51.4489 54.6805 51.3489 54.6453 51.2752C54.8353 51.4087 54.8247 51.4898 54.7362 51.5447ZM61.4205 36.1411C61.0855 36.1853 61.3419 36.2614 61.0823 36.146C61.0331 36.0059 61.4573 36.042 61.3239 35.9036C61.115 35.9257 61.0266 35.888 60.9807 35.7873C61.1101 35.8462 61.5294 35.8012 61.3239 35.9036L61.6162 35.8798L61.4205 36.1411Z" fill="#D90514"/>
<path d="M61.395 34.1068L61.8201 34.1019L61.5285 34.2051C61.6014 34.2378 61.7398 34.2378 61.8463 34.21C61.8504 34.1412 61.8545 34.0724 61.8577 34.0036C61.7013 33.9798 61.5342 33.934 61.4311 33.925L61.3958 34.1051L61.395 34.1068Z" fill="#D90514"/>
<path d="M4.82699 39.7731C4.82044 39.7485 4.81389 39.7248 4.80734 39.7002C4.78604 39.728 4.78441 39.7534 4.82699 39.7731Z" fill="#D90514"/>
<path d="M60.9929 35.0396C60.9831 35.1477 60.9757 35.2558 60.9651 35.3639C61.0281 35.2574 61.0339 35.1436 60.9929 35.0396Z" fill="#D90514"/>
<path d="M19.5966 6.92504L19.6244 6.94961C19.6654 6.92913 19.7063 6.90948 19.7465 6.889C19.6703 6.87017 19.5925 6.84396 19.5966 6.92504Z" fill="#D90514"/>
<path d="M47.1641 57.0677C47.0659 57.1266 46.9668 57.1848 46.8677 57.2429C46.9463 57.2347 47.0626 57.2282 47.2305 57.1659C47.2305 57.1356 47.2256 57.0816 47.165 57.0677H47.1641Z" fill="#D90514"/>
<path d="M48.0011 56.5476C47.8996 56.6131 47.7972 56.6778 47.6948 56.7417L48.0904 56.736L48.0003 56.5476H48.0011Z" fill="#D90514"/>
<path d="M26.6236 64.267C26.8267 64.1254 27.4729 64.3768 27.0609 64.5414C27.0536 64.5422 27.047 64.543 27.0396 64.5438C28.8307 64.8469 30.6545 64.9992 32.5012 64.9992C33.8361 64.9992 35.1579 64.9189 36.4649 64.7609L36.27 64.733C36.3028 64.5553 36.7147 64.6249 36.772 64.7224C36.7794 64.7216 36.786 64.7207 36.7933 64.7199L37.1889 64.5627C37.1561 64.6315 37.0669 64.6683 36.98 64.6953C39.7882 64.3088 42.5235 63.557 45.1515 62.4457C45.5635 62.2713 45.9697 62.0878 46.3726 61.897C46.3365 61.8667 46.321 61.829 46.3325 61.7823L46.4602 61.8004L46.4627 61.8544C48.5117 60.8799 50.4403 59.6989 52.2354 58.3239C52.2125 58.2224 52.4091 58.0455 52.4647 57.9603C52.4991 58.0054 52.5221 58.0479 52.5434 58.0881C53.5687 57.283 54.5498 56.4125 55.4818 55.4805C56.6332 54.3291 57.6888 53.1031 58.6454 51.8108L58.3931 51.869L58.4734 51.7879L58.6724 51.7748C60.1833 49.7282 61.4478 47.513 62.4469 45.1503C64.1421 41.1432 65.0012 36.8863 65.0012 32.4992C65.0012 29.2914 64.541 26.1531 63.6311 23.1304L63.3117 23.1345L63.3093 23.0944L63.6303 23.1288C63.4567 22.553 63.2675 21.9822 63.0619 21.4155C62.9342 21.3844 62.7941 21.3566 62.7876 21.2263L62.9964 21.2378C62.8236 20.7718 62.641 20.3083 62.4469 19.8489C62.1202 19.0758 61.7631 18.3183 61.3798 17.5771C61.3684 17.6885 61.3888 17.8343 61.1243 17.7163C61.2971 17.6975 61.2947 17.6009 61.3561 17.5329C59.8255 14.583 57.8575 11.8944 55.4818 9.51865C54.3606 8.39751 53.1707 7.36727 51.916 6.43039C51.8407 6.47789 51.7023 6.50655 51.6253 6.51965L51.8481 6.38125C49.781 4.84654 47.542 3.56489 45.1515 2.5543C43.6987 1.94009 42.214 1.43562 40.7014 1.04252L40.5277 1.06709L40.6195 1.02123C40.4933 0.988472 40.3664 0.956533 40.2395 0.926232C40.2239 0.962265 40.2206 0.975368 40.0126 0.953257L40.1469 0.903301C37.6606 0.303011 35.1038 0 32.5004 0C29.4097 0 26.3837 0.427491 23.4641 1.27183C23.9358 1.53225 22.7877 1.59204 23.0022 1.79923L22.6132 1.6641C22.6837 2.20134 21.8074 2.39133 21.7533 2.95067C21.2358 2.71809 22.2668 2.28651 21.5437 2.1956C21.8336 2.05229 21.8131 1.69359 22.3217 1.72716C22.3553 1.68458 22.3602 1.64854 22.3495 1.61661C21.5068 1.89423 20.6731 2.20625 19.8501 2.5543C16.096 4.14224 12.7146 6.39681 9.79094 9.25413C9.81878 9.26395 9.84827 9.27624 9.88594 9.29344L9.71314 9.33029C9.64844 9.39335 9.58375 9.45559 9.51987 9.51947C8.28325 10.7561 7.15802 12.0787 6.14662 13.4774C6.16709 13.4815 6.19084 13.4848 6.22032 13.484L6.63061 13.24C6.54381 13.2015 6.46355 13.2817 6.33579 13.2637L6.51105 13.0688C6.50531 13.0663 6.5004 13.0647 6.49467 13.0622C6.50368 13.0598 6.5135 13.0573 6.52333 13.0549L6.73462 12.8198C6.73708 12.86 6.77966 12.8395 6.8632 12.8378C6.98604 12.9312 6.69695 13.0106 6.52333 13.0549L6.51105 13.0688C6.87302 13.2015 6.63389 13.3235 6.60359 13.5405C6.49713 13.5929 6.26209 13.5552 6.07782 13.5716C5.26297 14.7067 4.52264 15.8925 3.86011 17.1259C3.98377 17.2921 3.88877 17.5976 3.78395 17.7212C3.72253 17.641 3.72826 17.5353 3.6955 17.4387C3.28439 18.2241 2.90358 19.0275 2.55552 19.8489C1.51955 22.2983 0.79642 24.8412 0.390222 27.4495C0.406601 27.4479 0.423798 27.4471 0.440996 27.4471C0.46966 27.434 0.511426 27.4315 0.582675 27.4504C0.542546 27.4504 0.491771 27.4471 0.440996 27.4471C0.415609 27.4585 0.400049 27.4774 0.382851 27.497C0.150269 28.9998 0.0233323 30.5239 0.00367755 32.0643C0.0405303 32.1356 0.0904862 32.2085 0.162554 32.2813C0.128977 32.3206 0.0683745 32.3411 0.00203965 32.355C0.00203965 32.4034 0.0012207 32.4517 0.0012207 32.5C0.0012207 32.5164 0.0012207 32.5319 0.0012207 32.5483C0.0184186 32.5581 0.0347976 32.5688 0.0495387 32.5827C0.0331597 32.5827 0.0175997 32.5835 0.00203965 32.5844C0.00203965 32.7653 0.0044965 32.9463 0.0077723 33.1273C0.0552713 33.1118 0.103589 33.0905 0.162554 33.0987L0.0110481 33.3321C0.0331597 34.2067 0.0896672 35.0764 0.179752 35.9388C0.192036 35.9068 0.205958 35.8765 0.222337 35.8511C0.417247 35.9682 0.282939 36.0886 0.205139 36.1754C0.281301 36.8552 0.378756 37.53 0.497504 38.2007C0.600691 38.1761 0.717801 38.1655 0.824265 38.1917C0.786593 38.1409 0.732542 38.091 0.667026 38.0476C0.872583 37.9861 0.781679 37.8264 0.986417 37.7257L1.20999 37.9026L1.29188 37.8486C1.11991 37.7429 0.985598 37.5701 1.07323 37.4465C1.03228 37.358 1.03965 37.2892 1.42537 37.2622C1.33529 37.2696 1.314 37.2925 1.32546 37.3252C1.34757 37.3212 1.3705 37.3171 1.39589 37.3138C1.44011 37.3326 1.52856 37.4112 1.61046 37.3703L1.47369 37.5079C1.47861 37.5152 1.4827 37.5226 1.48598 37.53C1.64649 37.5316 1.55641 37.6823 1.74722 37.5488C1.78325 37.6233 1.60472 37.6897 1.44421 37.7691C1.39343 37.8543 1.16249 37.9878 1.4655 38.0197L1.08715 38.0443C1.05439 38.2236 1.18296 38.2425 0.856204 38.4456C0.893056 38.3899 0.891418 38.3252 0.862755 38.2605L0.576942 38.638C0.57858 38.6454 0.580218 38.6536 0.581037 38.661C0.832454 38.7068 1.1543 38.5987 1.17068 38.8182C1.18542 38.8116 1.20016 38.8059 1.21245 38.7994L1.1715 38.8206C1.1715 38.8206 1.1715 38.819 1.1715 38.8182C1.08551 38.8534 0.970857 38.8919 1.00853 38.9427C1.21572 38.8804 1.27223 39.1384 1.44257 39.1368C1.10844 39.2203 1.14365 39.0803 0.846376 39.0639C0.798877 39.0794 0.738275 39.0999 0.674397 39.1237C1.10107 41.1833 1.72838 43.1971 2.5547 45.1511C2.75125 45.6171 2.95927 46.0765 3.17629 46.5302L3.22297 46.5139C3.55218 46.3509 2.78892 46.3198 3.20577 46.1953C3.08702 46.3361 3.51124 46.3714 3.60132 46.4893C3.58249 46.5663 3.35646 46.622 3.25163 46.6858C3.27702 46.7383 3.30404 46.7907 3.32943 46.8431C3.35318 46.8521 3.38021 46.8611 3.41133 46.8709L3.3409 46.8652C3.58904 47.3688 3.85028 47.8651 4.12299 48.354L4.15984 48.2574L4.37523 48.3549L4.12545 48.3573C4.41699 48.879 4.72164 49.3916 5.04103 49.8961L5.08608 49.8421C5.12866 49.8216 5.21301 49.8208 5.21465 49.8609L5.06478 49.9354C5.24741 50.2221 5.43495 50.5054 5.62658 50.7863L5.77727 50.6184C5.77154 50.616 5.76662 50.6143 5.76089 50.6119C5.7699 50.6094 5.77973 50.607 5.78955 50.6045L6.00084 50.3695C6.0033 50.4096 6.04588 50.3891 6.12942 50.3875C6.25226 50.4809 5.96317 50.5603 5.78955 50.6045L5.77727 50.6184C6.13925 50.7511 5.90011 50.8731 5.86981 51.0901C5.86162 51.0942 5.85261 51.0967 5.8436 51.1C6.19903 51.6085 6.56919 52.1081 6.9541 52.597C7.01061 52.5192 7.08923 52.4398 7.12116 52.3915C7.25547 52.5675 7.22353 52.7067 7.51672 52.8411C7.55848 52.8165 7.60271 52.796 7.64857 52.7845L7.52491 52.8452C7.52491 52.8452 7.51917 52.8427 7.51672 52.8411C7.40616 52.9058 7.32263 52.9991 7.32508 53.027C7.41189 53.0663 7.48805 52.9451 7.53555 53.0458C7.43237 53.0966 7.42663 53.1465 7.4381 53.1973C7.78779 53.6199 8.14977 54.0343 8.52239 54.4405C8.57808 54.4216 8.6182 54.4012 8.64687 54.379C8.62967 54.3528 8.65751 54.3389 8.69764 54.3299C8.72549 54.2963 8.74432 54.2611 8.77954 54.2267C8.96626 54.3111 8.7951 54.3078 8.69764 54.3299C8.68372 54.3471 8.66734 54.3635 8.64687 54.379C8.65506 54.3913 8.67307 54.4069 8.70583 54.4265H8.78936C8.94906 54.4609 8.70092 54.4495 8.53058 54.4487C8.61902 54.5453 8.70911 54.6411 8.79837 54.7369L9.01458 54.6829L8.83195 54.773C8.85734 54.8 8.88191 54.827 8.90729 54.854C9.15543 54.9499 9.15134 55.0121 9.11203 55.067C9.19638 55.1546 9.28155 55.2414 9.36672 55.3282C9.39866 55.3372 9.43306 55.3462 9.47155 55.3561C9.46254 55.3741 9.45271 55.3904 9.44207 55.4044C9.46745 55.4298 9.49202 55.456 9.51741 55.4813C12.5017 58.4656 15.9773 60.8086 19.8476 62.4457C22.0965 63.3973 24.4239 64.0852 26.8095 64.5053C26.7727 64.4374 26.8382 64.3145 26.622 64.267H26.6236ZM29.7061 64.2507L29.7405 64.1098L29.1149 64.258C28.956 64.4194 29.3728 64.335 29.4621 64.4128C29.2557 64.516 29.2172 64.5758 28.9642 64.5782L29.1689 64.4767C28.8323 64.48 29.0338 64.299 28.6112 64.3031L28.535 64.4636C28.119 64.5881 28.5211 64.1843 28.065 64.3694C27.929 64.1917 28.3401 63.987 28.3352 63.8682C28.7578 63.9026 28.3475 64.1065 28.3942 64.2064C28.6857 64.1032 28.4867 64.3252 28.8192 64.2417C28.9527 64.2081 28.9462 64.1123 28.8528 64.0975C28.8291 64.1024 28.802 64.1049 28.7693 64.1032C28.802 64.0951 28.8299 64.0942 28.8528 64.0975C29.0379 64.0582 28.9535 63.8436 29.1869 64.0181C29.0207 64.0598 29.1558 64.1991 29.2827 64.2163C29.6103 64.0132 29.2623 63.8174 29.5481 63.6348C30.1467 63.7871 29.8658 64.0492 29.7078 64.2498L29.7061 64.2507ZM28.2812 63.6897C28.3213 63.6291 28.3205 63.5898 28.4892 63.6266L28.4966 63.7863C28.4024 63.5881 28.2935 63.8879 28.2804 63.6889L28.2812 63.6897ZM28.9617 63.7617L29.0453 63.7208L29.2967 63.6782L28.9625 63.7617H28.9617ZM29.7528 63.5324L29.7094 63.5128C29.7872 63.3924 29.6054 63.1557 29.9838 63.1303L29.7528 63.5324ZM33.2424 64.7388L33.0294 64.81L33.1072 64.6896C33.1433 64.7068 33.1818 64.751 33.2424 64.7396L33.2776 64.7281C33.2653 64.7347 33.2538 64.7379 33.2424 64.7396V64.7388ZM38.1143 64.471C37.8154 64.3751 38.0627 64.2924 37.8449 64.1557C37.8866 64.1352 38.007 64.0336 38.0537 64.0926C37.8866 64.1737 38.2773 64.3497 38.1143 64.4701V64.471ZM37.9571 63.8559L38.111 63.5734L38.1258 63.8928L37.9571 63.8559ZM40.8127 63.5423C40.549 63.3858 40.6334 63.385 40.7087 63.1836L40.7218 63.4628C40.9782 63.4997 40.8799 63.2614 40.9724 63.3793L40.8127 63.5415V63.5423ZM40.9528 62.2049C40.6588 62.268 40.7751 62.087 40.6883 62.0084C40.8144 61.9871 40.9413 62.0051 40.979 61.9445C41.1542 62.0223 40.4835 62.1501 40.9528 62.2049ZM42.2508 62.01C42.4916 61.8077 42.4212 62.087 42.7152 62.0239C42.5989 62.2041 42.4613 61.9863 42.2508 62.01ZM43.132 62.7159L43.168 62.5767L43.3785 62.5947L43.132 62.7159ZM43.5619 62.0534C43.5177 61.9936 43.5546 61.9339 43.6782 61.8733L44.0263 62.028L43.5619 62.0534ZM46.3554 59.7669C46.3153 59.8275 46.4471 59.925 46.28 59.9274C46.2334 59.8693 46.2309 59.7882 46.3554 59.7669ZM47.3045 60.9323L47.1285 60.8144C46.7133 60.9388 46.9327 61.1157 46.4274 61.1223L46.3284 60.8831C46.4127 60.8422 46.5511 61.06 46.7084 60.8594C46.7837 60.6989 46.642 60.4016 46.8869 60.2386C47.5322 60.4507 46.398 60.6031 47.0408 60.7742L47.1915 60.7005C47.2087 60.6874 47.2398 60.6719 47.2882 60.653L47.1915 60.7005C47.0752 60.7881 47.5519 60.7726 47.3037 60.9323H47.3045ZM46.6748 59.4041C46.8312 59.2027 47.3144 59.5368 47.2579 59.2772C47.3447 59.3157 47.6051 59.4328 47.3537 59.4754L47.0949 59.3992L46.8189 59.7415C46.6576 59.902 46.6879 59.6817 46.5216 59.7243C46.769 59.6424 47.0597 59.5392 46.674 59.4033L46.6748 59.4041ZM47.0834 59.1601C47.108 59.1347 47.1465 59.1421 47.1915 59.1584L47.506 59.1543C47.4249 59.2796 47.2923 59.1953 47.1915 59.1584L47.0834 59.1601ZM46.9499 59.8398L47.1268 59.997L46.5822 60.0634C46.574 59.9037 47.0482 60.0773 46.9499 59.8398ZM47.3946 60.2329L47.2276 60.3148L47.3643 60.2329H47.3111L47.6387 60.0699L47.3643 60.2329H47.3938H47.3946ZM47.4086 59.7342C47.4945 59.7333 47.5298 59.6326 47.5355 59.7129C47.8319 59.7292 47.6993 59.5908 47.8639 59.5499L47.7075 59.7907C47.6239 59.7923 47.3725 59.8341 47.4086 59.7342ZM48.397 60.8397C48.2611 60.662 48.4568 60.3598 47.8205 60.3082L48.4093 60.2607L48.4044 60.1813C48.6231 60.3181 48.5166 60.6981 48.3962 60.8397H48.397ZM47.8966 58.5516C48.3217 58.586 48.2275 58.3878 48.3479 58.2871L48.3684 58.6851L47.8966 58.5516ZM49.0391 58.4058C48.9662 58.4042 48.9171 58.396 48.9408 58.36C48.9711 58.36 49.0121 58.3788 49.0391 58.4058C49.2061 58.4091 49.4993 58.378 49.3331 58.5737C49.1595 58.6253 49.1251 58.5254 48.9752 58.5369C48.9474 58.5459 48.913 58.554 48.8687 58.5598C48.9105 58.5459 48.9449 58.5393 48.9752 58.5369C49.0841 58.5008 49.0776 58.4451 49.0391 58.4058ZM49.0448 57.8997L49.3429 57.9554L49.175 57.9972L49.0448 57.8989V57.8997ZM49.6672 60.0863C49.4494 59.9888 49.4379 59.7497 49.302 59.572L48.9244 59.6367L49.0063 59.5958C49.1333 59.5745 49.5476 59.4508 49.6402 59.6089C49.2291 59.8128 49.8245 59.8857 49.6664 60.0871L49.6672 60.0863ZM50.1103 58.1069L50.0177 57.948L50.4796 57.8825L50.1103 58.1061V58.1069ZM52.4115 56.8834C52.2019 56.9063 52.5753 56.8015 52.3198 56.7646C51.7752 56.831 52.1323 57.1856 52.4303 57.2421C52.2616 57.2454 51.9554 57.0275 51.9242 57.2486C51.9955 57.0079 51.6581 57.012 51.8997 56.7696L51.645 56.7728C51.5516 56.6148 52.0946 56.4682 51.5844 56.3953L52.0045 56.3503C51.966 56.41 51.898 56.7302 52.2305 56.6459C52.4811 56.5632 52.3427 56.3453 52.6834 56.4207C52.224 56.5263 52.5344 56.781 52.4123 56.8834H52.4115ZM52.7587 57.039C52.8775 56.9366 52.4033 56.7237 52.7809 56.6999C52.8734 56.8187 53.0036 56.917 52.7587 57.039ZM60.1702 46.2821C60.1276 46.2624 60.031 46.0643 59.9868 46.0053L59.9434 46.0258L59.8983 45.8906C59.8844 45.8955 59.8705 45.9005 59.8549 45.907L59.8975 45.8865L59.8992 45.8906C60.2841 45.7547 59.9336 46.2043 60.5011 46.1584L60.1711 46.2821H60.1702ZM61.7254 42.9334L61.3782 42.7778C61.5903 42.795 61.6738 42.7541 61.5846 42.6754C61.7885 42.5329 61.6321 42.7745 61.8802 42.6525C61.8016 42.7729 61.4666 42.8171 61.7262 42.9334H61.7254ZM61.9908 41.5748L61.9318 41.2365C61.6394 41.3397 61.7672 41.3176 61.5068 41.2415C62.2078 40.8942 61.9858 41.4953 62.3642 41.4708L61.9899 41.5756L61.9908 41.5748ZM61.9113 39.7829L62.1103 39.561C62.3232 39.5782 62.3241 39.6183 62.157 39.6593L62.3691 39.6765L61.9105 39.7821L61.9113 39.7829ZM62.8834 41.6632L62.7507 41.5649C62.8769 41.5437 62.8719 41.4642 63.0013 41.4822L62.8834 41.6632ZM62.6525 41.3266C62.781 41.3053 62.7335 41.2456 62.7745 41.1858L63.0734 41.2824L62.6533 41.3266H62.6525ZM62.9588 32.3911C63.0407 32.3501 63.1651 32.3297 63.1209 32.2682L62.9522 32.2715C63.1209 32.2682 63.4444 32.0258 63.7474 32.1208C63.324 32.1266 63.3371 32.3657 62.9588 32.3903V32.3911ZM63.3183 23.2532C63.4059 23.2909 63.5369 23.3491 63.6647 23.3687C63.7597 23.5669 62.9661 23.716 63.2298 23.9518C62.8032 23.8765 63.2626 23.7725 62.8752 23.6365C63.469 23.6701 62.9457 23.3573 63.3183 23.2532ZM63.2151 31.6499C62.8711 31.5746 63.166 31.5508 63.2036 31.4509C64.1364 31.559 63.1013 31.9095 63.1111 32.1094C62.8916 31.9325 63.1447 31.93 62.754 31.7548L63.2143 31.6499H63.2151ZM62.347 20.8308C62.5206 20.9086 62.4002 21.0101 62.3601 21.0699C62.1914 21.0314 62.2667 20.911 62.347 20.8308ZM61.9015 21.1739L61.7385 21.2566L61.6877 21.1166L61.9023 21.1739H61.9015ZM60.651 17.5001C60.3651 17.6434 60.7828 17.5984 60.9114 17.6164L60.5396 17.7597C60.4913 17.6615 60.4028 17.5828 60.651 17.5001ZM60.75 17.7778C61.0965 17.8932 61.3553 18.0505 61.5764 18.2274L61.3356 18.4689C60.9155 18.4739 61.0359 18.3731 60.8999 18.2347C60.696 18.3363 60.5699 18.3576 60.2308 18.3223L60.1268 18.7433C60.0376 18.6245 59.9893 18.5648 59.6969 18.5893C59.8942 18.3666 59.9286 18.1872 59.8336 17.9899C60.1244 17.9252 60.4634 17.9219 60.75 17.7786V17.7778ZM61.3667 21.4409C61.2807 21.4016 61.1612 21.5433 61.0703 21.4245L61.2316 21.2632L61.3667 21.4409ZM59.8271 17.0513C59.5315 17.0341 59.4553 17.2356 59.3243 17.1373C59.4479 17.0759 59.5691 17.0145 59.8271 17.0513ZM59.0401 16.542L59.2923 16.5387L59.2211 16.7803C58.8828 16.7827 59.0442 16.6214 59.0393 16.542H59.0401ZM58.9762 16.9416C59.0131 16.881 59.1433 16.8998 59.312 16.8974L59.0638 17.0202C58.9377 17.0014 58.9787 16.9817 58.9754 16.9416H58.9762ZM56.8142 11.1836L57.1131 11.4293C57.1197 11.4309 57.1237 11.4342 57.1237 11.4383L57.1131 11.4293C57.0607 11.4129 56.824 11.4686 56.7913 11.5226C56.4596 11.6463 57.1909 11.8969 56.5177 11.9444C56.4227 11.7462 56.5259 11.3261 56.8142 11.1836ZM55.5751 10.8986L55.5669 10.7389C55.7815 10.8363 55.7397 10.8175 55.5751 10.8986ZM55.033 11.0443C55.2377 10.8019 55.847 11.0853 56.1959 11.0779C56.2417 11.0673 56.2909 11.0575 56.3425 11.0484C56.3023 11.0681 56.2524 11.0763 56.1959 11.0779C56.019 11.1197 55.9035 11.1787 55.9756 11.2728L56.0591 11.2712C55.7307 11.4759 55.5243 11.5374 55.3696 11.8183C55.2434 11.7994 55.0649 11.6422 54.9445 11.783C55.0608 11.5619 55.1255 11.2024 55.3728 11.0804C55.2475 11.1017 55.1599 11.0632 55.0321 11.0443H55.033ZM56.1443 12.0877C55.9346 12.1106 55.8044 12.0533 55.7979 11.9337C55.8904 12.0517 56.1787 11.9493 56.1443 12.0877ZM52.8587 7.42132C52.943 7.41968 52.9864 7.43933 53.074 7.47864L52.78 7.54088C52.821 7.52041 52.7317 7.44179 52.8587 7.42132ZM51.9717 6.63349L51.975 6.71211L51.5565 6.75715L51.9709 6.63267L51.9717 6.63349ZM48.8892 5.45912C48.9302 5.44437 48.9793 5.43455 49.0374 5.43127C48.9834 5.49597 48.9351 5.4886 48.8892 5.45912C48.5436 5.5836 48.7361 6.06104 48.3823 5.79734C48.3323 5.65976 48.5764 5.45666 48.7385 5.33545C48.7852 5.35593 48.8352 5.4239 48.8892 5.45912ZM48.6001 5.15774L48.5305 5.39688L48.3561 5.31907L48.6001 5.15774ZM47.7787 3.97027C47.7615 3.99647 47.7533 4.02677 47.7632 4.05544C47.8442 4.071 48.0514 4.0235 47.9138 4.14798C47.8172 4.12669 47.7754 4.09229 47.7632 4.05544C47.7255 4.04807 47.7148 4.02759 47.7787 3.97027ZM48.0522 5.14464L47.8917 5.30597L47.9286 5.20606L48.0522 5.14464ZM47.2325 4.81542C47.144 4.73598 47.2636 4.63443 47.1784 4.59676C47.5584 4.6115 47.271 4.75482 47.2325 4.81542ZM46.7886 4.65982C46.8885 4.69749 47.167 4.6934 47.0638 4.81706C46.7968 4.83835 46.8697 4.72534 46.7886 4.65982C46.7747 4.65491 46.764 4.64836 46.7583 4.64099C46.7706 4.64672 46.7804 4.65327 46.7886 4.65982ZM45.9598 3.4789L46.0589 3.35278C46.1826 3.33149 46.271 3.4101 46.3153 3.46989C46.2088 3.49609 46.0483 3.46661 45.959 3.47808L45.8992 3.55342C45.8812 3.50346 45.9091 3.48463 45.959 3.47808L45.9598 3.4789ZM44.1835 3.05632L44.3522 3.05468L44.0214 3.17834L44.1843 3.05632H44.1835ZM39.3992 1.99578C39.1838 1.93845 39.4688 1.7157 39.0495 1.80005C39.6777 1.69195 39.1191 1.47984 39.4451 1.27592C39.694 1.19321 39.8767 1.47083 39.9487 1.23006L40.002 1.40941C39.9741 1.51669 40.2395 1.54945 40.3836 1.51506C40.4123 1.49786 40.4409 1.48066 40.4704 1.46346C40.4614 1.48721 40.4278 1.50441 40.3836 1.51506C39.8636 1.83035 39.5737 2.1956 39.4533 2.25375V2.21362C39.3689 2.21362 39.1978 2.17595 39.1175 2.25702C39.1241 2.37741 39.2526 2.43474 39.4639 2.41181C39.0938 2.59607 39.4394 2.75085 38.9775 2.81719C39.1797 2.63456 39.206 2.33564 38.9398 2.09897C39.1527 2.11698 39.0979 1.89832 39.4 1.99496L39.3992 1.99578ZM36.5018 0.73296L36.3429 0.934421L36.2586 0.89593C36.3405 0.854983 36.2045 0.716581 36.5018 0.73296ZM34.289 1.96384L34.2063 2.0441L34.1178 1.92535L34.289 1.96302V1.96384ZM32.7747 1.28329C32.9017 1.30213 32.9066 1.38157 33.0319 1.36027C32.8665 1.44217 33.0892 1.65837 32.7494 1.62316L32.7747 1.28329ZM32.7428 0.68546L32.2965 1.03024L32.1237 0.952438C31.8117 0.656797 32.6191 0.746882 32.7428 0.68546ZM32.4005 1.38812C32.6978 1.44381 32.2359 1.50932 32.1556 1.55027C31.9771 1.39303 32.448 1.52652 32.4005 1.38812ZM32.1704 1.82871C32.5061 1.82544 33.1859 1.89669 33.3423 1.65592L33.1875 1.93681C33.2211 1.75665 32.6798 1.90324 32.3833 1.88604C32.0958 2.02854 32.3112 2.12599 32.2342 2.24638L32.484 2.16366C32.3653 2.34465 31.9804 2.24965 31.9402 2.27013L32.1704 1.82789V1.82871ZM32.6519 2.16284C32.647 2.08259 32.6454 2.04246 32.7723 2.02117C33.1138 2.09815 32.692 2.10224 32.6519 2.16284ZM30.8543 1.70505L30.8216 1.88522L30.779 1.86557L30.8543 1.70505ZM24.5705 1.06218C24.6991 1.08019 24.7867 1.15881 24.8694 1.11787C24.7065 1.23907 24.6156 1.12114 24.4477 1.12278L24.5705 1.06218ZM23.6795 2.60753L23.8105 2.66568L23.6099 2.84749L23.6803 2.60753H23.6795ZM23.053 3.49282C23.0964 3.51084 23.0538 3.53131 23.0972 3.55096L23.3077 3.52803L23.2733 3.66889L22.9326 3.63286L23.053 3.49282ZM23.4846 3.68691L23.1546 3.81057L23.2774 3.74833L23.4846 3.68691ZM21.9286 2.98671L21.7288 3.20782L21.6821 3.10873L21.9286 2.98589V2.98671ZM19.9754 3.58782C19.941 3.6779 19.9803 3.79911 20.1089 3.82122C20.1269 3.82122 20.1449 3.82122 20.1621 3.82122C20.4389 3.64187 20.1875 3.56489 20.6019 3.48053L21.0024 3.72622C21.04 3.73031 21.0802 3.7385 21.1244 3.75406L21.0818 3.77454L21.0024 3.7254C20.71 3.69346 20.5994 3.9719 20.38 4.08082L20.4152 3.94078C20.3636 3.85971 20.2727 3.82613 20.1621 3.8204C20.1605 3.82204 20.1588 3.82285 20.1564 3.82449C20.1392 3.82449 20.1236 3.82285 20.1081 3.8204C19.932 3.82449 19.7158 3.88428 19.5274 3.93177C19.4332 3.73359 19.6838 3.691 19.9746 3.587L19.9754 3.58782ZM18.7576 4.56073L18.5168 4.76301C18.3874 4.70404 18.2581 4.6459 18.4243 4.60413C18.5037 4.52388 18.7167 4.54107 18.7576 4.56155V4.56073ZM18.3219 4.24625L18.3727 4.42478L18.1958 4.26754L18.3228 4.24625H18.3219ZM18.4546 5.20115C18.4202 5.34119 18.0361 5.24619 18.1712 5.4239L17.9993 5.34692L18.4546 5.20115ZM8.14895 13.9189C8.26769 13.8165 7.79352 13.6036 8.17106 13.5798C8.2636 13.6986 8.39381 13.7968 8.14895 13.9189ZM7.39469 13.2301C7.3562 13.2899 7.28823 13.6101 7.62072 13.5258C7.87132 13.4431 7.73292 13.2252 8.0736 13.3006C7.61417 13.4062 7.92455 13.6609 7.80253 13.7633C7.59288 13.7862 7.96632 13.6814 7.71081 13.6445C7.16621 13.7108 7.52327 14.0655 7.82137 14.122C7.65266 14.1252 7.34638 13.9074 7.31526 14.1285C7.3865 13.8877 7.0491 13.8918 7.29069 13.6494L7.03599 13.6527C6.94263 13.4946 7.4856 13.3481 6.97539 13.2752L7.39551 13.2301H7.39469ZM5.86981 14.7632L5.50046 14.9876L5.40792 14.8287L5.86981 14.7632ZM4.39816 16.4756C4.5251 16.4543 4.93948 16.3307 5.03203 16.4887C4.62091 16.6926 5.21629 16.7655 5.05823 16.967C4.84039 16.8695 4.82893 16.6304 4.69298 16.4527L4.31544 16.5174L4.39734 16.4764L4.39816 16.4756ZM4.8797 17.8072C4.88298 17.8138 4.88707 17.8203 4.8928 17.8261C4.88707 17.8203 4.88298 17.8138 4.8797 17.8072C4.73966 17.6025 4.50626 17.4862 4.86414 17.3085C5.35469 17.4166 4.81091 17.6647 4.8797 17.8072ZM3.93136 22.2402L3.93873 22.1853C3.98787 22.196 3.97067 22.2165 3.93136 22.2402L3.90843 22.4048C3.60787 22.3802 3.83554 22.2992 3.93136 22.2402ZM2.56535 26.5487L2.39583 26.5512C2.6063 26.5282 2.7275 26.4275 2.94289 26.5241L2.45152 26.7682C2.23122 26.6322 2.61531 26.6879 2.56535 26.5487ZM2.76845 26.3661L2.4638 26.2309L2.66854 26.1286C2.84216 26.2072 2.72505 26.3481 2.76763 26.3669L2.76845 26.3661ZM2.50393 23.797C2.63005 23.815 2.67755 23.91 2.83724 23.8748L2.84543 23.865C2.83888 23.8298 2.80694 23.8126 2.88638 23.8126L2.84543 23.865C2.84543 23.865 2.84707 23.8707 2.84707 23.8732C2.84379 23.874 2.84134 23.8732 2.83806 23.8748L2.72914 24.0132C2.84789 23.8732 2.3901 24.0173 2.50557 23.797H2.50393ZM2.81349 25.6479L2.82332 25.8075C2.61285 25.8305 2.45479 26.0704 2.1526 25.9353C2.19764 25.9943 1.997 26.2154 2.33277 26.1327L1.91674 26.2563C1.69153 26 2.23122 25.8542 2.52195 25.7519C2.31066 25.6937 2.39337 25.6937 2.43022 25.593L2.81267 25.6487L2.81349 25.6479ZM2.58582 37.3367L2.49574 37.2581L2.2951 37.4391C1.96015 37.5226 1.86187 37.245 1.89791 37.1451C2.196 37.2008 1.94541 37.2049 2.07562 37.3023C2.13458 37.2442 2.34833 37.1942 2.37863 37.1492C2.36061 37.1344 2.34342 37.1197 2.32867 37.1041C2.32458 37.1033 2.32212 37.1017 2.31721 37.1009L2.10756 37.0828L2.27053 37.0009C2.27217 37.0362 2.2951 37.0706 2.32786 37.1041C2.37617 37.1189 2.38846 37.1336 2.37781 37.1492C2.49902 37.2458 2.66854 37.3212 2.58501 37.3359L2.58582 37.3367ZM2.31639 32.2437L2.35979 32.2543C2.33441 32.2543 2.32212 32.2502 2.31639 32.2437L1.97325 32.1585L2.21975 32.0373C2.51048 32.0676 2.28609 32.2044 2.31639 32.2437ZM1.94623 23.6635L2.1526 23.562L2.20665 23.7405C2.0404 23.8224 1.86187 23.6242 1.94704 23.6635H1.94623ZM2.27299 21.825L2.3991 21.8447L2.196 21.9863L2.27299 21.8258V21.825ZM1.89709 23.1959C1.88153 23.1582 1.89136 23.1206 1.94295 23.0878C1.9364 23.0804 1.92739 23.0731 1.91592 23.0665L1.7464 23.069L2.04204 23.046C1.99864 23.0592 1.9667 23.0731 1.94295 23.0886C1.97898 23.1271 1.94786 23.1632 1.89709 23.1967C1.94377 23.3098 2.2173 23.4236 2.27299 23.4219C2.1092 23.5432 1.97489 23.4056 1.80618 23.408C1.55149 23.345 1.77834 23.2762 1.89709 23.1967V23.1959ZM1.0462 34.5842L0.82754 34.4466L1.12809 34.5433L1.0462 34.5842ZM1.60063 35.4949C1.39835 35.6366 1.61455 35.7742 1.49253 35.8757L1.15021 35.7602C1.68416 35.4941 0.984779 35.024 1.64731 34.7759L1.56869 34.8971L2.02894 34.7914C1.86105 34.8332 1.86761 34.9937 1.57115 34.9364C1.74968 35.1337 1.67597 35.3344 1.93476 35.4507L1.60063 35.4941V35.4949ZM1.78244 38.3538L1.81847 38.2138H1.90364L1.78244 38.3538ZM2.04286 42.8425L1.98308 42.9179C1.96506 42.8679 1.99291 42.8491 2.04286 42.8425L2.14195 42.7164C2.26562 42.6951 2.35406 42.7737 2.39828 42.8335C2.29182 42.8597 2.13131 42.8302 2.04204 42.8417L2.04286 42.8425ZM2.41385 40.5306C2.3254 40.3455 2.95517 40.3791 2.88884 40.2874C2.88228 40.2808 2.87491 40.2743 2.86672 40.2677C2.87737 40.2751 2.88474 40.2817 2.88884 40.2874C3.13288 40.5134 2.40402 40.3382 2.41385 40.5306ZM3.02478 39.4553L3.16482 39.7526C2.99612 39.7551 2.87082 39.7764 2.86754 39.6969C2.92323 39.6696 2.97892 39.6554 3.03461 39.6543L3.0256 39.4553H3.02478ZM3.14599 44.1807C2.87901 44.202 2.95189 44.0889 2.87082 44.0234C2.8569 44.0185 2.84625 44.012 2.84052 44.0046C2.8528 44.0103 2.86263 44.0169 2.87082 44.0234C2.97073 44.0611 3.24917 44.057 3.14599 44.1807ZM3.31469 44.179C3.22624 44.0996 3.34581 43.998 3.26064 43.9604C3.64063 43.9751 3.35318 44.1184 3.31469 44.179ZM3.03133 41.2103C3.02396 41.0506 3.09931 40.8901 3.25818 40.7288C3.7258 40.7828 2.93879 41.0916 3.52925 41.0449C3.62343 41.2038 3.1984 41.1686 3.03215 41.2103H3.03133ZM3.84537 43.4199C3.8077 43.4125 3.79705 43.392 3.86093 43.3347C3.84373 43.3609 3.83554 43.3912 3.84537 43.4199C3.92644 43.4354 4.13364 43.3879 3.99606 43.5124C3.89942 43.4911 3.85765 43.4567 3.84537 43.4199ZM3.97312 44.6696L4.00998 44.5697L4.13364 44.5082L3.97312 44.6696ZM7.06793 51.3137C6.85828 51.3367 7.23172 51.2318 6.97621 51.195C6.43161 51.2613 6.78867 51.6159 7.08677 51.6724C6.91807 51.6757 6.61178 51.4579 6.58066 51.679C6.65191 51.4382 6.3145 51.4423 6.55609 51.1999L6.3014 51.2032C6.20804 51.0451 6.751 50.8985 6.24079 50.8256L6.66092 50.7806C6.62243 50.8404 6.55445 51.1606 6.88695 51.0762C7.13754 50.9935 6.99914 50.7757 7.33982 50.851C6.88039 50.9567 7.19078 51.2113 7.06875 51.3137H7.06793ZM7.41517 51.4693C7.53392 51.3669 7.05974 51.154 7.43728 51.1303C7.52982 51.249 7.66003 51.3473 7.41517 51.4693ZM10.0391 55.6067C10.0145 55.5854 10.0022 55.5542 9.99076 55.5239C9.90232 55.4838 9.72542 55.4928 9.69267 55.451C9.93344 55.361 9.95964 55.442 9.99076 55.5239C10.0276 55.5403 10.0497 55.5657 10.0391 55.6067ZM10.2971 55.6828L10.2536 55.664L10.5837 55.5002L10.6263 55.5198L10.2971 55.6828ZM10.6951 55.2398C10.777 55.1988 10.9031 55.1775 10.985 55.1358C11.1717 55.3487 10.7933 55.2807 10.4936 55.3323L10.3224 55.3831C10.3724 55.3585 10.4314 55.3429 10.4936 55.3323L10.7393 55.2594L10.6942 55.2398H10.6951ZM10.7999 55.5968L10.9645 55.5149L11.0521 55.5935L10.7999 55.5968ZM12.1995 56.5378L12.622 56.5329C12.5377 56.5329 12.2077 56.6975 12.1995 56.5378ZM12.9177 57.3666L12.88 57.4272L12.6196 57.3109L12.9177 57.3666ZM13.3083 58.2543C13.3132 58.2748 13.2919 58.2969 13.224 58.3206L13.3083 58.2543C13.2944 58.1945 13.0676 58.1429 13.129 58.0553C13.1175 58.0529 13.1036 58.0504 13.088 58.0471L12.6671 58.1872L12.8686 58.0054C12.9734 58.0283 13.0413 58.0389 13.088 58.0471L13.1642 58.0217C13.1478 58.0332 13.1363 58.0447 13.1298 58.0545C13.1961 58.0692 13.2035 58.0872 13.2592 58.1806C13.3853 58.1986 13.4664 58.1175 13.5073 58.0971L13.3083 58.2535V58.2543ZM13.4443 57.7204C13.2281 57.6229 13.2584 57.4034 13.5925 57.3191C13.1789 57.4837 13.7309 57.5369 13.4443 57.7204ZM14.1846 58.1307C14.0921 58.0119 14.3771 57.7883 13.8734 57.835C13.8365 57.9357 14.0036 57.894 14.0061 57.9734L13.6236 57.9177C13.6195 57.8383 13.572 57.7392 13.6556 57.6974C13.6572 57.7384 13.6187 57.7973 13.7448 57.817C13.943 57.8694 14.2321 57.7032 14.2141 57.6761C14.21 57.6753 14.2059 57.6729 14.2026 57.672C14.21 57.672 14.2124 57.6737 14.2141 57.6761C14.3787 57.7269 14.5097 58.0479 14.1846 58.1307ZM17.1533 60.7881L17.3146 60.6268L17.4498 60.8045C17.3638 60.7652 17.2442 60.9069 17.1533 60.7881ZM17.8216 60.6211L17.7708 60.481L17.9853 60.5384L17.8224 60.6211H17.8216ZM18.4431 60.4344C18.2744 60.3959 18.3498 60.2755 18.43 60.1952C18.6037 60.273 18.4833 60.3746 18.4431 60.4344ZM19.7412 61.0174C19.6961 60.9577 19.6904 60.8381 19.8968 60.7759C19.7731 60.7971 20.1244 61.0723 19.7412 61.0174ZM24.5623 61.9379C24.514 61.8397 24.6336 61.698 24.677 61.7168C24.6369 61.7774 24.8973 61.8937 24.5623 61.9379ZM27.047 62.6267C27.1674 62.526 26.8349 62.5694 26.8718 62.5096C27.2059 62.4244 27.0904 62.6472 27.2591 62.6439C27.549 62.5522 27.8365 62.4285 27.9511 62.2942C27.9511 62.2942 27.9511 62.2926 27.9511 62.2917C25.4869 61.9191 23.0858 61.2418 20.7747 60.264C20.4954 60.1461 20.2194 60.0224 19.9451 59.8963C20.2293 60.1109 20.5069 60.2689 20.176 60.4327C20.1793 60.513 19.6052 60.8389 19.3571 60.9216C19.3448 60.7218 18.887 60.8266 18.8747 60.5883L19.1728 60.6047C19.0385 60.4663 18.9853 60.2476 19.1884 60.1461L18.9779 60.1289L19.3022 59.8857C19.4283 59.8644 19.7043 60.3 19.9819 59.9577C19.7616 60.0666 19.6601 59.8586 19.7903 59.8242C18.5701 59.2559 17.3932 58.6114 16.2664 57.8891L16.2123 58.1069C16.1231 57.9882 16.0747 57.9284 15.7824 57.9529C15.8684 57.8555 15.9224 57.767 15.9486 57.681C14.2477 56.5607 12.6589 55.2676 11.1979 53.8066C8.58872 51.1974 6.50859 48.1837 5.00746 44.8416C4.99599 44.8375 4.98453 44.8317 4.97306 44.8244C4.62746 44.9488 4.81992 45.4263 4.46613 45.1626C4.41618 45.025 4.66022 44.8219 4.82237 44.7007C4.86905 44.7212 4.91901 44.7892 4.97306 44.8244C4.98043 44.8219 4.98944 44.8203 4.99763 44.8178C4.91 44.6221 4.82401 44.4264 4.73966 44.2282C3.84701 42.1169 3.20413 39.9303 2.81595 37.6897L2.63169 37.607L2.80203 37.6045C2.51703 35.9306 2.3729 34.2263 2.3729 32.5C2.3729 28.4315 3.16974 24.4858 4.74048 20.771C5.02466 20.1003 5.33094 19.4419 5.66016 18.7965V18.7949C5.66016 18.7949 5.66098 18.7932 5.6618 18.7924C5.67244 18.7711 5.68391 18.7507 5.69456 18.7294C5.70684 18.6753 5.70193 18.6057 5.71585 18.5443C5.70848 18.541 5.69947 18.5377 5.688 18.5353C5.70111 18.5222 5.71503 18.5123 5.72895 18.5042C5.74861 18.4575 5.78873 18.4198 5.86572 18.4042C5.89929 18.3404 5.93205 18.2765 5.96645 18.2134L5.84442 18.2544C5.86162 18.2462 5.9124 18.2142 5.98119 18.1856C6.48975 17.2446 7.04746 16.3339 7.65266 15.4536C7.61008 15.4241 7.56585 15.3954 7.50771 15.3831L7.76568 15.2914C7.76895 15.2865 7.77223 15.2824 7.77551 15.2775C7.43646 15.2497 7.78369 14.9573 7.85986 14.8394C7.90736 14.9008 7.93356 14.9581 7.96059 15.0122C8.92695 13.6593 10.0071 12.3833 11.1987 11.1918C12.0955 10.295 13.0413 9.46132 14.0306 8.69151L13.7882 8.7472L13.8685 8.66612L14.0822 8.6522C15.1198 7.84799 16.2066 7.11503 17.3392 6.45496C17.3269 6.44922 17.313 6.44185 17.2982 6.43203C17.3343 6.39599 17.3973 6.3878 17.4604 6.38371C17.6889 6.25186 17.9182 6.12328 18.15 5.99717C18.109 5.99061 18.0713 5.98406 18.0345 5.98406C18.1147 5.94311 18.1975 5.86286 18.109 5.78424L17.9428 5.80225C17.8895 5.8432 17.8281 5.87023 17.6889 5.82928L17.9428 5.80225C17.9878 5.76786 18.0279 5.72364 18.1041 5.70398C18.2318 5.69088 18.3629 5.77851 18.4022 5.8645C18.9836 5.55657 19.5749 5.26584 20.1777 4.99559V4.97921L19.8403 5.00542L20.1695 4.84245L20.1769 4.97839L20.2244 4.9743C20.4078 4.8924 20.5921 4.81051 20.778 4.73189C24.4919 3.16114 28.4384 2.36431 32.507 2.36431C32.6904 2.36431 32.8738 2.36676 33.0573 2.37004C33.0294 2.30452 33.0131 2.22509 32.95 2.1784C33.2006 2.09569 33.8255 1.9491 33.7124 2.24883C33.5863 2.28978 33.5093 2.33319 33.4651 2.37987C36.4117 2.47077 39.2895 2.98343 42.0559 3.90803C42.1615 3.82777 42.0485 3.67544 42.2312 3.65579C42.4424 3.67299 42.1943 3.71557 42.2795 3.75488L42.6562 3.691L42.0649 3.91048C42.2623 3.97682 42.4596 4.04479 42.6562 4.11522C42.7102 4.06608 42.7905 4.01613 42.8388 3.96699C42.9232 3.96617 42.9698 4.06445 43.0542 4.02432C42.8814 3.98664 43.4178 3.76061 43.0354 3.70411L42.702 3.78846C42.9862 3.56652 42.8937 3.40683 42.7184 3.28972L42.9289 3.26679L42.9314 3.30692L43.1074 3.28235L43.0984 3.26597C43.1263 3.26106 43.159 3.26433 43.1918 3.27088L43.3924 3.24222C43.4301 3.35032 43.3073 3.29218 43.1918 3.27088L43.1066 3.28317L43.3318 3.71803C43.3629 3.67872 43.4383 3.65743 43.5824 3.67872L43.3335 3.72131L43.3318 3.71803C43.2802 3.78273 43.349 3.8982 43.4301 3.95962C44.023 3.99238 43.376 3.74096 43.7528 3.67626L44.0525 3.7729H43.969C44.0173 3.87281 44.0599 3.89247 44.2703 3.90966C44.3809 3.9588 44.2556 4.04233 44.1164 4.10294C44.0836 4.1275 44.0181 4.15125 43.9035 4.17337C43.9501 4.16518 44.0361 4.13815 44.1164 4.10294C44.2392 4.01039 43.8912 3.90066 43.8846 3.77454C43.8453 3.83514 43.5177 3.95798 43.8068 3.97436C43.8207 3.96781 43.8347 3.96126 43.8519 3.95389L43.8109 3.97436C43.8109 3.97436 43.8084 3.97436 43.8076 3.97436C43.4497 4.15125 44.1147 4.31504 43.8797 4.47146C43.4596 4.5165 43.8699 4.27246 43.408 4.33797L43.435 4.03824C43.1697 3.89001 42.9961 4.07509 42.7979 4.16436C43.1386 4.28884 43.4784 4.41905 43.8158 4.55581L43.9665 4.51077L43.9722 4.61969C44.0599 4.65573 44.1475 4.69176 44.2351 4.72861C44.2785 4.74745 44.3219 4.7671 44.3653 4.78512C44.3784 4.78512 44.3907 4.7843 44.4046 4.78348L44.3907 4.79577C47.9163 6.31 51.0864 8.45893 53.8135 11.186C55.5252 12.8976 57.0091 14.7845 58.2514 16.8229C58.3358 16.7934 58.5201 16.8441 58.6609 16.8319C58.7133 16.8229 58.7616 16.8081 58.8001 16.7794C58.7666 16.813 58.7166 16.8269 58.6609 16.8319C58.5332 16.8532 58.38 16.8376 58.2867 16.8794C59.0384 18.1193 59.701 19.4156 60.271 20.7636C61.6779 24.0902 62.4633 27.6035 62.6123 31.2233L62.6435 31.1921C62.7737 31.2503 62.7827 31.4092 62.8261 31.4296C62.7671 31.3862 62.6885 31.401 62.6197 31.4157C62.632 31.7736 62.6385 32.1323 62.6385 32.4918C62.6385 36.5603 61.8417 40.506 60.271 44.22C58.7535 47.8078 56.5808 51.0304 53.8127 53.7984C53.0478 54.5633 52.2469 55.2815 51.414 55.9539C51.432 55.9522 51.4525 55.9498 51.4779 55.9498C51.5967 56.0399 51.3305 56.1169 51.1561 56.1619C51.1479 56.1685 51.1397 56.1758 51.1307 56.1824C51.4845 56.3142 51.2486 56.4362 51.2183 56.6516C51.0537 56.7327 50.5836 56.5984 50.4665 56.7794L50.3912 56.7458C48.4896 58.1519 46.4307 59.3271 44.2343 60.2566C42.4031 61.0314 40.5163 61.6169 38.586 62.0125C38.3944 62.1378 38.1389 62.2352 37.7965 62.3343L37.7065 62.1795C36.0014 62.476 34.2652 62.625 32.5061 62.625C31.0672 62.625 29.6447 62.5251 28.241 62.3269C28.2664 62.4654 28.1739 62.6128 28.1117 62.7463C27.0421 62.5006 27.5441 63.1926 26.6949 63.0828L26.9152 63.299L26.5769 63.2638C26.3509 63.0067 26.9389 62.9207 27.0495 62.6201L27.047 62.6267ZM18.8747 59.8111C19.2621 59.9061 18.9099 59.6318 19.2899 59.6473L18.9664 59.9299C18.9632 59.8898 19.0041 59.8308 18.8747 59.812V59.8111ZM4.43583 44.6843L4.67988 44.523L4.61027 44.7621L4.43583 44.6843Z" fill="#D90514"/>
<path d="M0.660181 38.7461L0.62988 38.7609C0.62988 38.7609 0.620871 38.7699 0.604492 38.7764C0.612682 38.8198 0.620871 38.8632 0.62988 38.9058C0.755998 38.8755 0.825608 38.8354 0.661 38.7461H0.660181Z" fill="#D90514"/>
<path d="M5.64819 50.8166C5.66785 50.8453 5.68832 50.8739 5.70798 50.9034L5.89797 50.7904C5.82181 50.7568 5.75056 50.8142 5.64819 50.8166Z" fill="#D90514"/>
<path d="M5.7121 18.6868C5.74813 18.6172 5.78499 18.5484 5.82102 18.4796C5.78826 18.4796 5.7555 18.4861 5.72356 18.5042C5.71783 18.5164 5.71374 18.5304 5.71128 18.5435C5.78662 18.577 5.69408 18.6475 5.7121 18.686V18.6868Z" fill="#D90514"/>
<path d="M28.1031 62.3155C28.0515 62.3081 28.0007 62.3007 27.9491 62.2934C27.9491 62.2934 27.9483 62.295 27.9475 62.295C27.9475 62.3081 27.9491 62.322 27.9573 62.3384C28.0237 62.3482 28.0663 62.3359 28.1031 62.3163V62.3155Z" fill="#D90514"/>
<path d="M50.8297 56.6041L51.24 56.3601C51.1532 56.3216 51.073 56.4018 50.9452 56.3838L51.1008 56.211C50.9559 56.3249 50.8093 56.4362 50.6619 56.5476C50.6963 56.582 50.7388 56.6058 50.8297 56.6041Z" fill="#D90514"/>
<path d="M0.771468 38.2777C0.701038 38.3129 0.604402 38.3072 0.515137 38.3047C0.526602 38.3669 0.537248 38.4284 0.548714 38.4906C0.615867 38.4112 0.705133 38.3325 0.770649 38.2785L0.771468 38.2777Z" fill="#D90514"/>
<path d="M0.611912 38.7597L0.5979 38.7404C0.598776 38.7474 0.600528 38.7535 0.601403 38.7605C0.604906 38.7605 0.608409 38.7605 0.611912 38.7605V38.7597Z" fill="#D90514"/>
<path d="M33.3875 9.9142C33.3875 9.68325 33.3818 9.47688 33.39 9.2705C33.4047 8.90361 33.6586 8.62189 34.0705 8.57521C34.7134 8.50151 35.3538 8.56375 35.9664 8.74474C36.3169 8.84874 36.5004 9.10999 36.5331 9.43429C36.5528 9.6292 36.5364 9.82657 36.5364 10.0362C36.769 10.0362 36.9885 10.0387 37.2079 10.0362C38.4921 10.0207 39.777 10.0182 41.0414 10.2401C41.4051 10.304 41.7728 10.431 42.0897 10.6005C42.9561 11.0624 42.9234 12.1213 42.0397 12.566C41.6524 12.7609 41.2347 12.8927 40.7745 12.9075C39.3372 12.955 37.8999 13.0139 36.4627 13.0688C36.4348 13.0696 36.4078 13.0786 36.3783 13.0835C36.312 13.4488 36.2457 13.8091 36.1826 14.1531C36.8124 14.1531 37.4332 14.1473 38.0531 14.1539C39.4813 14.1695 40.9088 14.1899 42.3362 14.2088C42.4337 14.2104 42.5303 14.2112 42.6277 14.2088C43.237 14.1916 43.6187 14.5601 43.5253 15.0957C43.4934 15.28 43.4254 15.4626 43.3501 15.6378C43.1592 16.0825 42.7964 16.3012 42.2478 16.2758C41.491 16.2414 40.7343 16.216 40.0178 16.189C39.863 16.623 39.718 17.026 39.5608 17.4657C40.0251 17.4854 40.5042 17.5042 40.9825 17.5271C41.419 17.5484 41.8792 17.5042 42.2862 17.6131C42.925 17.7843 43.6965 18.2642 43.4852 18.9546C43.3378 19.4369 42.839 19.7907 42.1536 19.8194C41.8825 19.8309 41.609 19.8161 41.3371 19.8161C39.7066 19.8161 38.0752 19.8161 36.4316 19.8161V20.3607C36.5503 20.3607 36.6715 20.3607 36.7927 20.3607C38.0957 20.3509 39.3978 20.3329 40.7008 20.337C40.9776 20.3378 41.2593 20.3992 41.5287 20.4647C41.8645 20.5466 42.0856 20.8128 42.0717 21.1223C42.0381 21.87 41.9865 22.3524 40.7589 22.4556C40.2282 22.5006 39.6918 22.4908 39.1579 22.4998C38.7508 22.5064 38.3438 22.5047 37.936 22.5055C37.4356 22.5064 36.9344 22.5055 36.3972 22.5055C36.3816 22.7463 36.3652 23.0076 36.3464 23.3016C36.4856 23.3016 36.5986 23.3016 36.7117 23.3016C38.5289 23.295 40.347 23.2901 42.1642 23.2786C42.2969 23.2786 42.4296 23.2352 42.5606 23.2074C42.9545 23.1247 43.3664 23.2917 43.4655 23.6349C43.5695 23.9936 43.7112 24.3515 43.6023 24.7437C43.4975 25.1237 43.2272 25.3735 42.7776 25.3784C40.7073 25.3997 38.637 25.4128 36.5667 25.4292C36.4226 25.43 36.2784 25.4292 36.1146 25.4292C36.0786 25.6315 36.0459 25.8337 36.0065 26.0352C35.9017 26.5798 35.448 26.8795 34.9444 27.081C34.3686 27.3111 33.6537 26.8353 33.5587 26.2023C33.5202 25.9476 33.5194 25.6888 33.4997 25.4038C33.3335 25.4038 33.1615 25.3948 32.9912 25.4054C31.4409 25.5004 29.889 25.584 28.3404 25.7011C27.5943 25.7576 27.4674 25.7199 27.1897 25.1024C27.1758 25.0713 27.1537 25.041 27.1308 25.0148C26.5698 24.3678 27.1177 23.639 27.8596 23.544C28.4247 23.4719 29.0012 23.458 29.5737 23.4391C30.8463 23.3966 32.119 23.3663 33.3925 23.3302C33.4391 23.3286 33.485 23.322 33.5464 23.3155V22.9175C33.0272 22.9175 32.5006 22.9191 31.9732 22.9175C31.323 22.9158 30.6719 22.9314 30.0241 22.8995C29.6826 22.8823 29.3337 22.811 29.0103 22.7095C28.4853 22.544 28.2724 21.9257 28.532 21.4442C28.8571 20.8406 29.4558 20.5966 30.1511 20.5466C31.3606 20.459 32.5743 20.4156 33.824 20.3517C33.8347 20.2092 33.847 20.0356 33.8625 19.8202C33.3859 19.8505 32.9445 19.8915 32.5023 19.9046C31.7472 19.9258 30.9921 19.9316 30.237 19.9406C30.1019 19.9422 29.966 19.9291 29.8308 19.9242C29.3657 19.9078 28.8956 19.9242 28.437 19.8669C27.8473 19.794 27.4968 19.3141 27.5812 18.7883C27.6066 18.6278 27.5804 18.455 27.6369 18.3052C27.8007 17.8703 28.1422 17.5968 28.6745 17.5558C29.3993 17.5001 30.1257 17.4575 30.8349 17.4109C30.7399 17.0997 30.6473 16.7999 30.5515 16.4854C30.2624 16.5035 29.9545 16.537 29.6458 16.5379C29.0176 16.5403 28.3887 16.5379 27.7622 16.5117C27.3986 16.4961 27.1128 16.2136 27.0833 15.8721C27.062 15.6239 27.0587 15.3733 27.0734 15.1252C27.0964 14.7394 27.3199 14.4839 27.7466 14.4209C28.3862 14.3275 29.0324 14.2333 29.6785 14.2137C30.9217 14.176 32.1673 14.1899 33.4121 14.1826C33.4694 14.1826 33.5276 14.1826 33.6185 14.1826C33.5595 13.8484 33.5038 13.5331 33.44 13.1671C32.3573 13.2817 31.2992 13.3939 30.2411 13.5069C30.0675 13.5258 29.8947 13.5561 29.7211 13.5643C29.3403 13.5823 29.0356 13.4701 28.8661 13.1433C28.835 13.0835 28.7891 13.0246 28.7351 12.9795C28.2151 12.5455 28.0234 11.7617 28.301 11.1778C28.541 10.6734 28.9939 10.4301 29.5901 10.3859C30.7808 10.2983 31.9732 10.2172 33.1648 10.1427C33.3343 10.132 33.4219 10.0993 33.3867 9.91338L33.3875 9.9142ZM36.8951 16.4085C36.9074 16.3642 36.9197 16.3192 36.9451 16.2258C35.6749 16.2668 34.4423 16.3061 33.2074 16.3454C33.3007 16.7279 33.3802 17.053 33.4629 17.3887C34.4636 17.3887 35.4718 17.3912 36.4799 17.3822C36.5462 17.3822 36.6502 17.3019 36.6699 17.2422C36.7559 16.9825 36.8165 16.7156 36.8959 16.4085H36.8951Z" fill="#D90514"/>
<path d="M19.178 28.7042C19.1019 28.2939 19.2051 27.927 19.3967 27.5855C19.7079 27.031 20.0625 26.5012 20.5703 26.0598C21.8249 24.9681 22.6381 23.6545 23.0713 22.1501C23.3227 21.2787 23.5881 20.4107 23.8452 19.5409C23.8698 19.4582 23.8788 19.3722 23.9001 19.265C23.2703 19.1929 22.6455 19.1388 22.0288 19.0471C21.5047 18.9693 20.9846 18.8637 20.472 18.74C20.0199 18.6311 19.7963 18.2937 19.8905 17.885C20.0019 17.3994 20.1321 16.917 20.2738 16.4371C20.3876 16.0514 20.8438 15.7664 21.2942 15.7525C21.7504 15.7386 22.1607 15.8139 22.5742 16.0162C22.883 16.1677 23.2777 16.1792 23.6282 16.2684C24.1843 16.4101 24.7477 16.5387 25.2874 16.7213C26.2194 17.0382 26.6133 17.7245 26.7926 18.5435C27.1996 20.4008 26.8066 22.1583 25.9467 23.8576C25.7771 24.1926 25.5904 24.521 25.3922 24.8887C25.8721 25.2146 26.3406 25.5455 26.8262 25.8559C27.0842 26.0213 27.3905 26.1302 27.6427 26.3005C28.5042 26.882 29.487 27.1858 30.536 27.3734C31.5335 27.5519 32.513 27.8205 33.5162 27.9524C34.6185 28.0981 35.7388 28.2013 36.851 28.1981C38.1687 28.1948 39.4888 28.0859 40.8016 27.9696C41.8375 27.8778 42.7368 27.4463 43.5688 26.9107C43.9996 26.633 44.6138 26.6756 45.0855 27.0687C45.5449 27.452 45.8406 27.9172 45.7923 28.5052C45.7923 28.5133 45.7873 28.5232 45.7898 28.5305C46.0191 29.2479 45.5163 29.6197 44.9029 29.872C44.2125 30.1553 43.4885 30.3789 42.7671 30.5968C41.2798 31.0455 39.732 31.116 38.176 31.188C36.8313 31.2503 35.5136 31.1798 34.223 30.8596C32.6489 30.469 31.0815 30.0538 29.523 29.6173C29.0775 29.4928 28.6525 29.2856 28.252 29.067C27.2897 28.542 26.2783 28.1129 25.2063 27.805C24.9574 27.7337 24.6519 27.8033 24.3735 27.8254C24.0934 27.8475 23.8149 27.8918 23.5357 27.9229C23.2957 27.9499 23.118 28.0515 22.9387 28.2021C22.4416 28.6206 21.9379 29.0399 21.3917 29.4052C20.5047 29.9973 19.4507 29.6558 19.1772 28.7025L19.178 28.7042Z" fill="#D90514"/>
<path d="M20.2026 11.8789C20.2911 11.3138 20.5908 10.8625 21.0593 10.5243C21.4597 10.2352 21.902 9.98135 22.3581 9.76514C22.6857 9.60954 23.0362 9.69635 23.277 9.95678C24.3154 11.0787 25.353 12.2015 26.3701 13.3382C26.7804 13.7968 26.7026 14.4938 26.2383 14.9131C25.8919 15.2251 25.5414 15.5355 25.1712 15.8245C24.8559 16.0711 24.4997 16.076 24.1172 15.9105C23.4833 15.6362 22.9764 15.2349 22.5416 14.7525C21.8528 13.9868 21.1534 13.2285 20.4778 12.4538C20.3427 12.299 20.2919 12.086 20.2026 11.8789Z" fill="#D90514"/>
<path d="M36.0157 53.2399C35.0141 53.9515 33.9716 54.5715 32.8029 55.0039C32.5597 55.094 32.26 55.0629 31.9856 55.0891C31.8906 55.0981 31.7948 55.103 31.7014 55.121C31.2297 55.2095 30.7727 55.0498 30.541 54.7107C30.3109 54.3733 30.3207 53.9425 30.6532 53.6428C31.1445 53.1998 31.6932 52.8067 32.1985 52.3759C32.9077 51.7707 33.6038 51.1524 34.295 50.5316C34.3589 50.4735 34.4015 50.3375 34.3704 50.2646C33.499 48.2222 32.6842 46.165 32.0765 44.0464C31.8022 43.0915 31.4942 42.1439 31.1847 41.1383C29.4559 41.2488 27.6853 41.3618 25.9057 41.4749V43.7098C26.402 43.7343 26.8975 43.763 27.3929 43.7827C27.9793 43.8064 28.5665 43.8113 29.1512 43.8433C30.2028 43.9014 30.7826 44.401 30.9308 45.3247C31.2207 47.1346 31.1773 48.9134 30.4853 50.6659C30.1716 51.4603 29.9694 52.2858 29.4346 53.0032C28.8957 53.7272 28.2864 53.8303 27.4953 53.3201C26.9884 52.9934 26.4814 52.665 25.9549 52.3636C25.4348 52.0663 25.1547 51.6077 24.905 51.1483C24.5717 50.5349 25.1793 49.8388 25.9516 49.9027C26.3357 49.9346 26.7173 49.9862 27.1194 50.0304C27.5051 48.9748 27.6141 47.8668 27.4683 46.7382C27.4593 46.6703 27.3864 46.5761 27.3176 46.5523C26.7861 46.3705 26.248 46.2035 25.6912 46.0258C25.5429 46.7333 25.4348 47.377 25.2694 48.0084C24.7993 49.8101 24.0443 51.5168 23.0369 53.1375C22.7454 53.6068 22.4776 54.0891 22.2295 54.5772C22.0051 55.0186 21.6767 55.379 21.259 55.6795C20.9134 55.9277 20.5211 56.0047 20.1027 55.8343C19.6981 55.6697 19.5433 55.3732 19.4868 54.9867C19.4262 54.5682 19.6187 54.2341 19.7661 53.8623C20.0724 53.0892 20.3745 52.3022 20.5375 51.498C20.9757 49.3376 21.3835 47.1706 21.7111 44.9963C21.8372 44.1602 21.707 43.2946 21.7037 42.4429C21.6988 41.3119 21.7045 40.1809 21.7062 39.0508C21.7062 39.0221 21.7135 38.9934 21.7127 38.9648C21.6906 38.1786 21.8945 37.8936 22.7675 37.7429C24.6241 37.4211 26.5036 37.272 28.3978 37.3228C28.9915 37.3383 29.5844 37.3916 30.2363 37.4309C30.1978 36.9846 30.1528 36.5694 30.1282 36.1525C30.0922 35.5391 30.0463 34.9249 30.0488 34.3115C30.0512 33.658 30.7252 33.0184 31.4623 33.0602C32.3631 33.1109 33.2763 33.1511 34.1435 33.4393C34.7487 33.6408 35.0083 34.0306 35.1721 34.5613C35.4596 35.4908 35.5186 36.4309 35.4751 37.4153C35.8289 37.4153 36.1622 37.403 36.4939 37.4178C37.6208 37.4669 38.7469 37.5226 39.8737 37.5799C40.2423 37.5988 40.6108 37.6192 40.9777 37.6553C42.0652 37.7617 42.8359 38.2891 43.3756 39.1048C43.654 39.5258 43.5 40.0679 43.0209 40.416C42.6786 40.6649 42.27 40.7648 41.8433 40.7796C39.8688 40.8475 37.8935 40.9024 35.9182 40.963C35.7552 40.9679 35.5923 40.9737 35.4301 40.9818C35.3883 40.9843 35.3474 40.999 35.3122 41.0064C35.1451 43.1316 36.0165 45.0496 36.7486 46.9946C36.7896 47.0028 36.8305 47.0118 36.8715 47.02C37.1679 46.3615 37.4767 45.7072 37.7567 45.043C37.9672 44.5451 38.1441 44.0357 38.3308 43.5304C38.4725 43.148 38.8115 42.8908 39.2571 42.8671C39.7075 42.8433 40.135 42.9023 40.5305 43.1324C40.7778 43.2765 41.0661 43.3756 41.3495 43.4592C42.4952 43.7982 42.618 44.5279 42.2225 45.3337C41.7843 46.228 41.2954 47.1084 40.7516 47.956C40.1751 48.8544 39.5158 49.711 38.8746 50.575C38.7509 50.7421 38.7067 50.8494 38.859 51.0213C39.3455 51.5717 39.8123 52.1359 40.3454 52.7641C40.4912 52.4455 40.5985 52.2129 40.7041 51.9803C40.9662 51.403 41.2111 50.8199 41.4952 50.2515C41.6164 50.0091 41.7958 49.7831 41.9866 49.5767C42.5181 49.0035 43.3641 49.0436 43.8284 49.6619C44.2273 50.1926 44.4205 50.7945 44.4705 51.4226C44.5671 52.6461 44.2838 53.8025 43.6376 54.8933C43.197 55.6361 42.4624 56.0562 41.6312 56.3707C41.2782 56.5042 40.9056 56.4723 40.5502 56.3462C39.7075 56.0472 38.9434 55.641 38.2784 55.0874C37.5299 54.465 36.7093 53.9 36.3424 52.986C36.2081 53.09 36.118 53.1596 36.0107 53.2415L36.0157 53.2399Z" fill="#D90514"/>
<path d="M40.9351 33.147C41.8343 33.4942 42.2364 34.1182 42.3224 34.9315C42.3346 35.0461 42.3576 35.1616 42.351 35.2754C42.3428 35.4261 42.3428 35.5874 42.2839 35.725C41.7909 36.8683 39.9712 37.1336 39.0777 36.2066C38.8541 35.974 38.583 35.7766 38.3283 35.5686C37.5626 34.9421 37.5078 34.3148 38.1121 33.5597C38.8484 32.6392 39.6272 32.5868 40.768 33.0749C40.8163 33.0954 40.8654 33.1167 40.9351 33.1478V33.147Z" fill="#D90514"/>
</g>
<defs>
<clipPath id="clip0_89_33">
<rect width="65" height="65" fill="white"/>
</clipPath>
</defs>
</svg>
