<svg width="65" height="61" viewBox="0 0 65 61" fill="none" xmlns="http://www.w3.org/2000/svg">
<path d="M58.8511 6.14817L58.8512 6.14829C59.8948 7.19145 61.4697 7.97302 63.0795 8.49957C61.4699 9.02634 59.8948 9.80769 58.8516 10.8508L58.8515 10.8509C57.8085 11.8945 57.027 13.4694 56.5005 15.0792C55.9737 13.4697 55.192 11.8949 54.1488 10.8518C53.1055 9.80815 51.5306 9.02673 49.9207 8.50031C51.5302 7.97343 53.1052 7.19197 54.1483 6.14921L54.1484 6.14915C55.192 5.10561 55.9732 3.53066 56.4998 1.9209C57.0264 3.53032 57.808 5.10477 58.8511 6.14817Z" fill="#FFD483" stroke="#634C37"/>
<path d="M8.8741 52.1258L8.87392 52.1256C8.05688 51.3082 7.43431 50.1046 6.99976 48.8574C6.56572 50.1044 5.94407 51.3083 5.12607 52.1263L5.12588 52.1265C4.30794 52.9434 3.10408 53.5656 1.85692 54.0001C3.10414 54.4343 4.3079 55.0563 5.12597 55.8742L8.8741 52.1258ZM8.8741 52.1258C9.69209 52.9432 10.8962 53.5653 12.1433 53.9995C10.8962 54.434 9.69216 55.0562 8.87453 55.8737L8.87442 55.8738C8.05699 56.6917 7.43487 57.8952 7.00068 59.1424M8.8741 52.1258L7.00068 59.1424M7.00068 59.1424C6.56624 57.8954 5.94399 56.6918 5.12607 55.8743L7.00068 59.1424Z" fill="#FFD483" stroke="#634C37"/>
<g clip-path="url(#clip0_208_13)">
<path d="M13.1274 36.4369C13.1274 36.4369 13.1244 36.4394 13.1232 36.44C13.1274 36.44 13.1317 36.44 13.136 36.44L13.1274 36.4363V36.4369Z" fill="#D90514"/>
<path d="M21.1372 47.3276L21.0245 47.4408C21.257 47.5787 21.492 47.7125 21.7302 47.8406C21.7271 47.8235 21.7426 47.8106 21.8288 47.8096C21.8562 47.822 21.8304 47.8349 21.8573 47.8478L22.0133 47.7703C22.0164 47.8204 22.1 47.9077 21.9947 47.9088L21.9931 47.884L21.8505 47.9041C22.317 48.15 22.7938 48.3778 23.283 48.5844C24.0919 48.9264 24.9184 49.2085 25.7594 49.4306C25.763 49.4249 25.7682 49.4187 25.7749 49.412C25.8798 49.4425 25.9056 49.4492 25.8839 49.4631C25.9139 49.4709 25.9443 49.4786 25.9743 49.4859C26.0755 49.445 26.0947 49.3448 26.0347 49.2828L25.9283 49.2844C26.1024 49.2224 25.9123 49.1072 26.0275 48.9863C26.0239 48.9853 26.0198 48.9843 26.0161 48.9832L25.7594 49.1103L25.7842 49.0721L25.982 48.9739C25.1307 48.7539 24.2944 48.4718 23.4772 48.1257C22.6269 47.7662 21.8118 47.3442 21.0333 46.8638C20.9837 46.9154 21.0721 47.1014 20.8546 47.0037C20.9868 46.9893 20.9564 46.9025 21.0333 46.8632C19.8447 46.1297 18.7434 45.2598 17.7423 44.2582C16.0851 42.601 14.7839 40.6711 13.8752 38.5227C13.6536 37.9984 13.4584 37.4669 13.2884 36.9281C13.2363 36.9276 13.182 36.9048 13.105 36.9178L13.1102 36.9932L13.0022 36.9694C12.932 36.8981 13.1118 36.8413 13.2523 36.815C13.2347 36.7576 13.2187 36.7003 13.2016 36.6429C13.0957 36.6745 12.9692 36.7075 12.9372 36.769C12.8266 36.6946 13.1944 36.5897 13.0823 36.4906C13.0028 36.4787 12.9527 36.5546 12.8705 36.5179C12.9449 36.4993 13.0043 36.4632 13.0611 36.4466C13.0431 36.3593 12.8209 36.5045 12.791 36.4002L13.0606 36.4064L12.9692 36.3655C12.9924 36.3299 13.0462 36.3408 13.1133 36.3568C13.0797 36.3397 13.0224 36.3284 12.9583 36.3211L12.947 36.3222V36.3201C12.9279 36.318 12.9093 36.3165 12.8901 36.3154L12.8359 36.3547L12.8395 36.3134C12.8116 36.3123 12.7848 36.3118 12.7605 36.3123C12.7972 36.3015 12.823 36.2896 12.8426 36.2772L12.8524 36.1662L12.9356 36.1749C12.9356 36.1749 12.9372 36.1729 12.9382 36.1724V36.1754L13.0663 36.1889L12.9444 36.2767L12.947 36.3206C12.9511 36.3206 12.9547 36.3211 12.9589 36.3216L13.105 36.3087C13.0864 36.2411 13.0684 36.1734 13.0503 36.1052C12.9485 36.0835 12.7868 36.1036 12.8452 36.0153C12.7001 35.9507 12.8039 35.8629 12.9749 35.8071C12.6319 34.4072 12.4573 32.967 12.4573 31.5C12.4573 30.6404 12.5177 29.7902 12.636 28.9518C12.6293 28.9543 12.6226 28.9574 12.6148 28.96C12.6122 28.9652 12.604 28.9683 12.5854 28.9688C12.5962 28.9662 12.606 28.9631 12.6148 28.96C12.6272 28.9363 12.5115 28.8701 12.6494 28.8557C12.87 27.3514 13.2791 25.8864 13.8752 24.4773C14.7839 22.3288 16.0851 20.3989 17.7423 18.7418C18.4753 18.0088 19.262 17.3455 20.0968 16.7551C20.0952 16.7546 20.0932 16.7546 20.0916 16.7535H20.0978C20.1577 16.7117 20.2187 16.6704 20.2797 16.6285C20.2724 16.6187 20.2611 16.6089 20.243 16.6011C20.1655 16.6399 19.7915 16.6192 19.9831 16.7292C19.8767 16.7055 19.9511 16.6172 19.9496 16.567L20.0312 16.6037C20.4558 16.5732 19.9955 16.4405 20.1769 16.3506L20.2869 16.3997C20.4961 16.3217 20.1986 16.2375 20.0131 16.2773C20.0364 16.2142 20.2249 16.2494 20.306 16.2612C20.4109 16.2349 20.5121 16.1331 20.3251 16.1223L20.275 16.1734C20.2337 16.1466 20.2063 16.1181 20.1872 16.0897C19.9274 16.2638 19.6717 16.4446 19.4206 16.6321C19.4345 16.6388 19.4521 16.6445 19.4748 16.6487C19.4521 16.6487 19.4299 16.6461 19.4092 16.6409C18.6995 17.1719 18.0254 17.7557 17.391 18.3905C16.5237 19.2578 15.7519 20.1985 15.0794 21.2038C15.067 21.2224 15.0551 21.241 15.0427 21.259C15.1135 21.2503 15.1749 21.2456 15.1899 21.2771L14.9321 21.431C14.9321 21.431 14.9306 21.431 14.9296 21.431C14.4724 22.1367 14.0643 22.8738 13.7053 23.6399L13.7161 23.6342L13.6449 23.799L13.8329 23.8346C13.8597 23.9266 13.6846 23.8956 13.5777 23.9157C13.5229 24.0377 13.4692 24.1601 13.417 24.2835C12.7843 25.779 12.356 27.3354 12.1354 28.9337C12.1504 28.943 12.1737 28.9487 12.2119 28.9481L12.1267 28.9998C12.0161 29.8232 11.9603 30.6575 11.9603 31.5C11.9603 32.3425 12.0141 33.1463 12.121 33.9547C12.1613 33.9072 12.2124 33.8664 12.3116 33.8524C12.3663 33.8762 12.4221 33.9258 12.5012 33.9124C12.3038 33.9527 12.2615 34.103 12.153 34.183C12.183 34.3886 12.216 34.5937 12.2527 34.7978C12.3348 34.8081 12.4299 34.8329 12.5208 34.8453C12.527 34.8427 12.5332 34.8401 12.5389 34.8375C12.5291 34.8138 12.5456 34.7952 12.5229 34.7833L12.4867 34.774C12.5043 34.7766 12.5156 34.7797 12.5229 34.7833L12.6221 34.8096C12.5942 34.8158 12.5668 34.8257 12.5384 34.8375C12.5399 34.8412 12.5415 34.8448 12.5446 34.8484C12.5363 34.8474 12.5286 34.8463 12.5203 34.8453C12.4485 34.8778 12.3725 34.9248 12.2832 34.9687C12.4082 35.6294 12.5694 36.2819 12.7662 36.925C12.7936 36.9224 12.8261 36.9178 12.8648 36.9079L12.7719 36.9451C12.9558 37.5444 13.1712 38.1353 13.417 38.717C14.351 40.9248 15.6879 42.9079 17.3905 44.6105C18.077 45.297 18.81 45.9231 19.5844 46.4887C19.6195 46.4877 19.6618 46.4898 19.7099 46.4887L19.6355 46.5254C19.6779 46.5564 19.7202 46.5879 19.7631 46.6184C19.8282 46.5889 19.9036 46.5667 20.0353 46.5858C19.9181 46.5791 19.855 46.6267 19.8044 46.6478C20.024 46.8033 20.2466 46.9531 20.4723 47.0988C20.5224 47.0849 20.571 47.0678 20.618 47.044C20.8365 47.1169 20.9998 47.2161 21.1392 47.3276H21.1372ZM13.0663 25.4784L13.2016 25.5145L13.0208 25.6297L13.0663 25.4784ZM12.2729 30.1295L12.1887 30.0422L12.3787 30.1027L12.2729 30.1295ZM12.3803 28.1154L12.5089 28.0261L12.4118 28.2033L12.3798 28.1154H12.3803ZM12.5988 35.7989C12.5719 35.787 12.5172 35.7622 12.5704 35.7364C12.6221 35.7359 12.6732 35.6857 12.7274 35.71L12.5988 35.7989ZM19.652 46.4149C19.4387 46.4164 19.5404 46.3146 19.5373 46.2645L19.6965 46.2625L19.6515 46.4149H19.652ZM20.5545 46.8689C20.3742 46.9593 20.6376 46.9309 20.7187 46.9423L20.4842 47.0327C20.4537 46.9707 20.3979 46.9211 20.5545 46.8689Z" fill="#D90514"/>
<path d="M37.5135 48.6692C37.4933 48.6754 37.4732 48.6831 37.4546 48.6929C37.4742 48.6852 37.4938 48.6769 37.5135 48.6692Z" fill="#D90514"/>
<path d="M20.7389 15.9151L20.9135 15.9136C20.9342 15.8609 20.946 15.8098 20.9434 15.7622L21.0054 15.9126L20.9135 15.9136C20.8479 16.082 20.6929 16.2638 20.632 16.3909C21.1542 16.0495 21.6935 15.7343 22.2504 15.4482C22.1734 15.4001 22.0468 15.3686 22.0122 15.3092L22.2194 15.2059C21.9311 15.1785 22.1672 15.0494 22.0732 14.9791C21.8795 15.0778 21.6883 15.1811 21.4982 15.2865C21.4993 15.2865 21.5008 15.2865 21.5019 15.287L21.8242 15.2736C21.8077 15.3402 21.5168 15.3955 21.4683 15.4394C21.4605 15.4523 21.4698 15.4652 21.5153 15.4781C21.4621 15.4662 21.4528 15.4533 21.4683 15.4394C21.4889 15.4058 21.6346 15.3717 21.6134 15.3263C21.5768 15.3263 21.5504 15.2968 21.5024 15.287H21.4977C21.2343 15.4337 20.9744 15.5861 20.7187 15.7452L20.7833 15.7385C20.8143 15.801 20.7626 15.8516 20.7394 15.9151H20.7389ZM21.2983 15.4301C21.381 15.4673 21.2777 15.5184 21.2529 15.5566C21.3035 15.5055 21.1413 15.4575 21.2983 15.4301Z" fill="#D90514"/>
<path d="M22.3372 14.9156C22.128 14.9683 22.4281 15.1284 22.1316 15.069C22.1874 15.1186 22.4033 15.1661 22.4529 15.0902C22.5412 15.2529 22.0846 15.1702 22.1486 15.3707C22.3356 15.4058 22.331 15.2818 22.5407 15.303C22.8481 15.1522 23.1596 15.0086 23.4767 14.8743C23.7929 14.7405 24.1121 14.6175 24.4334 14.5023C24.373 14.4972 24.2568 14.5225 24.1813 14.5416L24.3074 14.4016C24.3611 14.4264 24.4117 14.3752 24.4933 14.3871L24.4789 14.4868C25.4903 14.1283 26.5281 13.8628 27.585 13.6913C27.5866 13.6794 27.5824 13.6681 27.5767 13.6583H27.5705V13.6484C27.5597 13.6329 27.5494 13.6252 27.5705 13.634V13.6484C27.5731 13.6515 27.5752 13.6546 27.5773 13.6583L27.8893 13.6304C27.882 13.6366 27.8717 13.6428 27.8603 13.6484C28.7282 13.5214 29.6094 13.4568 30.5 13.4568C32.2496 13.4568 33.961 13.7042 35.6109 14.1913C35.7328 14.0488 35.8516 13.8649 35.8888 13.8081C35.8656 13.8711 36.1022 13.8055 36.1068 13.9057L36.1848 13.8675C36.4044 13.9656 36.0035 13.9579 36.1693 14.0818C36.7577 14.1252 36.22 14.5214 36.6446 14.491C36.6332 14.5013 36.6224 14.5101 36.6115 14.5183C36.9178 14.6289 37.2221 14.7472 37.5238 14.8748C39.6722 15.7834 41.6021 17.0846 43.2592 18.7418C44.3719 19.8545 45.3234 21.0906 46.104 22.4327C46.1262 22.3903 46.1814 22.3511 46.2734 22.3278C46.0161 22.4301 46.3509 22.4647 46.1866 22.5758C46.5353 23.1884 46.8489 23.8222 47.1257 24.4767C48.0664 26.7011 48.5437 29.0639 48.5437 31.5C48.5437 31.7345 48.538 31.9685 48.5292 32.2015C48.7927 32.1963 48.9291 32.0816 49.0355 31.984C49.0381 31.8879 49.0396 31.7913 49.0407 31.6953C48.9632 31.6823 48.8227 31.7872 48.8165 31.6694C48.9776 31.6927 48.9198 31.6178 48.9451 31.5801C48.8733 31.486 48.9534 31.4432 49.0412 31.3869C49.0272 29.0577 48.5887 26.7935 47.7353 24.6503C47.7317 24.6467 47.7301 24.6431 47.7306 24.6384C47.6831 24.5196 47.6351 24.4008 47.585 24.283C46.651 22.0752 45.3141 20.0921 43.6115 18.3895C42.5004 17.2784 41.2694 16.3243 39.9351 15.5349C39.8282 15.5995 39.558 15.6445 39.854 15.7364L39.5849 15.7137C39.604 15.738 39.59 15.7674 39.5921 15.7922L39.619 15.8273C39.5993 15.8185 39.5931 15.8061 39.5921 15.7922L39.4516 15.6083L39.3953 15.6279L39.4475 15.6031L39.4516 15.6088L39.7352 15.5112C39.79 15.4843 39.7967 15.4631 39.7822 15.4445C39.7559 15.429 39.7295 15.4135 39.7032 15.3986C39.682 15.3888 39.6624 15.3795 39.652 15.3702C39.029 15.0163 38.3844 14.6976 37.719 14.4166C35.4332 13.4496 33.0048 12.9593 30.5021 12.9593C27.9993 12.9593 25.5709 13.4496 23.2851 14.4166C23.2303 14.4398 23.1761 14.4646 23.1213 14.4884C23.1828 14.5927 22.8791 14.6217 22.752 14.6599C22.6234 14.7492 22.8625 14.7337 22.8109 14.7596L22.519 14.7756C22.534 14.7632 22.5516 14.7508 22.5702 14.7379C22.473 14.7839 22.3764 14.8309 22.2804 14.8784C22.3015 14.882 22.3212 14.8928 22.3393 14.9166L22.3372 14.9156ZM48.2255 26.5435C48.4161 26.605 48.1568 26.7331 48.0478 26.7093L48.2255 26.5435ZM46.3121 22.5654C46.3132 22.5913 46.2889 22.6285 46.3684 22.6409C46.4935 22.6739 46.6758 22.569 46.6644 22.552C46.6619 22.5515 46.6593 22.5499 46.6572 22.5494C46.6619 22.5494 46.6634 22.5505 46.6644 22.552C46.7683 22.584 46.8509 22.7865 46.6458 22.8387C46.5875 22.7638 46.7672 22.6228 46.4495 22.6522C46.4263 22.7158 46.5317 22.6894 46.5332 22.7395L46.292 22.7044C46.2894 22.6543 46.2595 22.5918 46.3121 22.5654ZM30.8657 13.0895C30.9122 13.0854 30.9597 13.0761 30.9747 13.0528C30.9959 13.0978 30.9324 13.0916 30.8657 13.0895C30.8378 13.0921 30.8105 13.0921 30.7903 13.0921C30.8125 13.0885 30.8394 13.0885 30.8657 13.0895ZM23.4736 14.7384L23.3967 14.8024L23.3388 14.7275L23.4736 14.7384Z" fill="#D90514"/>
<path d="M22.9968 14.5411C22.9395 14.5664 22.8821 14.5917 22.8253 14.6175C22.9348 14.6232 22.957 14.5819 22.9968 14.5411Z" fill="#D90514"/>
<path d="M49.0409 31.6487C49.0409 31.6377 49.0409 31.6262 49.0409 31.6152C49.0359 31.6262 49.0365 31.6372 49.0409 31.6487Z" fill="#D90514"/>
<path d="M48.7752 32.9283C48.8021 32.9149 48.8558 32.9144 48.8826 32.9268C48.6987 32.9924 48.5882 32.8927 48.5691 33.0316C48.7824 33.0544 48.5753 33.1572 48.8656 33.1158C48.8486 33.2791 48.7034 33.042 48.5753 33.1572C48.5515 33.1949 48.6579 33.1938 48.7106 33.1933C48.6321 33.2321 48.6621 33.2692 48.6114 33.3204C48.6466 33.3204 48.6936 33.3245 48.7287 33.3163C48.7401 33.3085 48.753 33.3008 48.7685 33.2925C48.7607 33.3054 48.7458 33.3121 48.7287 33.3163C48.6838 33.3472 48.6724 33.3772 48.6946 33.4067H48.7494L48.6213 33.5213C48.5619 33.5079 48.5014 33.4867 48.4374 33.4733C48.3656 34.1345 48.2581 34.7885 48.1145 35.4342C48.1145 35.4357 48.1145 35.4368 48.1135 35.4383C48.0866 35.5602 48.0577 35.6811 48.0277 35.8025C48.0406 35.8319 48.0546 35.8619 48.0122 35.8666C48.006 35.8919 48.0003 35.9177 47.9936 35.9435C48.0598 35.9446 48.0907 35.973 48.1424 36.0546C48.0794 36.0856 48.0499 36.0169 47.9854 35.9761C47.974 36.0205 47.9616 36.0644 47.9497 36.1088C47.9745 36.1217 48.0133 36.1248 48.0923 36.1052C48.0417 36.1646 48.0102 36.1341 47.9482 36.1155C47.7322 36.9333 47.459 37.737 47.1263 38.5227C46.5715 39.8348 45.8695 41.0648 45.0301 42.2012C45.0631 42.1986 45.0285 42.225 45.1287 42.2136C45.075 42.258 45.0451 42.2539 44.9965 42.2477C44.4706 42.9554 43.891 43.6264 43.2598 44.2582C42.642 44.876 41.9859 45.4448 41.2948 45.9618C41.3211 45.9618 41.35 45.9613 41.3841 45.9577L41.2839 46.059L41.2085 46.0254C40.9141 46.2429 40.6129 46.4515 40.3061 46.6504C40.4316 46.7615 40.5494 46.9103 40.3464 46.9888C40.2658 46.9774 40.1279 46.8653 39.9713 46.9428C39.9465 46.9805 40.0555 47.0048 40.0808 47.0167C39.8484 47.1329 39.821 47.12 39.4765 47.1623C39.477 47.1603 39.478 47.1582 39.4785 47.1561C38.8499 47.5172 38.198 47.8406 37.5243 48.1252C35.3 49.0659 32.9372 49.5432 30.5011 49.5432C30.2981 49.5432 30.0956 49.5386 29.8936 49.5318C29.9742 49.5845 30.0842 49.6362 29.8378 49.6651L29.8564 49.5303C29.3672 49.5132 28.8816 49.4771 28.3992 49.4213C28.395 49.5943 28.4209 49.7731 27.9818 49.8377C28.269 49.7209 28.0272 49.6863 28.286 49.5318C28.1776 49.5081 28.0221 49.5856 28.0743 49.5597C28.0712 49.5029 28.0696 49.442 28.0743 49.3805C27.4895 49.302 26.9099 49.195 26.3376 49.0597C26.2348 49.1661 26.0095 49.2932 26.3603 49.3784L26.4052 49.2276C26.5679 49.2503 26.5741 49.3758 26.5462 49.364C26.3386 49.4668 26.197 49.3056 26.179 49.4688C26.3117 49.4802 26.2399 49.6191 26.5018 49.5406C26.4889 49.5654 26.4682 49.583 26.4419 49.5959C26.9786 49.7157 27.521 49.8118 28.0686 49.8831L28.0644 49.8743C28.1435 49.8604 28.1956 49.8351 28.2499 49.8593C28.2654 49.8826 28.2731 49.8981 28.2752 49.9089C29.0092 49.9962 29.7515 50.0407 30.5011 50.0407C32.9021 50.0407 35.2344 49.5892 37.4386 48.6986C37.3895 48.6568 37.061 48.6976 37.077 48.6113L37.3079 48.445C37.3151 48.5958 37.5207 48.4424 37.6313 48.5163C37.6561 48.5679 37.653 48.5979 37.6354 48.6175C37.6633 48.6061 37.6912 48.5948 37.7191 48.5829C37.9531 48.4837 38.1845 48.3794 38.4134 48.2714C38.3865 48.2601 38.356 48.2647 38.3131 48.3076L38.2506 48.1319L38.011 48.1469L38.2682 47.9429C38.2723 48.0431 38.4542 47.9537 38.5105 48.0028L38.3302 48.1428C38.4893 48.166 38.6112 47.9821 38.7243 48.1201C38.7259 48.119 38.7274 48.1185 38.729 48.1175L38.7243 48.0245C38.7729 48.0379 38.8085 48.0514 38.8349 48.0648C40.5984 47.1773 42.2014 46.0192 43.6116 44.6084C44.6375 43.5825 45.5291 42.4549 46.2812 41.2378C46.2399 41.2476 46.1872 41.2482 46.1164 41.2327C46.3158 41.1774 46.2481 41.0896 46.3675 41.0994C46.8288 40.338 47.2353 39.5424 47.585 38.7149C48.3981 36.7928 48.8739 34.7704 49.0051 32.6876C48.9338 32.748 48.94 32.8606 48.7762 32.9257L48.7752 32.9283ZM41.7344 46.0419L41.8088 45.9525C41.8356 45.9396 41.8888 45.9391 41.8899 45.9644L41.7344 46.0419ZM44.5259 43.5128C44.5393 43.6135 44.5006 43.707 44.3007 43.7091C44.0378 43.5908 44.4025 43.5908 44.5259 43.5128C44.5176 43.4524 44.4908 43.3893 44.4686 43.3428C44.5884 43.427 44.5817 43.4782 44.5259 43.5128ZM48.7421 33.7967C48.5309 33.8246 48.6925 33.8726 48.5288 33.7998C48.4978 33.7114 48.7654 33.7342 48.6812 33.6469C48.5495 33.6608 48.4937 33.637 48.4647 33.5735C48.5464 33.6107 48.8108 33.5823 48.6812 33.6469L48.8656 33.6319L48.7421 33.7967Z" fill="#D90514"/>
<path d="M48.7261 32.5135L48.9942 32.5104L48.8103 32.5755C48.8562 32.5962 48.9435 32.5962 49.0107 32.5786C49.0133 32.5352 49.0159 32.4918 49.0179 32.4484C48.9193 32.4334 48.8139 32.4045 48.7488 32.3988L48.7266 32.5125L48.7261 32.5135Z" fill="#D90514"/>
<path d="M13.0447 36.0876C13.0406 36.0722 13.0364 36.0572 13.0323 36.0417C13.0189 36.0592 13.0178 36.0752 13.0447 36.0876Z" fill="#D90514"/>
<path d="M48.4724 33.1019C48.4662 33.1701 48.4615 33.2383 48.4548 33.3064C48.4946 33.2393 48.4982 33.1675 48.4724 33.1019Z" fill="#D90514"/>
<path d="M22.3609 15.3681L22.3785 15.3836C22.4043 15.3707 22.4302 15.3583 22.4555 15.3454C22.4074 15.3335 22.3584 15.317 22.3609 15.3681Z" fill="#D90514"/>
<path d="M39.7496 46.9965C39.6876 47.0337 39.6251 47.0704 39.5626 47.1071C39.6122 47.1019 39.6856 47.0978 39.7915 47.0585C39.7915 47.0394 39.7884 47.0053 39.7501 46.9965H39.7496Z" fill="#D90514"/>
<path d="M40.2775 46.6685C40.2135 46.7098 40.1489 46.7506 40.0844 46.7909L40.3339 46.7873L40.277 46.6685H40.2775Z" fill="#D90514"/>
<path d="M26.7936 51.5377C26.9217 51.4483 27.3292 51.6069 27.0694 51.7107C27.0648 51.7112 27.0606 51.7118 27.056 51.7123C28.1857 51.9034 29.3361 51.9995 30.501 51.9995C31.343 51.9995 32.1767 51.9489 33.0012 51.8492L32.8782 51.8316C32.8989 51.7195 33.1587 51.7634 33.1949 51.8249C33.1995 51.8244 33.2037 51.8238 33.2083 51.8233L33.4578 51.7241C33.4371 51.7675 33.3808 51.7908 33.3261 51.8078C35.0974 51.564 36.8227 51.0898 38.4804 50.3888C38.7402 50.2788 38.9965 50.1631 39.2506 50.0427C39.2279 50.0236 39.2181 49.9998 39.2253 49.9704L39.3059 49.9818L39.3074 50.0159C40.5999 49.4011 41.8164 48.6562 42.9487 47.7889C42.9342 47.7249 43.0582 47.6133 43.0934 47.5596C43.1151 47.588 43.1295 47.6148 43.1429 47.6402C43.7897 47.1324 44.4085 46.5833 44.9964 45.9954C45.7227 45.2691 46.3885 44.4958 46.9919 43.6807L46.8328 43.7173L46.8834 43.6662L47.0089 43.6579C47.962 42.367 48.7596 40.9697 49.3898 39.4794C50.4591 36.9519 51.001 34.2667 51.001 31.4995C51.001 29.4761 50.7107 27.4966 50.1368 25.5899L49.9353 25.5925L49.9337 25.5672L50.1362 25.5889C50.0267 25.2258 49.9074 24.8657 49.7777 24.5083C49.6972 24.4886 49.6088 24.4711 49.6047 24.3889L49.7364 24.3962C49.6274 24.1022 49.5122 23.8099 49.3898 23.5201C49.1837 23.0324 48.9585 22.5546 48.7167 22.0871C48.7095 22.1574 48.7224 22.2493 48.5555 22.1749C48.6645 22.163 48.663 22.1021 48.7017 22.0592C47.7363 20.1985 46.495 18.5026 44.9964 17.0041C44.2892 16.2969 43.5386 15.647 42.7473 15.0561C42.6997 15.0861 42.6124 15.1041 42.5639 15.1124L42.7044 15.0251C41.4006 14.057 39.9883 13.2486 38.4804 12.6112C37.564 12.2237 36.6275 11.9055 35.6734 11.6576L35.5639 11.6731L35.6217 11.6442C35.5422 11.6235 35.4621 11.6034 35.382 11.5842C35.3722 11.607 35.3701 11.6152 35.2389 11.6013L35.3237 11.5698C33.7554 11.1911 32.1426 11 30.5005 11C28.5509 11 26.6422 11.2696 24.8006 11.8022C25.0982 11.9665 24.374 12.0042 24.5093 12.1349L24.2639 12.0497C24.3084 12.3885 23.7556 12.5084 23.7215 12.8612C23.3951 12.7145 24.0454 12.4423 23.5893 12.3849C23.7722 12.2945 23.7592 12.0683 24.08 12.0894C24.1012 12.0626 24.1043 12.0399 24.0976 12.0197C23.5661 12.1948 23.0402 12.3916 22.521 12.6112C20.1531 13.6128 18.0202 15.0349 16.176 16.8372C16.1936 16.8434 16.2122 16.8512 16.236 16.862L16.127 16.8853C16.0861 16.925 16.0453 16.9643 16.005 17.0046C15.225 17.7846 14.5153 18.6189 13.8773 19.5012C13.8902 19.5037 13.9052 19.5058 13.9238 19.5053L14.1826 19.3514C14.1278 19.3271 14.0772 19.3777 13.9966 19.3663L14.1072 19.2434C14.1036 19.2418 14.1005 19.2408 14.0968 19.2393C14.1025 19.2377 14.1087 19.2362 14.1149 19.2346L14.2482 19.0864C14.2497 19.1117 14.2766 19.0988 14.3293 19.0977C14.4068 19.1566 14.2244 19.2067 14.1149 19.2346L14.1072 19.2434C14.3355 19.3271 14.1847 19.404 14.1655 19.5409C14.0984 19.574 13.9501 19.5502 13.8339 19.5606C13.3199 20.2765 12.8529 21.0245 12.435 21.8025C12.513 21.9073 12.4531 22.1 12.387 22.178C12.3483 22.1274 12.3519 22.0608 12.3312 21.9998C12.0719 22.4952 11.8317 23.0019 11.6122 23.5201C10.9587 25.0651 10.5026 26.6691 10.2463 28.3143C10.2567 28.3133 10.2675 28.3128 10.2784 28.3128C10.2965 28.3045 10.3228 28.303 10.3677 28.3148C10.3424 28.3148 10.3104 28.3128 10.2784 28.3128C10.2624 28.32 10.2525 28.3319 10.2417 28.3443C10.095 29.2922 10.0149 30.2535 10.0025 31.2252C10.0258 31.2701 10.0573 31.3161 10.1027 31.3621C10.0816 31.3869 10.0433 31.3998 10.0015 31.4086C10.0015 31.439 10.001 31.4695 10.001 31.5C10.001 31.5103 10.001 31.5201 10.001 31.5305C10.0118 31.5367 10.0222 31.5434 10.0315 31.5522C10.0211 31.5522 10.0113 31.5527 10.0015 31.5532C10.0015 31.6674 10.003 31.7815 10.0051 31.8957C10.0351 31.8859 10.0655 31.8724 10.1027 31.8776L10.0072 32.0248C10.0211 32.5765 10.0568 33.1251 10.1136 33.6691C10.1213 33.6489 10.1301 33.6298 10.1404 33.6138C10.2634 33.6877 10.1787 33.7636 10.1296 33.8184C10.1776 34.2471 10.2391 34.6728 10.314 35.0958C10.3791 35.0803 10.453 35.0736 10.5201 35.0901C10.4964 35.0581 10.4623 35.0266 10.4209 34.9992C10.5506 34.9605 10.4933 34.8598 10.6224 34.7962L10.7634 34.9078L10.8151 34.8737C10.7066 34.8071 10.6219 34.6981 10.6772 34.6201C10.6513 34.5643 10.656 34.5209 10.8993 34.5038C10.8425 34.5085 10.829 34.523 10.8363 34.5436C10.8502 34.541 10.8647 34.5385 10.8807 34.5364C10.9086 34.5483 10.9644 34.5979 11.016 34.572L10.9298 34.6588C10.9329 34.6635 10.9354 34.6681 10.9375 34.6728C11.0388 34.6738 10.9819 34.7688 11.1023 34.6846C11.125 34.7316 11.0124 34.7735 10.9112 34.8236C10.8791 34.8773 10.7335 34.9615 10.9246 34.9817L10.6859 34.9972C10.6653 35.1103 10.7464 35.1222 10.5403 35.2503C10.5635 35.2152 10.5625 35.1743 10.5444 35.1335L10.3641 35.3717C10.3652 35.3763 10.3662 35.3815 10.3667 35.3861C10.5253 35.4151 10.7283 35.3469 10.7386 35.4853C10.7479 35.4812 10.7572 35.4776 10.765 35.4734L10.7392 35.4869C10.7392 35.4869 10.7392 35.4858 10.7392 35.4853C10.6849 35.5075 10.6126 35.5318 10.6364 35.5638C10.767 35.5246 10.8027 35.6873 10.9101 35.6863C10.6994 35.739 10.7216 35.6506 10.5341 35.6403C10.5041 35.6501 10.4659 35.663 10.4256 35.678C10.6947 36.9772 11.0904 38.2474 11.6116 39.4799C11.7356 39.7739 11.8668 40.0637 12.0037 40.3498L12.0332 40.3395C12.2408 40.2367 11.7594 40.2171 12.0223 40.1386C11.9474 40.2274 12.215 40.2496 12.2718 40.324C12.2599 40.3726 12.1174 40.4077 12.0512 40.448C12.0672 40.481 12.0843 40.5141 12.1003 40.5472C12.1153 40.5528 12.1323 40.5585 12.152 40.5647L12.1075 40.5611C12.2641 40.8788 12.4288 41.1918 12.6009 41.5002L12.6241 41.4393L12.76 41.5008L12.6024 41.5023C12.7863 41.8314 12.9785 42.1547 13.1799 42.4729L13.2083 42.4388C13.2352 42.4259 13.2884 42.4254 13.2894 42.4507L13.1949 42.4977C13.3101 42.6785 13.4284 42.8573 13.5493 43.0344L13.6443 42.9285C13.6407 42.927 13.6376 42.926 13.634 42.9244C13.6397 42.9229 13.6459 42.9213 13.6521 42.9198L13.7854 42.7715C13.7869 42.7968 13.8138 42.7839 13.8665 42.7829C13.9439 42.8418 13.7616 42.8919 13.6521 42.9198L13.6443 42.9285C13.8727 43.0122 13.7218 43.0892 13.7027 43.2261C13.6975 43.2287 13.6919 43.2302 13.6862 43.2323C13.9104 43.5531 14.1439 43.8682 14.3866 44.1766C14.4223 44.1275 14.4719 44.0774 14.492 44.0469C14.5767 44.158 14.5566 44.2458 14.7415 44.3305C14.7679 44.315 14.7958 44.3021 14.8247 44.2949L14.7467 44.3331C14.7467 44.3331 14.7431 44.3315 14.7415 44.3305C14.6718 44.3713 14.6191 44.4302 14.6206 44.4478C14.6754 44.4726 14.7234 44.3961 14.7534 44.4597C14.6883 44.4917 14.6847 44.5232 14.6919 44.5552C14.9125 44.8218 15.1408 45.0831 15.3759 45.3394C15.411 45.3275 15.4363 45.3146 15.4544 45.3006C15.4435 45.2841 15.4611 45.2753 15.4864 45.2696C15.504 45.2485 15.5159 45.2262 15.5381 45.2045C15.6558 45.2578 15.5479 45.2557 15.4864 45.2696C15.4776 45.2805 15.4673 45.2908 15.4544 45.3006C15.4596 45.3084 15.4709 45.3182 15.4916 45.3306H15.5443C15.645 45.3523 15.4885 45.3451 15.381 45.3445C15.4368 45.4055 15.4936 45.4659 15.5499 45.5264L15.6863 45.4923L15.5711 45.5491C15.5871 45.5661 15.6026 45.5832 15.6187 45.6002C15.7752 45.6607 15.7726 45.6999 15.7478 45.7345C15.801 45.7898 15.8547 45.8446 15.9084 45.8993C15.9286 45.905 15.9503 45.9107 15.9746 45.9169C15.9689 45.9283 15.9627 45.9386 15.956 45.9474C15.972 45.9634 15.9875 45.9799 16.0035 45.9959C17.8859 47.8783 20.0782 49.3562 22.5195 50.3888C23.938 50.9891 25.4061 51.423 26.9108 51.688C26.8876 51.6451 26.9289 51.5676 26.7925 51.5377H26.7936ZM28.7379 51.5273L28.7596 51.4385L28.365 51.532C28.2648 51.6337 28.5277 51.5805 28.584 51.6296C28.4538 51.6947 28.4295 51.7324 28.2699 51.734L28.3991 51.6699C28.1868 51.672 28.3138 51.5578 28.0473 51.5604L27.9992 51.6616C27.7368 51.7402 27.9905 51.4855 27.7027 51.6022C27.617 51.4901 27.8763 51.361 27.8732 51.2861C28.1397 51.3078 27.8809 51.4364 27.9104 51.4994C28.0943 51.4344 27.9688 51.5743 28.1785 51.5217C28.2627 51.5005 28.2586 51.44 28.1997 51.4307C28.1847 51.4338 28.1676 51.4354 28.147 51.4344C28.1676 51.4292 28.1852 51.4287 28.1997 51.4307C28.3164 51.4059 28.2632 51.2706 28.4104 51.3806C28.3056 51.407 28.3908 51.4948 28.4709 51.5056C28.6775 51.3775 28.4579 51.2541 28.6382 51.1389C29.0158 51.235 28.8387 51.4003 28.739 51.5268L28.7379 51.5273ZM27.8391 51.1735C27.8644 51.1353 27.8639 51.1105 27.9703 51.1337L27.975 51.2344C27.9156 51.1094 27.8468 51.2985 27.8386 51.173L27.8391 51.1735ZM28.2684 51.2189L28.3211 51.1931L28.4796 51.1663L28.2689 51.2189H28.2684ZM28.7674 51.0743L28.74 51.0619C28.7891 50.986 28.6744 50.8367 28.913 50.8207L28.7674 51.0743ZM30.9685 51.8352L30.8342 51.8801L30.8832 51.8042C30.906 51.8151 30.9302 51.843 30.9685 51.8357L30.9907 51.8285C30.9829 51.8326 30.9757 51.8347 30.9685 51.8357V51.8352ZM34.0415 51.6663C33.853 51.6059 34.009 51.5537 33.8716 51.4674C33.8979 51.4545 33.9739 51.3904 34.0033 51.4276C33.8979 51.4788 34.1443 51.5898 34.0415 51.6658V51.6663ZM33.9424 51.2783L34.0395 51.1001L34.0488 51.3016L33.9424 51.2783ZM35.7436 51.0805C35.5773 50.9818 35.6305 50.9813 35.678 50.8542L35.6863 51.0304C35.848 51.0536 35.786 50.9033 35.8444 50.9777L35.7436 51.08V51.0805ZM35.832 50.2369C35.6465 50.2767 35.7199 50.1626 35.6651 50.113C35.7447 50.0995 35.8247 50.1109 35.8485 50.0727C35.959 50.1218 35.536 50.2023 35.832 50.2369ZM36.6507 50.114C36.8026 49.9864 36.7582 50.1626 36.9436 50.1228C36.8703 50.2364 36.7835 50.099 36.6507 50.114ZM37.2065 50.5593L37.2293 50.4715L37.362 50.4828L37.2065 50.5593ZM37.4777 50.1414C37.4498 50.1037 37.4731 50.066 37.5511 50.0277L37.7706 50.1254L37.4777 50.1414ZM39.2398 48.6991C39.2144 48.7374 39.2976 48.7988 39.1922 48.8004C39.1628 48.7637 39.1612 48.7126 39.2398 48.6991ZM39.8385 49.4342L39.7274 49.3598C39.4655 49.4383 39.6039 49.5499 39.2852 49.554L39.2227 49.4032C39.2759 49.3774 39.3632 49.5148 39.4624 49.3882C39.5099 49.287 39.4206 49.0995 39.575 48.9967C39.9821 49.1305 39.2666 49.2265 39.6721 49.3345L39.7672 49.288C39.778 49.2797 39.7976 49.2699 39.8281 49.2581L39.7672 49.288C39.6938 49.3433 39.9945 49.3335 39.8379 49.4342H39.8385ZM39.4412 48.4703C39.5399 48.3432 39.8447 48.554 39.809 48.3902C39.8638 48.4145 40.028 48.4884 39.8695 48.5152L39.7062 48.4672L39.5321 48.6831C39.4304 48.7844 39.4495 48.6454 39.3446 48.6723C39.5006 48.6206 39.684 48.5555 39.4407 48.4698L39.4412 48.4703ZM39.699 48.3163C39.7145 48.3003 39.7388 48.305 39.7672 48.3153L39.9655 48.3127C39.9144 48.3918 39.8307 48.3386 39.7672 48.3153L39.699 48.3163ZM39.6148 48.7451L39.7264 48.8443L39.3828 48.8861C39.3777 48.7854 39.6768 48.8949 39.6148 48.7451ZM39.8953 48.9931L39.7899 49.0447L39.8762 48.9931H39.8426L40.0492 48.8903L39.8762 48.9931H39.8948H39.8953ZM39.9041 48.6785C39.9583 48.6779 39.9805 48.6144 39.9841 48.665C40.1711 48.6754 40.0874 48.5881 40.1913 48.5622L40.0926 48.7141C40.0399 48.7151 39.8813 48.7415 39.9041 48.6785ZM40.5276 49.3758C40.4418 49.2637 40.5653 49.0731 40.1639 49.0406L40.5353 49.0106L40.5322 48.9605C40.6701 49.0468 40.603 49.2865 40.527 49.3758H40.5276ZM40.2119 47.9325C40.48 47.9542 40.4206 47.8292 40.4966 47.7657L40.5095 48.0167L40.2119 47.9325ZM40.9325 47.8406C40.8866 47.8396 40.8556 47.8344 40.8706 47.8117C40.8897 47.8117 40.9155 47.8235 40.9325 47.8406C41.0379 47.8427 41.2229 47.823 41.118 47.9465C41.0085 47.979 40.9868 47.916 40.8923 47.9232C40.8747 47.9289 40.853 47.9341 40.8251 47.9377C40.8514 47.9289 40.8731 47.9248 40.8923 47.9232C40.961 47.9005 40.9568 47.8654 40.9325 47.8406ZM40.9362 47.5214L41.1242 47.5565L41.0183 47.5828L40.9362 47.5208V47.5214ZM41.3288 48.9006C41.1913 48.8391 41.1841 48.6883 41.0984 48.5762L40.8602 48.617L40.9119 48.5912C40.992 48.5777 41.2533 48.4997 41.3117 48.5994C41.0524 48.7281 41.4279 48.774 41.3282 48.9011L41.3288 48.9006ZM41.6082 47.652L41.5498 47.5518L41.8412 47.5105L41.6082 47.6515V47.652ZM43.0598 46.8803C42.9275 46.8948 43.1631 46.8286 43.0019 46.8054C42.6584 46.8472 42.8836 47.0709 43.0717 47.1065C42.9652 47.1086 42.772 46.9712 42.7524 47.1107C42.7974 46.9588 42.5845 46.9614 42.7369 46.8085L42.5763 46.8106C42.5174 46.7109 42.8599 46.6184 42.538 46.5724L42.803 46.544C42.7788 46.5817 42.7359 46.7837 42.9456 46.7305C43.1037 46.6783 43.0164 46.5409 43.2313 46.5884C42.9415 46.6551 43.1373 46.8157 43.0603 46.8803H43.0598ZM43.2788 46.9784C43.3537 46.9139 43.0546 46.7796 43.2927 46.7646C43.3511 46.8395 43.4333 46.9015 43.2788 46.9784ZM47.9537 40.1933C47.9269 40.1809 47.8659 40.0559 47.838 40.0187L47.8107 40.0316L47.7822 39.9464C47.7735 39.9495 47.7647 39.9526 47.7549 39.9567L47.7817 39.9438L47.7828 39.9464C48.0255 39.8606 47.8045 40.1442 48.1624 40.1153L47.9543 40.1933H47.9537ZM48.9347 38.0811L48.7157 37.9829C48.8495 37.9938 48.9022 37.9679 48.8459 37.9184C48.9745 37.8285 48.8758 37.9809 49.0323 37.9039C48.9827 37.9798 48.7715 38.0077 48.9352 38.0811H48.9347ZM49.1021 37.2241L49.0649 37.0107C48.8805 37.0758 48.961 37.0619 48.7968 37.0138C49.239 36.7948 49.099 37.174 49.3376 37.1585L49.1016 37.2246L49.1021 37.2241ZM49.052 36.0938L49.1775 35.9538C49.3118 35.9647 49.3123 35.99 49.2069 36.0158L49.3407 36.0267L49.0514 36.0933L49.052 36.0938ZM49.6651 37.2799L49.5814 37.2179C49.661 37.2045 49.6579 37.1543 49.7395 37.1657L49.6651 37.2799ZM49.5195 37.0676C49.6006 37.0541 49.5706 37.0164 49.5964 36.9787L49.785 37.0397L49.52 37.0676H49.5195ZM49.7127 31.4313C49.7643 31.4055 49.8428 31.3925 49.8149 31.3538L49.7085 31.3559C49.8149 31.3538 50.019 31.2009 50.2101 31.2608C49.943 31.2644 49.9513 31.4153 49.7127 31.4308V31.4313ZM49.9394 25.6674C49.9947 25.6912 50.0774 25.7279 50.1579 25.7403C50.2179 25.8653 49.7173 25.9593 49.8836 26.1081C49.6145 26.0605 49.9043 25.9949 49.66 25.9092C50.0345 25.9304 49.7044 25.733 49.9394 25.6674ZM49.8743 30.9638C49.6574 30.9163 49.8433 30.9013 49.8671 30.8383C50.4555 30.9065 49.8025 31.1276 49.8087 31.2536C49.6703 31.142 49.8299 31.1405 49.5835 31.0299L49.8738 30.9638H49.8743ZM49.3268 24.1394C49.4363 24.1885 49.3604 24.2525 49.335 24.2903C49.2286 24.266 49.2762 24.19 49.3268 24.1394ZM49.0458 24.3559L48.943 24.408L48.9109 24.3197L49.0463 24.3559H49.0458ZM48.257 22.0385C48.0767 22.1289 48.3401 22.1005 48.4212 22.1119L48.1867 22.2023C48.1562 22.1403 48.1004 22.0907 48.257 22.0385ZM48.3195 22.2137C48.538 22.2865 48.7012 22.3857 48.8407 22.4973L48.6888 22.6496C48.4238 22.6527 48.4998 22.5892 48.414 22.5019C48.2854 22.566 48.2058 22.5794 47.992 22.5572L47.9264 22.8227C47.8701 22.7478 47.8396 22.7101 47.6552 22.7256C47.7797 22.5851 47.8014 22.4719 47.7414 22.3474C47.9248 22.3066 48.1387 22.3046 48.3195 22.2142V22.2137ZM48.7085 24.5243C48.6542 24.4995 48.5788 24.5888 48.5215 24.5139L48.6232 24.4122L48.7085 24.5243ZM47.7373 21.7555C47.5508 21.7446 47.5028 21.8717 47.4201 21.8097C47.4981 21.771 47.5746 21.7322 47.7373 21.7555ZM47.2409 21.4342L47.4 21.4321L47.355 21.5845C47.1417 21.586 47.2435 21.4843 47.2404 21.4342H47.2409ZM47.2006 21.6862C47.2238 21.648 47.306 21.6599 47.4124 21.6583L47.2559 21.7358C47.1763 21.7239 47.2021 21.7116 47.2001 21.6862H47.2006ZM45.8368 18.0543L46.0254 18.2092C46.0295 18.2103 46.0321 18.2123 46.0321 18.2149L46.0254 18.2092C45.9923 18.1989 45.843 18.234 45.8224 18.2681C45.6132 18.3461 46.0745 18.5042 45.6498 18.5341C45.5899 18.4091 45.655 18.1441 45.8368 18.0543ZM45.0553 17.8745L45.0501 17.7738C45.1855 17.8352 45.1591 17.8233 45.0553 17.8745ZM44.7133 17.9664C44.8425 17.8135 45.2268 17.9923 45.4468 17.9876C45.4758 17.9809 45.5068 17.9747 45.5393 17.969C45.514 17.9814 45.4825 17.9866 45.4468 17.9876C45.3353 18.014 45.2624 18.0512 45.3079 18.1106L45.3606 18.1095C45.1534 18.2387 45.0233 18.2774 44.9256 18.4546C44.8461 18.4427 44.7335 18.3435 44.6575 18.4324C44.7309 18.2929 44.7717 18.0661 44.9277 17.9892C44.8487 18.0026 44.7934 17.9783 44.7128 17.9664H44.7133ZM45.4143 18.6245C45.2821 18.639 45.1999 18.6028 45.1958 18.5274C45.2542 18.6018 45.436 18.5372 45.4143 18.6245ZM43.3418 15.6811C43.395 15.6801 43.4224 15.6925 43.4777 15.7173L43.2922 15.7566C43.3181 15.7436 43.2618 15.6941 43.3418 15.6811ZM42.7824 15.1842L42.7844 15.2338L42.5205 15.2622L42.7819 15.1837L42.7824 15.1842ZM40.838 14.4434C40.8638 14.4341 40.8948 14.4279 40.9315 14.4259C40.8974 14.4667 40.8669 14.462 40.838 14.4434C40.62 14.522 40.7414 14.8231 40.5183 14.6568C40.4868 14.57 40.6407 14.4419 40.743 14.3654C40.7724 14.3784 40.8039 14.4212 40.838 14.4434ZM40.6557 14.2533L40.6118 14.4042L40.5017 14.3551L40.6557 14.2533ZM40.1376 13.5043C40.1267 13.5209 40.1215 13.54 40.1277 13.558C40.1789 13.5679 40.3096 13.5379 40.2228 13.6164C40.1618 13.603 40.1355 13.5813 40.1277 13.558C40.104 13.5534 40.0973 13.5405 40.1376 13.5043ZM40.3101 14.2451L40.2088 14.3468L40.2321 14.2838L40.3101 14.2451ZM39.793 14.0374C39.7372 13.9873 39.8126 13.9233 39.7589 13.8995C39.9986 13.9088 39.8173 13.9992 39.793 14.0374ZM39.513 13.9393C39.576 13.963 39.7517 13.9605 39.6866 14.0385C39.5182 14.0519 39.5642 13.9806 39.513 13.9393C39.5042 13.9362 39.4975 13.932 39.4939 13.9274C39.5017 13.931 39.5079 13.9351 39.513 13.9393ZM38.9903 13.1944L39.0528 13.1148C39.1308 13.1014 39.1865 13.151 39.2144 13.1887C39.1473 13.2052 39.046 13.1866 38.9897 13.1939L38.952 13.2414C38.9407 13.2099 38.9582 13.198 38.9897 13.1939L38.9903 13.1944ZM37.8698 12.9278L37.9762 12.9268L37.7675 13.0048L37.8703 12.9278H37.8698ZM34.852 12.2589C34.7162 12.2227 34.8959 12.0822 34.6315 12.1354C35.0277 12.0672 34.6754 11.9334 34.881 11.8048C35.038 11.7526 35.1532 11.9278 35.1986 11.7759L35.2322 11.889C35.2147 11.9567 35.382 11.9773 35.4729 11.9557C35.491 11.9448 35.5091 11.934 35.5277 11.9231C35.522 11.9381 35.5008 11.9489 35.4729 11.9557C35.1449 12.1545 34.9621 12.3849 34.8861 12.4216V12.3963C34.8329 12.3963 34.725 12.3725 34.6743 12.4237C34.6785 12.4996 34.7596 12.5358 34.8928 12.5213C34.6593 12.6375 34.8773 12.7352 34.586 12.777C34.7136 12.6618 34.7301 12.4733 34.5622 12.324C34.6965 12.3353 34.6619 12.1974 34.8525 12.2584L34.852 12.2589ZM33.0244 11.4623L32.9242 11.5894L32.871 11.5651C32.9226 11.5393 32.8369 11.452 33.0244 11.4623ZM31.6286 12.2387L31.5765 12.2894L31.5207 12.2145L31.6286 12.2382V12.2387ZM30.6735 11.8095C30.7536 11.8213 30.7567 11.8715 30.8357 11.858C30.7314 11.9097 30.8719 12.046 30.6575 12.0238L30.6735 11.8095ZM30.6534 11.4324L30.3718 11.6498L30.2628 11.6008C30.066 11.4143 30.5754 11.4711 30.6534 11.4324ZM30.4374 11.8756C30.625 11.9107 30.3336 11.952 30.283 11.9779C30.1704 11.8787 30.4674 11.9629 30.4374 11.8756ZM30.2923 12.1535C30.5041 12.1514 30.9328 12.1964 31.0315 12.0445L30.9339 12.2217C30.955 12.108 30.6136 12.2005 30.4266 12.1897C30.2453 12.2795 30.3811 12.341 30.3326 12.4169L30.4901 12.3648C30.4152 12.4789 30.1724 12.419 30.1471 12.4319L30.2923 12.153V12.1535ZM30.596 12.3643C30.5929 12.3136 30.5919 12.2883 30.672 12.2749C30.8874 12.3234 30.6213 12.326 30.596 12.3643ZM29.4622 12.0755L29.4415 12.1891L29.4146 12.1767L29.4622 12.0755ZM25.4985 11.67C25.5796 11.6814 25.6349 11.7309 25.6871 11.7051C25.5843 11.7816 25.5269 11.7072 25.421 11.7082L25.4985 11.67ZM24.9365 12.6448L25.0192 12.6814L24.8926 12.7961L24.937 12.6448H24.9365ZM24.5413 13.2032C24.5687 13.2145 24.5418 13.2274 24.5692 13.2398L24.702 13.2254L24.6803 13.3142L24.4654 13.2915L24.5413 13.2032ZM24.8136 13.3256L24.6054 13.4036L24.6829 13.3643L24.8136 13.3256ZM23.8321 12.8839L23.706 13.0234L23.6766 12.9609L23.8321 12.8834V12.8839ZM22.6001 13.2631C22.5784 13.3199 22.6032 13.3964 22.6843 13.4103C22.6956 13.4103 22.707 13.4103 22.7178 13.4103C22.8924 13.2972 22.7339 13.2486 22.9952 13.1954L23.2478 13.3504C23.2716 13.353 23.2969 13.3581 23.3248 13.3679L23.298 13.3809L23.2478 13.3499C23.0634 13.3297 22.9937 13.5054 22.8553 13.5741L22.8775 13.4857C22.8449 13.4346 22.7876 13.4134 22.7178 13.4098C22.7168 13.4108 22.7158 13.4113 22.7142 13.4124C22.7034 13.4124 22.6936 13.4113 22.6838 13.4098C22.5727 13.4124 22.4363 13.4501 22.3175 13.48C22.2581 13.355 22.4162 13.3282 22.5996 13.2626L22.6001 13.2631ZM21.8319 13.8768L21.6801 14.0044C21.5984 13.9672 21.5168 13.9305 21.6217 13.9041C21.6718 13.8535 21.8061 13.8644 21.8319 13.8773V13.8768ZM21.5571 13.6784L21.5891 13.791L21.4776 13.6918L21.5576 13.6784H21.5571ZM21.6408 14.2807C21.6191 14.3691 21.3768 14.3091 21.4621 14.4212L21.3536 14.3727L21.6408 14.2807ZM15.1403 19.7796C15.2152 19.715 14.9161 19.5807 15.1543 19.5657C15.2126 19.6406 15.2948 19.7026 15.1403 19.7796ZM14.6646 19.3452C14.6403 19.3829 14.5974 19.5848 14.8071 19.5316C14.9652 19.4795 14.8779 19.3421 15.0928 19.3896C14.803 19.4562 14.9988 19.6169 14.9218 19.6814C14.7896 19.6959 15.0251 19.6298 14.8639 19.6065C14.5204 19.6484 14.7457 19.8721 14.9337 19.9077C14.8273 19.9098 14.6341 19.7724 14.6144 19.9118C14.6594 19.76 14.4466 19.7625 14.5989 19.6096L14.4383 19.6117C14.3794 19.512 14.7219 19.4195 14.4001 19.3736L14.6651 19.3452H14.6646ZM13.7027 20.3122L13.4697 20.4537L13.4114 20.3535L13.7027 20.3122ZM12.7744 21.3923C12.8545 21.3789 13.1159 21.3009 13.1743 21.4006C12.9149 21.5292 13.2905 21.5752 13.1908 21.7023C13.0534 21.6408 13.0461 21.4899 12.9604 21.3778L12.7223 21.4187L12.7739 21.3928L12.7744 21.3923ZM13.0782 22.2323C13.0802 22.2364 13.0828 22.2405 13.0864 22.2441C13.0828 22.2405 13.0802 22.2364 13.0782 22.2323C12.9898 22.1031 12.8426 22.0298 13.0684 21.9177C13.3778 21.9859 13.0348 22.1424 13.0782 22.2323ZM12.48 25.0284L12.4846 24.9938C12.5156 25.0005 12.5048 25.0135 12.48 25.0284L12.4655 25.1323C12.2759 25.1168 12.4195 25.0656 12.48 25.0284ZM11.6184 27.7461L11.5114 27.7476C11.6442 27.7332 11.7206 27.6696 11.8565 27.7306L11.5465 27.8845C11.4076 27.7988 11.6499 27.8339 11.6184 27.7461ZM11.7465 27.6309L11.5543 27.5457L11.6834 27.4811C11.793 27.5307 11.7191 27.6195 11.7459 27.6314L11.7465 27.6309ZM11.5796 26.0104C11.6592 26.0218 11.6891 26.0817 11.7899 26.0595L11.795 26.0533C11.7909 26.0311 11.7707 26.0202 11.8208 26.0202L11.795 26.0533C11.795 26.0533 11.7961 26.0569 11.7961 26.0585C11.794 26.059 11.7924 26.0585 11.7904 26.0595L11.7217 26.1468C11.7966 26.0585 11.5078 26.1494 11.5806 26.0104H11.5796ZM11.7749 27.1779L11.7811 27.2786C11.6483 27.2931 11.5486 27.4444 11.358 27.3592C11.3864 27.3964 11.2599 27.5359 11.4716 27.4837L11.2092 27.5617C11.0672 27.4 11.4076 27.3081 11.591 27.2435C11.4577 27.2068 11.5099 27.2068 11.5331 27.1433L11.7744 27.1784L11.7749 27.1779ZM11.6313 34.5508L11.5744 34.5013L11.4479 34.6154C11.2366 34.6681 11.1746 34.493 11.1973 34.43C11.3854 34.4651 11.2273 34.4677 11.3094 34.5292C11.3466 34.4925 11.4815 34.461 11.5006 34.4326C11.4892 34.4233 11.4784 34.414 11.4691 34.4041C11.4665 34.4036 11.4649 34.4026 11.4618 34.4021L11.3296 34.3907L11.4324 34.3391C11.4334 34.3613 11.4479 34.383 11.4685 34.4041C11.499 34.4134 11.5068 34.4227 11.5001 34.4326C11.5765 34.4935 11.6834 34.541 11.6307 34.5503L11.6313 34.5508ZM11.4613 31.3383L11.4887 31.345C11.4727 31.345 11.4649 31.3424 11.4613 31.3383L11.2449 31.2846L11.4004 31.2081C11.5837 31.2272 11.4422 31.3135 11.4613 31.3383ZM11.2278 25.9262L11.358 25.8622L11.3921 25.9748C11.2872 26.0264 11.1746 25.9014 11.2283 25.9262H11.2278ZM11.4339 24.7665L11.5135 24.7789L11.3854 24.8683L11.4339 24.7671V24.7665ZM11.1968 25.6313C11.187 25.6075 11.1932 25.5837 11.2258 25.5631C11.2216 25.5584 11.2159 25.5538 11.2087 25.5497L11.1018 25.5512L11.2883 25.5367C11.2609 25.545 11.2407 25.5538 11.2258 25.5636C11.2485 25.5879 11.2289 25.6106 11.1968 25.6318C11.2263 25.7031 11.3988 25.7749 11.4339 25.7738C11.3306 25.8503 11.2459 25.7635 11.1395 25.7651C10.9788 25.7253 11.1219 25.6819 11.1968 25.6318V25.6313ZM10.6601 32.8147L10.5222 32.7279L10.7118 32.7888L10.6601 32.8147ZM11.0098 33.3891C10.8822 33.4785 11.0186 33.5652 10.9416 33.6293L10.7257 33.5565C11.0625 33.3886 10.6214 33.0921 11.0393 32.9355L10.9897 33.012L11.28 32.9454C11.1741 32.9717 11.1782 33.0729 10.9912 33.0368C11.1038 33.1613 11.0574 33.2878 11.2206 33.3612L11.0098 33.3886V33.3891ZM11.1245 35.1924L11.1472 35.1041H11.201L11.1245 35.1924ZM11.2888 38.0237L11.2511 38.0713C11.2397 38.0397 11.2573 38.0279 11.2888 38.0237L11.3513 37.9442C11.4293 37.9307 11.4851 37.9803 11.513 38.0181C11.4458 38.0346 11.3446 38.016 11.2883 38.0232L11.2888 38.0237ZM11.5228 36.5655C11.467 36.4487 11.8642 36.4699 11.8224 36.412C11.8183 36.4079 11.8136 36.4038 11.8084 36.3996C11.8152 36.4043 11.8198 36.4084 11.8224 36.412C11.9763 36.5546 11.5166 36.4441 11.5228 36.5655ZM11.9081 35.8872L11.9965 36.0747C11.8901 36.0763 11.811 36.0897 11.809 36.0396C11.8441 36.0224 11.8792 36.0134 11.9143 36.0127L11.9087 35.8872H11.9081ZM11.9846 38.8678C11.8162 38.8812 11.8622 38.8099 11.811 38.7686C11.8022 38.7655 11.7955 38.7614 11.7919 38.7567C11.7997 38.7604 11.8059 38.7645 11.811 38.7686C11.8741 38.7924 12.0497 38.7898 11.9846 38.8678ZM12.091 38.8668C12.0352 38.8167 12.1106 38.7526 12.0569 38.7288C12.2966 38.7381 12.1153 38.8285 12.091 38.8668ZM11.9123 36.9942C11.9076 36.8935 11.9552 36.7922 12.0554 36.6905C12.3503 36.7246 11.8539 36.9193 12.2264 36.8899C12.2858 36.9901 12.0177 36.9679 11.9128 36.9942H11.9123ZM12.4257 38.3879C12.402 38.3833 12.3953 38.3704 12.4356 38.3342C12.4247 38.3507 12.4195 38.3698 12.4257 38.3879C12.4769 38.3977 12.6076 38.3678 12.5208 38.4463C12.4598 38.4329 12.4335 38.4112 12.4257 38.3879ZM12.5063 39.1762L12.5296 39.1132L12.6076 39.0744L12.5063 39.1762ZM14.4584 43.3671C14.3262 43.3816 14.5618 43.3155 14.4006 43.2922C14.0571 43.3341 14.2823 43.5577 14.4703 43.5934C14.3639 43.5954 14.1707 43.458 14.1511 43.5975C14.196 43.4456 13.9832 43.4482 14.1356 43.2953L13.9749 43.2974C13.916 43.1977 14.2585 43.1052 13.9367 43.0592L14.2017 43.0308C14.1774 43.0685 14.1346 43.2705 14.3443 43.2173C14.5023 43.1651 14.4151 43.0277 14.6299 43.0752C14.3401 43.1419 14.5359 43.3025 14.459 43.3671H14.4584ZM14.6775 43.4653C14.7524 43.4007 14.4533 43.2664 14.6914 43.2514C14.7498 43.3263 14.8319 43.3883 14.6775 43.4653ZM16.3326 46.075C16.3171 46.0615 16.3093 46.0419 16.3021 46.0228C16.2463 45.9975 16.1347 46.0032 16.114 45.9768C16.2659 45.92 16.2824 45.9711 16.3021 46.0228C16.3253 46.0331 16.3393 46.0491 16.3326 46.075ZM16.4953 46.123L16.4679 46.1111L16.6761 46.0078L16.7029 46.0202L16.4953 46.123ZM16.7463 45.8435C16.798 45.8177 16.8775 45.8043 16.9292 45.7779C17.047 45.9122 16.8083 45.8694 16.6192 45.9019L16.5113 45.9339C16.5428 45.9184 16.58 45.9086 16.6192 45.9019L16.7742 45.8559L16.7458 45.8435H16.7463ZM16.8124 46.0688L16.9163 46.0171L16.9715 46.0667L16.8124 46.0688ZM17.6953 46.6623L17.9618 46.6592C17.9086 46.6592 17.7004 46.763 17.6953 46.6623ZM18.1483 47.1851L18.1245 47.2233L17.9603 47.1499L18.1483 47.1851ZM18.3947 47.745C18.3978 47.7579 18.3844 47.7719 18.3415 47.7869L18.3947 47.745C18.3859 47.7073 18.2428 47.6748 18.2816 47.6195C18.2743 47.618 18.2655 47.6164 18.2557 47.6143L17.9902 47.7027L18.1173 47.588C18.1834 47.6025 18.2263 47.6092 18.2557 47.6143L18.3038 47.5983C18.2934 47.6055 18.2862 47.6128 18.2821 47.619C18.3239 47.6283 18.3286 47.6396 18.3637 47.6985C18.4432 47.7099 18.4944 47.6588 18.5202 47.6458L18.3947 47.7445V47.745ZM18.4804 47.4082C18.3441 47.3468 18.3632 47.2083 18.5739 47.1551C18.3131 47.2589 18.6612 47.2925 18.4804 47.4082ZM18.9474 47.667C18.889 47.5921 19.0688 47.4511 18.7511 47.4805C18.7279 47.5441 18.8333 47.5177 18.8348 47.5678L18.5936 47.5327C18.591 47.4826 18.561 47.4201 18.6137 47.3938C18.6147 47.4196 18.5905 47.4568 18.67 47.4692C18.795 47.5022 18.9774 47.3974 18.966 47.3803C18.9634 47.3798 18.9608 47.3783 18.9588 47.3777C18.9634 47.3777 18.965 47.3788 18.966 47.3803C19.0698 47.4124 19.1525 47.6148 18.9474 47.667ZM20.82 49.3433L20.9217 49.2415L21.007 49.3536C20.9527 49.3288 20.8773 49.4182 20.82 49.3433ZM21.2415 49.2379L21.2095 49.1496L21.3448 49.1857L21.242 49.2379H21.2415ZM21.6336 49.1201C21.5272 49.0959 21.5747 49.0199 21.6253 48.9693C21.7348 49.0184 21.6589 49.0824 21.6336 49.1201ZM22.4523 49.4879C22.4239 49.4502 22.4203 49.3748 22.5505 49.3355C22.4725 49.349 22.6941 49.5225 22.4523 49.4879ZM25.4934 50.0685C25.4629 50.0066 25.5383 49.9172 25.5657 49.9291C25.5404 49.9673 25.7046 50.0407 25.4934 50.0685ZM27.0606 50.503C27.1366 50.4394 26.9268 50.4668 26.9501 50.4291C27.1608 50.3754 27.088 50.5159 27.1944 50.5138C27.3773 50.456 27.5586 50.378 27.6309 50.2933C27.6309 50.2933 27.6309 50.2922 27.6309 50.2917C26.0766 50.0567 24.562 49.6295 23.1042 49.0127C22.9281 48.9383 22.754 48.8603 22.581 48.7807C22.7602 48.9161 22.9353 49.0158 22.7266 49.1191C22.7287 49.1697 22.3666 49.3753 22.2101 49.4275C22.2023 49.3014 21.9136 49.3676 21.9058 49.2172L22.0938 49.2276C22.0091 49.1403 21.9755 49.0023 22.1036 48.9383L21.9709 48.9274L22.1755 48.774C22.255 48.7606 22.4291 49.0354 22.6042 48.8195C22.4652 48.8882 22.4012 48.757 22.4833 48.7353C21.7136 48.3768 20.9713 47.9702 20.2605 47.5146L20.2264 47.652C20.1701 47.5771 20.1397 47.5394 19.9552 47.5549C20.0095 47.4935 20.0436 47.4377 20.0601 47.3834C18.9872 46.6768 17.9851 45.8611 17.0635 44.9395C15.4177 43.2938 14.1056 41.3928 13.1588 39.2847C13.1515 39.2821 13.1443 39.2785 13.1371 39.2738C12.9191 39.3523 13.0405 39.6535 12.8173 39.4872C12.7858 39.4004 12.9397 39.2723 13.042 39.1958C13.0715 39.2087 13.103 39.2516 13.1371 39.2738C13.1417 39.2723 13.1474 39.2712 13.1526 39.2697C13.0973 39.1462 13.043 39.0228 12.9898 38.8978C12.4268 37.5661 12.0213 36.1868 11.7764 34.7735L11.6602 34.7213L11.7676 34.7198C11.5879 33.6639 11.497 32.5889 11.497 31.5C11.497 28.9337 11.9996 26.4449 12.9904 24.1017C13.1696 23.6786 13.3628 23.2633 13.5705 22.8563V22.8552C13.5705 22.8552 13.571 22.8542 13.5715 22.8537C13.5782 22.8403 13.5854 22.8273 13.5922 22.8139C13.5999 22.7798 13.5968 22.7359 13.6056 22.6972C13.6009 22.6951 13.5953 22.693 13.588 22.6915C13.5963 22.6832 13.6051 22.677 13.6139 22.6719C13.6263 22.6424 13.6516 22.6186 13.7001 22.6088C13.7213 22.5685 13.742 22.5282 13.7637 22.4885L13.6867 22.5143C13.6975 22.5091 13.7296 22.489 13.773 22.4709C14.0937 21.8774 14.4455 21.3029 14.8273 20.7476C14.8004 20.729 14.7725 20.711 14.7358 20.7032L14.8986 20.6454C14.9006 20.6423 14.9027 20.6397 14.9048 20.6366C14.6909 20.619 14.9099 20.4346 14.958 20.3602C14.9879 20.399 15.0045 20.4351 15.0215 20.4692C15.6311 19.6158 16.3124 18.811 17.064 18.0594C17.6297 17.4938 18.2263 16.9679 18.8503 16.4823L18.6974 16.5175L18.748 16.4663L18.8828 16.4575C19.5373 15.9503 20.2228 15.4879 20.9372 15.0716C20.9295 15.068 20.9207 15.0633 20.9114 15.0571C20.9341 15.0344 20.9739 15.0292 21.0137 15.0266C21.1578 14.9435 21.3025 14.8624 21.4486 14.7828C21.4228 14.7787 21.399 14.7746 21.3758 14.7746C21.4264 14.7487 21.4786 14.6981 21.4228 14.6485L21.3179 14.6599C21.2844 14.6857 21.2456 14.7028 21.1578 14.6769L21.3179 14.6599C21.3464 14.6382 21.3717 14.6103 21.4197 14.5979C21.5003 14.5896 21.5829 14.6449 21.6077 14.6991C21.9745 14.5049 22.3475 14.3215 22.7277 14.1511V14.1407L22.5148 14.1573L22.7225 14.0545L22.7271 14.1402L22.7571 14.1376C22.8728 14.086 22.989 14.0343 23.1063 13.9847C25.4489 12.994 27.9383 12.4913 30.5046 12.4913C30.6203 12.4913 30.736 12.4929 30.8517 12.4949C30.8342 12.4536 30.8238 12.4035 30.7841 12.3741C30.9421 12.3219 31.3363 12.2294 31.265 12.4185C31.1854 12.4443 31.1369 12.4717 31.109 12.5011C32.9676 12.5585 34.7828 12.8819 36.5278 13.4651C36.5944 13.4144 36.5231 13.3184 36.6383 13.306C36.7716 13.3168 36.6151 13.3437 36.6688 13.3685L36.9064 13.3282L36.5335 13.4666C36.658 13.5085 36.7824 13.5513 36.9064 13.5958C36.9405 13.5648 36.9911 13.5332 37.0216 13.5023C37.0748 13.5017 37.1043 13.5637 37.1575 13.5384C37.0485 13.5147 37.3868 13.3721 37.1456 13.3364L36.9353 13.3896C37.1146 13.2497 37.0562 13.1489 36.9457 13.0751L37.0784 13.0606L37.08 13.0859L37.191 13.0704L37.1854 13.0601C37.2029 13.057 37.2236 13.059 37.2443 13.0632L37.3708 13.0451C37.3946 13.1133 37.3171 13.0766 37.2443 13.0632L37.1905 13.0709L37.3326 13.3452C37.3522 13.3204 37.3997 13.307 37.4907 13.3204L37.3336 13.3473L37.3326 13.3452C37.3 13.386 37.3434 13.4589 37.3946 13.4976C37.7686 13.5183 37.3605 13.3597 37.5981 13.3189L37.7872 13.3798H37.7345C37.765 13.4428 37.7918 13.4552 37.9246 13.4661C37.9943 13.4971 37.9153 13.5498 37.8275 13.588C37.8068 13.6035 37.7655 13.6185 37.6932 13.6324C37.7226 13.6273 37.7768 13.6102 37.8275 13.588C37.9049 13.5296 37.6854 13.4604 37.6813 13.3809C37.6565 13.4191 37.4498 13.4966 37.6322 13.5069C37.641 13.5028 37.6498 13.4986 37.6606 13.494L37.6348 13.5069C37.6348 13.5069 37.6332 13.5069 37.6327 13.5069C37.407 13.6185 37.8264 13.7218 37.6782 13.8205C37.4132 13.8489 37.672 13.6949 37.3806 13.7363L37.3977 13.5472C37.2303 13.4537 37.1208 13.5704 36.9958 13.6267C37.2107 13.7053 37.4251 13.7874 37.6379 13.8737L37.7329 13.8453L37.7365 13.914C37.7918 13.9367 37.8471 13.9594 37.9024 13.9827C37.9297 13.9945 37.9571 14.0069 37.9845 14.0183C37.9928 14.0183 38.0005 14.0178 38.0093 14.0173L38.0005 14.025C40.2243 14.9802 42.224 16.3356 43.9441 18.0558C45.0238 19.1354 45.9598 20.3256 46.7434 21.6113C46.7966 21.5927 46.9129 21.6248 47.0017 21.617C47.0348 21.6113 47.0652 21.602 47.0895 21.584C47.0683 21.6051 47.0368 21.6139 47.0017 21.617C46.9211 21.6305 46.8245 21.6206 46.7656 21.647C47.2398 22.4291 47.6577 23.2468 48.0173 24.0971C48.9047 26.1954 49.4001 28.4114 49.4941 30.6947L49.5138 30.675C49.5959 30.7117 49.6016 30.8119 49.629 30.8248C49.5918 30.7975 49.5422 30.8068 49.4988 30.8161C49.5065 31.0418 49.5107 31.2681 49.5107 31.4948C49.5107 34.0611 49.0081 36.55 48.0173 38.8926C47.0601 41.1557 45.6896 43.1884 43.9436 44.9344C43.4612 45.4169 42.9559 45.8699 42.4306 46.294C42.442 46.293 42.4549 46.2914 42.4709 46.2914C42.5458 46.3482 42.3779 46.3968 42.2679 46.4252C42.2627 46.4293 42.2575 46.434 42.2519 46.4381C42.475 46.5213 42.3262 46.5982 42.3071 46.7341C42.2033 46.7852 41.9068 46.7005 41.8329 46.8147L41.7854 46.7935C40.5859 47.6805 39.2873 48.4217 37.9018 49.008C36.7468 49.4967 35.5566 49.8661 34.3391 50.1156C34.2182 50.1946 34.057 50.2561 33.8411 50.3186L33.7843 50.2209C32.7088 50.4079 31.6137 50.5019 30.5041 50.5019C29.5965 50.5019 28.6992 50.4389 27.8138 50.3139C27.8298 50.4012 27.7714 50.4942 27.7322 50.5784C27.0575 50.4234 27.3742 50.8599 26.8385 50.7907L26.9775 50.9271L26.7641 50.9049C26.6215 50.7427 26.9924 50.6884 27.0622 50.4988L27.0606 50.503ZM21.9058 48.727C22.1501 48.7869 21.928 48.6139 22.1677 48.6237L21.9637 48.8019C21.9616 48.7766 21.9874 48.7394 21.9058 48.7275V48.727ZM12.7982 39.1855L12.9521 39.0837L12.9082 39.2346L12.7982 39.1855Z" fill="#D90514"/>
<path d="M10.4164 35.4399L10.3972 35.4492C10.3972 35.4492 10.3916 35.4548 10.3812 35.459C10.3864 35.4864 10.3916 35.5137 10.3972 35.5406C10.4768 35.5215 10.5207 35.4962 10.4169 35.4399H10.4164Z" fill="#D90514"/>
<path d="M13.5627 43.0536C13.5751 43.0716 13.5881 43.0897 13.6005 43.1083L13.7203 43.037C13.6723 43.0159 13.6273 43.052 13.5627 43.0536Z" fill="#D90514"/>
<path d="M13.6031 22.787C13.6258 22.7431 13.649 22.6997 13.6718 22.6564C13.6511 22.6564 13.6304 22.6605 13.6103 22.6719C13.6067 22.6796 13.6041 22.6884 13.6025 22.6966C13.6501 22.7178 13.5917 22.7623 13.6031 22.7865V22.787Z" fill="#D90514"/>
<path d="M27.7266 50.3067C27.694 50.302 27.662 50.2974 27.6295 50.2927C27.6295 50.2927 27.6289 50.2938 27.6284 50.2938C27.6284 50.302 27.6295 50.3108 27.6346 50.3212C27.6765 50.3273 27.7033 50.3196 27.7266 50.3072V50.3067Z" fill="#D90514"/>
<path d="M42.0618 46.7041L42.3206 46.5502C42.2659 46.5259 42.2153 46.5766 42.1347 46.5652L42.2328 46.4562C42.1414 46.528 42.0489 46.5982 41.9559 46.6685C41.9776 46.6902 42.0045 46.7052 42.0618 46.7041Z" fill="#D90514"/>
<path d="M10.4866 35.1444C10.4422 35.1666 10.3813 35.163 10.325 35.1614C10.3322 35.2007 10.3389 35.2394 10.3461 35.2787C10.3885 35.2286 10.4448 35.179 10.4861 35.1449L10.4866 35.1444Z" fill="#D90514"/>
<path d="M10.3868 35.4497L10.3771 35.4362C10.3777 35.4411 10.3789 35.4454 10.3795 35.4503C10.3819 35.4503 10.3844 35.4503 10.3868 35.4503V35.4497Z" fill="#D90514"/>
<path d="M31.0599 17.2536C31.0599 17.1079 31.0563 16.9777 31.0615 16.8476C31.0708 16.6161 31.2309 16.4384 31.4908 16.409C31.8963 16.3625 32.3002 16.4018 32.6866 16.5159C32.9077 16.5815 33.0234 16.7463 33.0441 16.9509C33.0565 17.0738 33.0461 17.1983 33.0461 17.3305C33.1929 17.3305 33.3313 17.3321 33.4697 17.3305C34.2797 17.3207 35.0902 17.3192 35.8878 17.4592C36.1171 17.4995 36.3491 17.5795 36.549 17.6865C37.0955 17.9778 37.0749 18.6457 36.5175 18.9262C36.2731 19.0492 36.0097 19.1323 35.7194 19.1416C34.8128 19.1716 33.9062 19.2088 32.9997 19.2434C32.9821 19.2439 32.965 19.2496 32.9464 19.2527C32.9046 19.4831 32.8628 19.7104 32.823 19.9273C33.2202 19.9273 33.6118 19.9237 34.0028 19.9278C34.9037 19.9377 35.8041 19.9506 36.7045 19.9625C36.766 19.9635 36.8269 19.964 36.8884 19.9625C37.2727 19.9516 37.5134 20.1841 37.4545 20.5219C37.4344 20.6381 37.3915 20.7533 37.344 20.8639C37.2236 21.1444 36.9948 21.2823 36.6487 21.2663C36.1714 21.2446 35.6941 21.2286 35.2421 21.2115C35.1444 21.4853 35.053 21.7395 34.9538 22.0169C35.2467 22.0292 35.5489 22.0411 35.8506 22.0556C36.1259 22.069 36.4162 22.0411 36.673 22.1098C37.0759 22.2178 37.5625 22.5205 37.4292 22.956C37.3362 23.2602 37.0217 23.4834 36.5893 23.5015C36.4183 23.5087 36.2458 23.4994 36.0743 23.4994C35.0458 23.4994 34.0168 23.4994 32.98 23.4994V23.8429C33.0549 23.8429 33.1314 23.8429 33.2078 23.8429C34.0297 23.8367 34.851 23.8254 35.6729 23.8279C35.8475 23.8285 36.0252 23.8672 36.1951 23.9085C36.4069 23.9602 36.5464 24.1281 36.5376 24.3233C36.5164 24.795 36.4839 25.0992 35.7096 25.1643C35.3748 25.1927 35.0365 25.1865 34.6997 25.1922C34.4429 25.1963 34.1862 25.1953 33.929 25.1958C33.6133 25.1963 33.2972 25.1958 32.9583 25.1958C32.9485 25.3477 32.9382 25.5125 32.9263 25.6979C33.0141 25.6979 33.0854 25.6979 33.1567 25.6979C34.303 25.6938 35.4497 25.6907 36.596 25.6834C36.6797 25.6834 36.7634 25.6561 36.846 25.6385C37.0945 25.5863 37.3543 25.6917 37.4168 25.9082C37.4824 26.1344 37.5718 26.3602 37.5031 26.6076C37.437 26.8473 37.2665 27.0048 36.9829 27.0079C35.677 27.0214 34.3711 27.0296 33.0653 27.04C32.9743 27.0405 32.8834 27.04 32.7801 27.04C32.7574 27.1676 32.7367 27.2951 32.7119 27.4222C32.6458 27.7657 32.3596 27.9548 32.0419 28.0819C31.6788 28.227 31.2278 27.9269 31.1679 27.5276C31.1436 27.3669 31.1431 27.2037 31.1307 27.0239C31.0258 27.0239 30.9174 27.0183 30.8099 27.025C29.8321 27.0849 28.8532 27.1376 27.8763 27.2115C27.4057 27.2471 27.3257 27.2233 27.1506 26.8338C27.1418 26.8142 27.1278 26.7951 27.1134 26.7786C26.7595 26.3705 27.1051 25.9107 27.5731 25.8508C27.9295 25.8054 28.2932 25.7966 28.6543 25.7847C29.457 25.7578 30.2598 25.7387 31.063 25.716C31.0925 25.715 31.1214 25.7108 31.1602 25.7067V25.4556C30.8327 25.4556 30.5005 25.4567 30.1678 25.4556C29.7577 25.4546 29.347 25.4644 28.9384 25.4443C28.723 25.4334 28.5029 25.3885 28.2989 25.3244C27.9678 25.2201 27.8335 24.8301 27.9972 24.5263C28.2023 24.1456 28.5799 23.9917 29.0185 23.9602C29.7814 23.9049 30.547 23.8775 31.3353 23.8372C31.342 23.7474 31.3497 23.6378 31.3596 23.502C31.0589 23.5211 30.7805 23.5469 30.5015 23.5552C30.0253 23.5686 29.549 23.5722 29.0727 23.5779C28.9875 23.579 28.9017 23.5707 28.8165 23.5676C28.5231 23.5573 28.2266 23.5676 27.9373 23.5314C27.5654 23.4855 27.3443 23.1827 27.3975 22.8511C27.4135 22.7499 27.397 22.6409 27.4326 22.5463C27.5359 22.272 27.7513 22.0995 28.0871 22.0737C28.5443 22.0385 29.0025 22.0117 29.4498 21.9822C29.3899 21.7859 29.3315 21.5969 29.2711 21.3985C29.0887 21.4099 28.8945 21.4311 28.6997 21.4316C28.3035 21.4331 27.9068 21.4316 27.5116 21.415C27.2823 21.4052 27.102 21.227 27.0834 21.0116C27.07 20.8551 27.0679 20.697 27.0772 20.5405C27.0917 20.2972 27.2327 20.136 27.5018 20.0963C27.9053 20.0374 28.3128 19.978 28.7204 19.9656C29.5046 19.9418 30.2903 19.9506 31.0754 19.9459C31.1116 19.9459 31.1483 19.9459 31.2056 19.9459C31.1684 19.7352 31.1333 19.5363 31.093 19.3054C30.4101 19.3777 29.7427 19.4485 29.0753 19.5198C28.9658 19.5316 28.8568 19.5508 28.7473 19.5559C28.5071 19.5673 28.3149 19.4965 28.208 19.2904C28.1883 19.2527 28.1594 19.2155 28.1253 19.1871C27.7973 18.9133 27.6764 18.419 27.8515 18.0506C28.0029 17.7324 28.2886 17.579 28.6646 17.5511C29.4157 17.4958 30.1678 17.4447 30.9194 17.3977C31.0264 17.391 31.0816 17.3703 31.0594 17.2531L31.0599 17.2536ZM33.2724 21.35C33.2802 21.3221 33.2879 21.2937 33.3039 21.2348C32.5027 21.2606 31.7253 21.2854 30.9463 21.3102C31.0052 21.5514 31.0553 21.7565 31.1075 21.9683C31.7387 21.9683 32.3746 21.9698 33.0105 21.9642C33.0523 21.9642 33.1179 21.9135 33.1303 21.8758C33.1846 21.7121 33.2228 21.5437 33.2729 21.35H33.2724Z" fill="#D90514"/>
<path d="M22.097 29.1057C22.0489 28.8469 22.114 28.6155 22.2349 28.4001C22.4312 28.0504 22.6548 27.7162 22.9751 27.4377C23.7665 26.7491 24.2795 25.9206 24.5527 24.9716C24.7113 24.422 24.8787 23.8744 25.0409 23.3258C25.0564 23.2737 25.0621 23.2194 25.0755 23.1518C24.6782 23.1063 24.2841 23.0722 23.8951 23.0143C23.5645 22.9653 23.2365 22.8986 22.9131 22.8206C22.628 22.7519 22.487 22.5391 22.5464 22.2813C22.6166 21.975 22.6988 21.6708 22.7881 21.368C22.8599 21.1247 23.1477 20.945 23.4318 20.9362C23.7195 20.9274 23.9783 20.9749 24.2392 21.1025C24.4339 21.1981 24.6829 21.2053 24.904 21.2616C25.2547 21.351 25.6101 21.4321 25.9506 21.5473C26.5384 21.7472 26.7869 22.1801 26.9 22.6967C27.1567 23.8682 26.9088 24.9768 26.3664 26.0487C26.2595 26.2599 26.1417 26.4671 26.0167 26.699C26.3194 26.9046 26.6149 27.1133 26.9212 27.3091C27.0839 27.4134 27.2771 27.4821 27.4362 27.5896C27.9796 27.9564 28.5995 28.148 29.2612 28.2663C29.8904 28.3789 30.5082 28.5483 31.141 28.6315C31.8363 28.7235 32.543 28.7885 33.2445 28.7865C34.0756 28.7844 34.9084 28.7157 35.7364 28.6424C36.3899 28.5845 36.9571 28.3123 37.4819 27.9744C37.7536 27.7993 38.141 27.8262 38.4386 28.0741C38.7284 28.3159 38.9149 28.6093 38.8844 28.9802C38.8844 28.9854 38.8813 28.9916 38.8828 28.9962C39.0275 29.4487 38.7103 29.6832 38.3234 29.8423C37.8879 30.0211 37.4313 30.1621 36.9762 30.2995C36.0381 30.5826 35.0618 30.627 34.0803 30.6725C33.2321 30.7117 32.4009 30.6673 31.5868 30.4653C30.594 30.2189 29.6053 29.957 28.6222 29.6817C28.3412 29.6032 28.0731 29.4725 27.8205 29.3346C27.2136 29.0034 26.5756 28.7328 25.8994 28.5385C25.7424 28.4936 25.5497 28.5375 25.3741 28.5514C25.1974 28.5654 25.0218 28.5933 24.8456 28.6129C24.6943 28.63 24.5822 28.694 24.469 28.7891C24.1555 29.053 23.8378 29.3175 23.4932 29.5479C22.9338 29.9214 22.269 29.706 22.0964 29.1047L22.097 29.1057Z" fill="#D90514"/>
<path d="M22.7432 18.4928C22.799 18.1364 22.988 17.8518 23.2835 17.6384C23.5361 17.4561 23.815 17.2959 24.1028 17.1596C24.3094 17.0614 24.5305 17.1162 24.6824 17.2804C25.3374 17.9881 25.9919 18.6963 26.6334 19.4133C26.8922 19.7026 26.8432 20.1422 26.5503 20.4067C26.3318 20.6035 26.1107 20.7993 25.8772 20.9816C25.6783 21.1371 25.4536 21.1402 25.2124 21.0359C24.8125 20.8628 24.4928 20.6097 24.2185 20.3055C23.784 19.8225 23.3429 19.3441 22.9167 18.8554C22.8315 18.7578 22.7995 18.6235 22.7432 18.4928Z" fill="#D90514"/>
<path d="M32.7175 44.5821C32.0858 45.031 31.4282 45.422 30.691 45.6948C30.5376 45.7516 30.3486 45.732 30.1755 45.7485C30.1156 45.7542 30.0552 45.7573 29.9963 45.7686C29.6987 45.8244 29.4105 45.7237 29.2643 45.5098C29.1191 45.297 29.1253 45.0253 29.3351 44.8362C29.645 44.5568 29.9911 44.3088 30.3098 44.0371C30.7572 43.6554 31.1962 43.2654 31.6322 42.8738C31.6725 42.8371 31.6994 42.7514 31.6798 42.7054C31.1301 41.4171 30.6161 40.1195 30.2329 38.7831C30.0598 38.1808 29.8656 37.5831 29.6703 36.9488C28.5798 37.0185 27.463 37.0898 26.3405 37.1611V38.5708C26.6536 38.5863 26.9661 38.6044 27.2786 38.6168C27.6485 38.6317 28.0188 38.6348 28.3877 38.655C29.0509 38.6917 29.4167 39.0068 29.5102 39.5895C29.693 40.7311 29.6657 41.8531 29.2292 42.9585C29.0313 43.4596 28.9037 43.9803 28.5664 44.4328C28.2265 44.8894 27.8422 44.9545 27.3432 44.6327C27.0234 44.4266 26.7037 44.2195 26.3715 44.0294C26.0435 43.8418 25.8668 43.5526 25.7093 43.2628C25.499 42.8759 25.8823 42.4368 26.3694 42.4771C26.6117 42.4972 26.8524 42.5298 27.1061 42.5577C27.3494 41.8918 27.4181 41.1929 27.3261 40.4811C27.3204 40.4382 27.2745 40.3788 27.2311 40.3638C26.8958 40.2491 26.5564 40.1437 26.2052 40.0316C26.1117 40.478 26.0435 40.884 25.9391 41.2822C25.6426 42.4187 25.1664 43.4952 24.531 44.5175C24.3471 44.8135 24.1782 45.1178 24.0216 45.4256C23.8801 45.7041 23.673 45.9314 23.4095 46.1209C23.1915 46.2775 22.9441 46.326 22.6801 46.2186C22.4249 46.1147 22.3273 45.9277 22.2917 45.6839C22.2534 45.42 22.3748 45.2092 22.4678 44.9747C22.661 44.487 22.8516 43.9906 22.9544 43.4833C23.2308 42.1206 23.488 40.7538 23.6947 39.3823C23.7742 38.8549 23.6921 38.3089 23.69 37.7717C23.6869 37.0583 23.6905 36.3449 23.6916 35.632C23.6916 35.614 23.6962 35.5959 23.6957 35.5778C23.6817 35.0819 23.8104 34.9021 24.361 34.8071C25.5321 34.6041 26.7176 34.51 27.9124 34.5421C28.2869 34.5519 28.6609 34.5855 29.0721 34.6103C29.0478 34.3287 29.0194 34.0668 29.0039 33.8039C28.9812 33.417 28.9523 33.0296 28.9538 32.6427C28.9554 32.2304 29.3805 31.827 29.8454 31.8533C30.4137 31.8854 30.9896 31.9107 31.5367 32.0925C31.9184 32.2196 32.0822 32.4655 32.1855 32.8002C32.3668 33.3865 32.404 33.9795 32.3766 34.6004C32.5998 34.6004 32.81 34.5927 33.0192 34.602C33.73 34.633 34.4403 34.6681 35.1511 34.7043C35.3836 34.7162 35.616 34.7291 35.8474 34.7518C36.5334 34.819 37.0195 35.1516 37.3599 35.6661C37.5356 35.9316 37.4385 36.2736 37.1363 36.4931C36.9203 36.6502 36.6626 36.7132 36.3934 36.7225C35.148 36.7654 33.902 36.8 32.6561 36.8382C32.5533 36.8413 32.4505 36.8449 32.3482 36.8501C32.3219 36.8516 32.296 36.8609 32.2738 36.8656C32.1684 38.2061 32.7181 39.4159 33.1799 40.6427C33.2057 40.6479 33.2315 40.6536 33.2574 40.6588C33.4444 40.2434 33.6391 39.8307 33.8158 39.4118C33.9485 39.0977 34.0601 38.7764 34.1779 38.4577C34.2672 38.2164 34.4811 38.0542 34.7621 38.0392C35.0462 38.0243 35.3159 38.0614 35.5654 38.2066C35.7214 38.2975 35.9032 38.36 36.082 38.4127C36.8046 38.6266 36.8821 39.0868 36.6326 39.5951C36.3562 40.1592 36.0479 40.7145 35.7049 41.2492C35.3412 41.8159 34.9254 42.3562 34.5209 42.9012C34.4429 43.0066 34.415 43.0742 34.5111 43.1827C34.8179 43.5298 35.1124 43.8858 35.4486 44.282C35.5406 44.081 35.6083 43.9343 35.6749 43.7876C35.8402 43.4234 35.9947 43.0556 36.1739 42.6971C36.2504 42.5442 36.3635 42.4017 36.4838 42.2715C36.8191 41.9099 37.3527 41.9352 37.6456 42.3252C37.8972 42.6599 38.0191 43.0396 38.0506 43.4358C38.1115 44.2076 37.9328 44.937 37.5252 45.625C37.2473 46.0936 36.784 46.3586 36.2597 46.5569C36.037 46.6411 35.802 46.621 35.5778 46.5414C35.0462 46.3529 34.5643 46.0967 34.1448 45.7475C33.6727 45.3549 33.1551 44.9984 32.9237 44.422C32.8389 44.4876 32.7821 44.5315 32.7144 44.5831L32.7175 44.5821Z" fill="#D90514"/>
<path d="M35.8206 31.9081C36.3878 32.1271 36.6414 32.5207 36.6956 33.0337C36.7034 33.106 36.7178 33.1788 36.7137 33.2506C36.7085 33.3457 36.7085 33.4475 36.6714 33.5342C36.3604 34.2554 35.2126 34.4227 34.649 33.838C34.508 33.6913 34.337 33.5668 34.1763 33.4356C33.6933 33.0404 33.6587 32.6447 34.04 32.1684C34.5043 31.5878 34.9956 31.5548 35.7152 31.8626C35.7457 31.8755 35.7767 31.889 35.8206 31.9086V31.9081Z" fill="#D90514"/>
</g>
<defs>
<clipPath id="clip0_208_13">
<rect width="41" height="41" fill="white" transform="translate(10 11)"/>
</clipPath>
</defs>
</svg>
