<svg width="53" height="43" viewBox="0 0 53 43" fill="none" xmlns="http://www.w3.org/2000/svg">
<g clip-path="url(#clip0_208_11)">
<path d="M4.66775 4.66794L4.66772 4.66797C-0.222845 9.55859 -0.222839 17.487 4.66772 22.3776C8.45452 26.1644 14.0451 26.9352 18.7332 24.9122C20.2492 24.2574 21.3145 23.8154 22.7932 24.3063L22.7979 24.3079L25.0762 25.0769L24.3071 22.7988L24.3071 22.7988L24.3053 22.7935C23.8153 21.3151 24.2571 20.2496 24.9114 18.7334L24.9114 18.7333C26.9349 14.0459 26.1637 8.45484 22.3768 4.66797L22.3767 4.66794C17.4867 -0.222573 9.55783 -0.222578 4.66775 4.66794Z" fill="#A4BF73" stroke="#634C37" stroke-width="2"/>
</g>
<g clip-path="url(#clip1_208_11)">
<path d="M48.9191 24.0812L48.9191 24.0812C53.0273 28.1894 53.0273 34.8494 48.9191 38.9576C45.74 42.1367 41.0437 42.7869 37.1009 41.0855C35.8134 40.5294 34.8563 40.1268 33.537 40.5648L33.5323 40.5664L31.8749 41.1258L32.4344 39.4686L32.4344 39.4686L32.4362 39.4633C32.8734 38.1443 32.4709 37.187 31.9153 35.8994L31.9152 35.8993C30.2134 31.9571 30.864 27.2604 34.0431 24.0812L34.0432 24.0812C38.1509 19.973 44.8113 19.973 48.9191 24.0812Z" fill="#FFD483" stroke="#634C37" stroke-width="2" stroke-linejoin="round"/>
</g>
<defs>
<clipPath id="clip0_208_11">
<rect width="27" height="27" fill="white" transform="matrix(-1 0 0 1 27 0)"/>
</clipPath>
<clipPath id="clip1_208_11">
<rect width="23" height="23" fill="white" transform="translate(30 20)"/>
</clipPath>
</defs>
</svg>
