<svg width="59" height="63" viewBox="0 0 59 63" fill="none" xmlns="http://www.w3.org/2000/svg">
<path d="M45.0305 13.8911C44.7263 13.7919 44.4995 13.6057 44.3502 13.3326C44.2177 13.0509 44.1884 12.7538 44.2623 12.4413L46.2766 4.97804C46.3591 4.68236 46.5368 4.45986 46.81 4.31055C47.0831 4.16123 47.3654 4.13414 47.6569 4.22926L49.3682 4.78759C49.6597 4.88271 49.8717 5.0711 50.0042 5.35276C50.1367 5.63442 50.1491 5.91895 50.0413 6.20635L47.2854 13.4277C47.1608 13.7237 46.9556 13.9442 46.6698 14.0894C46.3882 14.2219 46.0952 14.2385 45.791 14.1393L45.0305 13.8911ZM45.4849 15.7224C45.7764 15.8175 45.9948 16.008 46.1399 16.2938C46.2851 16.5796 46.3101 16.8682 46.215 17.1598L45.9917 17.8443C45.8966 18.1358 45.7061 18.3542 45.4203 18.4993C45.1345 18.6445 44.8459 18.6695 44.5543 18.5744L43.4135 18.2022C43.122 18.1071 42.9036 17.9166 42.7584 17.6308C42.6132 17.345 42.5882 17.0564 42.6833 16.7648L42.9067 16.0803C43.0018 15.7888 43.1922 15.5704 43.478 15.4253C43.7638 15.2801 44.0525 15.2551 44.344 15.3502L45.4849 15.7224Z" fill="#FF7A6B"/>
<path d="M46.7869 23.7393C46.6537 23.4507 46.419 23.2085 46.1199 23.0709C45.4994 22.7838 44.7905 22.5416 43.9995 22.3263C42.8122 22.0078 41.4379 21.758 39.9247 21.583C38.4113 21.4111 36.759 21.3154 35.0258 21.3154C32.714 21.3154 30.5472 21.4828 28.66 21.7819C27.715 21.9315 26.8432 22.1139 26.0506 22.3263C25.4913 22.4788 24.9755 22.6448 24.4999 22.8317C24.0244 22.6448 23.5085 22.4787 22.9477 22.3263C21.7618 22.0078 20.3876 21.758 18.8743 21.583C17.3595 21.4111 15.7071 21.3154 13.974 21.3154C11.6622 21.3154 9.49538 21.4828 7.60821 21.7819C6.6663 21.9314 5.79157 22.1138 5.00049 22.3262C4.20941 22.5415 3.50063 22.7837 2.87856 23.0708C2.57949 23.2085 2.34616 23.4507 2.21313 23.7392C1.17839 23.998 0 24.4825 0 25.3423C0 25.8791 0 50.2655 0 50.2655C0 52.6626 1.94402 54.6065 4.341 54.6065H21.8352V54.8323C21.8352 55.3034 22.2151 55.6846 22.6846 55.6846H26.3154C26.7849 55.6846 27.1648 55.3034 27.1648 54.8323V54.6065H44.659C47.0561 54.6065 49 52.6625 49 50.2655C49 50.2655 49 25.8791 49 25.3423C49 24.4825 47.8217 23.998 46.7869 23.7393ZM23.1392 49.6763C23.0749 49.6583 23.0135 49.6389 22.9478 49.6195C21.7619 49.2994 20.3877 49.0512 18.8744 48.8762C17.3596 48.7042 15.7072 48.6085 13.9741 48.6085C11.6623 48.6085 9.49547 48.7776 7.6083 49.0751C6.6662 49.2247 5.79147 49.4071 5.00039 49.6195C4.93455 49.6389 4.8733 49.6583 4.80899 49.6763V25.2302C5.08413 25.1345 5.38474 25.0433 5.70917 24.955C6.72898 24.6799 7.98212 24.4481 9.38331 24.2881C10.7875 24.1265 12.3397 24.0384 13.9741 24.0384C16.1529 24.0384 18.1895 24.1984 19.9137 24.4706C20.7766 24.6067 21.5601 24.7726 22.239 24.9551C22.565 25.0434 22.8656 25.1346 23.1392 25.2303V49.6763ZM44.1894 49.6763C44.1251 49.6583 44.0653 49.6389 43.9995 49.6195C42.8122 49.2994 41.4379 49.0512 39.9247 48.8762C38.4113 48.7042 36.759 48.6085 35.0258 48.6085C32.714 48.6085 30.5472 48.7776 28.66 49.0751C27.715 49.2247 26.8432 49.4071 26.0506 49.6195C25.9863 49.6389 25.9249 49.6583 25.8607 49.6763V25.2302C26.1343 25.1345 26.4349 25.0433 26.7609 24.955C27.7793 24.6799 29.0309 24.4481 30.4335 24.2881C31.8377 24.1265 33.3913 24.0384 35.0257 24.0384C37.203 24.0384 39.2396 24.1984 40.9653 24.4706C41.8282 24.6067 42.6103 24.7726 43.2906 24.9551C43.6152 25.0434 43.9157 25.1346 44.1894 25.2303V49.6763Z" fill="#634C37"/>
</svg>
