<svg width="72" height="42" viewBox="0 0 72 42" fill="none" xmlns="http://www.w3.org/2000/svg">
<mask id="path-1-outside-1_119_1918" maskUnits="userSpaceOnUse" x="0" y="0" width="72" height="42" fill="black">
<rect fill="white" width="72" height="42"/>
<path fill-rule="evenodd" clip-rule="evenodd" d="M36.7985 37.9951C55.2073 37.7705 70 29.7998 70 20C70 10.0589 54.7777 2 36 2C17.2223 2 2 10.0589 2 20C2 29.5801 16.1367 37.4121 33.9687 37.9684L35.393 40L36.7985 37.9951Z"/>
</mask>
<path fill-rule="evenodd" clip-rule="evenodd" d="M36.7985 37.9951C55.2073 37.7705 70 29.7998 70 20C70 10.0589 54.7777 2 36 2C17.2223 2 2 10.0589 2 20C2 29.5801 16.1367 37.4121 33.9687 37.9684L35.393 40L36.7985 37.9951Z" fill="white"/>
<path d="M36.7985 37.9951L36.7741 35.9953C36.1306 36.0031 35.5303 36.3201 35.1609 36.847L36.7985 37.9951ZM33.9687 37.9684L35.6063 36.8203C35.2446 36.3043 34.6609 35.989 34.031 35.9694L33.9687 37.9684ZM35.393 40L33.7553 41.1481C34.1297 41.6821 34.7408 42 35.393 42C36.0451 42 36.6562 41.6821 37.0306 41.1481L35.393 40ZM68 20C68 23.8094 65.0937 27.7222 59.3509 30.8292C53.6913 33.8911 45.723 35.8861 36.7741 35.9953L36.8229 39.995C46.2829 39.8796 54.9153 37.7769 61.2543 34.3473C67.5099 30.9629 72 25.9904 72 20H68ZM36 4C45.1292 4 53.295 5.96331 59.1059 9.03965C65.0062 12.1634 68 16.1353 68 20H72C72 13.9236 67.3826 8.8955 60.9774 5.5045C54.4827 2.06613 45.6485 0 36 0V4ZM4 20C4 16.1353 6.99379 12.1634 12.8941 9.03965C18.705 5.96331 26.8708 4 36 4V0C26.3515 0 17.5173 2.06613 11.0226 5.5045C4.61737 8.8955 0 13.9236 0 20H4ZM34.031 35.9694C25.3644 35.699 17.7009 33.6597 12.274 30.6228C6.77305 27.5445 4 23.7235 4 20H0C0 25.8566 4.29529 30.7417 10.3207 34.1134C16.4201 37.5267 24.7409 39.6815 33.9063 39.9674L34.031 35.9694ZM32.331 39.1165L33.7553 41.1481L37.0306 38.8519L35.6063 36.8203L32.331 39.1165ZM37.0306 41.1481L38.4361 39.1432L35.1609 36.847L33.7553 38.8519L37.0306 41.1481Z" fill="#634C37" mask="url(#path-1-outside-1_119_1918)"/>
</svg>
