<svg width="57" height="42" viewBox="0 0 57 42" fill="none" xmlns="http://www.w3.org/2000/svg">
<mask id="path-1-outside-1_119_1924" maskUnits="userSpaceOnUse" x="0" y="0" width="57" height="42" fill="black">
<rect fill="white" width="57" height="42"/>
<path fill-rule="evenodd" clip-rule="evenodd" d="M29.1224 37.9951C43.4705 37.7705 55 29.7998 55 20C55 10.0589 43.1355 2 28.5 2C13.8645 2 2 10.0589 2 20C2 29.5801 13.0183 37.4122 26.9168 37.9684L28.0269 40L29.1224 37.9951Z"/>
</mask>
<path fill-rule="evenodd" clip-rule="evenodd" d="M29.1224 37.9951C43.4705 37.7705 55 29.7998 55 20C55 10.0589 43.1355 2 28.5 2C13.8645 2 2 10.0589 2 20C2 29.5801 13.0183 37.4122 26.9168 37.9684L28.0269 40L29.1224 37.9951Z" fill="white"/>
<path d="M29.1224 37.9951L29.0911 35.9954C28.3711 36.0066 27.7127 36.4042 27.3674 37.0361L29.1224 37.9951ZM26.9168 37.9684L28.6719 37.0094C28.3349 36.3927 27.699 35.9981 26.9968 35.97L26.9168 37.9684ZM28.0269 40L26.2719 40.959C26.6226 41.6008 27.2956 42 28.0269 42C28.7583 42 29.4313 41.6008 29.782 40.959L28.0269 40ZM53 20C53 24.0534 50.6175 27.9492 46.3013 30.9453C41.9938 33.9353 35.923 35.8884 29.0911 35.9954L29.1538 39.9949C36.6699 39.8772 43.5379 37.7327 48.5822 34.2312C53.6177 30.7359 57 25.7464 57 20H53ZM28.5 4C35.4704 4 41.6921 5.92255 46.1146 8.92651C50.5478 11.9378 53 15.8888 53 20H57C57 14.1701 53.52 9.1211 48.3621 5.61764C43.1935 2.10688 36.1652 0 28.5 0V4ZM4 20C4 15.8888 6.45219 11.9378 10.8854 8.92651C15.3079 5.92255 21.5296 4 28.5 4V0C20.8348 0 13.8065 2.10688 8.6379 5.61764C3.48003 9.1211 0 14.1701 0 20H4ZM26.9968 35.97C20.3817 35.7053 14.5438 33.7094 10.4129 30.7435C6.27622 27.7735 4 23.9636 4 20H0C0 25.6165 3.23295 30.5127 8.08004 33.9928C12.933 37.477 19.5535 39.6753 26.8369 39.9668L26.9968 35.97ZM25.1618 38.9274L26.2719 40.959L29.782 39.041L28.6719 37.0094L25.1618 38.9274ZM29.782 40.959L30.8775 38.9541L27.3674 37.0361L26.2719 39.041L29.782 40.959Z" fill="#634C37" mask="url(#path-1-outside-1_119_1924)"/>
</svg>
