<svg width="20" height="20" viewBox="0 0 20 20" fill="none" xmlns="http://www.w3.org/2000/svg">
<path d="M15.0002 17.7778H17.0002V8.88889H11.0002V17.7778H13.0002V11.1111H15.0002V17.7778ZM1.00024 17.7778V1.11111C1.00024 0.816426 1.1056 0.533811 1.29314 0.325437C1.48067 0.117063 1.73503 0 2.00024 0H16.0002C16.2655 0 16.5198 0.117063 16.7074 0.325437C16.8949 0.533811 17.0002 0.816426 17.0002 1.11111V6.66667H19.0002V17.7778H20.0002V20H0.000244141V17.7778H1.00024ZM5.00024 8.88889V11.1111H7.00024V8.88889H5.00024ZM5.00024 13.3333V15.5556H7.00024V13.3333H5.00024ZM5.00024 4.44444V6.66667H7.00024V4.44444H5.00024Z" fill="#634C37"/>
</svg>
