<svg width="25" height="25" viewBox="0 0 25 25" fill="none" xmlns="http://www.w3.org/2000/svg">
<path d="M24.7509 2.48337C24.9104 2.64496 24.9999 2.86382 24.9999 3.09198C24.9999 3.32014 24.9104 3.53899 24.7509 3.70058L22.9708 5.50053L19.5573 2.05235L21.3375 0.252399C21.4975 0.0907905 21.7145 3.8147e-06 21.9408 3.8147e-06C22.1671 3.8147e-06 22.3841 0.0907905 22.5441 0.252399L24.7509 2.48165V2.48337ZM21.7641 6.71774L18.3507 3.26956L6.72274 15.0175C6.62881 15.1124 6.55809 15.2281 6.51622 15.3554L5.14231 19.5174C5.11739 19.5933 5.11385 19.6746 5.13209 19.7524C5.15033 19.8302 5.18962 19.9014 5.24558 19.9579C5.30154 20.0144 5.37195 20.0541 5.44896 20.0725C5.52596 20.0909 5.60652 20.0874 5.68163 20.0622L9.80168 18.6743C9.92758 18.6325 10.0421 18.5617 10.1362 18.4674L21.7641 6.71946V6.71774Z" fill="#634C37"/>
<path fill-rule="evenodd" clip-rule="evenodd" d="M0 22.4139C0 23.0998 0.269724 23.7575 0.749834 24.2425C1.22995 24.7275 1.88112 25 2.56009 25H21.3341C22.0131 25 22.6643 24.7275 23.1444 24.2425C23.6245 23.7575 23.8942 23.0998 23.8942 22.4139V12.0693C23.8942 11.8407 23.8043 11.6214 23.6443 11.4598C23.4842 11.2981 23.2672 11.2073 23.0408 11.2073C22.8145 11.2073 22.5975 11.2981 22.4374 11.4598C22.2774 11.6214 22.1875 11.8407 22.1875 12.0693V22.4139C22.1875 22.6425 22.0976 22.8618 21.9375 23.0234C21.7775 23.1851 21.5604 23.2759 21.3341 23.2759H2.56009C2.33377 23.2759 2.11671 23.1851 1.95667 23.0234C1.79664 22.8618 1.70673 22.6425 1.70673 22.4139V3.44886C1.70673 3.22024 1.79664 3.00097 1.95667 2.83931C2.11671 2.67764 2.33377 2.58682 2.56009 2.58682H13.6538C13.8802 2.58682 14.0972 2.496 14.2573 2.33433C14.4173 2.17267 14.5072 1.9534 14.5072 1.72477C14.5072 1.49615 14.4173 1.27688 14.2573 1.11522C14.0972 0.95355 13.8802 0.862728 13.6538 0.862728H2.56009C1.88112 0.862728 1.22995 1.1352 0.749834 1.62019C0.269724 2.10518 0 2.76298 0 3.44886V22.4139Z" fill="#634C37"/>
</svg>
