<svg width="35" height="38" viewBox="0 0 35 38" fill="none" xmlns="http://www.w3.org/2000/svg">
<g clip-path="url(#clip0_103_479)">
<path d="M28.765 20.9984C28.4614 14.5264 26.1874 7.9205 14.3912 7.9205C4.64137 7.9205 1.30577 11.8712 0.0850916 18.3571C-0.110582 19.3958 0.0942352 21.3716 0.0850916 22.3347H28.7705C28.7879 21.9023 28.787 21.4578 28.765 20.9984Z" fill="#FF7A6B"/>
<path d="M21.2206 34.0537C21.1904 34.0685 21.174 34.0763 21.174 34.0763C21.1886 34.0789 21.2041 34.0711 21.2206 34.0537Z" fill="#FF7A6B"/>
<path d="M0.085083 22.3347C0.085083 22.3347 0.192978 36.802 3.50206 37.3397C2.85652 35.5736 2.21098 21.3647 2.21098 21.3647L0.085083 22.3347Z" fill="#FF7A6B"/>
<path d="M28.7823 22.3347C28.7823 22.3347 28.6744 36.802 25.3654 37.3397C26.0109 35.5736 26.6564 21.3647 26.6564 21.3647L28.7823 22.3347Z" fill="#FF7A6B"/>
<path d="M15.333 8.58519C15.2461 7.47071 16.6542 -2.11411 26.7333 0.426298C39.0689 3.53656 33.7272 29.601 34.4743 38C30.3532 35.5196 28.9003 21.7266 25.3855 16.4317C21.8707 11.136 15.333 8.58519 15.333 8.58519Z" fill="#FF7A6B"/>
</g>
<defs>
<clipPath id="clip0_103_479">
<rect width="35" height="38" fill="white"/>
</clipPath>
</defs>
</svg>
