<svg width="37" height="38" viewBox="0 0 37 38" fill="none" xmlns="http://www.w3.org/2000/svg">
<g clip-path="url(#clip0_104_28)">
<path d="M31.6252 12.5932C31.3465 6.36112 29.2588 0 18.4295 0C9.47872 0 6.41651 3.80427 5.29505 10.0498C5.11541 11.0501 5.30344 12.9526 5.29505 13.88H31.6294C31.6453 13.4637 31.6445 13.0356 31.6243 12.5932H31.6252Z" fill="#FF7A6B"/>
<path d="M24.6983 25.1647C24.6706 25.1789 24.6555 25.1865 24.6555 25.1865C24.6689 25.189 24.6832 25.1814 24.6983 25.1647Z" fill="#FF7A6B"/>
<path d="M5.29504 13.88C5.29504 13.88 5.3941 27.8112 8.43196 28.3289C7.83933 26.6282 7.2467 12.9459 7.2467 12.9459L5.29504 13.88Z" fill="#FF7A6B"/>
<path d="M31.6411 13.88C31.6411 13.88 31.542 27.8112 28.5042 28.3289C29.0968 26.6282 29.6894 12.9459 29.6894 12.9459L31.6411 13.88Z" fill="#FF7A6B"/>
<path d="M2.02384 28.8609C3.14158 28.8609 4.04769 27.9565 4.04769 26.841C4.04769 25.7255 3.14158 24.8212 2.02384 24.8212C0.906106 24.8212 0 25.7255 0 26.841C0 27.9565 0.906106 28.8609 2.02384 28.8609Z" fill="#FF7A6B"/>
<path d="M2.57115 23.9457C3.99115 23.9457 5.14229 22.7969 5.14229 21.3797C5.14229 19.9625 3.99115 18.8136 2.57115 18.8136C1.15114 18.8136 0 19.9625 0 21.3797C0 22.7969 1.15114 23.9457 2.57115 23.9457Z" fill="#FF7A6B"/>
<path d="M2.33606 32.3686C3.06438 32.3686 3.65479 31.7793 3.65479 31.0524C3.65479 30.3256 3.06438 29.7363 2.33606 29.7363C1.60775 29.7363 1.01733 30.3256 1.01733 31.0524C1.01733 31.7793 1.60775 32.3686 2.33606 32.3686Z" fill="#FF7A6B"/>
<path d="M2.79021 33.244C4.63694 35.0075 4.27599 36.5079 3.79248 37.7721C3.03364 36.8372 1.76192 36.3697 2.79021 33.244Z" fill="#FF7A6B"/>
<path d="M34.9762 29.0896C36.094 29.0896 37.0001 28.1853 37.0001 27.0697C37.0001 25.9542 36.094 25.0499 34.9762 25.0499C33.8585 25.0499 32.9524 25.9542 32.9524 27.0697C32.9524 28.1853 33.8585 29.0896 34.9762 29.0896Z" fill="#FF7A6B"/>
<path d="M34.4298 24.1744C35.8498 24.1744 37.0009 23.0256 37.0009 21.6084C37.0009 20.1912 35.8498 19.0423 34.4298 19.0423C33.0098 19.0423 31.8586 20.1912 31.8586 21.6084C31.8586 23.0256 33.0098 24.1744 34.4298 24.1744Z" fill="#FF7A6B"/>
<path d="M34.6647 32.5973C35.393 32.5973 35.9834 32.008 35.9834 31.2812C35.9834 30.5543 35.393 29.965 34.6647 29.965C33.9364 29.965 33.3459 30.5543 33.3459 31.2812C33.3459 32.008 33.9364 32.5973 34.6647 32.5973Z" fill="#FF7A6B"/>
<path d="M34.2097 33.4727C32.3629 35.2362 32.7239 36.7367 33.2074 38.0008C33.9662 37.0659 35.2379 36.5984 34.2097 33.4727Z" fill="#FF7A6B"/>
</g>
<defs>
<clipPath id="clip0_104_28">
<rect width="37" height="38" fill="white"/>
</clipPath>
</defs>
</svg>
