<svg width="28" height="38" viewBox="0 0 28 38" fill="none" xmlns="http://www.w3.org/2000/svg">
<g clip-path="url(#clip0_102_472)">
<path d="M27.9832 21.4288C27.6878 14.8658 25.4756 8.16693 14.0001 8.16693C4.51521 8.16693 1.27028 12.1732 0.082782 18.7503C-0.107573 19.8037 0.0916771 21.8073 0.082782 22.7839H27.9885C28.0054 22.3455 28.0045 21.8946 27.9832 21.4288Z" fill="#FF7A6B"/>
<path d="M20.6438 34.6686C20.6144 34.6836 20.5984 34.6916 20.5984 34.6916C20.6126 34.6942 20.6277 34.6863 20.6438 34.6686Z" fill="#FF7A6B"/>
<path d="M14.0409 10.0135C16.8288 10.0135 19.0889 7.77187 19.0889 5.00673C19.0889 2.24159 16.8288 0 14.0409 0C11.253 0 8.99292 2.24159 8.99292 5.00673C8.99292 7.77187 11.253 10.0135 14.0409 10.0135Z" fill="#FF7A6B"/>
<path d="M0.0827637 22.7848C0.0827637 22.7848 0.187726 37.4556 3.40686 38.0009C2.77887 36.2099 2.15087 21.8011 2.15087 21.8011L0.0827637 22.7848Z" fill="#FF7A6B"/>
<path d="M28 22.7848C28 22.7848 27.895 37.4556 24.6759 38.0009C25.3039 36.2099 25.9319 21.8011 25.9319 21.8011L28 22.7848Z" fill="#FF7A6B"/>
</g>
<defs>
<clipPath id="clip0_102_472">
<rect width="28" height="38" fill="white"/>
</clipPath>
</defs>
</svg>
