<svg width="49" height="38" viewBox="0 0 49 38" fill="none" xmlns="http://www.w3.org/2000/svg">
<g clip-path="url(#clip0_103_486)">
<path d="M37.8964 19.1752C37.6135 12.6737 35.4942 6.03749 24.5004 6.03749C15.4139 6.03749 12.3052 10.0063 11.1676 16.5218C10.9852 17.5654 11.1761 19.5502 11.1676 20.5177H37.9007C37.9168 20.0833 37.916 19.6367 37.8955 19.1752H37.8964Z" fill="#FF7A6B"/>
<path d="M30.8644 32.2903C30.8362 32.3052 30.8208 32.3131 30.8208 32.3131C30.8345 32.3157 30.849 32.3078 30.8644 32.2903Z" fill="#FF7A6B"/>
<path d="M11.1591 20.5185C11.1591 20.5185 11.2596 35.052 14.3436 35.5922C13.742 33.818 13.1403 19.5441 13.1403 19.5441L11.1591 20.5185Z" fill="#FF7A6B"/>
<path d="M37.9016 20.5185C37.9016 20.5185 37.801 35.052 34.717 35.5922C35.3187 33.818 35.9203 19.5441 35.9203 19.5441L37.9016 20.5185Z" fill="#FF7A6B"/>
<path d="M30.2696 8.45055C30.1887 7.33098 31.3484 -1.60814 40.8943 0.254323C56.7684 3.35173 43.6204 19.988 48.1087 38C40.0856 32.736 41.0017 19.1438 39.6331 13.7233C38.0038 7.27068 30.2696 8.45055 30.2696 8.45055Z" fill="#FF7A6B"/>
<path d="M18.7306 8.45055C18.8115 7.33098 17.6517 -1.60814 8.10585 0.254323C-7.76817 3.35173 5.37979 19.988 0.891471 38C8.91455 32.736 7.99848 19.1438 9.36704 13.7233C10.9964 7.27068 18.7306 8.45055 18.7306 8.45055Z" fill="#FF7A6B"/>
</g>
<defs>
<clipPath id="clip0_103_486">
<rect width="49" height="38" fill="white"/>
</clipPath>
</defs>
</svg>
