<svg width="41" height="38" viewBox="0 0 41 38" fill="none" xmlns="http://www.w3.org/2000/svg">
<g clip-path="url(#clip0_104_42)">
<path d="M35.4827 20.3175C35.1663 13.3144 32.796 6.16623 20.5005 6.16623C10.3379 6.16623 6.86116 10.4412 5.58881 17.4594C5.38485 18.5834 5.59834 20.7214 5.58881 21.7635H35.4875C35.5056 21.2956 35.5046 20.8146 35.4818 20.3175H35.4827Z" fill="#FF7A6B"/>
<path d="M27.6181 34.4443C27.5866 34.4603 27.5695 34.4688 27.5695 34.4688C27.5847 34.4716 27.6009 34.4631 27.6181 34.4443Z" fill="#FF7A6B"/>
<path d="M7.32623 14.4732C11.3724 14.4732 14.6525 11.2333 14.6525 7.23662C14.6525 3.23994 11.3724 0 7.32623 0C3.28006 0 0 3.23994 0 7.23662C0 11.2333 3.28006 14.4732 7.32623 14.4732Z" fill="#FF7A6B"/>
<path d="M33.6728 14.4732C37.7189 14.4732 40.999 11.2333 40.999 7.23662C40.999 3.23994 37.7189 0 33.6728 0C29.6266 0 26.3466 3.23994 26.3466 7.23662C26.3466 11.2333 29.6266 14.4732 33.6728 14.4732Z" fill="#FF7A6B"/>
<path d="M5.57349 21.7635C5.57349 21.7635 5.68595 37.4182 9.1351 38C8.46223 36.0889 7.78937 20.7138 7.78937 20.7138L5.57349 21.7635Z" fill="#FF7A6B"/>
<path d="M35.4856 21.7635C35.4856 21.7635 35.3731 37.4182 31.924 38C32.5968 36.0889 33.2697 20.7138 33.2697 20.7138L35.4856 21.7635Z" fill="#FF7A6B"/>
</g>
<defs>
<clipPath id="clip0_104_42">
<rect width="41" height="38" fill="white"/>
</clipPath>
</defs>
</svg>
