<svg width="27" height="38" viewBox="0 0 27 38" fill="none" xmlns="http://www.w3.org/2000/svg">
<g clip-path="url(#clip0_104_8)">
<path d="M23.8238 9.74356C23.6058 4.92169 21.9673 0 13.4714 0C6.44921 0 4.04681 2.94342 3.16764 7.77566C3.02671 8.5496 3.17423 10.0216 3.16764 10.7392H23.8278C23.8403 10.417 23.8396 10.0858 23.8238 9.74356Z" fill="#FF7A6B"/>
<path d="M18.39 19.4702C18.3683 19.4813 18.3564 19.4871 18.3564 19.4871C18.367 19.489 18.3782 19.4832 18.39 19.4702Z" fill="#FF7A6B"/>
<path d="M23.8159 10.6659C23.8159 10.6659 24.7919 17.271 26.489 26.1388C28.1861 35.0067 25.2818 37.9028 23.2021 38C23.6078 35.3696 23.6394 33.1535 23.6394 33.1535C23.6394 33.1535 22.7457 37.8192 18.1774 37.0679C19.5254 34.1297 19.9502 12.9501 19.1711 9.32741C18.3927 5.70404 23.8159 10.6666 23.8159 10.6666V10.6659Z" fill="#FF7A6B"/>
<path d="M3.18349 10.6659C3.18349 10.6659 2.20751 17.271 0.510421 26.1388C-1.18667 35.0067 1.71755 37.9028 3.79726 38C3.39159 35.3696 3.35998 33.1535 3.35998 33.1535C3.35998 33.1535 4.25364 37.8192 8.82202 37.0679C7.47396 34.1297 7.04919 12.9501 7.82826 9.32741C8.60667 5.70404 3.18349 10.6666 3.18349 10.6666V10.6659Z" fill="#FF7A6B"/>
</g>
<defs>
<clipPath id="clip0_104_8">
<rect width="27" height="38" fill="white"/>
</clipPath>
</defs>
</svg>
