<svg width="83" height="125" viewBox="0 0 83 125" fill="none" xmlns="http://www.w3.org/2000/svg">
<g filter="url(#filter0_d_208_14)">
<path d="M25.792 37.996L25.4461 38.1649L25.521 38.5425L26.0831 41.3786L22.6718 39.0958L22.5182 38.9931L22.3347 39.0149C20.0067 39.2916 17.6206 38.7906 15.5766 37.4228C10.8434 34.2555 9.68973 27.5897 13.0832 22.5186C16.4766 17.4476 23.0785 15.9716 27.8117 19.139C32.5449 22.3063 33.6986 28.9721 30.3051 34.0432L30.3042 34.0445C29.178 35.7392 27.6205 37.1032 25.792 37.996Z" fill="#FFF2D0" stroke="#634C37"/>
<path d="M22.5477 34.4892L22.5477 34.4892L22.542 34.4902C22.517 34.4944 22.4915 34.4937 22.4669 34.488C22.4425 34.4825 22.4194 34.4722 22.399 34.4577C22.3988 34.4576 22.3986 34.4574 22.3983 34.4573L16.2235 30.0168C16.2232 30.0166 16.2229 30.0164 16.2226 30.0162C15.5536 29.5301 15.1033 28.7999 14.9695 27.9838C14.8356 27.168 15.0289 26.3323 15.5073 25.6581C15.991 24.9872 16.721 24.5353 17.5373 24.4014C18.354 24.2674 19.1905 24.4627 19.8635 24.9445C19.8636 24.9445 19.8636 24.9446 19.8637 24.9446L20.7218 25.5608L21.1279 25.8525L21.4196 25.4464L22.0358 24.5883C22.0358 24.5882 22.0359 24.5881 22.036 24.5881C22.5197 23.9166 23.25 23.4642 24.0667 23.3302C24.883 23.1963 25.7191 23.3914 26.3919 23.8726C27.0606 24.3586 27.5107 25.0887 27.6445 25.9045C27.7784 26.7205 27.585 27.5564 27.1064 28.2307C27.1062 28.231 27.106 28.2313 27.1058 28.2316L22.6733 34.4122C22.6731 34.4124 22.6729 34.4126 22.6728 34.4129C22.658 34.433 22.6395 34.4501 22.6182 34.4632C22.5966 34.4764 22.5726 34.4853 22.5477 34.4892Z" fill="#FF7A6B" stroke="#634C37"/>
</g>
<g filter="url(#filter1_d_208_14)">
<path d="M57.8761 36.3765L57.4915 36.3911L57.4072 36.7668L56.5935 40.3952L53.8227 36.0223L53.7238 35.8662L53.5471 35.812C50.8322 34.9782 48.4324 33.2537 46.8366 30.7353C43.1403 24.9018 45.1332 16.9533 51.3701 13.0013C57.6071 9.04941 65.6454 10.6419 69.3416 16.4753C73.0379 22.3087 71.0451 30.2573 64.8081 34.2092L64.8068 34.2101C62.7301 35.5352 60.3378 36.283 57.8761 36.3765Z" fill="#FFF2D0" stroke="#634C37"/>
<path d="M55.9844 30.9419L55.9844 30.9419L55.9788 30.9405C55.9364 30.9297 55.8966 30.9108 55.8616 30.8846C55.8269 30.8587 55.7976 30.8262 55.7753 30.789C55.7752 30.7887 55.775 30.7884 55.7749 30.7882L51.1448 22.9056C51.1447 22.9052 51.1445 22.9049 51.1443 22.9046C50.6317 22.0222 50.4879 20.9732 50.744 19.9854C51 18.9978 51.6352 18.151 52.5117 17.6287C53.3927 17.1127 54.4422 16.9668 55.4305 17.223C56.4193 17.4794 57.2661 18.1173 57.7853 18.997C57.7853 18.9971 57.7853 18.9971 57.7854 18.9972L58.4292 20.0917L58.6827 20.5226L59.1136 20.2691L60.2081 19.6253C60.2083 19.6252 60.2085 19.6251 60.2087 19.625C60.2087 19.625 60.2087 19.6249 60.2087 19.6249C61.0898 19.1085 62.1397 18.9625 63.1283 19.2188C64.1166 19.475 64.9631 20.1124 65.4823 20.9914C65.9947 21.8737 66.1385 22.9225 65.8824 23.9102C65.6263 24.898 64.9909 25.745 64.1142 26.2672C64.1139 26.2674 64.1136 26.2676 64.1132 26.2677L56.2366 30.9079C56.2363 30.908 56.2361 30.9082 56.2358 30.9083C56.1983 30.9301 56.1568 30.9442 56.1139 30.95C56.0706 30.9559 56.0266 30.9531 55.9844 30.9419Z" fill="#FF7A6B" stroke="#634C37"/>
</g>
<g filter="url(#filter2_d_208_14)">
<path d="M30.3282 114.798L30.6988 114.921L30.6719 115.301L30.4445 118.519L33.9529 115.54L34.0934 115.42L34.28 115.419C36.8839 115.397 39.4436 114.532 41.5047 112.781C46.2782 108.727 46.6078 101.408 42.1602 96.4303C37.7127 91.4523 30.2322 90.767 25.4587 94.8214C20.6851 98.8757 20.3556 106.194 24.8031 111.172L24.8042 111.173C26.2824 112.839 28.1891 114.09 30.3282 114.798Z" fill="#FFF2D0" stroke="#634C37"/>
<path d="M33.4131 110.599L33.4131 110.599L33.4187 110.6C33.4554 110.601 33.4917 110.595 33.5255 110.583C33.5589 110.571 33.5889 110.553 33.6139 110.531C33.6141 110.531 33.6143 110.531 33.6145 110.53L39.7692 104.937C39.7695 104.936 39.7698 104.936 39.77 104.936C40.4449 104.316 40.8395 103.465 40.8724 102.567C40.9053 101.67 40.5742 100.794 39.9466 100.129C39.3131 99.4679 38.4342 99.0764 37.5016 99.0439C36.5686 99.0114 35.6628 99.3411 34.9824 99.9569C34.9823 99.9569 34.9822 99.957 34.9822 99.9571L34.1268 100.734L33.7655 101.061L33.4291 100.709L32.6327 99.8752C32.6326 99.8751 32.6325 99.875 32.6324 99.8748C31.9988 99.2134 31.1195 98.8215 30.1866 98.789C29.254 98.7565 28.3486 99.0859 27.6683 99.7011C26.9937 100.32 26.5992 101.172 26.5664 102.069C26.5335 102.967 26.8648 103.843 27.4925 104.508C27.4928 104.508 27.4931 104.509 27.4933 104.509L33.2228 110.517C33.223 110.517 33.2232 110.517 33.2234 110.517C33.2467 110.541 33.2752 110.562 33.3077 110.576C33.3406 110.59 33.3764 110.598 33.4131 110.599Z" fill="#FF7A6B" stroke="#634C37"/>
</g>
<g filter="url(#filter3_d_208_14)">
<path d="M38.6807 67.7115L39.0418 67.8359L39.0156 68.2219L38.8201 71.0996L41.8663 68.4087L42.005 68.2862L42.1888 68.2846C44.4998 68.2645 46.7703 67.466 48.5981 65.8513C52.8305 62.1127 53.1283 55.3568 49.1764 50.7563C45.2245 46.1558 38.5843 45.5285 34.352 49.2672C30.1196 53.0058 29.8218 59.7618 33.7738 64.3622L33.7748 64.3634C35.0877 65.9018 36.7812 67.0574 38.6807 67.7115Z" fill="#FFF2D0" stroke="#634C37"/>
<path d="M41.4148 63.8257L41.4148 63.8256L41.4207 63.8259C41.4437 63.8269 41.4668 63.8232 41.4889 63.815C41.5106 63.8069 41.5311 63.7944 41.549 63.7778C41.5492 63.7776 41.5493 63.7775 41.5495 63.7773L47.0357 58.5912C47.036 58.5909 47.0362 58.5907 47.0365 58.5904C47.6297 58.0241 47.98 57.242 48.0092 56.4134C48.0384 55.585 47.7442 54.7797 47.1926 54.1719C46.6364 53.5684 45.8684 53.2143 45.0573 53.1849C44.2457 53.1555 43.4544 53.4535 42.857 54.0158C42.8569 54.0158 42.8568 54.0159 42.8568 54.016L42.0943 54.7358L41.7258 55.0837L41.3827 54.71L40.6729 53.9368C40.6728 53.9368 40.6727 53.9367 40.6727 53.9366C40.1164 53.3325 39.348 52.978 38.5365 52.9486C37.7253 52.9192 36.9344 53.2169 36.3371 53.7786C35.7441 54.3449 35.394 55.1268 35.3648 55.9552C35.3356 56.7838 35.63 57.5892 36.1818 58.1971C36.182 58.1973 36.1823 58.1976 36.1825 58.1979L41.2897 63.7679C41.2898 63.768 41.29 63.7682 41.2902 63.7684C41.3068 63.7863 41.3264 63.8002 41.3475 63.8099C41.3689 63.8197 41.3918 63.825 41.4148 63.8257Z" fill="#FF7A6B" stroke="#634C37"/>
</g>
<g filter="url(#filter4_d_208_14)">
<path d="M63.5789 96.7148L63.2144 96.8386L63.2408 97.2226L63.4395 100.107L60.3445 97.411L60.2052 97.2896L60.0204 97.288C57.6761 97.268 55.3725 96.4691 53.518 94.8536C49.2237 91.1128 48.9228 84.3546 52.9307 79.7537C56.9385 75.1528 63.6741 74.5241 67.9685 78.2649C72.2628 82.0057 72.5637 88.7639 68.5559 93.3648L68.5548 93.366C67.2232 94.9046 65.5056 96.0605 63.5789 96.7148Z" fill="#FFF2D0" stroke="#634C37"/>
<path d="M60.8044 92.8257L60.8044 92.8257L60.7986 92.8259C60.7733 92.8269 60.7481 92.823 60.7244 92.8143C60.7009 92.8056 60.6793 92.7925 60.6609 92.7756C60.6607 92.7754 60.6605 92.7753 60.6603 92.7751L55.0969 87.589C55.0967 87.5887 55.0964 87.5885 55.0961 87.5882C54.4941 87.0214 54.1398 86.24 54.1103 85.4136C54.0807 84.5874 54.3782 83.7829 54.938 83.1747C55.5028 82.5704 56.2841 82.2145 57.1107 82.1849C57.9378 82.1554 58.743 82.455 59.3496 83.018C59.3496 83.0181 59.3497 83.0181 59.3497 83.0182L60.1229 83.738L60.4889 84.0787L60.8296 83.7128L61.5494 82.9396C61.5495 82.9395 61.5496 82.9394 61.5496 82.9394C62.1145 82.3345 62.8961 81.9782 63.7233 81.9486C64.5499 81.9191 65.3546 82.2183 65.9611 82.7808C66.5629 83.3476 66.917 84.1287 66.9465 84.9549C66.976 85.7813 66.6785 86.586 66.1184 87.1943C66.1181 87.1946 66.1179 87.1949 66.1176 87.1951L60.9387 92.7651C60.9385 92.7653 60.9383 92.7655 60.9381 92.7658C60.9209 92.7839 60.9003 92.7985 60.8776 92.8088C60.8545 92.8192 60.8296 92.8249 60.8044 92.8257Z" fill="#FF7A6B" stroke="#634C37"/>
</g>
<g filter="url(#filter5_d_208_14)">
<path d="M18.5789 84.7148L18.2144 84.8386L18.2408 85.2226L18.4395 88.107L15.3445 85.411L15.2052 85.2896L15.0204 85.288C12.6761 85.268 10.3725 84.4691 8.51804 82.8536C4.22368 79.1128 3.92281 72.3546 7.93066 67.7537C11.9385 63.1528 18.6741 62.5241 22.9685 66.2649C27.2628 70.0057 27.5637 76.7639 23.5559 81.3648L23.5548 81.366C22.2232 82.9046 20.5056 84.0605 18.5789 84.7148Z" fill="#FFF2D0" stroke="#634C37"/>
<path d="M15.8044 80.8257L15.8044 80.8257L15.7986 80.8259C15.7733 80.8269 15.7481 80.823 15.7244 80.8143C15.7009 80.8056 15.6793 80.7925 15.6609 80.7756C15.6607 80.7754 15.6605 80.7753 15.6603 80.7751L10.0969 75.589C10.0967 75.5887 10.0964 75.5885 10.0961 75.5882C9.49406 75.0214 9.1398 74.24 9.11027 73.4136C9.08074 72.5874 9.37819 71.7829 9.93802 71.1747C10.5028 70.5704 11.2841 70.2145 12.1107 70.1849C12.9378 70.1554 13.743 70.455 14.3496 71.018C14.3496 71.0181 14.3497 71.0181 14.3497 71.0182L15.1229 71.738L15.4889 72.0787L15.8296 71.7128L16.5494 70.9396C16.5495 70.9395 16.5496 70.9394 16.5496 70.9394C17.1145 70.3345 17.8961 69.9782 18.7233 69.9486C19.5499 69.9191 20.3546 70.2183 20.9611 70.7808C21.5629 71.3476 21.917 72.1287 21.9465 72.9549C21.976 73.7813 21.6785 74.586 21.1184 75.1943C21.1181 75.1946 21.1179 75.1949 21.1176 75.1951L15.9387 80.7651C15.9385 80.7653 15.9383 80.7655 15.9381 80.7658C15.9209 80.7839 15.9003 80.7985 15.8776 80.8088C15.8545 80.8192 15.8296 80.8249 15.8044 80.8257Z" fill="#FF7A6B" stroke="#634C37"/>
</g>
<defs>
<filter id="filter0_d_208_14" x="6.63086" y="13.9734" width="30.1266" height="33.492" filterUnits="userSpaceOnUse" color-interpolation-filters="sRGB">
<feFlood flood-opacity="0" result="BackgroundImageFix"/>
<feColorMatrix in="SourceAlpha" type="matrix" values="0 0 0 0 0 0 0 0 0 0 0 0 0 0 0 0 0 0 127 0" result="hardAlpha"/>
<feOffset dy="1"/>
<feGaussianBlur stdDeviation="2"/>
<feComposite in2="hardAlpha" operator="out"/>
<feColorMatrix type="matrix" values="0 0 0 0 0 0 0 0 0 0 0 0 0 0 0 0 0 0 0.25 0"/>
<feBlend mode="normal" in2="BackgroundImageFix" result="effect1_dropShadow_208_14"/>
<feBlend mode="normal" in="SourceGraphic" in2="effect1_dropShadow_208_14" result="shape"/>
</filter>
<filter id="filter1_d_208_14" x="40.4817" y="7.32632" width="35.2148" height="39.3561" filterUnits="userSpaceOnUse" color-interpolation-filters="sRGB">
<feFlood flood-opacity="0" result="BackgroundImageFix"/>
<feColorMatrix in="SourceAlpha" type="matrix" values="0 0 0 0 0 0 0 0 0 0 0 0 0 0 0 0 0 0 127 0" result="hardAlpha"/>
<feOffset dy="1"/>
<feGaussianBlur stdDeviation="2"/>
<feComposite in2="hardAlpha" operator="out"/>
<feColorMatrix type="matrix" values="0 0 0 0 0 0 0 0 0 0 0 0 0 0 0 0 0 0 0.25 0"/>
<feBlend mode="normal" in2="BackgroundImageFix" result="effect1_dropShadow_208_14"/>
<feBlend mode="normal" in="SourceGraphic" in2="effect1_dropShadow_208_14" result="shape"/>
</filter>
<filter id="filter2_d_208_14" x="17.1571" y="88.6901" width="32.6492" height="35.9854" filterUnits="userSpaceOnUse" color-interpolation-filters="sRGB">
<feFlood flood-opacity="0" result="BackgroundImageFix"/>
<feColorMatrix in="SourceAlpha" type="matrix" values="0 0 0 0 0 0 0 0 0 0 0 0 0 0 0 0 0 0 127 0" result="hardAlpha"/>
<feOffset dy="1"/>
<feGaussianBlur stdDeviation="2"/>
<feComposite in2="hardAlpha" operator="out"/>
<feColorMatrix type="matrix" values="0 0 0 0 0 0 0 0 0 0 0 0 0 0 0 0 0 0 0.25 0"/>
<feBlend mode="normal" in2="BackgroundImageFix" result="effect1_dropShadow_208_14"/>
<feBlend mode="normal" in="SourceGraphic" in2="effect1_dropShadow_208_14" result="shape"/>
</filter>
<filter id="filter3_d_208_14" x="26.4886" y="43.3304" width="29.9729" height="33.9465" filterUnits="userSpaceOnUse" color-interpolation-filters="sRGB">
<feFlood flood-opacity="0" result="BackgroundImageFix"/>
<feColorMatrix in="SourceAlpha" type="matrix" values="0 0 0 0 0 0 0 0 0 0 0 0 0 0 0 0 0 0 127 0" result="hardAlpha"/>
<feOffset dy="1"/>
<feGaussianBlur stdDeviation="2"/>
<feComposite in2="hardAlpha" operator="out"/>
<feColorMatrix type="matrix" values="0 0 0 0 0 0 0 0 0 0 0 0 0 0 0 0 0 0 0.25 0"/>
<feBlend mode="normal" in2="BackgroundImageFix" result="effect1_dropShadow_208_14"/>
<feBlend mode="normal" in="SourceGraphic" in2="effect1_dropShadow_208_14" result="shape"/>
</filter>
<filter id="filter4_d_208_14" x="45.6023" y="72.3304" width="30.282" height="33.9465" filterUnits="userSpaceOnUse" color-interpolation-filters="sRGB">
<feFlood flood-opacity="0" result="BackgroundImageFix"/>
<feColorMatrix in="SourceAlpha" type="matrix" values="0 0 0 0 0 0 0 0 0 0 0 0 0 0 0 0 0 0 127 0" result="hardAlpha"/>
<feOffset dy="1"/>
<feGaussianBlur stdDeviation="2"/>
<feComposite in2="hardAlpha" operator="out"/>
<feColorMatrix type="matrix" values="0 0 0 0 0 0 0 0 0 0 0 0 0 0 0 0 0 0 0.25 0"/>
<feBlend mode="normal" in2="BackgroundImageFix" result="effect1_dropShadow_208_14"/>
<feBlend mode="normal" in="SourceGraphic" in2="effect1_dropShadow_208_14" result="shape"/>
</filter>
<filter id="filter5_d_208_14" x="0.602295" y="60.3304" width="30.282" height="33.9465" filterUnits="userSpaceOnUse" color-interpolation-filters="sRGB">
<feFlood flood-opacity="0" result="BackgroundImageFix"/>
<feColorMatrix in="SourceAlpha" type="matrix" values="0 0 0 0 0 0 0 0 0 0 0 0 0 0 0 0 0 0 127 0" result="hardAlpha"/>
<feOffset dy="1"/>
<feGaussianBlur stdDeviation="2"/>
<feComposite in2="hardAlpha" operator="out"/>
<feColorMatrix type="matrix" values="0 0 0 0 0 0 0 0 0 0 0 0 0 0 0 0 0 0 0.25 0"/>
<feBlend mode="normal" in2="BackgroundImageFix" result="effect1_dropShadow_208_14"/>
<feBlend mode="normal" in="SourceGraphic" in2="effect1_dropShadow_208_14" result="shape"/>
</filter>
</defs>
</svg>
