<svg width="102" height="135" viewBox="0 0 102 135" fill="none" xmlns="http://www.w3.org/2000/svg">
<g clip-path="url(#clip0_119_1556)">
<path d="M46.8893 128.941C49.1236 129.298 51.5547 128.787 52.8673 128.161C52.9393 128.126 53.01 128.09 53.0796 128.051C53.3258 128.115 53.5786 128.168 53.8365 128.209C56.0708 128.566 58.5019 128.055 59.8145 127.429C61.9716 126.402 61.8229 124.117 61.6599 123.183C61.4351 121.902 60.8351 120.6 60.4389 119.739C60.3319 119.506 60.24 119.308 60.184 119.172C60.1349 119.053 60.075 118.942 60.0064 118.836C59.8281 117.442 59.8149 115.538 59.968 113.257C64.6562 112.205 68.8288 110.255 72.3854 107.452C72.99 106.976 73.2601 106.186 73.0722 105.438C71.6839 99.9242 70.1242 94.4227 69.0299 90.6798C71.6977 92.2001 74.0062 93.1433 74.3604 93.2853L74.3932 93.2985L75.0964 93.5453C77.1267 94.2572 78.7314 94.8188 80.2261 95.0571C82.1901 95.3702 83.8602 95.0946 85.6421 94.1665C86.3104 93.8182 87.8751 93.0013 87.637 91.5356C87.615 91.4053 87.5751 91.2484 87.5015 91.0846C88.7525 89.7724 89.8425 87.8513 89.4797 85.7272C89.2544 84.4094 88.2881 83.5185 86.8305 83.2861C84.8896 82.9767 82.1623 83.8951 80.9276 84.3701C79.7056 83.9107 77.8553 82.646 75.6812 80.7798C75.8817 80.4362 76.0718 80.0878 76.2498 79.7359C76.6071 79.0243 76.5015 78.1772 75.9814 77.5761C74.5763 75.9513 73.0692 74.4307 71.4747 73.0309L73.3564 73.0361L73.4607 71.5775C73.5708 70.0327 74.3976 66.6341 75.2722 63.0355C76.6074 57.5503 78.1193 51.3342 78.3607 47.0389C78.381 46.6635 78.8507 37.719 76.6121 28.1431C75.4658 23.2367 73.8066 19.0647 71.6811 15.7421C69.0108 11.5657 65.5888 8.70826 61.5134 7.24726C59.7731 6.62279 57.72 6.11325 55.5738 5.77108C50.7222 4.99763 45.5052 5.08654 40.882 6.01961C35.1117 7.18499 30.3021 9.56516 26.5837 13.0954C19.9077 19.4358 17.1968 29.0212 18.5273 41.5818C19.5897 51.6025 21.4107 59.7855 23.9407 65.9044C25.8699 70.5679 27.5166 72.2756 27.6986 72.4551L28.1526 72.9046L28.7873 72.906C27.4229 73.8167 26.541 74.462 26.374 74.5859C25.6832 75.0954 25.4071 75.9831 25.686 76.7961C25.7109 76.8682 25.8722 77.3265 26.1932 78.0242C23.942 79.5715 22.6026 80.1471 21.8959 80.3592C21.0164 79.9465 19.2276 79.1796 17.6094 78.9216C16.6768 78.7729 15.9011 78.8014 15.2391 79.0112C14.2236 79.3326 13.5251 80.069 13.2728 81.0856C12.7544 83.1754 13.6985 85.1688 14.8478 86.5706C14.7889 86.6816 14.7389 86.8067 14.6997 86.9431C14.2799 88.4243 15.8189 89.3779 16.4775 89.7856C17.5295 90.4366 18.5647 90.8361 19.6409 91.0077C21.8042 91.3526 23.9998 90.7598 27.0408 89.939L27.7903 89.7368L27.8526 89.7134C28.0944 89.6268 28.3465 89.5355 28.6067 89.4423C30.1617 88.8852 32.0354 88.2158 33.9421 87.3202C31.7556 92.9803 26.87 106.474 26.816 106.623C26.4687 107.581 26.9032 108.629 27.8255 109.061C27.8786 109.086 32.8027 111.36 39.6322 112.856C39.7324 116.111 40.4015 119.263 41.4359 121.327C41.346 122.238 41.5619 123.456 42.1047 125.176C42.5707 126.653 43.6042 127.778 45.0953 128.426C45.6357 128.661 46.2384 128.833 46.8869 128.936L46.8893 128.941Z" fill="#634C37"/>
<path d="M60.9838 8.722C77.2805 14.5653 77.025 42.8836 76.7972 46.9544C76.3973 54.0909 72.1836 67.4616 71.898 71.4678L66.9682 71.4536C69.3837 73.176 72.1229 75.5095 74.7982 78.6012C74.9027 78.7209 74.9229 78.892 74.8514 79.0328C74.4781 79.775 74.0694 80.4515 73.6413 81.0709C76.2237 83.3952 79.0982 85.5759 80.9974 86.0276C81.308 85.8965 87.4814 83.3249 87.9366 85.9914C88.4046 88.7265 85.2794 91.1677 84.6108 91.3194C83.9407 91.4708 88.0161 91.1634 84.9181 92.7786C81.8409 94.3828 79.6408 93.4743 74.9401 91.8344C74.1528 91.5187 69.8898 89.7251 66.3229 87.0712C66.9435 89.1176 69.4586 97.4952 71.5545 105.82C71.5923 105.971 71.5387 106.128 71.4175 106.223C67.7612 109.106 63.4193 111.034 58.4989 111.964C58.266 114.677 58.1934 117.546 58.5327 119.558C58.623 119.598 58.697 119.67 58.737 119.767C58.8055 119.933 58.9029 120.147 59.0172 120.393C59.7662 122.021 61.1623 125.053 59.142 126.016C58.0677 126.528 55.9635 126.964 54.0813 126.664C53.6304 126.592 53.1947 126.475 52.7856 126.31C52.633 126.482 52.4384 126.63 52.1932 126.748C51.1189 127.259 49.0148 127.696 47.1325 127.396C46.6384 127.317 46.1602 127.188 45.719 126.996C44.6397 126.526 43.9248 125.756 43.5945 124.71C43.0152 122.871 42.8443 121.659 43.0814 121.085C41.9542 119.197 41.1197 115.434 41.1838 111.586C33.877 110.143 28.5436 107.675 28.4845 107.648C28.3019 107.562 28.2136 107.352 28.2819 107.161C28.3442 106.989 34.3505 90.3991 36.0024 86.354C35.417 86.0531 34.8677 85.7247 34.3497 85.3791C31.8407 86.6762 29.246 87.5476 27.317 88.2463C22.5067 89.5377 20.2456 90.2833 17.2958 88.4566C14.3255 86.6188 18.3664 87.2234 17.711 87.0238C17.0541 86.824 14.119 84.1599 14.7859 81.4663C15.4371 78.8415 21.4037 81.8574 21.7037 82.0114C23.3499 81.7462 25.798 80.2746 28.1892 78.5246C27.508 77.2751 27.195 76.3885 27.1601 76.2895C27.105 76.1286 27.1606 75.9489 27.2971 75.847C27.5214 75.6816 30.4047 73.5663 34.2335 71.3593L28.7926 71.3428C28.7926 71.3428 22.5992 65.2215 20.0767 41.4168C16.232 5.08936 48.3506 4.19166 60.9838 8.722Z" fill="#634C37"/>
<path d="M8.63427 68.8073C8.54527 68.7994 8.46653 68.7869 8.40315 68.7673C8.47986 68.7827 8.55756 68.7919 8.63427 68.8073Z" fill="#634C37"/>
<path d="M71.8979 71.4678C72.1822 67.4598 76.3959 54.0891 76.7971 46.9544C77.0249 42.8835 77.2819 14.5655 60.9852 8.72224C48.3505 4.19166 16.2335 5.0896 20.0828 41.4178C22.6055 65.2209 28.7987 71.3438 28.7987 71.3438L71.8994 71.4681L71.8979 71.4678Z" fill="#5F5F5F"/>
<path d="M28.6756 72.1165C28.7158 72.1229 28.7564 72.1262 28.796 72.1262L71.8967 72.2504C72.3083 72.251 72.6503 71.9332 72.6793 71.5227C72.7936 69.9119 73.5892 66.6399 74.5113 62.8524C75.838 57.4007 77.3412 51.2196 77.579 46.9967C77.6003 46.6245 78.0633 37.7915 75.8504 28.3227C74.7237 23.5019 73.099 19.4114 71.0231 16.1648C68.4477 12.1382 65.1593 9.38609 61.2504 7.98331C56.946 6.43982 51.1945 5.74949 45.8623 6.13379C41.174 6.47179 34.4088 7.8002 28.8073 12.2076C25.2154 15.0338 22.5675 18.7617 20.9403 23.2876C19.1144 28.365 18.5648 34.4937 19.3066 41.5001C21.8286 65.3078 27.9898 71.6411 28.251 71.8998C28.3672 72.015 28.5168 72.0896 28.6774 72.1152L28.6756 72.1165ZM71.1964 70.6841L29.1546 70.5623C28.104 69.2666 23.0576 62.0779 20.8592 41.3356C20.1416 34.5644 20.6632 28.6706 22.409 23.8181C23.9361 19.5725 26.4134 16.0805 29.7716 13.4388C35.0617 9.27652 41.5022 8.01835 45.9726 7.69633C51.0983 7.32664 56.6125 7.98549 60.7208 9.45809C64.2975 10.7398 67.3186 13.2814 69.704 17.0098C71.6851 20.1066 73.2408 24.034 74.3257 28.6802C76.4877 37.9317 76.0355 46.5478 76.0159 46.9091C75.7866 50.9892 74.2372 57.361 72.9902 62.4816C72.1691 65.8541 71.4471 68.8242 71.1952 70.6823L71.1964 70.6841Z" fill="#634C37"/>
<path d="M59.3892 104.077C58.7369 105.1 56.7717 118.311 58.8159 121.697C54.7927 123.792 52.2284 122.954 50.5041 120.372C48.7798 117.79 47.4613 109.772 49.7343 104.324C52.0073 98.8757 59.3892 104.077 59.3892 104.077Z" fill="#FFD7C7"/>
<path d="M53.901 123.217C52.4264 122.982 51.1931 122.107 50.1782 120.587C48.2815 117.747 47.1068 109.602 49.3722 104.171C49.931 102.831 50.831 101.973 52.046 101.622C55.2278 100.703 59.4351 103.63 59.6131 103.755L59.9176 103.97L59.717 104.285C59.2061 105.086 57.1649 118.207 59.1493 121.492L59.3647 121.849L58.9951 122.042C57.0489 123.057 55.3571 123.449 53.8995 123.217L53.901 123.217ZM54.3013 102.303C53.6003 102.191 52.9006 102.19 52.2618 102.374C51.2725 102.66 50.5629 103.347 50.0938 104.472C47.9571 109.591 49.0659 117.513 50.8271 120.152C52.5462 122.727 54.9222 123.168 58.2843 121.525C56.5624 117.736 58.151 106.559 58.9076 104.227C58.221 103.787 56.2531 102.614 54.2998 102.303L54.3013 102.303Z" fill="#634C37"/>
<path d="M50.504 120.372C51.4418 120.527 53.6116 121.288 58.3773 119.919C58.8921 121.168 60.9161 124.741 58.9765 125.665C57.0354 126.588 51.9532 127.142 50.92 123.861C49.8865 120.58 50.5058 120.37 50.5058 120.37L50.504 120.372Z" fill="#6389D3"/>
<path d="M54.0828 126.666C53.5887 126.587 53.1104 126.458 52.6693 126.266C51.5899 125.796 50.8751 125.026 50.5463 123.98C49.784 121.561 49.7282 120.222 50.3794 120.001C50.4396 119.981 50.506 119.982 50.5687 119.986C50.6814 120.004 50.8117 120.031 50.9602 120.062C51.9944 120.28 54.1476 120.727 58.2694 119.543C58.4618 119.488 58.663 119.587 58.7383 119.77C58.8068 119.936 58.9041 120.15 59.0184 120.396C59.7675 122.024 61.1635 125.056 59.1433 126.019C58.0689 126.531 55.9648 126.967 54.0826 126.667L54.0828 126.666ZM50.7205 120.812C50.6834 121.104 50.7037 121.88 51.2917 123.744C51.5501 124.566 52.1198 125.174 52.9815 125.549C54.798 126.341 57.5315 125.919 58.8078 125.313C60.1304 124.684 58.945 122.109 58.3089 120.725C58.2536 120.606 58.2019 120.493 58.1552 120.389C54.0607 121.511 51.8679 121.053 50.8016 120.829C50.7738 120.825 50.748 120.818 50.7218 120.813L50.7205 120.812Z" fill="#634C37"/>
<path d="M52.4422 104.808C51.7899 105.831 49.8247 119.042 51.8689 122.427C47.8457 124.522 45.2813 123.684 43.5571 121.102C41.8328 118.52 40.5143 110.503 42.7873 105.054C45.0603 99.6063 52.4422 104.808 52.4422 104.808Z" fill="#FFD7C7"/>
<path d="M46.9537 123.949C45.4791 123.714 44.2458 122.839 43.231 121.32C41.3342 118.479 40.1595 110.334 42.4249 104.903C42.9838 103.563 43.8837 102.705 45.0987 102.354C48.2805 101.435 52.4878 104.362 52.6658 104.487L52.9719 104.702L52.7713 105.017C52.2604 105.818 50.2192 118.94 52.2021 122.224L52.4174 122.581L52.0478 122.774C50.1017 123.789 48.4098 124.181 46.9522 123.949L46.9537 123.949ZM47.3556 103.035C46.6546 102.923 45.9549 102.923 45.316 103.106C44.3268 103.392 43.6172 104.079 43.1481 105.204C41.0114 110.324 42.1202 118.246 43.8814 120.884C45.6005 123.459 47.9765 123.9 51.3386 122.257C49.6165 118.47 51.2053 107.292 51.9619 104.96C51.2753 104.519 49.3073 103.346 47.3541 103.035L47.3556 103.035Z" fill="#634C37"/>
<path d="M43.5567 121.102C44.4946 121.258 46.6643 122.019 51.4301 120.649C51.9449 121.899 53.9688 125.472 52.0292 126.395C50.0881 127.319 45.0059 127.873 43.9727 124.591C42.9392 121.311 43.5585 121.101 43.5585 121.101L43.5567 121.102Z" fill="#6389D3"/>
<path d="M47.1356 127.396C46.6415 127.317 46.1632 127.189 45.7221 126.996C44.6427 126.526 43.9279 125.757 43.5975 124.71C42.8353 122.291 42.7795 120.953 43.4306 120.732C43.4909 120.711 43.5536 120.705 43.62 120.716C43.7327 120.734 43.863 120.761 44.0115 120.793C45.0472 121.01 47.1986 121.459 51.3206 120.274C51.5115 120.218 51.7142 120.317 51.7895 120.5C51.858 120.667 51.9554 120.88 52.0697 121.127C52.8188 122.755 54.2148 125.787 52.1945 126.75C51.1202 127.261 49.0161 127.697 47.1338 127.397L47.1356 127.396ZM43.7733 121.542C43.7362 121.834 43.7565 122.611 44.3445 124.474C44.6029 125.297 45.1726 125.904 46.0343 126.279C47.8508 127.071 50.5844 126.65 51.8606 126.044C53.1832 125.415 51.9978 122.839 51.3617 121.456C51.3064 121.336 51.2547 121.223 51.208 121.119C47.112 122.241 44.9209 121.782 43.8528 121.56C43.825 121.555 43.7993 121.548 43.773 121.544L43.7733 121.542Z" fill="#634C37"/>
<path d="M57.6937 112.08L57.5951 113.513C55.3548 113.959 53.3967 114.095 51.4603 113.777L51.5568 112.526C51.7713 112.581 57.5049 112.182 57.6937 112.08Z" fill="#F3A49F"/>
<path d="M50.7682 112.516L50.6649 114.008C47.7573 114.28 45.0019 114.213 42.051 113.873C41.9685 113.138 41.9497 112.383 41.9824 111.612C42.3351 111.653 50.5794 112.618 50.7682 112.516Z" fill="#F3A49F"/>
<path d="M67.8066 74.8657C68.2035 75.9716 76.8847 85.0503 80.9973 86.0292C81.308 85.898 87.4813 83.3265 87.9365 85.993C88.4046 88.7281 85.2794 91.1692 84.6108 91.3209C83.9406 91.4723 88.0161 91.165 84.9181 92.7802C81.8408 94.3844 79.6407 93.4758 74.94 91.8359C73.7702 91.3674 64.9136 87.6293 62.0911 82.6601C59.1774 77.5275 67.8064 74.8672 67.8064 74.8672L67.8066 74.8657Z" fill="#FFD7C7"/>
<path d="M35.6871 71.8462C35.2102 72.9205 25.8834 81.3387 21.71 82.0124C21.4099 81.8584 15.4421 78.8407 14.7922 81.4673C14.1237 84.1606 17.0604 86.825 17.7173 87.0248C18.3742 87.2246 14.3333 86.62 17.3036 88.4579C20.2537 90.283 22.5148 89.5374 27.3248 88.2475C31.1611 86.8578 37.6345 84.7872 40.8157 80.0384C44.0994 75.1332 35.6899 71.8482 35.6899 71.8482L35.6871 71.8462Z" fill="#FFD7C7"/>
<path d="M48.681 61.8085C48.681 61.8085 49.5325 65.6838 46.3271 67.5354C44.7141 68.4666 44.3146 70.8432 48.7648 71.4227C53.215 72.0023 60.1697 70.0417 58.0925 67.8059C56.5046 66.0965 53.9542 67.078 54.6077 62.1544C55.2612 57.2307 48.6807 61.81 48.6807 61.81L48.681 61.8085Z" fill="#FFD7C7"/>
<path d="M48.3708 71.7592C45.6146 71.3198 44.9785 70.1853 44.8485 69.5307C44.6752 68.6617 45.1791 67.7453 46.1313 67.1952C49.0453 65.5126 48.331 62.0379 48.2989 61.8917L48.2444 61.6375L48.4583 61.4877C48.8717 61.1987 52.5533 58.7037 54.2447 59.7339C54.9072 60.1374 55.1592 60.9699 54.9958 62.2036C54.5744 65.3831 55.5119 65.8384 56.701 66.4146C57.2434 66.677 57.8576 66.9762 58.3792 67.5379C58.8803 68.0789 58.9949 68.6913 58.7011 69.2625C58.0886 70.4531 55.9136 71.1252 54.6727 71.4202C52.6881 71.8913 50.4609 72.037 48.7159 71.8095C48.5981 71.7939 48.482 71.7769 48.3708 71.7592ZM49.1065 61.9904C49.2334 62.9423 49.4307 66.1936 46.5221 67.8723C45.8751 68.2461 45.5096 68.8502 45.6156 69.3773C45.7765 70.1857 46.9436 70.7901 48.8159 71.0331C52.2905 71.4857 57.2721 70.3308 58.0061 68.9045C58.1023 68.7186 58.1647 68.456 57.8068 68.0693C57.3838 67.6137 56.8636 67.3612 56.3593 67.1176C55.0645 66.4897 53.7243 65.8387 54.2205 62.1006C54.3402 61.2006 54.2113 60.6286 53.8375 60.4011C52.9314 59.8478 50.543 61.0342 49.1065 61.9904Z" fill="#634C37"/>
<path d="M49.7084 63.3793C50.9073 65.0853 52.5992 65.3677 54.3775 65.3961C54.3137 65.191 54.3229 63.7125 54.3229 63.7125C54.3229 63.7125 51.4733 63.6607 49.7084 63.3793Z" fill="#F3A49F"/>
<path d="M31.5027 46.7752C30.7747 44.8068 29.0776 41.806 27.1404 43.8566C25.2048 45.9074 24.7579 52.8621 31.467 52.9287C34.4358 51.0711 31.5012 46.775 31.5012 46.775L31.5027 46.7752Z" fill="#FFD7C7"/>
<path d="M30.1533 53.2137C27.6519 52.8149 26.5039 51.3658 25.9778 50.1268C24.9947 47.8119 25.6383 44.8769 26.8556 43.5878C27.4729 42.9335 28.1315 42.6756 28.8142 42.813C30.3935 43.1361 31.4541 45.5315 31.8512 46.5962C32.0793 46.9432 33.5283 49.2452 33.1091 51.2494C32.9309 52.0989 32.4477 52.7761 31.6721 53.2609L31.5754 53.3215L31.4615 53.3208C30.9872 53.3165 30.5515 53.2787 30.1515 53.215L30.1533 53.2137ZM28.6174 43.5707C28.2252 43.5082 27.8352 43.6901 27.4256 44.1239C26.399 45.2105 25.8487 47.8181 26.698 49.8201C27.43 51.5451 29.0383 52.4813 31.3558 52.5339C31.8954 52.1683 32.2194 51.6954 32.3463 51.0882C32.7235 49.288 31.1952 47.0161 31.1799 46.9931L31.1529 46.9539L31.1364 46.9085C30.6153 45.4992 29.6543 43.7804 28.6591 43.5774C28.6452 43.5752 28.6313 43.573 28.6159 43.5705L28.6174 43.5707Z" fill="#634C37"/>
<path d="M32.6435 54.2793C33.9427 57.5019 33.4387 57.7036 37.3637 59.9488C42.4885 62.8812 53.2866 66.3489 66.4147 61.3984C73.9955 58.5394 73.2394 53.9662 73.6898 49.4032C74.1384 44.8414 74.2929 39.244 73.4585 34.9737C72.6238 30.7049 71.7271 23.0907 65.8285 22.0917C59.93 21.0927 38.3791 24.8572 33.577 32.4043C27.5838 41.8214 30.2209 48.2616 32.6484 54.2785L32.6435 54.2793Z" fill="#FFD7C7"/>
<path d="M47.6828 63.8582C42.4498 63.024 38.7485 61.1932 37.1685 60.2885C33.8444 58.3863 33.5884 57.916 32.7805 55.7336C32.6411 55.3565 32.4829 54.9288 32.2797 54.4258L32.2501 54.3529C29.8658 48.4427 27.1637 41.7449 33.2413 32.1955C36.1357 27.6465 44.4746 24.8988 49.1868 23.6662C55.5694 21.9963 62.533 21.1717 65.808 21.6939C65.8358 21.6983 65.862 21.7025 65.8883 21.7067C71.5727 22.6684 72.8095 29.3607 73.6284 33.7886C73.701 34.1773 73.7684 34.5493 73.8376 34.8994C74.8029 39.8387 74.4015 46.1304 74.0746 49.4423C74.0197 50.0056 73.9817 50.5811 73.9455 51.1363C73.6875 55.0882 73.4194 59.1733 66.5494 61.7653C59.1926 64.5396 52.724 64.6635 47.681 63.8595L47.6828 63.8582ZM33.0057 54.1327C33.212 54.6457 33.3724 55.0801 33.5141 55.4624C34.2434 57.4326 34.3736 57.7877 37.5571 59.6088C40.5853 61.3418 51.6038 66.5655 66.2751 61.0323C72.6734 58.6186 72.9131 54.96 73.1667 51.085C73.204 50.5237 73.2413 49.9417 73.2983 49.3661C73.6198 46.0977 74.0187 39.8912 73.0711 35.0498C73.002 34.6981 72.9336 34.3227 72.8597 33.9322C72.0812 29.7183 70.9037 23.3492 65.7574 22.4781C65.7311 22.4739 65.7049 22.4697 65.6786 22.4655C62.121 21.8984 54.6502 23.0446 49.3843 24.4234C38.6628 27.2286 35.0804 30.7599 33.8995 32.6157C28.0375 41.8256 30.5466 48.0457 32.9743 54.0611L33.0039 54.134L33.0057 54.1327Z" fill="#634C37"/>
<path d="M65.6873 19.3421L67.6306 26.7872L29.5944 31.7123L29.1757 24.3375L65.6873 19.3421Z" fill="#5F5F5F"/>
<path d="M57.2461 66.8787C57.2461 66.8787 52.7796 71.814 45.8828 66.8767C37.9887 68.4434 27.5336 76.162 27.5336 76.162C27.5336 76.162 29.8542 82.9194 36.5074 86.1667C35.0822 89.5349 28.6537 107.294 28.6537 107.294C28.6537 107.294 54.2502 119.259 71.1736 105.916C68.7504 96.2874 65.8034 86.7158 65.8034 86.7158C65.8034 86.7158 71.3977 85.0248 74.501 78.858C66.1896 69.2473 57.2461 66.8787 57.2461 66.8787Z" fill="white"/>
<path d="M43.2948 111.962C34.9274 110.628 28.5544 107.679 28.4912 107.648C28.3086 107.562 28.2202 107.351 28.2886 107.161C28.3509 106.989 34.3571 90.3986 36.009 86.3535C29.539 83.0196 27.2617 76.5671 27.1665 76.2904C27.1114 76.1295 27.1669 75.9498 27.3035 75.848C27.7324 75.5313 37.9185 68.0598 45.8077 66.4939C45.914 66.4728 46.0242 66.4967 46.1107 66.5596C52.6265 71.2255 56.7827 66.8064 56.9569 66.6171C57.0549 66.5091 57.206 66.465 57.3458 66.5016C57.4385 66.5259 59.6655 67.1265 62.945 68.9217C65.9608 70.5735 70.4667 73.5943 74.7967 78.6025C74.9011 78.7222 74.9213 78.8933 74.8498 79.0341C72.1338 84.4307 67.6153 86.4643 66.2866 86.9624C66.8454 88.8008 69.4173 97.3381 71.5529 105.822C71.5907 105.972 71.5371 106.13 71.4159 106.224C67.5024 109.31 62.8037 111.302 57.4518 112.148C53.1833 112.822 48.4923 112.77 43.5079 111.996C43.4368 111.984 43.3643 111.973 43.2932 111.961L43.2948 111.962ZM29.1477 107.085C30.5392 107.692 36.2318 110.043 43.418 111.189C43.4952 111.201 43.5724 111.214 43.6496 111.226C48.5506 111.987 53.1568 112.035 57.3426 111.373C62.4657 110.562 66.97 108.677 70.7338 105.766C68.3526 96.3396 65.4597 86.9256 65.4305 86.8306C65.4005 86.7308 65.4098 86.6229 65.4592 86.531C65.5087 86.439 65.591 86.3698 65.6908 86.3397C65.7442 86.3229 71.0238 84.6594 74.0315 78.9131C66.6451 70.4719 58.7418 67.7462 57.3566 67.3178C56.9554 67.6991 55.8879 68.5953 54.2652 69.1004C52.3991 69.6823 49.4236 69.8338 45.7945 67.292C38.7519 68.7616 29.5982 75.1601 28.0071 76.3009C28.5201 77.5727 30.9988 83.04 36.6795 85.8123C36.866 85.9038 36.9496 86.1247 36.8684 86.3162C35.5727 89.3786 30.0479 104.597 29.1466 107.082L29.1477 107.085Z" fill="#634C37"/>
<path d="M38.7924 81.8645C38.7924 81.8645 38.6485 80.9494 37.9313 81.068C36.3489 81.3307 37.8639 83.507 37.8639 83.507C38.096 83.1241 38.5059 82.5588 38.7924 81.8645Z" fill="#DDD7D7"/>
<path d="M64.2396 82.6699C64.2396 82.6699 64.4346 81.7645 65.1439 81.9235C66.7093 82.2745 65.0749 84.3623 65.0749 84.3623C64.8655 83.9676 64.4874 83.3797 64.2411 82.6701L64.2396 82.6699Z" fill="#DDD7D7"/>
<path d="M36.6032 86.182C36.6032 86.182 37.7722 83.6366 38.7568 82.0886L36.6032 86.182Z" fill="white"/>
<path d="M36.5539 86.4911C36.5261 86.4866 36.4988 86.4791 36.4723 86.467C36.316 86.3945 36.2458 86.209 36.3182 86.0526C36.3666 85.9478 37.5075 83.4692 38.4919 81.9227C38.5847 81.7775 38.7785 81.7339 38.9236 81.8268C39.0687 81.9196 39.1122 82.1135 39.0194 82.2588C38.0579 83.7709 36.898 86.2892 36.8861 86.3143C36.8258 86.4441 36.688 86.514 36.5521 86.4924L36.5539 86.4911Z" fill="#634C37"/>
<path d="M65.8073 86.9794C65.8073 86.9794 65.0548 83.9724 64.4242 83.032L65.8073 86.9794Z" fill="white"/>
<path d="M65.7596 87.2888C65.6391 87.2696 65.5362 87.1803 65.5053 87.0565C65.4974 87.0267 64.7588 84.0916 64.1666 83.2081C64.0707 83.0644 64.1082 82.8692 64.2517 82.7732C64.3953 82.6772 64.5886 82.716 64.6862 82.8583C65.3385 83.8322 66.0815 86.7791 66.1124 86.9029C66.1537 87.0711 66.0523 87.2403 65.8857 87.2819C65.8429 87.2925 65.8015 87.2939 65.7614 87.2875L65.7596 87.2888Z" fill="#634C37"/>
<path d="M58.4542 54.493C57.9878 54.4186 57.6699 53.9799 57.7444 53.5131C57.8188 53.0462 58.2573 52.7281 58.7237 52.8025C59.1902 52.8768 59.508 53.3155 59.4336 53.7824C59.3592 54.2492 58.9207 54.5674 58.4542 54.493Z" fill="#F3A49F"/>
<path d="M59.387 53.8272C59.3345 53.8188 59.2864 53.7827 59.2663 53.7303L59.1281 53.3755C59.0967 53.2945 59.1364 53.2041 59.2159 53.1724C59.2969 53.141 59.3872 53.1807 59.4188 53.2603L59.557 53.6151C59.5884 53.6961 59.5487 53.7864 59.4692 53.8181C59.4423 53.8281 59.4148 53.8316 59.387 53.8272Z" fill="#634C37"/>
<path d="M59.3892 104.077C58.7369 105.1 56.7717 118.311 58.8159 121.697C54.7927 123.792 52.2284 122.954 50.5041 120.372C48.7798 117.79 47.4613 109.772 49.7343 104.324C52.0073 98.8757 59.3892 104.077 59.3892 104.077Z" fill="#FFD7C7"/>
<path d="M53.901 123.217C52.4264 122.982 51.1931 122.107 50.1782 120.587C48.2815 117.747 47.1068 109.602 49.3722 104.171C49.931 102.831 50.831 101.973 52.046 101.622C55.2278 100.703 59.4351 103.63 59.6131 103.755L59.9176 103.97L59.717 104.285C59.2061 105.086 57.1649 118.207 59.1493 121.492L59.3647 121.849L58.9951 122.042C57.0489 123.057 55.3571 123.449 53.8995 123.217L53.901 123.217ZM54.3013 102.303C53.6003 102.191 52.9006 102.19 52.2618 102.374C51.2725 102.66 50.5629 103.347 50.0938 104.472C47.9571 109.591 49.0659 117.513 50.8271 120.152C52.5462 122.727 54.9222 123.168 58.2843 121.525C56.5624 117.736 58.151 106.559 58.9076 104.227C58.221 103.787 56.2531 102.614 54.2998 102.303L54.3013 102.303Z" fill="#634C37"/>
<path d="M50.504 120.372C51.4418 120.527 53.6116 121.288 58.3773 119.919C58.8921 121.168 60.9161 124.741 58.9765 125.665C57.0354 126.588 51.9532 127.142 50.92 123.861C49.8865 120.58 50.5058 120.37 50.5058 120.37L50.504 120.372Z" fill="#6389D3"/>
<path d="M54.0828 126.666C53.5887 126.587 53.1104 126.458 52.6693 126.266C51.5899 125.796 50.8751 125.026 50.5463 123.98C49.784 121.561 49.7282 120.222 50.3794 120.001C50.4396 119.981 50.506 119.982 50.5687 119.986C50.6814 120.004 50.8117 120.031 50.9602 120.062C51.9944 120.28 54.1476 120.727 58.2694 119.543C58.4618 119.488 58.663 119.587 58.7383 119.77C58.8068 119.936 58.9041 120.15 59.0184 120.396C59.7675 122.024 61.1635 125.056 59.1433 126.019C58.0689 126.531 55.9648 126.967 54.0826 126.667L54.0828 126.666ZM50.7205 120.812C50.6834 121.104 50.7037 121.88 51.2917 123.744C51.5501 124.566 52.1198 125.174 52.9815 125.549C54.798 126.341 57.5315 125.919 58.8078 125.313C60.1304 124.684 58.945 122.109 58.3089 120.725C58.2536 120.606 58.2019 120.493 58.1552 120.389C54.0607 121.511 51.8679 121.053 50.8016 120.829C50.7738 120.825 50.748 120.818 50.7218 120.813L50.7205 120.812Z" fill="#634C37"/>
<path d="M52.4422 104.808C51.7899 105.831 49.8247 119.042 51.8689 122.427C47.8457 124.522 45.2813 123.684 43.5571 121.102C41.8328 118.52 40.5143 110.503 42.7873 105.054C45.0603 99.6063 52.4422 104.808 52.4422 104.808Z" fill="#FFD7C7"/>
<path d="M46.9537 123.949C45.4791 123.714 44.2458 122.839 43.231 121.32C41.3342 118.479 40.1595 110.334 42.4249 104.903C42.9838 103.563 43.8837 102.705 45.0987 102.354C48.2805 101.435 52.4878 104.362 52.6658 104.487L52.9719 104.702L52.7713 105.017C52.2604 105.818 50.2192 118.94 52.2021 122.224L52.4174 122.581L52.0478 122.774C50.1017 123.789 48.4098 124.181 46.9522 123.949L46.9537 123.949ZM47.3556 103.035C46.6546 102.923 45.9549 102.923 45.316 103.106C44.3268 103.392 43.6172 104.079 43.1481 105.204C41.0114 110.324 42.1202 118.246 43.8814 120.884C45.6005 123.459 47.9765 123.9 51.3386 122.257C49.6165 118.47 51.2053 107.292 51.9619 104.96C51.2753 104.519 49.3073 103.346 47.3541 103.035L47.3556 103.035Z" fill="#634C37"/>
<path d="M43.5567 121.102C44.4946 121.258 46.6643 122.019 51.4301 120.649C51.9449 121.899 53.9688 125.472 52.0292 126.395C50.0881 127.319 45.0059 127.873 43.9727 124.591C42.9392 121.311 43.5585 121.101 43.5585 121.101L43.5567 121.102Z" fill="#6389D3"/>
<path d="M47.1356 127.396C46.6415 127.317 46.1632 127.189 45.7221 126.996C44.6427 126.526 43.9279 125.757 43.5975 124.71C42.8353 122.291 42.7795 120.953 43.4306 120.732C43.4909 120.711 43.5536 120.705 43.62 120.716C43.7327 120.734 43.863 120.761 44.0115 120.793C45.0472 121.01 47.1986 121.459 51.3206 120.274C51.5115 120.218 51.7142 120.317 51.7895 120.5C51.858 120.667 51.9554 120.88 52.0697 121.127C52.8188 122.755 54.2148 125.787 52.1945 126.75C51.1202 127.261 49.0161 127.697 47.1338 127.397L47.1356 127.396ZM43.7733 121.542C43.7362 121.834 43.7565 122.611 44.3445 124.474C44.6029 125.297 45.1726 125.904 46.0343 126.279C47.8508 127.071 50.5844 126.65 51.8606 126.044C53.1832 125.415 51.9978 122.839 51.3617 121.456C51.3064 121.336 51.2547 121.223 51.208 121.119C47.112 122.241 44.9209 121.782 43.8528 121.56C43.825 121.555 43.7993 121.548 43.773 121.544L43.7733 121.542Z" fill="#634C37"/>
<path d="M57.6937 112.08L57.5951 113.513C55.3548 113.959 53.3967 114.095 51.4603 113.777L51.5568 112.526C51.7713 112.581 57.5049 112.182 57.6937 112.08Z" fill="#F3A49F"/>
<path d="M50.7682 112.516L50.6649 114.008C47.7573 114.28 45.0019 114.213 42.051 113.873C41.9685 113.138 41.9497 112.383 41.9824 111.612C42.3351 111.653 50.5794 112.618 50.7682 112.516Z" fill="#F3A49F"/>
<path d="M67.8066 74.8657C68.2035 75.9716 76.8847 85.0503 80.9973 86.0292C81.308 85.898 87.4813 83.3265 87.9365 85.993C88.4046 88.7281 85.2794 91.1692 84.6108 91.3209C83.9406 91.4723 88.0161 91.165 84.9181 92.7802C81.8408 94.3844 79.6407 93.4758 74.94 91.8359C73.7702 91.3674 64.9136 87.6293 62.0911 82.6601C59.1774 77.5275 67.8064 74.8672 67.8064 74.8672L67.8066 74.8657Z" fill="#FFD7C7"/>
<path d="M35.6871 71.8462C35.2102 72.9205 25.8834 81.3387 21.71 82.0124C21.4099 81.8584 15.4421 78.8407 14.7922 81.4673C14.1237 84.1606 17.0604 86.825 17.7173 87.0248C18.3742 87.2246 14.3333 86.62 17.3036 88.4579C20.2537 90.283 22.5148 89.5374 27.3248 88.2475C31.1611 86.8578 37.6345 84.7872 40.8157 80.0384C44.0994 75.1332 35.6899 71.8482 35.6899 71.8482L35.6871 71.8462Z" fill="#FFD7C7"/>
<path d="M48.681 61.8085C48.681 61.8085 49.5325 65.6838 46.3271 67.5354C44.7141 68.4666 44.3146 70.8432 48.7648 71.4227C53.215 72.0023 60.1697 70.0417 58.0925 67.8059C56.5046 66.0965 53.9542 67.078 54.6077 62.1544C55.2612 57.2307 48.6807 61.81 48.6807 61.81L48.681 61.8085Z" fill="#FFD7C7"/>
<path d="M48.3708 71.7592C45.6146 71.3198 44.9785 70.1853 44.8485 69.5307C44.6752 68.6617 45.1791 67.7453 46.1313 67.1952C49.0453 65.5126 48.331 62.0379 48.2989 61.8917L48.2444 61.6375L48.4583 61.4877C48.8717 61.1987 52.5533 58.7037 54.2447 59.7339C54.9072 60.1374 55.1592 60.9699 54.9958 62.2036C54.5744 65.3831 55.5119 65.8384 56.701 66.4146C57.2434 66.677 57.8576 66.9762 58.3792 67.5379C58.8803 68.0789 58.9949 68.6913 58.7011 69.2625C58.0886 70.4531 55.9136 71.1252 54.6727 71.4202C52.6881 71.8913 50.4609 72.037 48.7159 71.8095C48.5981 71.7939 48.482 71.7769 48.3708 71.7592ZM49.1065 61.9904C49.2334 62.9423 49.4307 66.1936 46.5221 67.8723C45.8751 68.2461 45.5096 68.8502 45.6156 69.3773C45.7765 70.1857 46.9436 70.7901 48.8159 71.0331C52.2905 71.4857 57.2721 70.3308 58.0061 68.9045C58.1023 68.7186 58.1647 68.456 57.8068 68.0693C57.3838 67.6137 56.8636 67.3612 56.3593 67.1176C55.0645 66.4897 53.7243 65.8387 54.2205 62.1006C54.3402 61.2006 54.2113 60.6286 53.8375 60.4011C52.9314 59.8478 50.543 61.0342 49.1065 61.9904Z" fill="#634C37"/>
<path d="M49.7084 63.3793C50.9073 65.0853 52.5992 65.3677 54.3775 65.3961C54.3137 65.191 54.3229 63.7125 54.3229 63.7125C54.3229 63.7125 51.4733 63.6607 49.7084 63.3793Z" fill="#F3A49F"/>
<path d="M31.5027 46.7752C30.7747 44.8068 29.0776 41.806 27.1404 43.8566C25.2048 45.9074 24.7579 52.8621 31.467 52.9287C34.4358 51.0711 31.5012 46.775 31.5012 46.775L31.5027 46.7752Z" fill="#FFD7C7"/>
<path d="M30.1533 53.2137C27.6519 52.8149 26.5039 51.3658 25.9778 50.1268C24.9947 47.8119 25.6383 44.8769 26.8556 43.5878C27.4729 42.9335 28.1315 42.6756 28.8142 42.813C30.3935 43.1361 31.4541 45.5315 31.8512 46.5962C32.0793 46.9432 33.5283 49.2452 33.1091 51.2494C32.9309 52.0989 32.4477 52.7761 31.6721 53.2609L31.5754 53.3215L31.4615 53.3208C30.9872 53.3165 30.5515 53.2787 30.1515 53.215L30.1533 53.2137ZM28.6174 43.5707C28.2252 43.5082 27.8352 43.6901 27.4256 44.1239C26.399 45.2105 25.8487 47.8181 26.698 49.8201C27.43 51.5451 29.0383 52.4813 31.3558 52.5339C31.8954 52.1683 32.2194 51.6954 32.3463 51.0882C32.7235 49.288 31.1952 47.0161 31.1799 46.9931L31.1529 46.9539L31.1364 46.9085C30.6153 45.4992 29.6543 43.7804 28.6591 43.5774C28.6452 43.5752 28.6313 43.573 28.6159 43.5705L28.6174 43.5707Z" fill="#634C37"/>
<path d="M32.6435 54.2793C33.9427 57.5019 33.4387 57.7036 37.3637 59.9488C42.4885 62.8812 53.2866 66.3489 66.4147 61.3984C73.9955 58.5394 73.2394 53.9662 73.6898 49.4032C74.1384 44.8414 74.2929 39.244 73.4585 34.9737C72.6238 30.7049 71.7271 23.0907 65.8285 22.0917C59.93 21.0927 38.3791 24.8572 33.577 32.4043C27.5838 41.8214 30.2209 48.2616 32.6484 54.2785L32.6435 54.2793Z" fill="#FFD7C7"/>
<path d="M47.6828 63.8582C42.4498 63.024 38.7485 61.1932 37.1685 60.2885C33.8444 58.3863 33.5884 57.916 32.7805 55.7336C32.6411 55.3565 32.4829 54.9288 32.2797 54.4258L32.2501 54.3529C29.8658 48.4427 27.1637 41.7449 33.2413 32.1955C36.1357 27.6465 44.4746 24.8988 49.1868 23.6662C55.5694 21.9963 62.533 21.1717 65.808 21.6939C65.8358 21.6983 65.862 21.7025 65.8883 21.7067C71.5727 22.6684 72.8095 29.3607 73.6284 33.7886C73.701 34.1773 73.7684 34.5493 73.8376 34.8994C74.8029 39.8387 74.4015 46.1304 74.0746 49.4423C74.0197 50.0056 73.9817 50.5811 73.9455 51.1363C73.6875 55.0882 73.4194 59.1733 66.5494 61.7653C59.1926 64.5396 52.724 64.6635 47.681 63.8595L47.6828 63.8582ZM33.0057 54.1327C33.212 54.6457 33.3724 55.0801 33.5141 55.4624C34.2434 57.4326 34.3736 57.7877 37.5571 59.6088C40.5853 61.3418 51.6038 66.5655 66.2751 61.0323C72.6734 58.6186 72.9131 54.96 73.1667 51.085C73.204 50.5237 73.2413 49.9417 73.2983 49.3661C73.6198 46.0977 74.0187 39.8912 73.0711 35.0498C73.002 34.6981 72.9336 34.3227 72.8597 33.9322C72.0812 29.7183 70.9037 23.3492 65.7574 22.4781C65.7311 22.4739 65.7049 22.4697 65.6786 22.4655C62.121 21.8984 54.6502 23.0446 49.3843 24.4234C38.6628 27.2286 35.0804 30.7599 33.8995 32.6157C28.0375 41.8256 30.5466 48.0457 32.9743 54.0611L33.0039 54.134L33.0057 54.1327Z" fill="#634C37"/>
<path d="M26.4146 25.5834C25.3776 25.0012 25.1527 23.4312 25.9123 22.0768C26.6719 20.7224 28.1282 20.0964 29.1652 20.6786C30.2021 21.2608 30.427 22.8308 29.6674 24.1852C28.9079 25.5396 27.4515 26.1656 26.4146 25.5834Z" fill="#FFFDFD"/>
<path d="M70.2303 19.3502L72.2874 29.0508L27.759 37.8419L27.9214 26.8123L70.2303 19.3502Z" fill="#5F5F5F"/>
<path d="M30.9732 26.6542C30.3826 26.4015 30.1711 25.5711 30.501 24.7995C30.8308 24.0279 31.5771 23.6074 32.1678 23.8602C32.7585 24.1129 32.9699 24.9433 32.64 25.7149C32.3102 26.4865 31.5639 26.907 30.9732 26.6542Z" fill="#FFFDFD"/>
<path d="M57.2461 66.8787C57.2461 66.8787 52.7796 71.814 45.8828 66.8767C37.9887 68.4434 27.5336 76.162 27.5336 76.162C27.5336 76.162 29.8542 82.9194 36.5074 86.1667C35.0822 89.5349 28.6537 107.294 28.6537 107.294C28.6537 107.294 54.2502 119.259 71.1736 105.916C68.7504 96.2874 65.8034 86.7158 65.8034 86.7158C65.8034 86.7158 71.3977 85.0248 74.501 78.858C66.1896 69.2473 57.2461 66.8787 57.2461 66.8787Z" fill="#9FD69E"/>
<path d="M43.2948 111.962C34.9274 110.628 28.5544 107.679 28.4912 107.648C28.3086 107.562 28.2202 107.351 28.2886 107.161C28.3509 106.989 34.3571 90.3986 36.009 86.3535C29.539 83.0196 27.2617 76.5671 27.1665 76.2904C27.1114 76.1295 27.1669 75.9498 27.3035 75.848C27.7324 75.5313 37.9185 68.0598 45.8077 66.4939C45.914 66.4728 46.0242 66.4967 46.1107 66.5596C52.6265 71.2255 56.7827 66.8064 56.9569 66.6171C57.0549 66.5091 57.206 66.465 57.3458 66.5016C57.4385 66.5259 59.6655 67.1265 62.945 68.9217C65.9608 70.5735 70.4667 73.5943 74.7967 78.6025C74.9011 78.7222 74.9213 78.8933 74.8498 79.0341C72.1338 84.4307 67.6153 86.4643 66.2866 86.9624C66.8454 88.8008 69.4173 97.3381 71.5529 105.822C71.5907 105.972 71.5371 106.13 71.4159 106.224C67.5024 109.31 62.8037 111.302 57.4518 112.148C53.1833 112.822 48.4923 112.77 43.5079 111.996C43.4368 111.984 43.3643 111.973 43.2932 111.961L43.2948 111.962ZM29.1477 107.085C30.5392 107.692 36.2318 110.043 43.418 111.189C43.4952 111.201 43.5724 111.214 43.6496 111.226C48.5506 111.987 53.1568 112.035 57.3426 111.373C62.4657 110.562 66.97 108.677 70.7338 105.766C68.3526 96.3396 65.4597 86.9256 65.4305 86.8306C65.4005 86.7308 65.4098 86.6229 65.4592 86.531C65.5087 86.439 65.591 86.3698 65.6908 86.3397C65.7442 86.3229 71.0238 84.6594 74.0315 78.9131C66.6451 70.4719 58.7418 67.7462 57.3566 67.3178C56.9554 67.6991 55.8879 68.5953 54.2652 69.1004C52.3991 69.6823 49.4236 69.8338 45.7945 67.292C38.7519 68.7616 29.5982 75.1601 28.0071 76.3009C28.5201 77.5727 30.9988 83.04 36.6795 85.8123C36.866 85.9038 36.9496 86.1247 36.8684 86.3162C35.5727 89.3786 30.0479 104.597 29.1466 107.082L29.1477 107.085Z" fill="#634C37"/>
<path d="M38.7924 81.8645C38.7924 81.8645 38.6485 80.9494 37.9313 81.068C36.3489 81.3307 37.8639 83.507 37.8639 83.507C38.096 83.1241 38.5059 82.5588 38.7924 81.8645Z" fill="#7AC479"/>
<path d="M64.2396 82.6699C64.2396 82.6699 64.4346 81.7645 65.1439 81.9235C66.7093 82.2745 65.0749 84.3623 65.0749 84.3623C64.8655 83.9676 64.4874 83.3797 64.2411 82.6701L64.2396 82.6699Z" fill="#7AC479"/>
<path d="M36.6032 86.182C36.6032 86.182 37.7722 83.6366 38.7568 82.0886L36.6032 86.182Z" fill="white"/>
<path d="M36.5539 86.4911C36.5261 86.4866 36.4988 86.4791 36.4723 86.467C36.316 86.3945 36.2458 86.209 36.3182 86.0526C36.3666 85.9478 37.5075 83.4692 38.4919 81.9227C38.5847 81.7775 38.7785 81.7339 38.9236 81.8268C39.0687 81.9196 39.1122 82.1135 39.0194 82.2588C38.0579 83.7709 36.898 86.2892 36.8861 86.3143C36.8258 86.4441 36.688 86.514 36.5521 86.4924L36.5539 86.4911Z" fill="#634C37"/>
<path d="M65.8073 86.9794C65.8073 86.9794 65.0548 83.9724 64.4242 83.032L65.8073 86.9794Z" fill="white"/>
<path d="M65.7596 87.2888C65.6391 87.2696 65.5362 87.1803 65.5053 87.0565C65.4974 87.0267 64.7588 84.0916 64.1666 83.2081C64.0707 83.0644 64.1082 82.8692 64.2517 82.7732C64.3953 82.6772 64.5886 82.716 64.6862 82.8583C65.3385 83.8322 66.0815 86.7791 66.1124 86.9029C66.1537 87.0711 66.0523 87.2403 65.8857 87.2819C65.8429 87.2925 65.8015 87.2939 65.7614 87.2875L65.7596 87.2888Z" fill="#634C37"/>
<path d="M59.516 53.9318C59.0495 53.8574 58.7317 53.4187 58.8061 52.9518C58.8806 52.485 59.319 52.1669 59.7855 52.2412C60.252 52.3156 60.5698 52.7543 60.4954 53.2211C60.4209 53.688 59.9825 54.0061 59.516 53.9318Z" fill="#F3A49F"/>
<path d="M60.447 53.2657C60.4732 53.2699 60.502 53.2682 60.5292 53.2566C60.6102 53.2252 60.6484 53.1346 60.617 53.0536L60.4785 52.7003C60.4469 52.6208 60.3566 52.5811 60.2756 52.6125C60.1946 52.644 60.1564 52.7345 60.1878 52.8156L60.3262 53.1688C60.3477 53.223 60.3945 53.2574 60.447 53.2657Z" fill="#634C37"/>
<path d="M72.2671 27.4504C72.2671 27.4504 74.5792 31.5094 73.0714 35.0482C70.2948 35.4216 50.9391 39.5599 34.7036 36.3219C34.7036 36.3219 33.5583 64.839 38.1953 66.0742C29.728 65.5055 27.1685 43.4031 29.542 34.0174" fill="#5F5F5F"/>
<path d="M37.6889 66.4102C37.848 66.4355 38.0082 66.4532 38.1695 66.4646C38.3701 66.4776 38.5493 66.3366 38.5811 66.1373C38.6129 65.9379 38.4913 65.7474 38.2953 65.6955C37.3171 65.435 35.6021 63.1429 35.1011 50.7224C34.8532 44.5807 35.0214 38.48 35.0781 36.7936C35.6282 36.8987 36.1813 36.9948 36.7372 37.0834C50.651 39.3016 66.2271 36.6144 71.5186 35.7007C72.266 35.5711 72.8065 35.4782 73.1219 35.4366C73.2578 35.4186 73.3749 35.3295 73.43 35.2021C74.9945 31.5265 72.7027 27.4295 72.6051 27.257C72.4989 27.069 72.2607 27.0041 72.0727 27.1104C71.8848 27.2167 71.8196 27.4566 71.926 27.6432C71.9484 27.6816 74.0355 31.4243 72.7923 34.6932C72.4595 34.7447 71.9892 34.825 71.3866 34.9302C65.8622 35.8844 49.0518 38.7852 34.7807 35.938C34.6685 35.917 34.5519 35.9427 34.463 36.0141C34.374 36.0855 34.3192 36.1909 34.3136 36.3056C34.3102 36.3764 34.0305 43.5337 34.3209 50.7501C34.6318 58.4532 35.4361 63.2701 36.7661 65.3361C35.7258 64.8993 34.754 64.063 33.8648 62.8374C31.7503 59.9222 30.1919 54.9486 29.4758 48.8336C28.8362 43.3711 29.0074 37.7288 29.9229 34.1114C29.9754 33.9011 29.8493 33.6893 29.6391 33.6368C29.4303 33.586 29.2173 33.7105 29.1648 33.9208C27.37 41.0172 28.2871 56.4782 33.2325 63.2975C34.5408 65.1018 36.0383 66.147 37.6889 66.4102Z" fill="#634C37"/>
<path d="M62.1755 43.5664L67.2216 44.3709C67.3497 44.3913 67.4697 44.3043 67.4901 44.176C67.5106 44.0478 67.4236 43.9278 67.2955 43.9073L62.2494 43.1028C62.1212 43.0824 62.0013 43.1695 61.9808 43.2977C61.9604 43.426 62.0473 43.546 62.1755 43.5664Z" fill="#634C37"/>
<path d="M48.7995 44.7472C48.8319 44.7524 48.8653 44.7513 48.8987 44.7408L53.8206 43.3641C53.9451 43.3285 54.018 43.1991 53.9839 43.0748C53.9484 42.9503 53.8191 42.8774 53.6949 42.9115L48.7729 44.2882C48.6485 44.3238 48.5756 44.4532 48.6096 44.5775C48.6347 44.6686 48.7117 44.7316 48.7982 44.7454L48.7995 44.7472Z" fill="#634C37"/>
<path d="M82.7716 70.3602C82.8484 70.3455 82.9277 70.3344 83.0029 70.3194C82.938 70.3392 82.86 70.3521 82.7716 70.3602Z" fill="#634C37"/>
<path d="M70.0775 51.1169C70.4852 51.1819 70.8774 50.9165 70.9648 50.5073C71.0544 50.0843 70.785 49.6689 70.3622 49.5793L62.9535 48.0021C62.5331 47.9081 62.1157 48.1823 62.0261 48.6053C61.9365 49.0284 62.206 49.4437 62.6287 49.5333L70.0374 51.1105C70.0513 51.1128 70.0652 51.115 70.0775 51.1169Z" fill="#634C37"/>
<path d="M42.7741 52.0628C42.8899 52.0812 43.0099 52.0734 43.1281 52.0368L51.5001 49.4291C51.9131 49.3016 52.143 48.8629 52.0141 48.4494C51.8853 48.0359 51.4485 47.8062 51.0353 47.9352L42.6633 50.5429C42.2503 50.6704 42.0204 51.1091 42.1492 51.5226C42.2402 51.816 42.4884 52.0172 42.7725 52.0625L42.7741 52.0628Z" fill="#634C37"/>
<path d="M58.685 58.6972C58.1158 58.7617 57.7882 59.6048 57.171 59.3844C56.2423 59.0525 56.7534 57.5843 58.0518 57.5045C59.3517 57.4249 60.3491 57.8232 60.2025 58.4146C60.0385 59.0762 59.2881 58.6285 58.6835 58.6969L58.685 58.6972Z" fill="#BA3152"/>
<path d="M57.4318 59.5559C57.337 59.5645 57.2344 59.5529 57.1251 59.5133C56.7223 59.3683 56.5098 59.0128 56.5706 58.5819C56.6471 58.0427 57.1717 57.4434 57.9969 57.3721C58.0128 57.3715 58.0275 57.3691 58.0434 57.3684C59.0329 57.3091 59.8812 57.5204 60.2039 57.9094C60.3366 58.07 60.3816 58.2546 60.3351 58.4469C60.1943 59.0123 59.6858 58.9344 59.2762 58.8722C59.0816 58.8412 58.8804 58.8123 58.7 58.8311C58.4969 58.8542 58.3206 59.0067 58.1319 59.1668C57.9301 59.3406 57.7067 59.53 57.4321 59.5543L57.4318 59.5559ZM58.0199 57.6452C57.3344 57.7038 56.901 58.1878 56.8398 58.6217C56.7964 58.9237 56.9334 59.1563 57.2167 59.257C57.4757 59.3505 57.6695 59.2071 57.9555 58.9628C58.1663 58.7825 58.3845 58.5954 58.6699 58.5633C58.8859 58.5391 59.1054 58.5725 59.3188 58.6049C59.8072 58.6796 59.9987 58.68 60.0715 58.3826C60.098 58.2759 60.0739 58.1786 59.9954 58.0853C59.7297 57.7656 58.9521 57.5878 58.0599 57.642C58.0471 57.6432 58.0327 57.644 58.0199 57.6452Z" fill="#634C37"/>
<path d="M83.0029 70.3194C82.938 70.3392 82.86 70.3521 82.7716 70.3602C82.8484 70.3455 82.9277 70.3344 83.0029 70.3194Z" fill="#634C37"/>
</g>
<defs>
<clipPath id="clip0_119_1556">
<rect width="83" height="123" fill="white" transform="matrix(-0.987529 -0.157437 -0.157437 0.987529 101.33 13.0672)"/>
</clipPath>
</defs>
</svg>
