<svg width="52" height="31" viewBox="0 0 52 31" fill="none" xmlns="http://www.w3.org/2000/svg">
<g clip-path="url(#clip0_112_476)">
<path d="M4.66775 4.66795L4.66772 4.66798C-0.222845 9.55859 -0.222839 17.487 4.66772 22.3776C8.45452 26.1644 14.0451 26.9352 18.7332 24.9122C20.2492 24.2574 21.3145 23.8154 22.7932 24.3063L22.7979 24.3079L25.0762 25.0769L24.3071 22.7988L24.3071 22.7988L24.3053 22.7935C23.8153 21.3151 24.2571 20.2496 24.9114 18.7334L24.9114 18.7333C26.9349 14.0459 26.1637 8.45485 22.3768 4.66798L22.3767 4.66795C17.4867 -0.222565 9.55783 -0.22257 4.66775 4.66795Z" fill="#A4BF73" stroke="#634C37" stroke-width="2"/>
</g>
<g clip-path="url(#clip1_112_476)">
<path d="M47.9191 12.0812L47.9191 12.0812C52.0273 16.1894 52.0273 22.8495 47.9191 26.9576C44.74 30.1367 40.0437 30.7869 36.1009 29.0855C34.8134 28.5294 33.8563 28.1268 32.537 28.5648L32.5323 28.5664L30.8749 29.1258L31.4344 27.4686L31.4344 27.4686L31.4362 27.4633C31.8734 26.1443 31.4709 25.187 30.9153 23.8994L30.9152 23.8993C29.2134 19.9571 29.864 15.2604 33.0431 12.0812L33.0432 12.0812C37.1509 7.97303 43.8113 7.97303 47.9191 12.0812Z" fill="#FFD483" stroke="#634C37" stroke-width="2" stroke-linejoin="round"/>
</g>
<defs>
<clipPath id="clip0_112_476">
<rect width="27" height="27" fill="white" transform="matrix(-1 0 0 1 27 0)"/>
</clipPath>
<clipPath id="clip1_112_476">
<rect width="23" height="23" fill="white" transform="translate(29 8)"/>
</clipPath>
</defs>
</svg>
