<svg width="40" height="37" viewBox="0 0 40 37" fill="none" xmlns="http://www.w3.org/2000/svg">
<g clip-path="url(#clip0_112_477)">
<path d="M7.94933 13.0874H32.0498C32.8075 13.0874 33.1925 13.6002 33.1925 13.9679V35.1195C33.1925 35.4871 32.8075 36 32.0498 36H7.94933C7.19163 36 6.80664 35.4871 6.80664 35.1195V13.9679C6.80664 13.6002 7.19163 13.0874 7.94933 13.0874Z" fill="#FFD483" stroke="#634C37" stroke-width="2"/>
<path d="M19.8159 1.05432L19.8162 1.05408C19.912 0.981974 20.0882 0.981974 20.1839 1.05408L20.1843 1.05432L38.9747 15.189C38.9749 15.1892 38.9751 15.1893 38.9754 15.1895C38.9786 15.192 38.9816 15.1943 38.9843 15.1966C38.9788 15.2019 38.9717 15.2078 38.9626 15.2137C38.9377 15.2298 38.8852 15.2543 38.7907 15.2543H1.20941C1.11504 15.2543 1.06256 15.2298 1.03749 15.2136C1.02839 15.2077 1.02127 15.2019 1.01574 15.1965C1.01837 15.1944 1.02125 15.1922 1.02439 15.1898L1.02469 15.1896L19.8159 1.05432Z" fill="#FD9800" stroke="#634C37" stroke-width="2"/>
<path d="M27.8777 23.5H22.7144C21.8859 23.5 21.2144 24.1716 21.2144 25V34.0945C21.2144 34.9229 21.8859 35.5945 22.7144 35.5945H27.8777C28.7061 35.5945 29.3777 34.9229 29.3777 34.0945V25C29.3777 24.1716 28.7061 23.5 27.8777 23.5Z" fill="#CEF6FF" stroke="#634C37"/>
</g>
<defs>
<clipPath id="clip0_112_477">
<rect width="40" height="37" fill="white"/>
</clipPath>
</defs>
</svg>
