<svg width="38" height="37" viewBox="0 0 38 37" fill="none" xmlns="http://www.w3.org/2000/svg">
<g clip-path="url(#clip0_111_424)">
<path d="M21.9009 37C20.5391 37 19.4488 36.5627 18.9083 35.7996C18.8201 35.6746 18.7607 35.5328 18.7336 35.3868C18.3933 35.4045 18.0522 35.4138 17.7103 35.4138C17.3964 35.4138 17.0756 35.4062 16.7532 35.3901C16.6921 35.4374 16.6327 35.4847 16.5725 35.5328C16.3858 35.6822 16.1499 35.7649 15.909 35.7649C15.7987 35.7649 15.6909 35.7481 15.5882 35.716L14.979 36.09C14.8127 36.193 14.6193 36.2478 14.4224 36.2478C14.0678 36.2478 13.7411 36.0748 13.5434 35.7827C13.4866 35.7042 13.3152 35.5294 13.1624 35.5049C13.148 35.5024 13.1361 35.5016 13.1234 35.5016C13.0106 35.5016 12.8527 35.5767 12.6797 35.7143C12.493 35.8612 12.2588 35.9422 12.0212 35.9422C11.9245 35.9422 11.8286 35.9287 11.7353 35.9034C11.0642 35.716 10.0069 35.2728 9.0558 34.8617C9.03629 34.8887 9.01507 34.9148 8.99216 34.941C8.79107 35.1681 8.50089 35.2981 8.19714 35.2981C8.06732 35.2981 7.94005 35.2745 7.81872 35.2289C0.711004 32.5427 0.391127 29.4918 0.107734 26.7997C0.08228 26.5565 0.0559771 26.3058 0.0245834 26.0627C0.0211895 26.0382 0.0194925 26.0146 0.0177956 25.9901C-0.100143 24.2232 0.360581 21.4745 1.38894 17.8268C2.10506 15.2874 2.86954 13.1423 2.93996 12.944C3.46093 11.3265 4.03195 9.73098 5.27243 8.00461C6.70042 6.01739 8.79192 4.21166 11.6657 2.4853C14.4903 0.790162 16.5309 0 18.0896 0C19.4641 0 20.2812 0.603596 20.9379 1.08816C20.9693 1.11095 20.9998 1.13459 21.0312 1.15738C21.15 1.15485 21.2688 1.15401 21.3868 1.15401C25.6784 1.15401 29.3048 2.67186 32.1641 5.66451C34.9141 8.54236 36.3387 12.1622 37.0497 14.6923C37.8557 17.5617 38.0925 20.2234 37.9686 21.5893C37.8447 22.9628 37.815 24.0164 37.7862 25.0361C37.7344 26.8697 37.6903 28.4534 37.1362 31.1869C36.8223 32.7351 35.6395 34.784 31.7874 35.7531C29.9615 36.2132 28.2425 36.2487 27.7597 36.2487C27.6664 36.2487 27.6104 36.247 27.5976 36.247C27.394 36.2428 27.2005 36.1803 27.0368 36.0705C26.5218 36.2993 25.9558 36.415 25.3432 36.415C25.1761 36.415 25.0055 36.4057 24.8316 36.388C24.4133 36.561 23.9856 36.6995 23.558 36.8008C22.9963 36.9333 22.4389 37 21.9009 37Z" fill="#634C37"/>
<path d="M31.5499 6.24617C28.7177 3.28307 25.0913 1.85808 20.7683 2.00919C20.6546 1.93068 20.5417 1.8471 20.4323 1.76606C19.1256 0.80115 17.774 -0.196683 12.1053 3.20878C9.33161 4.87521 7.32326 6.60411 5.96315 8.49679C4.79055 10.1286 4.24328 11.6633 3.74353 13.2167C3.73589 13.2386 2.94935 15.4175 2.20523 18.0564C1.20318 21.6121 0.752636 24.2646 0.864635 25.9428C0.864635 25.947 0.864635 25.9513 0.865484 25.9555C0.897726 26.2079 0.924877 26.4654 0.95118 26.7136C1.221 29.2824 1.50015 31.9391 8.11998 34.4404C8.20229 34.4717 8.29562 34.4489 8.35416 34.383C8.41101 34.3197 8.42289 34.2285 8.38641 34.1526C8.38047 34.1391 8.33465 34.0183 8.26253 33.5996C8.46447 33.6857 8.69016 33.7836 8.92434 33.8858C9.95355 34.3324 11.2348 34.8887 11.9611 35.0913C12.0264 35.1099 12.0968 35.0955 12.1503 35.0533C12.5448 34.7427 12.9292 34.6135 13.2949 34.6726C13.8769 34.7654 14.2401 35.304 14.2426 35.3083C14.3054 35.4045 14.4344 35.4332 14.5319 35.3724L15.7028 34.6523C15.6791 34.7359 15.7096 34.8262 15.7809 34.8794C15.8581 34.9368 15.965 34.9343 16.0397 34.8743C16.1916 34.7528 16.3392 34.6388 16.4826 34.5291C16.9043 34.5569 17.3133 34.5696 17.7078 34.5696C19.1035 34.5696 20.3254 34.4134 21.3198 34.2133C20.8336 34.6447 20.3092 34.9199 19.7484 34.9824C19.6737 34.9908 19.6092 35.0373 19.5787 35.1057C19.5482 35.174 19.5558 35.2525 19.5991 35.3133C19.9843 35.8578 20.8489 36.1558 21.8984 36.1558C22.3583 36.1558 22.8538 36.0984 23.3604 35.9794C23.8177 35.8713 24.2691 35.7168 24.7052 35.5218C24.9105 35.5522 25.1235 35.5708 25.3407 35.5708C26.0967 35.5708 26.9019 35.3505 27.5977 34.6793C27.5188 34.9317 27.4373 35.0913 27.4356 35.0947C27.4017 35.1597 27.4034 35.2365 27.4407 35.2998C27.478 35.3631 27.5451 35.402 27.6189 35.4037C27.697 35.4062 29.5662 35.4416 31.5779 34.9351C34.2879 34.253 35.9221 32.8989 36.3031 31.0198C36.8427 28.358 36.886 26.8081 36.9369 25.0125C36.9657 23.9801 36.9963 22.913 37.1227 21.5133C37.3306 19.2121 36.3964 11.3198 31.5482 6.24617H31.5499Z" fill="#634C37"/>
<path d="M23.9951 29.3086C26.1197 29.9493 16.2273 33.9153 15.9091 34.7089C20.5554 31.0054 21.3844 32.8035 22.0207 32.3772C21.5948 34.2268 22.7411 34.5882 22.7411 34.5882C22.7411 34.5882 26.0603 36.7197 27.9516 33.9288C27.9151 34.6405 27.6258 35.1926 27.6258 35.1926C27.6258 35.1926 35.2078 35.3648 36.097 30.9784C36.9412 26.8149 36.5645 25.3468 36.9132 21.4948C37.262 17.6427 34.5383 1.68247 20.7064 2.2236C19.2615 1.24603 18.34 -0.288709 12.2157 3.39027C6.08968 7.06841 4.88654 10.3565 3.94388 13.2876C3.94388 13.2876 0.810444 21.9405 1.07687 25.9276C1.44256 28.781 1.06075 31.5457 8.19646 34.242C8.19646 34.242 8.11585 34.0918 7.99621 33.2569C8.96433 33.6545 11.0338 34.6118 12.0206 34.887C13.4732 33.7414 14.4226 35.1917 14.4226 35.1917L23.996 29.3086H23.9951Z" fill="#81655E"/>
<path d="M25.3424 35.5708C23.9993 35.5708 22.8089 34.876 22.6442 34.7764C22.4567 34.6996 21.5192 34.2311 21.7508 32.6583C21.6346 32.655 21.5141 32.6296 21.3851 32.6018C21.0992 32.541 20.7097 32.4591 20.1124 32.5756C19.8536 32.7081 19.5821 32.8466 19.2987 32.9901C18.412 33.4392 17.3837 33.9592 16.7363 34.3383C16.5148 34.5021 16.2832 34.6802 16.0414 34.8727C15.9659 34.9326 15.8598 34.9343 15.7826 34.8777C15.7113 34.8254 15.6808 34.7342 15.7045 34.6506L14.5336 35.3707C14.4361 35.4307 14.3071 35.4028 14.2443 35.3066C14.2409 35.3015 13.8778 34.7629 13.2965 34.6709C12.9317 34.6118 12.5465 34.741 12.1519 35.0516C12.0985 35.0938 12.0281 35.1073 11.9627 35.0896C11.2364 34.887 9.95523 34.3307 8.92603 33.8841C8.69185 33.782 8.4653 33.684 8.26421 33.5979C8.33549 34.0158 8.38215 34.1365 8.38809 34.1509C8.42458 34.2268 8.41185 34.318 8.35585 34.3813C8.2973 34.4472 8.20397 34.4708 8.12167 34.4387C1.50183 31.9374 1.22268 29.2807 0.952866 26.7119C0.926563 26.4637 0.899412 26.2062 0.86717 25.9538C0.86717 25.9496 0.866321 25.9453 0.866321 25.9411C0.754322 24.2637 1.20571 21.6104 2.20692 18.0547C2.95019 15.4166 3.73758 13.2369 3.74521 13.215C4.24497 11.6625 4.79224 10.1269 5.96484 8.49509C7.3241 6.60326 9.3333 4.87352 12.107 3.20709C17.774 -0.196686 19.1256 0.801146 20.4323 1.76606C20.5417 1.8471 20.6546 1.92983 20.7683 2.00918C25.0913 1.85807 28.7177 3.28222 31.5499 6.24617C36.3981 11.3198 37.3323 19.2121 37.1244 21.5133C36.998 22.913 36.9674 23.9801 36.9386 25.0125C36.8885 26.8081 36.8444 28.358 36.3048 31.0198C35.9238 32.8989 34.2896 34.2522 31.5796 34.9351C29.5678 35.4416 27.6986 35.4062 27.6206 35.4036C27.5476 35.402 27.4797 35.3631 27.4424 35.2998C27.4051 35.2365 27.4034 35.1597 27.4373 35.0947C27.439 35.0921 27.5205 34.9326 27.5994 34.6793C26.9036 35.3505 26.0984 35.5708 25.3424 35.5708ZM22.0206 32.1662C22.0622 32.1662 22.1046 32.1788 22.1411 32.2033C22.2132 32.2523 22.2472 32.3401 22.2276 32.4245C21.8543 34.0462 22.7681 34.3737 22.8072 34.3872C22.8233 34.3932 22.8419 34.4007 22.8564 34.4109C22.9853 34.4928 26.0246 36.3956 27.7758 33.8107C27.8293 33.7322 27.9286 33.6984 28.0185 33.7288C28.1093 33.7592 28.1678 33.8453 28.1636 33.9398C28.1415 34.3653 28.0363 34.735 27.9464 34.9799C29.3701 34.9495 35.1457 34.6008 35.889 30.937C36.4219 28.3108 36.4643 26.7769 36.5143 25.0015C36.5432 23.9632 36.5737 22.8894 36.7019 21.477C36.9055 19.2264 35.99 11.5063 31.2427 6.53826C28.4835 3.65029 24.9411 2.26919 20.7148 2.43465C20.6707 2.4355 20.6249 2.42368 20.5875 2.39835C20.4475 2.3038 20.3118 2.20335 20.1803 2.10626C19.5592 1.64787 18.9746 1.21564 17.8783 1.27474C16.598 1.34396 14.7814 2.09529 12.325 3.57178C6.08702 7.3166 5.01114 10.663 4.14569 13.3517C4.11176 13.4454 1.03177 22.0064 1.28802 25.9065C1.32026 26.1615 1.34741 26.4189 1.37371 26.668C1.63674 29.1701 1.88535 31.5364 7.88749 33.8968C7.85779 33.7465 7.82385 33.5481 7.78567 33.2864C7.77464 33.2113 7.80519 33.1362 7.86543 33.0897C7.92567 33.0433 8.00628 33.0323 8.0767 33.061C8.34736 33.1725 8.69439 33.3227 9.09572 33.4966C10.0655 33.9179 11.2627 34.437 11.9772 34.6532C12.4413 34.3138 12.9088 34.1796 13.3687 34.2539C13.9083 34.3417 14.2884 34.6979 14.4734 34.9115L23.8847 29.1288C23.9365 29.0967 23.9993 29.0891 24.0578 29.106C24.4048 29.2107 24.4931 29.4015 24.5058 29.5441C24.555 30.0988 23.4995 30.8087 21.0152 32.1105C21.1933 32.1299 21.3444 32.162 21.4759 32.1898C21.727 32.243 21.8221 32.2565 21.9035 32.2016C21.9392 32.178 21.9807 32.1653 22.0223 32.1653L22.0206 32.1662ZM24.0188 29.5424L19.5583 32.2835C19.7068 32.2371 19.8468 32.2008 19.9775 32.1729C20.8862 31.7095 21.8144 31.2241 22.5526 30.7876C24.0621 29.8962 24.085 29.6125 24.0824 29.5813C24.0824 29.5813 24.0722 29.5661 24.0196 29.5416L24.0188 29.5424Z" fill="#634C37"/>
<path d="M27.8394 26.8419C28.3977 25.855 29.5635 24.4005 30.4265 25.6575C31.2885 26.9145 30.9338 30.6576 27.3329 30.1232C25.9007 28.8814 27.8403 26.8419 27.8403 26.8419H27.8394Z" fill="#FFD7C7"/>
<path d="M28.0126 30.3875C27.792 30.3875 27.5553 30.3697 27.3016 30.3326L27.2405 30.3233L27.1938 30.2828C26.8196 29.9586 26.6185 29.5568 26.5956 29.0891C26.5422 27.9857 27.5154 26.8824 27.6673 26.7169C27.971 26.1834 28.744 24.9973 29.6179 24.9593C29.9972 24.9416 30.3264 25.1383 30.6013 25.5384C31.1435 26.3286 31.2377 27.9478 30.5131 29.0967C30.1253 29.7121 29.3863 30.3866 28.0117 30.3866L28.0126 30.3875ZM27.4263 29.924C28.6719 30.0928 29.6145 29.7298 30.1542 28.8738C30.7812 27.8794 30.7082 26.4434 30.2509 25.7773C30.0617 25.5013 29.8597 25.3721 29.6366 25.3823C29.0859 25.4059 28.4241 26.24 28.0245 26.9465L28.0117 26.9693L27.9939 26.9879C27.9837 26.9989 26.9707 28.0794 27.019 29.0705C27.0351 29.404 27.1692 29.6843 27.4263 29.9248V29.924Z" fill="#634C37"/>
<path d="M26.5879 30.7428C25.6164 32.3493 25.8693 32.4996 23.5741 33.3624C20.5773 34.4894 14.4945 35.4197 7.88234 31.6672C4.06418 29.5002 4.86005 27.128 5.00854 24.6588C5.15787 22.1904 5.55326 19.1952 6.36526 16.991C7.17725 14.7877 8.30827 10.8073 11.5546 10.7761C14.8008 10.7448 26.0279 14.5808 27.9565 19.0095C30.3636 24.5355 28.4003 27.7426 26.5854 30.742L26.5879 30.7428Z" fill="#FFD7C7"/>
<path d="M17.7102 34.5687C14.9383 34.5687 11.4841 33.9542 7.77795 31.8504C4.31785 29.8868 4.52318 27.6869 4.72257 25.5595C4.75057 25.2607 4.77942 24.9509 4.79809 24.6461C4.90669 22.8547 5.22827 19.4679 6.16753 16.9184C6.23371 16.7377 6.30244 16.5453 6.37456 16.3444C7.19165 14.0549 8.42618 10.5946 11.5545 10.565C13.3414 10.5456 17.0323 11.5831 20.3371 13.0275C22.757 14.0845 26.9909 16.2566 28.1533 18.9259C30.5944 24.5296 28.5742 27.8684 26.7915 30.8146L26.7695 30.8509C26.6176 31.1016 26.4963 31.3161 26.3893 31.5052C25.7708 32.5992 25.5926 32.828 23.6488 33.5591C22.7248 33.9069 20.5849 34.5679 17.7094 34.5679L17.7102 34.5687ZM11.6012 10.988C11.5868 10.988 11.5723 10.988 11.5579 10.988C8.72655 11.015 7.5514 14.3082 6.77419 16.487C6.70207 16.6896 6.6325 16.8829 6.56547 17.0644C5.64487 19.5632 5.32754 22.9029 5.22063 24.6723C5.20196 24.9838 5.17227 25.297 5.14427 25.5992C4.94912 27.6852 4.765 29.6547 7.98752 31.4841C15.3769 35.678 21.7278 33.8309 23.4986 33.1648C25.3593 32.465 25.4603 32.2869 26.0194 31.2992C26.128 31.1075 26.251 30.8897 26.4055 30.634L26.4275 30.5977C28.2416 27.5991 30.1176 24.4984 27.7639 19.0939C27.2896 18.0049 25.6715 15.8193 20.1657 13.4142C17.4608 12.2323 13.5561 10.9871 11.6012 10.9871V10.988Z" fill="#634C37"/>
<path d="M20.0988 22.4563C19.9961 22.4521 19.9248 22.431 19.8391 22.3989C18.8956 22.0072 18.2101 21.1351 17.8995 20.1871C17.8936 20.1702 17.9207 20.1576 17.9284 20.1761C18.1498 20.6379 18.4527 21.0617 18.8413 21.3952C19.1799 21.6813 19.5659 21.9278 19.9978 22.0291L20.0334 22.0334C20.0623 22.0393 20.0691 22.0334 20.0793 22.035L20.1454 22.046C20.4 22.0941 20.3576 22.4664 20.0988 22.4563Z" fill="#634C37"/>
<path d="M9.6013 20.735C9.33064 20.7037 9.11343 20.5273 8.91658 20.361C8.5721 20.052 8.31076 19.6721 8.12495 19.2551C8.02992 19.0525 7.96374 18.8389 7.90349 18.627C7.90095 18.6186 7.90604 18.6102 7.91368 18.6085C7.92131 18.6059 7.92895 18.6102 7.93234 18.6177C8.02398 18.8178 8.11816 19.0145 8.23864 19.1943C8.46434 19.5497 8.7647 19.8747 9.11597 20.1052C9.25088 20.193 9.39258 20.2681 9.54445 20.3087L9.57076 20.312C9.59282 20.3179 9.59451 20.312 9.60045 20.3129L9.6853 20.3407C9.91439 20.4184 9.84142 20.7561 9.60215 20.735H9.6013Z" fill="#634C37"/>
<path d="M34.1993 15.6616C34.8047 15.4395 35.0593 14.6222 34.768 13.8361C34.4767 13.05 33.7497 12.5928 33.1443 12.8149C32.5389 13.037 32.2843 13.8543 32.5756 14.6404C32.8669 15.4265 33.5939 15.8837 34.1993 15.6616Z" fill="#FFDBD7"/>
<path d="M10.1953 17.6613C10.2335 17.6655 10.2734 17.652 10.3022 17.6216C10.9751 16.9066 12.1392 16.5588 13.2015 16.7563C13.2711 16.769 13.3373 16.7242 13.35 16.655C13.3627 16.5866 13.3177 16.5199 13.2482 16.5073C12.1036 16.2945 10.8461 16.6736 10.1164 17.4486C10.0681 17.4992 10.0706 17.5794 10.1224 17.6275C10.1436 17.6469 10.169 17.6579 10.1953 17.6613Z" fill="#634C37"/>
<path d="M13.8575 31.1033C13.2686 31.1033 12.5949 30.9024 12.1291 30.1511C12.0799 30.0717 12.1045 29.9679 12.1843 29.9189C12.264 29.87 12.3684 29.8944 12.4176 29.9738C12.7663 30.536 13.2915 30.8036 13.9813 30.7665C14.5159 30.7386 14.9528 30.5318 14.9579 30.5293C15.0419 30.4888 15.1438 30.5242 15.1845 30.6078C15.2252 30.6914 15.1904 30.7927 15.1056 30.8332C15.0954 30.8382 14.532 31.1025 13.8566 31.1025L13.8575 31.1033Z" fill="#634C37"/>
<path d="M11.8642 9.32324L10.1868 13.1255L30.1489 18.9799L31.0034 15.0865L11.8642 9.32324Z" fill="#81655E"/>
<path d="M11.4392 13.3719C11.4392 13.3719 20.0131 20.9435 25.7327 21.5918C25.8184 24.7618 23.7074 34.7511 19.7747 35.1909C21.0109 36.9367 28.3146 36.0342 29.4609 28.4264C30.0854 24.278 30.6276 20.4817 30.0761 17.668" fill="#81655E"/>
<path d="M21.901 36.1558C20.8523 36.1558 19.9877 35.8578 19.6016 35.3133C19.5583 35.2525 19.5507 35.1732 19.5813 35.1056C19.6118 35.0381 19.6763 34.9908 19.7509 34.9824C23.3969 34.5746 25.5316 25.2067 25.5232 21.7792C19.8095 20.9975 11.6471 13.838 11.2984 13.5307C11.211 13.453 11.2025 13.3196 11.2806 13.2327C11.3586 13.1457 11.4927 13.1373 11.5801 13.2149C11.6013 13.2335 13.7497 15.1245 16.5658 17.0687C19.1528 18.855 22.847 21.0532 25.7565 21.3833C25.8617 21.3951 25.9415 21.4821 25.9448 21.5876C26.0272 24.636 24.0621 34.2589 20.21 35.3234C20.7632 35.7109 21.873 35.8975 23.2645 35.5699C24.4575 35.2888 28.4156 33.9406 29.2505 28.3968C29.83 24.5507 30.4291 20.5737 29.8674 17.7102C29.8453 17.5954 29.92 17.4849 30.0354 17.4629C30.1499 17.441 30.2619 17.5152 30.284 17.6301C30.8592 20.5645 30.2543 24.5786 29.6705 28.4602C29.3464 30.6145 28.5208 32.3966 27.2167 33.7566C26.1655 34.8532 24.796 35.6434 23.3629 35.9811C22.8572 36.1001 22.3609 36.1575 21.901 36.1575V36.1558Z" fill="#634C37"/>
<path d="M11.4391 13.372C7.44026 16.6044 7.08559 16.4828 6.26342 17.2493C5.19942 15.7019 5.00936 9.62715 11.1685 6.64716" fill="#81655E"/>
<path d="M6.26346 17.4604C6.25583 17.4604 6.24819 17.4604 6.24055 17.4595C6.17946 17.4528 6.12346 17.4199 6.08868 17.3692C5.5151 16.5343 5.21983 14.6138 5.76795 12.5573C6.26092 10.7077 7.58115 8.14813 11.076 6.45806C11.1812 6.40656 11.3085 6.45046 11.3594 6.55598C11.4103 6.66066 11.3671 6.78729 11.261 6.83794C7.91121 8.45879 6.64782 10.9019 6.17777 12.6662C5.7111 14.4171 5.89268 16.086 6.31522 16.9218C6.55704 16.7183 6.78273 16.5681 7.11109 16.3503C7.75764 15.9214 8.8403 15.203 11.3051 13.2099C11.3959 13.1364 11.53 13.15 11.6038 13.2403C11.6776 13.3306 11.664 13.464 11.5732 13.5374C9.09314 15.5424 8.0003 16.2684 7.34697 16.7015C6.94988 16.9648 6.70976 17.1244 6.40855 17.4047C6.36867 17.4418 6.31692 17.4621 6.26346 17.4621V17.4604Z" fill="#634C37"/>
<path d="M31.665 15.8451C32.0032 15.7606 32.1874 15.3362 32.0766 14.8971C31.9657 14.458 31.6018 14.1706 31.2636 14.2551C30.9255 14.3396 30.7412 14.764 30.8521 15.2031C30.9629 15.6422 31.3269 15.9296 31.665 15.8451Z" fill="#FFDBD7"/>
<path d="M22.0434 19.9735C22.0664 19.9761 22.091 19.9719 22.1139 19.9609C22.1767 19.9296 22.2021 19.8537 22.1716 19.7912C21.531 18.5089 20.0529 17.5355 18.4926 17.3684C18.423 17.3608 18.3602 17.4114 18.3526 17.4806C18.3449 17.5499 18.3958 17.6123 18.4654 17.6199C19.9426 17.7778 21.3409 18.6954 21.9442 19.9035C21.9645 19.944 22.0027 19.9685 22.0443 19.9727L22.0434 19.9735Z" fill="#634C37"/>
<path d="M16.7348 27.0799C17.3508 29.1271 19.5865 30.054 21.3785 29.5205C23.1705 28.987 24.1233 26.8951 23.5073 24.8479C22.8913 22.8007 20.9661 21.6788 19.175 22.2123C17.383 22.7459 16.1196 25.0328 16.7356 27.0791L16.7348 27.0799Z" fill="white"/>
<path d="M20.3416 29.8379C19.7281 29.8379 19.1062 29.6969 18.5402 29.42C17.573 28.9464 16.8738 28.1326 16.5718 27.1289C16.2706 26.1277 16.3902 24.988 16.901 24.002C17.4016 23.0346 18.2127 22.3238 19.1257 22.0511C20.0446 21.7776 21.0186 21.9076 21.8697 22.4183C22.7224 22.9307 23.3621 23.7766 23.6701 24.7998C23.9798 25.8288 23.9196 26.9018 23.5005 27.8211C23.0779 28.7489 22.3414 29.409 21.4276 29.6817C21.0789 29.7856 20.7123 29.837 20.3424 29.837L20.3416 29.8379ZM20.0802 22.2495C19.7926 22.2495 19.505 22.2908 19.2233 22.3752C18.3985 22.6209 17.6621 23.2701 17.203 24.1565C16.733 25.0648 16.621 26.1133 16.8976 27.0318C17.1725 27.9444 17.8088 28.6847 18.6904 29.117C19.5202 29.523 20.4824 29.6116 21.3292 29.3592C22.148 29.1153 22.8089 28.5201 23.1908 27.6827C23.576 26.8376 23.6303 25.8482 23.3443 24.8968C23.0609 23.9539 22.4746 23.1764 21.694 22.7079C21.1883 22.404 20.6351 22.2495 20.0802 22.2495Z" fill="#634C37"/>
<path d="M20.7097 29.1051C22.3578 29.1051 23.6938 27.7758 23.6938 26.1361C23.6938 24.4964 22.3578 23.1671 20.7097 23.1671C19.0616 23.1671 17.7256 24.4964 17.7256 26.1361C17.7256 27.7758 19.0616 29.1051 20.7097 29.1051Z" fill="#634C37"/>
<path d="M20.7071 29.1473C19.1654 29.1473 17.8443 27.9764 17.6967 26.4189C17.5397 24.766 18.764 23.2946 20.4254 23.1384C21.2306 23.0633 22.0163 23.3039 22.6391 23.8163C23.2618 24.3287 23.647 25.0522 23.7226 25.8533C23.7981 26.6544 23.5563 27.4362 23.0412 28.0558C22.5262 28.6754 21.7991 29.0587 20.9939 29.1338C20.898 29.1431 20.8021 29.1473 20.7071 29.1473ZM20.7147 23.2093C20.6214 23.2093 20.5272 23.2135 20.433 23.2228C18.8184 23.3748 17.6288 24.8048 17.7807 26.4113C17.8545 27.1897 18.2287 27.8929 18.8336 28.3909C19.4386 28.889 20.2022 29.1237 20.9854 29.0494C22.6 28.8975 23.7896 27.4674 23.6377 25.8609C23.5639 25.0826 23.1897 24.3794 22.5848 23.8813C22.0528 23.4431 21.3969 23.2093 20.7147 23.2093Z" fill="#634C37"/>
<path d="M22.0019 26.5075C22.6068 26.5075 23.0973 26.0196 23.0973 25.4177C23.0973 24.8158 22.6068 24.3279 22.0019 24.3279C21.3969 24.3279 20.9065 24.8158 20.9065 25.4177C20.9065 26.0196 21.3969 26.5075 22.0019 26.5075Z" fill="white"/>
<path d="M22.0011 26.5498C21.4216 26.5498 20.9252 26.1099 20.8692 25.5241C20.8404 25.2227 20.932 24.9289 21.1255 24.6959C21.3189 24.4629 21.5921 24.3194 21.895 24.2907C22.1971 24.2629 22.4932 24.3532 22.7274 24.5457C22.9616 24.7381 23.1058 25.01 23.1347 25.3113C23.1932 25.9327 22.7333 26.4856 22.1089 26.5447C22.0724 26.5481 22.0367 26.5498 22.0011 26.5498ZM22.0028 24.3701C21.9697 24.3701 21.9366 24.3718 21.9027 24.3751C21.6227 24.4013 21.3698 24.5347 21.1908 24.75C21.0118 24.9652 20.9269 25.2379 20.9541 25.5165C21.0084 26.0914 21.5226 26.5143 22.1012 26.4611C22.679 26.4071 23.105 25.8947 23.0507 25.3198C22.9989 24.7778 22.5399 24.3709 22.0036 24.3709L22.0028 24.3701Z" fill="#634C37"/>
<path d="M6.3968 23.4465C6.16686 25.3401 7.43873 27.058 9.09581 27.2572C10.7529 27.4564 12.2836 26.083 12.5135 24.1894C12.7434 22.2959 11.5869 20.5991 9.92902 20.3999C8.27194 20.2006 6.62674 21.553 6.39595 23.4465H6.3968Z" fill="white"/>
<path d="M9.41482 27.4455C9.30282 27.4455 9.18912 27.4387 9.07542 27.4252C8.23204 27.3239 7.43871 26.8351 6.89992 26.0855C6.35096 25.3215 6.11169 24.3768 6.22793 23.4263C6.46465 21.4813 8.1684 20.0183 9.94936 20.2327C11.6972 20.4429 12.9224 22.2275 12.6815 24.2105C12.4558 26.0644 11.0269 27.4455 9.41397 27.4455H9.41482ZM6.56562 23.4668C6.46041 24.3329 6.67762 25.1932 7.17738 25.8888C7.66101 26.5616 8.36779 26.9989 9.117 27.0892C10.6791 27.2775 12.1274 25.9673 12.3463 24.1692C12.5652 22.371 11.4715 20.7553 9.91033 20.567C8.31179 20.3754 6.78029 21.7024 6.56647 23.466L6.56562 23.4668Z" fill="#634C37"/>
<path d="M10.0816 26.5802C11.4686 26.5802 12.5931 25.4614 12.5931 24.0814C12.5931 22.7013 11.4686 21.5826 10.0816 21.5826C8.6945 21.5826 7.57007 22.7013 7.57007 24.0814C7.57007 25.4614 8.6945 26.5802 10.0816 26.5802Z" fill="#634C37"/>
<path d="M10.0833 26.6215C9.9688 26.6215 9.85341 26.6139 9.73632 26.5979C9.06093 26.5059 8.46105 26.1581 8.04869 25.6178C7.63633 25.0775 7.45985 24.4098 7.55148 23.7369C7.74154 22.3491 9.03123 21.3732 10.427 21.5632C11.1024 21.6552 11.7022 22.003 12.1146 22.5433C12.527 23.0835 12.7035 23.7513 12.6118 24.4241C12.437 25.6963 11.3391 26.6215 10.0833 26.6215ZM7.59391 23.7429L7.63633 23.7488C7.54724 24.3988 7.71779 25.0446 8.11657 25.5671C8.51536 26.0897 9.09487 26.4257 9.7482 26.5152C9.86105 26.5304 9.97304 26.538 10.0833 26.538C11.2975 26.538 12.359 25.6431 12.5278 24.414C12.6169 23.764 12.4464 23.1182 12.0476 22.5956C11.6488 22.073 11.0693 21.7371 10.416 21.6476C9.06772 21.4652 7.82045 22.4073 7.63633 23.7488L7.59391 23.7429Z" fill="#634C37"/>
<path d="M11.1582 24.2485C11.6709 24.2485 12.0865 23.835 12.0865 23.325C12.0865 22.8149 11.6709 22.4014 11.1582 22.4014C10.6456 22.4014 10.23 22.8149 10.23 23.325C10.23 23.835 10.6456 24.2485 11.1582 24.2485Z" fill="white"/>
<path d="M11.1591 24.2907C11.1159 24.2907 11.0717 24.2873 11.0276 24.2814C10.7705 24.2468 10.5431 24.1143 10.3862 23.9091C10.2292 23.704 10.1622 23.4499 10.197 23.1941C10.2318 22.9383 10.365 22.7121 10.5711 22.5559C10.7773 22.3997 11.0327 22.3322 11.2898 22.3677C11.8201 22.4394 12.1926 22.9274 12.1205 23.455C12.0543 23.9387 11.6368 24.2899 11.1591 24.2899V24.2907ZM11.1566 22.4436C10.964 22.4436 10.7782 22.5061 10.6229 22.6234C10.4345 22.7661 10.3132 22.9729 10.281 23.2059C10.2487 23.4389 10.3098 23.6711 10.4532 23.8585C10.5966 24.0459 10.8045 24.1666 11.0387 24.1987C11.5231 24.2637 11.9703 23.926 12.0356 23.4448C12.1018 22.9637 11.7616 22.5179 11.2779 22.4529C11.2372 22.447 11.1965 22.4445 11.1566 22.4445V22.4436Z" fill="#634C37"/>
<path d="M12.7373 28.6653C12.9936 28.6653 13.2014 28.4586 13.2014 28.2035C13.2014 27.9485 12.9936 27.7418 12.7373 27.7418C12.481 27.7418 12.2732 27.9485 12.2732 28.2035C12.2732 28.4586 12.481 28.6653 12.7373 28.6653Z" fill="#F3A49F"/>
<path d="M12.2953 28.2314C12.2809 28.2314 12.2656 28.228 12.2521 28.2196C12.2113 28.196 12.1986 28.1445 12.2224 28.1039L12.3267 27.9275C12.3505 27.887 12.4022 27.8743 12.443 27.898C12.4837 27.9216 12.4964 27.9731 12.4727 28.0136L12.3683 28.1901C12.3522 28.2171 12.3242 28.2314 12.2953 28.2314Z" fill="#634C37"/>
</g>
<defs>
<clipPath id="clip0_111_424">
<rect width="38" height="37" fill="white"/>
</clipPath>
</defs>
</svg>
