<svg width="44" height="38" viewBox="0 0 44 38" fill="none" xmlns="http://www.w3.org/2000/svg">
<path d="M2 1H28C28.5523 1 29 1.44772 29 2V34C29 34.5523 28.5523 35 28 35H2C1.44772 35 1 34.5523 1 34V2C1 1.44772 1.44772 1 2 1Z" fill="#CEF6FF" stroke="#634C37" stroke-width="2"/>
<path d="M6.46143 6.91263H23.7898" stroke="#634C37" stroke-miterlimit="10" stroke-linecap="round"/>
<path d="M6.46143 11.0628H23.7898" stroke="#634C37" stroke-miterlimit="10" stroke-linecap="round"/>
<path d="M6.46143 15.213H23.7898" stroke="#634C37" stroke-miterlimit="10" stroke-linecap="round"/>
<path d="M6.46143 19.3618H23.7898" stroke="#634C37" stroke-miterlimit="10" stroke-linecap="round"/>
<path d="M33.8511 20.1482L33.8512 20.1483C34.8948 21.1915 36.4697 21.973 38.0795 22.4996C36.4699 23.0263 34.8948 23.8077 33.8516 24.8508L33.8515 24.8509C32.8085 25.8945 32.027 27.4694 31.5005 29.0792C30.9737 27.4697 30.192 25.8949 29.1488 24.8518C28.1055 23.8081 26.5306 23.0267 24.9207 22.5003C26.5302 21.9734 28.1052 21.192 29.1483 20.1492L29.1484 20.1492C30.192 19.1056 30.9732 17.5307 31.4998 15.9209C32.0264 17.5303 32.808 19.1048 33.8511 20.1482Z" fill="#FFD483" stroke="#634C37"/>
<path d="M40.2377 27.7623L40.2375 27.7621C39.7157 27.2402 39.3053 26.5107 38.9999 25.7374C38.6949 26.5106 38.2849 27.2403 37.7625 27.7626L37.7623 27.7628C37.24 28.2845 36.5104 28.6948 35.737 29.0001C36.5104 29.3052 37.24 29.7154 37.7624 30.2377L40.2377 27.7623ZM40.2377 27.7623C40.76 28.2843 41.4898 28.6946 42.2632 28.9997C41.4898 29.305 40.7601 29.7153 40.2379 30.2374L40.2378 30.2375C39.7158 30.7597 39.3056 31.4892 39.0004 32.2625M40.2377 27.7623L39.0004 32.2625M39.0004 32.2625C38.6952 31.4893 38.2848 30.7598 37.7625 30.2378L39.0004 32.2625Z" fill="#FFD483" stroke="#634C37"/>
</svg>
