<svg width="56" height="57" viewBox="0 0 56 57" fill="none" xmlns="http://www.w3.org/2000/svg">
<path d="M16 14H42C42.5523 14 43 14.4477 43 15V47C43 47.5523 42.5523 48 42 48H16C15.4477 48 15 47.5523 15 47V15C15 14.4477 15.4477 14 16 14Z" fill="#CEF6FF" stroke="#634C37" stroke-width="2"/>
<path d="M20.4614 19.9126H37.7898" stroke="#634C37" stroke-miterlimit="10" stroke-linecap="round"/>
<path d="M20.4614 24.0628H37.7898" stroke="#634C37" stroke-miterlimit="10" stroke-linecap="round"/>
<path d="M20.4614 28.213H37.7898" stroke="#634C37" stroke-miterlimit="10" stroke-linecap="round"/>
<path d="M20.4614 32.3618H37.7898" stroke="#634C37" stroke-miterlimit="10" stroke-linecap="round"/>
<path d="M6.1489 10.8518C6.14888 10.8518 6.14885 10.8518 6.14883 10.8518C5.10552 9.80815 3.53061 9.02673 1.92071 8.50031C3.53023 7.97343 5.10517 7.19197 6.14834 6.14921L6.1484 6.14915C7.19201 5.10561 7.97323 3.53066 8.49982 1.9209C9.02642 3.53032 9.80802 5.10477 10.8511 6.14817L10.8512 6.14829L8.24136 15.9476C7.73613 14.1401 6.91328 12.3232 5.79529 11.2053L6.1489 10.8518ZM6.1489 10.8518C7.19207 11.895 7.97367 13.4697 8.50053 15.0792M6.1489 10.8518L8.50053 15.0792M8.50053 15.0792C9.02703 13.4694 9.80847 11.8945 10.8515 10.8509L10.8516 10.8508C11.8948 9.80769 13.4699 9.02634 15.0795 8.49957" fill="#FFD483" stroke="#634C37"/>
<path d="M52.2375 50.7621L52.2377 50.7623C52.76 51.2843 53.4898 51.6946 54.2632 51.9997C53.4898 52.305 52.7601 52.7153 52.2379 53.2374L52.2378 53.2375C51.7158 53.7597 51.3056 54.4892 51.0004 55.2625C50.6952 54.4893 50.2848 53.7598 49.7625 53.2378C49.2401 52.7154 48.5104 52.3052 47.737 52.0001C48.5104 51.6948 49.24 51.2845 49.7623 50.7628L49.7625 50.7626C50.2849 50.2403 50.6949 49.5106 50.9999 48.7374C51.3053 49.5107 51.7157 50.2402 52.2375 50.7621Z" fill="#FFD483" stroke="#634C37"/>
</svg>
