<svg width="89" height="85" viewBox="0 0 89 85" fill="none" xmlns="http://www.w3.org/2000/svg">
<path d="M68.7195 2.41589L65.5756 15.9479" stroke="#634C37" stroke-width="4" stroke-linecap="round" stroke-linejoin="round"/>
<path d="M81.6227 11.7539L71 20.707" stroke="#634C37" stroke-width="4" stroke-linecap="round" stroke-linejoin="round"/>
<path d="M86.3152 28.9546L72.5718 26.9253" stroke="#634C37" stroke-width="4" stroke-linecap="round" stroke-linejoin="round"/>
<path d="M40.2652 36.4402L53.6869 27.9304L40.5391 14.7539L32.0478 33.6951L27.1174 18.8715L13.9696 27.6558L24.926 36.4401H0V54.0089H4.38261V84.7539H58.6173V54.0088H63V36.4402H40.2652ZM41.648 20.5237L48.5277 27.4184L34.4941 36.337L41.648 20.5237ZM25.3599 24.0048L29.2446 35.684L19.5329 27.8979L25.3599 24.0048ZM27.1174 80.3618H8.76521V52.633H27.1174V80.3618ZM27.1174 49.6166H4.38261V40.8323H27.1174V49.6166ZM54.2348 80.3618H35.8825V52.633H54.2348V80.3618ZM58.6173 49.6166H35.8825V40.8323H58.6173V49.6166Z" fill="#A4BF73"/>
</svg>
