<svg width="19" height="17" viewBox="0 0 19 17" fill="none" xmlns="http://www.w3.org/2000/svg">
<path fill-rule="evenodd" clip-rule="evenodd" d="M0 8.16C0 7.85089 0.122794 7.55444 0.341368 7.33587C0.559943 7.11729 0.856393 6.9945 1.1655 6.9945H14.669L9.66436 1.99215C9.44551 1.7733 9.32256 1.47648 9.32256 1.16698C9.32256 0.857475 9.44551 0.56065 9.66436 0.3418C9.88321 0.122949 10.18 0 10.4895 0C10.799 0 11.0959 0.122949 11.3147 0.3418L18.3077 7.33482C18.4163 7.44309 18.5024 7.5717 18.5611 7.7133C18.6199 7.8549 18.6501 8.0067 18.6501 8.16C18.6501 8.3133 18.6199 8.4651 18.5611 8.6067C18.5024 8.7483 18.4163 8.87691 18.3077 8.98518L11.3147 15.9782C11.0959 16.1971 10.799 16.32 10.4895 16.32C10.18 16.32 9.88321 16.1971 9.66436 15.9782C9.44551 15.7594 9.32256 15.4625 9.32256 15.153C9.32256 14.8435 9.44551 14.5467 9.66436 14.3278L14.669 9.3255H1.1655C0.856393 9.3255 0.559943 9.20271 0.341368 8.98414C0.122794 8.76556 0 8.46911 0 8.16Z" fill="#634C37"/>
</svg>
