<svg width="222" height="102" viewBox="0 0 222 102" fill="none" xmlns="http://www.w3.org/2000/svg">
<g clip-path="url(#clip0_119_465)">
<path d="M43.4746 51.8029H51.0823C53.5676 51.8029 55.5823 53.8176 55.5823 56.3029V95.8529C55.5823 98.3382 53.5676 100.353 51.0823 100.353H43.4746C40.9893 100.353 38.9746 98.3382 38.9746 95.8529V56.3029C38.9746 53.8176 40.9893 51.8029 43.4746 51.8029Z" fill="#EEB179" stroke="#634C37" stroke-width="3" stroke-miterlimit="10" stroke-linejoin="bevel"/>
<path d="M170.918 51.8029H178.525C181.011 51.8029 183.025 53.8176 183.025 56.3029V95.8529C183.025 98.3382 181.011 100.353 178.525 100.353H170.918C168.432 100.353 166.418 98.3382 166.418 95.8529V56.3029C166.418 53.8176 168.432 51.8029 170.918 51.8029Z" fill="#EEB179" stroke="#634C37" stroke-width="3" stroke-miterlimit="10" stroke-linejoin="bevel"/>
<path d="M220.357 36.0315C220.357 40.3103 217.678 44.6417 212.234 48.8081C206.812 52.9576 198.872 56.759 188.926 59.9785C169.051 66.4121 141.501 70.4159 111.001 70.4159C80.5023 70.4159 52.9516 66.4121 33.0768 59.9785C23.131 56.759 15.1911 52.9576 9.7692 48.8081C4.32518 44.6417 1.646 40.3103 1.646 36.0315C1.646 31.7527 4.32518 27.4213 9.7692 23.2548C15.1911 19.1054 23.131 15.304 33.0768 12.0845C52.9516 5.6509 80.5023 1.64707 111.001 1.64707C141.501 1.64707 169.051 5.6509 188.926 12.0845C198.872 15.304 206.812 19.1054 212.234 23.2548C217.678 27.4213 220.357 31.7527 220.357 36.0315Z" fill="#EEB179" stroke="#634C37" stroke-width="3" stroke-miterlimit="10" stroke-linejoin="bevel"/>
</g>
<defs>
<clipPath id="clip0_119_465">
<rect width="222" height="102" fill="white"/>
</clipPath>
</defs>
</svg>
