<svg width="123" height="171" viewBox="0 0 123 171" fill="none" xmlns="http://www.w3.org/2000/svg">
<g clip-path="url(#clip0_119_155)">
<path d="M53.0076 162.859C50.3429 162.352 48.5286 160.852 47.8989 158.633C47.603 157.59 47.0578 155.669 47.2896 154.196C46.1278 151.776 45.4297 147.875 45.4572 143.978C37.4118 142.014 31.8046 139.218 31.5571 139.093L30.0666 138.342L30.6807 136.794C30.9769 136.047 37.2357 120.273 39.8394 114.144C37.38 115.254 34.9467 116.042 32.9353 116.692C32.6266 116.791 32.3294 116.888 32.0443 116.981L31.9708 117.006L31.0894 117.214C27.5148 118.063 24.9309 118.675 22.4186 118.197C21.1687 117.959 19.9746 117.458 18.7694 116.663C18.0167 116.165 16.2516 115.003 16.7924 113.292C16.8428 113.135 16.9051 112.993 16.9779 112.864C15.685 111.192 14.6513 108.84 15.328 106.425C15.5366 105.68 16.5223 103.31 20.4602 104.059C22.3395 104.416 24.4004 105.372 25.4125 105.883C26.2875 105.649 27.9838 104.976 30.8989 103.062C30.5595 102.267 30.4021 101.766 30.3932 101.735L29.9951 100.457L31.0966 99.697C31.5201 99.4048 39.6967 93.7905 47.8652 90.808C47.3727 90.7793 46.8609 90.7153 46.3337 90.6151C43.2584 90.0302 40.0901 88.2928 37.6411 85.8503C34.891 83.1057 33.0506 79.5345 32.2803 75.4659C26.8507 73.4746 23.5986 69.3346 22.6041 63.1427C21.6972 57.496 22.6884 50.6136 23.7807 44.0489C24.7503 38.2176 27.0982 33.2677 30.7664 29.3088C30.4464 28.9494 30.1048 28.5766 29.7437 28.189C24.8438 22.953 25.2128 18.3946 26.3849 15.4946C27.2707 13.2987 29.4125 10.1066 34.5764 7.35935C38.0969 5.48643 42.2108 4.30311 45.8649 4.1116C47.115 4.04521 48.3106 4.11867 49.4152 4.32874C53.7781 5.15844 56.0007 7.88246 57.0971 10.0214C58.4019 12.5691 58.6703 15.3201 58.2964 17.2666C58.7434 17.8375 59.0122 18.5247 59.0953 19.299C60.2496 19.3163 61.4221 19.365 62.6034 19.445C63.8987 19.5319 65.1811 19.696 66.4149 19.9306C72.6839 21.1228 78.0868 24.1828 82.4774 29.0289C89.4685 34.3287 91.3165 40.6737 91.6354 45.0737C91.9807 49.8533 90.6392 53.8003 89.1027 55.7927C89.8217 61.5187 89.1828 68.2586 88.7144 71.9136C88.6333 72.5453 88.57 73.2009 88.5107 73.835C88.0556 78.6218 87.5384 84.0478 78.5992 87.1063C74.7893 88.4105 70.929 89.2173 67.0884 89.5199L67.6428 89.6921C68.0877 89.8249 78.6485 93.0609 88.2632 104.838L89.0346 105.784L88.4534 106.857C88.253 107.227 88.0383 107.594 87.8135 107.955C90.4094 110.348 92.6843 112.025 94.1558 112.631C95.6128 112.122 98.8246 111.149 101.079 111.578C102.773 111.9 103.869 112.969 104.086 114.512C104.437 116.997 103.1 119.193 101.595 120.677C101.677 120.871 101.718 121.055 101.737 121.207C101.965 122.923 100.111 123.817 99.3196 124.198C97.2083 125.217 95.2484 125.479 92.9693 125.045C91.2335 124.715 89.3804 124.005 87.034 123.104L86.2234 122.794L86.1856 122.778C85.7377 122.583 82.7768 121.269 79.4933 119.209C80.6377 123.568 82.3437 130.288 83.8224 136.973L84.0768 138.127L83.1258 138.828C78.8434 141.992 73.8552 144.108 68.2798 145.131C68.0088 147.885 67.9529 150.25 68.1171 151.985L68.3362 152.563C68.4005 152.733 68.5016 152.973 68.62 153.249C69.0476 154.254 69.635 155.63 69.8686 156.991C70.4022 160.106 68.6446 161.239 67.8661 161.581C66.3741 162.235 63.6354 162.723 61.1483 162.25C60.7896 162.182 60.4455 162.096 60.118 161.991C59.9966 162.063 59.8691 162.127 59.7372 162.186C58.2434 162.84 55.5044 163.33 53.0154 162.856L53.0076 162.859ZM52.7061 89.3976C52.9923 89.3389 53.2774 89.2856 53.5612 89.2394L54.3403 89.1094L54.6115 89.3149C54.7537 89.1436 54.8815 88.9602 54.9919 88.7605C54.5507 88.6673 54.1105 88.5688 53.6738 88.4616C53.6738 88.4616 52.7111 89.3912 52.7065 89.3959L52.7061 89.3976Z" fill="#634C37"/>
<path d="M98.2116 120.85C98.9987 120.697 102.727 117.966 102.274 114.767C101.835 111.647 94.5435 114.422 94.1766 114.564C91.8913 113.947 88.4439 111.128 85.4286 108.214C85.9271 107.537 86.4038 106.799 86.8443 105.987C77.4757 94.5087 67.1216 91.4362 67.1216 91.4362C67.1216 91.4362 67.0543 91.5069 66.9226 91.6228C65.5397 90.8146 64.0652 90.5268 64.0322 87.8279C68.2942 87.7909 72.9918 87.095 78.0058 85.38C86.9489 82.3205 86.2233 76.9716 86.905 71.677C87.5846 66.3839 87.9565 59.8751 87.1291 54.8759C87.1242 54.8527 87.1215 54.8281 87.1169 54.8031C87.1826 54.8879 87.2493 54.9766 87.3168 55.0711C90.1955 52.186 93.0715 39.2513 81.2683 30.3937L81.2666 30.4027C77.1512 25.7999 71.1367 21.8429 62.4834 21.2581C60.6179 21.1314 58.824 21.0869 57.0996 21.1169C57.4788 19.8167 57.4222 18.5413 56.2272 17.8393C57.5118 15.0998 56.0914 5.39252 45.9661 5.92406C35.8358 6.46208 20.3974 15.5279 31.076 26.9477C32.0409 27.9805 32.7343 28.7799 33.2433 29.396C29.1172 33.3104 26.5665 38.4276 25.5796 44.3502C23.3678 57.6412 21.8835 70.4975 33.9008 74.0866C35.7107 87.2467 48.435 90.9869 51.4488 88.0755C49.7816 87.5601 48.4379 86.2234 47.3672 84.3693C50.0336 85.5904 53.3996 86.7182 57.3194 87.3375C57.1429 88.7245 56.5274 90.4859 54.6847 91.6265C54.413 91.4431 54.1379 91.248 53.8606 91.0358C44.5961 92.5804 32.133 101.194 32.133 101.194C32.133 101.194 32.4505 102.211 33.2079 103.7C30.2374 105.768 27.1537 107.533 25.1363 107.795C24.7915 107.605 17.9315 103.882 17.0833 106.916C16.2111 110.027 19.5464 113.231 20.306 113.487C21.0656 113.743 16.3715 112.897 19.7724 115.14C23.1521 117.368 25.8159 116.58 31.4723 115.249C33.8677 114.466 37.1295 113.484 40.245 111.933C40.874 112.368 41.5446 112.779 42.261 113.154C40.4827 117.024 32.374 137.464 32.374 137.464C32.374 137.464 38.6175 140.608 47.3263 142.542C47.049 147.322 48.0266 152.05 49.2886 154.061C49.2886 154.061 48.5591 154.282 49.6523 158.137C50.7459 161.991 56.6944 161.527 58.9909 160.521C59.3334 160.371 59.5729 160.148 59.7341 159.876C62.0018 161.074 65.4877 160.633 67.1234 159.917C69.4199 158.911 67.1789 154.681 66.621 153.208C66.5585 153.224 66.4964 153.238 66.4339 153.254C66.0071 150.74 66.1992 147.014 66.6084 143.563C71.9272 142.776 77.2412 140.91 82.0343 137.367C79.5365 126.075 76.4257 114.832 76.4257 114.832C76.4257 114.832 76.4432 114.828 76.4671 114.819C80.6324 118.271 85.9603 120.699 86.9095 121.111C92.3381 123.186 94.8758 124.321 98.5195 122.563C102.188 120.792 97.4238 121.006 98.2109 120.853L98.2116 120.85Z" fill="#634C37"/>
<path d="M54.8068 25.2984C54.8068 25.2984 59.3126 19.6611 56.2244 17.8443C57.509 15.1048 56.0886 5.39755 45.9633 5.92909C35.838 6.46064 20.3974 15.5279 31.076 26.9477C37.5703 33.8925 31.8348 30.3929 39.3536 30.4264C46.8724 30.4598 54.805 25.2981 54.805 25.2981L54.8068 25.2984Z" fill="#E18E6B"/>
<path d="M34.7033 31.7228C34.42 31.6689 34.2143 31.3925 33.9118 30.99C33.4645 30.3913 32.6317 29.2797 30.7403 27.2566C28.3084 24.656 25.7981 20.5921 27.6516 16.0044C30.0929 9.96708 39.0445 5.83726 45.938 5.47552C51.1573 5.20154 53.8898 7.57004 55.2643 9.60427C56.4257 11.3235 56.8481 13.1081 56.9963 14.3027C57.1567 15.5793 57.0742 16.8043 56.7807 17.6738C57.2771 18.0631 57.589 18.5823 57.7069 19.2222C58.1795 21.7692 55.2855 25.4284 55.1614 25.5828C55.1317 25.6217 55.0941 25.6535 55.0539 25.6792C54.7252 25.893 46.9194 30.9157 39.3505 30.882C36.551 30.8688 35.6891 31.3558 35.3207 31.5639C35.0647 31.7081 34.8701 31.7545 34.7015 31.7225L34.7033 31.7228ZM48.9768 6.56524C48.0963 6.3978 47.1047 6.32606 45.9859 6.3859C42.6528 6.56055 38.8859 7.64854 35.6485 9.37131C32.0928 11.2635 29.5538 13.7403 28.5002 16.3494C27.1558 19.6765 28.1345 23.1375 31.4094 26.6402C33.3348 28.6995 34.1868 29.8369 34.6446 30.4488C34.7349 30.5698 34.8209 30.6844 34.8872 30.7657C35.3596 30.4995 36.343 29.9595 39.3562 29.9725C46.3068 30.0037 53.7466 25.4306 54.4962 24.9575C55.2934 23.9408 57.1343 21.1291 56.8115 19.3876C56.7181 18.8821 56.4495 18.5065 55.9933 18.238C55.7913 18.118 55.7111 17.8654 55.8111 17.6526C56.4457 16.299 56.3464 12.8346 54.5097 10.1135C53.5573 8.70291 51.8728 7.11599 48.9785 6.56558L48.9768 6.56524Z" fill="#634C37"/>
<path d="M89.4848 46.3485C89.4848 46.3485 84.6334 22.7629 62.4803 21.2649C40.2814 19.7637 28.0435 29.5476 25.5796 44.3502C23.1157 59.1528 21.5511 73.4181 38.5396 74.9409" fill="#E18E6B"/>
<path d="M35.836 75.0295C31.7834 74.2588 28.8088 72.5971 26.787 69.9892C22.2723 64.1644 23.4261 54.5016 25.1275 44.2754C26.4067 36.591 30.2951 30.3801 36.3728 26.3157C42.9235 21.9333 51.717 20.0803 62.5091 20.8105C67.644 21.1565 72.2844 22.7158 76.3 25.4396C79.5092 27.6169 82.3244 30.5371 84.67 34.119C88.6536 40.2062 89.8795 46.0118 89.9295 46.2569C89.9792 46.5037 89.8219 46.7445 89.5747 46.7939C89.3275 46.8434 89.0861 46.6862 89.0364 46.4394C89.0251 46.3816 87.7866 40.5346 83.8907 34.592C81.612 31.1174 78.88 28.2872 75.774 26.1833C71.8975 23.5583 67.4134 22.0565 62.4497 21.719C51.8646 21.0041 43.2632 22.8045 36.8828 27.0728C31.0196 30.9963 27.2663 36.9955 26.0296 44.4265C24.362 54.446 23.2204 63.8978 27.5097 69.433C29.7863 72.3713 33.407 74.026 38.5792 74.4886C38.8307 74.5141 39.0158 74.7329 38.9925 74.9825C38.971 75.2325 38.748 75.4182 38.4979 75.3948C37.5642 75.3118 36.677 75.1894 35.836 75.0295Z" fill="#634C37"/>
<path d="M68.348 134.805C67.5519 135.972 64.8066 151.278 67.0759 155.29C62.3099 157.586 59.3465 156.52 57.423 153.455C55.4995 150.389 54.2356 141.012 57.0743 134.751C59.9129 128.491 68.348 134.805 68.348 134.805Z" fill="#FFD7C7"/>
<path d="M61.289 156.888C59.5765 156.562 58.1674 155.501 57.0353 153.696C54.9194 150.323 53.8277 140.802 56.6569 134.562C57.3548 133.022 58.4342 132.056 59.8639 131.69C63.6078 130.733 68.4167 134.288 68.6201 134.44L68.9681 134.701L68.7232 135.06C68.0997 135.975 65.2688 151.173 67.4718 155.065L67.7108 155.489L67.2729 155.7C64.9675 156.812 62.98 157.21 61.2872 156.888L61.289 156.888ZM62.4721 132.562C61.658 132.407 60.8416 132.382 60.0899 132.573C58.9259 132.871 58.0744 133.645 57.4886 134.938C54.8202 140.82 55.8428 150.079 57.8074 153.212C59.725 156.27 62.4823 156.866 66.4613 155.073C64.582 150.603 66.8182 137.652 67.7808 134.964C66.9948 134.427 64.7387 132.993 62.4703 132.562L62.4721 132.562Z" fill="#634C37"/>
<path d="M57.4234 153.455C58.5123 153.669 61.0179 154.631 66.6254 153.205C67.1833 154.678 69.4225 158.908 67.1278 159.914C64.8313 160.92 58.8825 161.385 57.7892 157.53C56.6956 153.676 57.4255 153.453 57.4255 153.453L57.4234 153.455Z" fill="#6389D3"/>
<path d="M61.3835 160.906C60.8097 160.797 60.256 160.63 59.7479 160.391C58.5046 159.806 57.6969 158.884 57.349 157.656C56.5425 154.813 56.5232 153.254 57.2905 153.019C57.3615 152.998 57.4389 153.001 57.512 153.008C57.6429 153.033 57.7939 153.069 57.9662 153.111C59.1654 153.4 61.6624 153.997 66.5122 152.765C66.7386 152.708 66.9699 152.83 67.0515 153.045C67.1258 153.241 67.2321 153.493 67.357 153.784C68.1752 155.705 69.7003 159.283 67.3101 160.332C66.0391 160.89 63.5691 161.323 61.3831 160.908L61.3835 160.906ZM57.6607 153.974C57.6075 154.313 57.6046 155.217 58.2268 157.407C58.5002 158.373 59.1441 159.1 60.1367 159.567C62.2291 160.553 65.433 160.159 66.9429 159.499C68.5076 158.813 67.2126 155.774 66.5179 154.142C66.4574 154.001 66.401 153.867 66.35 153.745C61.5342 154.906 58.9913 154.296 57.7548 153.998C57.7225 153.992 57.6927 153.982 57.6622 153.977L57.6607 153.974Z" fill="#634C37"/>
<path d="M60.2171 135.412C59.421 136.579 56.6757 151.884 58.945 155.897C54.179 158.193 51.2157 157.127 49.2922 154.061C47.3687 150.995 46.1047 141.618 48.9434 135.358C51.782 129.098 60.2171 135.412 60.2171 135.412Z" fill="#FFD7C7"/>
<path d="M53.1567 157.492C51.4442 157.167 50.0351 156.105 48.903 154.301C46.7871 150.927 45.6954 141.407 48.5246 135.167C49.2225 133.627 50.3019 132.66 51.7316 132.294C55.4755 131.337 60.2844 134.893 60.4878 135.044L60.8376 135.306L60.5927 135.665C59.9692 136.579 57.1383 151.778 59.3395 155.67L59.5785 156.093L59.1406 156.305C56.8351 157.417 54.8477 157.814 53.1549 157.492L53.1567 157.492ZM54.3416 133.167C53.5275 133.012 52.711 132.987 51.9594 133.178C50.7953 133.476 49.9438 134.25 49.358 135.542C46.6896 141.425 47.7122 150.684 49.6768 153.817C51.5945 156.875 54.3517 157.471 58.3308 155.678C56.4512 151.209 58.6877 138.257 59.6503 135.569C58.8643 135.032 56.6082 133.598 54.3398 133.167L54.3416 133.167Z" fill="#634C37"/>
<path d="M49.2903 154.061C50.3792 154.275 52.8848 155.238 58.4923 153.812C59.0502 155.285 61.2895 159.514 58.9948 160.52C56.6983 161.526 50.7494 161.992 49.6562 158.136C48.5626 154.282 49.2924 154.059 49.2924 154.059L49.2903 154.061Z" fill="#6389D3"/>
<path d="M53.2505 161.512C52.6767 161.403 52.1231 161.237 51.6149 160.997C50.3716 160.412 49.5639 159.491 49.2143 158.262C48.4077 155.419 48.3884 153.86 49.1557 153.625C49.2268 153.604 49.3001 153.599 49.3772 153.614C49.5081 153.639 49.6592 153.675 49.8314 153.717C51.0324 154.006 53.5272 154.605 58.3774 153.371C58.602 153.313 58.8352 153.436 58.9168 153.651C58.991 153.847 59.0973 154.099 59.2222 154.39C60.0405 156.311 61.5656 159.889 59.1754 160.938C57.9043 161.496 55.4343 161.929 53.2484 161.514L53.2505 161.512ZM49.5278 154.581C49.4745 154.919 49.4716 155.824 50.0939 158.013C50.3672 158.98 51.0112 159.707 52.0038 160.174C54.0961 161.159 57.3 160.765 58.8099 160.105C60.3746 159.42 59.0797 156.381 58.3849 154.748C58.3244 154.607 58.268 154.474 58.217 154.351C53.3994 155.512 50.8586 154.901 49.62 154.604C49.5877 154.598 49.5579 154.588 49.5274 154.583L49.5278 154.581Z" fill="#634C37"/>
<path d="M66.0941 144.059L65.9301 145.722C63.3009 146.163 61.0114 146.252 58.763 145.813L58.9184 144.361C59.1668 144.432 65.8704 144.17 66.0941 144.059Z" fill="#F3A49F"/>
<path d="M57.9987 144.322L57.8271 146.054C54.4253 146.268 51.2126 146.093 47.7811 145.592C47.7101 144.735 47.7139 143.855 47.7785 142.958C48.1886 143.02 57.775 144.433 57.9987 144.322Z" fill="#F3A49F"/>
<path d="M79.1694 101.108C79.5946 102.409 89.413 113.281 94.178 114.566C94.545 114.424 101.836 111.65 102.276 114.769C102.728 117.968 98.9984 120.699 98.213 120.852C97.4259 121.005 102.192 120.791 98.5216 122.561C94.8762 124.319 92.3402 123.184 86.9116 121.11C85.5627 120.523 75.3569 115.86 72.2337 109.977C69.0098 103.901 79.1691 101.11 79.1691 101.11L79.1694 101.108Z" fill="#FFD7C7"/>
<path d="M41.7946 96.4574C41.2014 97.6909 30.0307 107.159 25.1382 107.795C24.7934 107.605 17.9335 103.883 17.0852 106.916C16.213 110.027 19.5483 113.232 20.3079 113.488C21.0675 113.743 16.3734 112.897 19.7761 115.141C23.1558 117.369 25.8196 116.581 31.476 115.25C35.9998 113.768 43.6239 111.587 47.4982 106.173C51.4975 100.58 41.7979 96.4599 41.7979 96.4599L41.7946 96.4574Z" fill="#FFD7C7"/>
<path d="M57.3012 85.2349C57.3012 85.2349 58.1621 89.775 54.3587 91.8167C52.4447 92.8435 51.8973 95.5952 57.0699 96.4268C62.2425 97.2585 70.4243 95.2224 68.0772 92.547C66.283 90.5016 63.2735 91.5538 64.2046 85.8468C65.1357 80.1397 57.3009 85.2367 57.3009 85.2367L57.3012 85.2349Z" fill="#FFD7C7"/>
<path d="M56.5964 96.806C53.3955 96.1973 52.6921 94.8544 52.5629 94.0881C52.3903 93.0705 53.0097 92.0219 54.1396 91.4153C57.5972 89.5601 56.8827 85.491 56.8502 85.3197L56.7954 85.0219L57.0501 84.8552C57.5423 84.5334 61.9234 81.7597 63.8617 83.0185C64.6208 83.5114 64.8864 84.4892 64.6535 85.9191C64.0529 89.6046 65.1313 90.1676 66.4989 90.8802C67.1229 91.2047 67.8292 91.5745 68.4186 92.2466C68.9848 92.894 69.0975 93.6108 68.7352 94.2651C67.9797 95.6291 65.4189 96.3345 63.961 96.634C61.6292 97.1122 59.0255 97.203 56.9973 96.8767C56.8603 96.8543 56.7255 96.8305 56.5964 96.806ZM57.7892 85.4631C57.9047 86.5754 58.0236 90.3662 54.5724 92.2171C53.8046 92.6293 53.3575 93.3194 53.4631 93.9366C53.6231 94.8831 54.9643 95.6277 57.1406 95.9767C61.1791 96.626 67.0312 95.458 67.9365 93.824C68.0551 93.611 68.1369 93.3076 67.7325 92.845C67.2546 92.2998 66.6563 91.9875 66.0762 91.6862C64.587 90.9097 63.0455 90.1048 63.7524 85.7719C63.9229 84.7288 63.7921 84.0585 63.3638 83.7805C62.3254 83.1046 59.4981 84.4009 57.7892 85.4631Z" fill="#634C37"/>
<path d="M58.4441 87.1008C59.7846 89.1285 61.749 89.517 63.823 89.6128C63.7554 89.3719 63.8169 87.6515 63.8169 87.6515C63.8169 87.6515 60.4937 87.4906 58.4441 87.1008Z" fill="#F3A49F"/>
<path d="M37.7725 67.1326C36.9905 64.816 35.113 61.2638 32.7826 63.5819C30.4539 65.9002 29.6943 73.9783 37.5201 74.2927C41.0477 72.2357 37.7707 67.1322 37.7707 67.1322L37.7725 67.1326Z" fill="#FFD7C7"/>
<path d="M35.9776 74.5779C33.0726 74.0255 31.7827 72.2985 31.2113 70.838C30.1435 68.1092 30.995 64.7162 32.4594 63.2589C33.2021 62.5193 33.9793 62.2425 34.7712 62.4264C36.6029 62.8582 37.7583 65.6834 38.1852 66.9366C38.4394 67.3484 40.0514 70.0787 39.4936 72.3963C39.2566 73.3786 38.6696 74.1497 37.7481 74.6866L37.6332 74.7537L37.5003 74.7488C36.947 74.7271 36.4399 74.6677 35.9755 74.5794L35.9776 74.5779ZM34.5156 63.3013C34.0601 63.2147 33.5989 63.4126 33.1061 63.903C31.8711 65.1313 31.1397 68.1466 32.0621 70.5065C32.8572 72.5399 34.7016 73.6862 37.4039 73.8293C38.046 73.4229 38.4402 72.884 38.6091 72.1818C39.1109 70.1001 37.4054 67.4021 37.3883 67.3748L37.3582 67.3282L37.3405 67.2748C36.7807 65.6162 35.7183 63.582 34.564 63.3105C34.5479 63.3075 34.5318 63.3044 34.5138 63.301L34.5156 63.3013Z" fill="#634C37"/>
<path d="M38.8446 75.9058C40.2501 79.702 39.6552 79.919 44.158 82.6705C50.0372 86.2642 62.5176 90.6813 78.005 85.3836C86.9481 82.3241 86.2225 76.9751 86.9042 71.6806C87.5838 66.3875 87.9557 59.8787 87.1283 54.8795C86.3005 49.882 85.5149 40.989 78.6667 39.618C71.8185 38.2471 46.5442 41.8671 40.6827 50.4807C33.3674 61.2286 36.2239 68.8168 38.8503 75.905L38.8446 75.9058Z" fill="#FFD7C7"/>
<path d="M56.0645 87.5848C49.9873 86.4291 45.7314 84.1677 43.9188 83.0589C40.1053 80.7278 39.8228 80.1715 38.9548 77.6031C38.8051 77.1593 38.6351 76.6559 38.4152 76.0633L38.3832 75.9775C35.8035 69.015 32.88 61.1247 40.2983 50.2258C43.8312 45.034 53.6551 42.1308 59.1954 40.8627C66.6998 39.1447 74.8531 38.431 78.6565 39.1543C78.6887 39.1605 78.7192 39.1663 78.7497 39.1721C85.3494 40.492 86.5634 48.3242 87.3672 53.5063C87.4386 53.9612 87.5045 54.3965 87.5733 54.8065C88.5305 60.5889 87.8468 67.8969 87.3519 71.7398C87.2685 72.3933 87.2046 73.0618 87.1433 73.7066C86.707 78.2967 86.2543 83.0414 78.1496 85.8154C69.4709 88.7843 61.919 88.7 56.0624 87.5862L56.0645 87.5848ZM39.2723 75.7479C39.4956 76.3522 39.6678 76.8634 39.82 77.3133C40.6035 79.632 40.7433 80.0499 44.3955 82.2817C47.8694 84.4055 60.5468 90.8739 77.8548 84.9526C85.4029 82.3696 85.8078 78.1202 86.2364 73.6194C86.2991 72.9674 86.3626 72.2915 86.4487 71.6236C86.9358 67.8312 87.6137 60.6222 86.6737 54.9543C86.6052 54.5426 86.5383 54.1034 86.4654 53.6463C85.7013 48.7147 84.5454 41.2608 78.5706 40.0652C78.5401 40.0594 78.5096 40.0536 78.4791 40.0478C74.3476 39.2621 65.5914 40.3322 59.4 41.7509C46.7942 44.6369 42.4934 48.6201 41.0519 50.7382C33.8968 61.2495 36.6115 68.577 39.2382 75.6635L39.2702 75.7493L39.2723 75.7479Z" fill="#634C37"/>
<path d="M56.1115 60.0592C56.1622 60.0763 56.3061 60.0814 56.3762 60.0743C57.2985 60.0123 58.182 59.6556 58.9879 59.1987C59.9433 58.6498 60.7547 57.8713 61.4089 56.9813C61.4191 56.9666 61.4424 56.9617 61.4568 56.9738C60.7276 58.5022 59.3273 59.7788 57.7661 60.5037C57.1858 60.7512 56.5544 61.0132 55.9008 60.9426C55.3483 60.858 55.4102 60.0538 55.9676 60.0541L56.1119 60.0574L56.1115 60.0592Z" fill="#634C37"/>
<path d="M78.9538 60.6202C78.9652 60.6186 78.9664 60.6319 79.0169 60.6303C79.0474 60.6361 79.1135 60.6302 79.1439 60.6267C80.838 60.3554 82.2143 59.0687 83.1627 57.6969C83.182 57.6635 83.2396 57.693 83.2196 57.73C83.005 58.1546 82.7808 58.5812 82.4983 58.9725C81.6933 60.1082 80.5823 61.1431 79.1919 61.4981C79.0579 61.519 78.9413 61.5357 78.7797 61.5161C78.2605 61.4619 78.2513 60.7184 78.7629 60.6469L78.9535 60.622L78.9538 60.6202Z" fill="#634C37"/>
<path d="M78.7636 54.7611C78.6812 54.7547 78.6024 54.7101 78.5537 54.634C77.42 52.8477 75.0999 51.6425 72.7752 51.6343C72.623 51.6332 72.5012 51.5118 72.5022 51.3599C72.5029 51.2098 72.6248 51.0865 72.7769 51.0876C75.2817 51.0966 77.7865 52.4056 79.0162 54.3418C79.098 54.4687 79.0603 54.6377 78.9315 54.7189C78.8788 54.7515 78.8206 54.7645 78.7636 54.7611Z" fill="#634C37"/>
<path d="M78.5981 36.4135L80.6103 45.1485L36.0597 49.5347L35.8251 40.9394L78.5981 36.4135Z" fill="#E18E6B"/>
<path d="M77.8623 45.1674C77.8623 45.1674 56.6893 57.7732 44.3399 56.8489C42.8807 63.5347 43.3149 85.5607 51.449 88.0738C48.1325 91.278 33.0604 86.4293 33.705 69.8398C34.0577 60.7942 34.4424 52.5281 36.7424 46.7847" fill="#E18E6B"/>
<path d="M46.5681 89.2651C45.5962 89.0803 44.5721 88.7594 43.5496 88.3035C40.6552 87.0113 38.0813 84.7861 36.3016 82.0387C34.0938 78.6314 33.0675 74.5215 33.2511 69.8239C33.5805 61.3599 33.9218 52.6089 36.321 46.6173C36.4135 46.3846 36.6805 46.2703 36.9138 46.3629C37.147 46.4555 37.2617 46.722 37.1691 46.9548C34.8293 52.8 34.4919 61.4721 34.1642 69.8585C33.6936 81.947 41.5154 86.396 43.9251 87.4718C46.7339 88.7255 49.1546 88.776 50.48 88.1769C42.7677 84.3736 42.4925 63.1827 43.8973 56.7535C43.9452 56.5308 44.1506 56.3789 44.3778 56.3961C50.6597 56.8657 59.3536 53.6902 65.5413 50.9429C72.2768 47.9531 77.5796 44.8076 77.6319 44.7768C77.8479 44.6473 78.1279 44.719 78.2578 44.9348C78.3877 45.1505 78.316 45.4298 78.1 45.5594C77.2391 46.0706 57.1019 57.9685 44.7113 57.3293C43.3115 64.5921 44.0463 85.3103 51.5873 87.6401C51.7417 87.688 51.8593 87.8124 51.8963 87.9696C51.9333 88.1269 51.8855 88.2902 51.7695 88.4017C50.7359 89.4012 48.7867 89.6852 46.5703 89.2637L46.5681 89.2651Z" fill="#634C37"/>
<path d="M77.9525 44.6931C85.0874 53.2229 85.8863 53.1059 87.3122 55.0758C90.1908 52.1907 93.0669 39.2559 81.2637 30.3984" fill="#E18E6B"/>
<path d="M87.2272 55.5232C87.1124 55.5014 87.0112 55.4376 86.9419 55.3428C86.4196 54.6204 85.9786 54.1842 85.2452 53.4587C84.0407 52.2691 82.0265 50.2764 77.6018 44.9843C77.4399 44.7903 77.4664 44.5042 77.6588 44.3424C77.853 44.1809 78.1397 44.2076 78.3019 44.3998C82.6995 49.6589 84.6952 51.6314 85.8867 52.8111C86.4919 53.4102 86.9079 53.8213 87.3345 54.353C88.5771 52.7238 89.6414 49.1988 89.3561 45.2373C89.0709 41.285 87.3883 35.565 80.9899 30.7636C80.7884 30.6121 80.748 30.3263 80.8995 30.1252C81.0511 29.924 81.3375 29.8839 81.5391 30.0354C88.2122 35.043 89.9701 41.0314 90.2676 45.1733C90.6029 49.8193 89.1969 53.8319 87.6355 55.3987C87.5412 55.4939 87.4096 55.5412 87.2759 55.5306C87.2598 55.5275 87.2433 55.5262 87.2272 55.5232Z" fill="#634C37"/>
<path d="M52.7914 54.8993C52.7419 54.8955 52.6916 54.8766 52.6476 54.8442C52.5275 54.7527 52.5044 54.5814 52.5941 54.4612C54.465 52.0002 57.9812 50.5307 61.3463 50.8035C61.4964 50.8153 61.6086 50.9479 61.5969 51.0978C61.5851 51.2476 61.4523 51.3596 61.3022 51.3477C58.1166 51.0887 54.7914 52.4721 53.0294 54.7907C52.97 54.8684 52.8795 54.9049 52.7899 54.8972L52.7914 54.8993Z" fill="#634C37"/>
<path d="M61.1459 72.1005C59.0187 76.193 53.9199 77.2595 50.3477 75.4082C46.7756 73.5568 45.6052 68.739 47.7324 64.6466C49.8597 60.5541 54.3808 58.9494 57.9511 60.8004C61.5233 62.6517 63.2714 68.0078 61.1445 72.0984L61.1459 72.1005Z" fill="white"/>
<path d="M52.3906 76.4883C51.6124 76.3403 50.8635 76.0867 50.1803 75.7323C48.3589 74.787 47.0686 73.0914 46.5496 70.9547C46.0344 68.8373 46.34 66.5366 47.4091 64.4812C49.6034 60.2606 54.3077 58.5034 58.1199 60.4801C62.0267 62.5063 63.6245 68.125 61.4706 72.2698C59.6216 75.8273 55.7242 77.1223 52.3924 76.4887L52.3906 76.4883ZM56.0178 60.5124C52.9819 59.9351 49.73 61.5976 48.0571 64.8158C47.0695 66.7161 46.7854 68.8355 47.2585 70.7836C47.7278 72.7124 48.8847 74.2398 50.5168 75.0861C53.8134 76.7941 58.7406 75.9361 60.8229 71.9334C62.7657 68.1953 61.2896 62.9429 57.7854 61.1249C57.2155 60.8292 56.6204 60.627 56.0196 60.5128L56.0178 60.5124Z" fill="#634C37"/>
<path d="M51.9283 74.7963C55.4114 75.4587 58.7709 73.1776 59.432 69.7013C60.0931 66.2251 57.8054 62.87 54.3223 62.2076C50.8392 61.5452 47.4797 63.8263 46.8186 67.3026C46.1575 70.7789 48.4452 74.1339 51.9283 74.7963Z" fill="#634C37"/>
<path d="M51.915 74.8865C51.7141 74.8483 51.515 74.8012 51.3143 74.7426C47.8662 73.7438 45.8718 70.1323 46.8699 66.6911C47.3543 65.0234 48.458 63.6459 49.9811 62.8081C51.504 61.972 53.2636 61.7763 54.9329 62.2607C56.6041 62.7454 57.9849 63.848 58.8253 65.369C59.664 66.8896 59.8613 68.6462 59.3773 70.3121C58.4373 73.5548 55.1714 75.5058 51.915 74.8865ZM54.2929 62.2947C52.8511 62.0205 51.3725 62.253 50.0697 62.9677C48.5903 63.7805 47.516 65.1209 47.0462 66.7413C46.0757 70.0857 48.0147 73.5977 51.3663 74.567C54.7171 75.5399 58.2345 73.6052 59.2031 70.2605C59.673 68.6401 59.4829 66.9331 58.6658 65.4555C57.8505 63.9782 56.5068 62.9049 54.8831 62.4348C54.6878 62.3772 54.4904 62.3304 54.2932 62.2929L54.2929 62.2947Z" fill="#634C37"/>
<path d="M50.2446 68.7701C51.5231 69.0132 52.7563 68.1759 52.999 66.8998C53.2417 65.6238 52.4019 64.3922 51.1234 64.1491C49.8448 63.9059 48.6116 64.7433 48.369 66.0193C48.1263 67.2954 48.966 68.5269 50.2446 68.7701Z" fill="white"/>
<path d="M50.2298 68.8581C50.1545 68.8438 50.0798 68.8259 50.0041 68.8041C49.3755 68.6215 48.8559 68.2074 48.541 67.6357C48.2261 67.064 48.1527 66.4047 48.3333 65.777C48.7094 64.4837 50.0684 63.737 51.3647 64.1115C51.9933 64.2941 52.5129 64.7082 52.8278 65.2799C53.1427 65.8516 53.2161 66.5109 53.0354 67.1385C52.683 68.3566 51.4545 69.091 50.2298 68.8581ZM51.105 64.2364C49.9717 64.0209 48.8354 64.7005 48.5096 65.8272C48.3417 66.4073 48.4096 67.0173 48.7009 67.5474C48.9921 68.0775 49.473 68.4601 50.0542 68.6282C51.2554 68.9753 52.513 68.2835 52.8595 67.0866C53.0274 66.5065 52.9595 65.8965 52.6683 65.3664C52.3767 64.838 51.8961 64.4536 51.3149 64.2856C51.2463 64.2652 51.1753 64.2479 51.1053 64.2346L51.105 64.2364Z" fill="#634C37"/>
<path d="M84.4594 68.5527C84.1819 72.6594 80.8013 75.7902 77.2189 75.5466C73.6364 75.3029 70.9552 71.7759 71.2327 67.6692C71.5101 63.5625 74.6384 60.43 78.2226 60.674C81.8051 60.9176 84.7369 64.446 84.4612 68.553L84.4594 68.5527Z" fill="white"/>
<path d="M76.458 75.8154C74.9104 75.5211 73.5196 74.6372 72.4853 73.276C71.3008 71.7174 70.7259 69.7184 70.8659 67.6439C71.0058 65.5695 71.8437 63.6649 73.2269 62.283C74.6221 60.8868 76.4054 60.1856 78.2452 60.3111C80.0706 60.4339 81.8302 61.3916 83.0729 62.9371C84.3409 64.5153 84.9635 66.5178 84.8244 68.5776C84.6851 70.6392 83.8003 72.546 82.3321 73.945C80.8912 75.3178 79.0196 76.0337 77.1942 75.9109C76.9467 75.8935 76.7015 75.8636 76.4594 75.8175L76.458 75.8154ZM78.8363 61.1208C78.6247 61.0805 78.4107 61.0528 78.1961 61.038C76.5709 60.9273 74.9899 61.552 73.7439 62.7986C72.4862 64.0578 71.7226 65.7967 71.5938 67.6952C71.465 69.5938 71.9891 71.4199 73.0666 72.8376C74.1321 74.2401 75.6144 75.0727 77.2414 75.1837C78.8613 75.2933 80.5331 74.6507 81.8247 73.4183C83.1613 72.1445 83.9672 70.4081 84.0941 68.5296C84.2206 66.6528 83.6553 64.8281 82.5028 63.3943C81.5366 62.1925 80.2257 61.3869 78.8377 61.1229L78.8363 61.1208Z" fill="#634C37"/>
<path d="M75.4085 73.7132C78.34 74.2707 81.1674 72.3508 81.7238 69.4251C82.2802 66.4994 80.3548 63.6757 77.4234 63.1182C74.4919 62.5607 71.6644 64.4805 71.108 67.4063C70.5516 70.332 72.477 73.1557 75.4085 73.7132Z" fill="#634C37"/>
<path d="M75.3806 73.8006C74.2096 73.5779 73.1485 72.983 72.3349 72.0828C71.3527 70.9947 70.8545 69.5889 70.9299 68.1272C71.0878 65.1085 73.6763 62.782 76.7009 62.94C78.1654 63.0164 79.5148 63.6587 80.4967 64.7486C81.479 65.8366 81.9772 67.2424 81.9017 68.7042C81.8262 70.166 81.1837 71.5125 80.0926 72.4918C79.0032 73.4715 77.5952 73.9677 76.1307 73.8914C75.8768 73.8783 75.6263 73.8473 75.3806 73.8006ZM77.417 63.2097C77.1785 63.1643 76.9369 63.1351 76.6923 63.122C73.7673 62.9681 71.2657 65.2184 71.114 68.1362C71.0402 69.5501 71.5233 70.9085 72.4733 71.9608C73.4233 73.013 74.7249 73.6333 76.1432 73.7083C77.5597 73.783 78.9203 73.3018 79.9738 72.3542C81.0273 71.4067 81.6481 70.1061 81.7219 68.6923C81.7957 67.2784 81.3126 65.9199 80.3626 64.8677C79.5787 63.9972 78.5507 63.4234 77.4191 63.2083L77.417 63.2097Z" fill="#634C37"/>
<path d="M74.0728 68.3373C75.1562 68.5433 76.2013 67.8338 76.4069 66.7524C76.6125 65.6711 75.9009 64.6275 74.8175 64.4214C73.734 64.2154 72.689 64.925 72.4834 66.0063C72.2777 67.0876 72.9893 68.1312 74.0728 68.3373Z" fill="white"/>
<path d="M74.0502 68.4275C73.6055 68.343 73.2005 68.1176 72.8922 67.7752C72.5194 67.3613 72.3291 66.8281 72.3587 66.2718C72.419 65.1243 73.4029 64.2396 74.5526 64.3006C75.7023 64.3616 76.5893 65.3444 76.529 66.4919C76.4994 67.0482 76.2557 67.5581 75.8409 67.9317C75.4264 68.3036 74.8924 68.4931 74.3351 68.4632C74.2395 68.458 74.1431 68.4471 74.0498 68.4293L74.0502 68.4275ZM74.8002 64.5127C74.716 64.4967 74.6307 64.486 74.5422 64.4822C73.4935 64.4274 72.5951 65.2338 72.541 66.2805C72.5152 66.7875 72.6882 67.2747 73.0288 67.6529C73.3693 68.031 73.8362 68.2533 74.3458 68.2798C74.8537 68.3059 75.3417 68.1335 75.7203 67.7938C76.0989 67.4542 76.3213 66.9883 76.3474 66.4796C76.3981 65.5194 75.7223 64.6862 74.8006 64.5109L74.8002 64.5127Z" fill="#634C37"/>
<path d="M67.1209 91.4398C67.1209 91.4398 61.7405 97.0258 53.8624 91.0362C44.5979 92.5807 32.1348 101.194 32.1348 101.194C32.1348 101.194 34.6111 109.14 42.2628 113.155C40.4846 117.024 32.3758 137.464 32.3758 137.464C32.3758 137.464 61.8321 152.294 82.035 137.364C79.5372 126.072 76.4264 114.828 76.4264 114.828C76.4264 114.828 83.0117 113.058 86.8437 105.991C77.475 94.5123 67.1209 91.4398 67.1209 91.4398Z" fill="white"/>
<path d="M49.2973 143.414C39.5799 141.566 32.2449 137.909 32.1722 137.871C31.9621 137.764 31.8662 137.516 31.9525 137.297C32.0311 137.099 39.6071 118.003 41.673 113.354C34.238 109.246 31.8017 101.656 31.7001 101.33C31.6413 101.141 31.7123 100.934 31.8751 100.82C32.3864 100.467 44.5273 92.1315 53.786 90.5877C53.9107 90.5669 54.0385 90.5986 54.1373 90.6749C61.5801 96.3351 66.5808 91.339 66.7906 91.1248C66.9086 91.0026 67.0864 90.9567 67.2483 91.0042C67.3557 91.0357 69.9336 91.8134 73.6986 94.0185C77.1608 96.0473 82.3148 99.722 87.1956 105.703C87.3133 105.846 87.3311 106.046 87.2428 106.208C83.889 112.392 78.5473 114.599 76.9799 115.132C77.5689 117.291 80.2776 127.318 82.4789 137.266C82.5179 137.443 82.4499 137.624 82.3052 137.73C77.6334 141.183 72.0827 143.336 65.8093 144.13C60.8057 144.764 55.334 144.538 49.5447 143.461C49.4622 143.445 49.378 143.429 49.2955 143.414L49.2973 143.414ZM32.9574 137.239C34.5604 137.995 41.1219 140.932 49.4674 142.519C49.5571 142.536 49.6468 142.553 49.7364 142.57C55.4289 143.629 60.8017 143.848 65.7083 143.225C71.7137 142.462 77.0338 140.427 81.5251 137.172C79.0694 126.118 76.0163 115.06 75.9855 114.949C75.9539 114.831 75.9684 114.706 76.0293 114.601C76.0902 114.496 76.1886 114.418 76.306 114.386C76.3689 114.369 82.5861 112.619 86.2921 106.038C77.9628 95.9532 68.8346 92.5019 67.233 91.9544C66.7518 92.384 65.4755 93.3893 63.5649 93.9198C61.3676 94.5311 57.8906 94.6024 53.7432 91.5161C45.4756 92.9776 34.5761 100.101 32.6806 101.372C33.2356 102.871 35.9405 109.321 42.4739 112.748C42.6884 112.861 42.7783 113.121 42.677 113.341C41.0603 116.859 34.093 134.375 32.9563 137.236L32.9574 137.239Z" fill="#634C37"/>
<path d="M45.0748 108.226C45.0748 108.226 44.9382 107.156 44.0974 107.269C42.242 107.519 43.9352 110.105 43.9352 110.105C44.2191 109.668 44.7168 109.024 45.0748 108.226Z" fill="#DDD7D7"/>
<path d="M74.7385 110.064C74.7385 110.064 74.9971 109.017 75.8193 109.228C77.6337 109.691 75.6553 112.063 75.6553 112.063C75.4245 111.597 75.0034 110.899 74.7403 110.065L74.7385 110.064Z" fill="#DDD7D7"/>
<path d="M42.3725 113.174C42.3725 113.174 43.8235 110.253 45.0254 108.486L42.3725 113.174Z" fill="white"/>
<path d="M42.3043 113.532C42.272 113.526 42.2405 113.516 42.2099 113.501C42.03 113.411 41.9545 113.193 42.0443 113.013C42.1044 112.893 43.5204 110.049 44.7219 108.284C44.8352 108.118 45.0628 108.074 45.229 108.187C45.3951 108.3 45.4392 108.527 45.3259 108.693C44.1523 110.419 42.7127 113.309 42.698 113.338C42.6232 113.487 42.46 113.563 42.3022 113.533L42.3043 113.532Z" fill="#634C37"/>
<path d="M76.4218 115.135C76.4218 115.135 75.6468 111.609 74.9431 110.493L76.4218 115.135Z" fill="white"/>
<path d="M76.3538 115.493C76.2139 115.467 76.0969 115.359 76.065 115.214C76.0568 115.179 75.2955 111.737 74.6348 110.688C74.5279 110.517 74.5783 110.291 74.749 110.185C74.9198 110.078 75.1441 110.13 75.2531 110.299C75.9808 111.456 76.7469 114.912 76.7787 115.057C76.8211 115.254 76.697 115.447 76.5013 115.49C76.4509 115.501 76.4026 115.501 76.3559 115.492L76.3538 115.493Z" fill="#634C37"/>
<path d="M68.953 77.0678C69.4947 77.1708 70.0173 76.816 70.1201 76.2754C70.2229 75.7347 69.8671 75.2129 69.3254 75.1099C68.7836 75.0069 68.2611 75.3616 68.1583 75.9023C68.0555 76.443 68.4113 76.9648 68.953 77.0678Z" fill="#F3A49F"/>
<path d="M70.064 76.3259C70.0031 76.3143 69.9482 76.2705 69.9265 76.2089L69.7774 75.7911C69.7435 75.6957 69.793 75.5919 69.8868 75.5579C69.9824 75.5241 70.0863 75.5735 70.1205 75.6672L70.2696 76.085C70.3035 76.1804 70.2541 76.2842 70.1602 76.3182C70.1285 76.3289 70.0963 76.3321 70.064 76.3259Z" fill="#634C37"/>
<path d="M68.348 134.805C67.5519 135.972 64.8066 151.278 67.0759 155.29C62.3099 157.586 59.3465 156.52 57.423 153.455C55.4995 150.389 54.2356 141.012 57.0743 134.751C59.9129 128.491 68.348 134.805 68.348 134.805Z" fill="#FFD7C7"/>
<path d="M61.289 156.888C59.5765 156.562 58.1674 155.501 57.0353 153.696C54.9194 150.323 53.8277 140.802 56.6569 134.562C57.3548 133.022 58.4342 132.056 59.8639 131.69C63.6078 130.733 68.4167 134.288 68.6201 134.44L68.9681 134.701L68.7232 135.06C68.0997 135.975 65.2688 151.173 67.4718 155.065L67.7108 155.489L67.2729 155.7C64.9675 156.812 62.98 157.21 61.2872 156.888L61.289 156.888ZM62.4721 132.562C61.658 132.407 60.8416 132.382 60.0899 132.573C58.9259 132.871 58.0744 133.645 57.4886 134.938C54.8202 140.82 55.8428 150.079 57.8074 153.212C59.725 156.27 62.4823 156.866 66.4613 155.073C64.582 150.603 66.8182 137.652 67.7808 134.964C66.9948 134.427 64.7387 132.993 62.4703 132.562L62.4721 132.562Z" fill="#634C37"/>
<path d="M57.4234 153.455C58.5123 153.669 61.0179 154.631 66.6254 153.205C67.1833 154.678 69.4225 158.908 67.1278 159.914C64.8313 160.92 58.8825 161.385 57.7892 157.53C56.6956 153.676 57.4255 153.453 57.4255 153.453L57.4234 153.455Z" fill="#6389D3"/>
<path d="M61.3835 160.906C60.8097 160.797 60.256 160.63 59.7479 160.391C58.5046 159.806 57.6969 158.884 57.349 157.656C56.5425 154.813 56.5232 153.254 57.2905 153.019C57.3615 152.998 57.4389 153.001 57.512 153.008C57.6429 153.033 57.7939 153.069 57.9662 153.111C59.1654 153.4 61.6624 153.997 66.5122 152.765C66.7386 152.708 66.9699 152.83 67.0515 153.045C67.1258 153.241 67.2321 153.493 67.357 153.784C68.1752 155.705 69.7003 159.283 67.3101 160.332C66.0391 160.89 63.5691 161.323 61.3831 160.908L61.3835 160.906ZM57.6607 153.974C57.6075 154.313 57.6046 155.217 58.2268 157.407C58.5002 158.373 59.1441 159.1 60.1367 159.567C62.2291 160.553 65.433 160.159 66.9429 159.499C68.5076 158.813 67.2126 155.774 66.5179 154.142C66.4574 154.001 66.401 153.867 66.35 153.745C61.5342 154.906 58.9913 154.296 57.7548 153.998C57.7225 153.992 57.6927 153.982 57.6622 153.977L57.6607 153.974Z" fill="#634C37"/>
<path d="M60.2171 135.412C59.421 136.579 56.6757 151.884 58.945 155.897C54.179 158.193 51.2157 157.127 49.2922 154.061C47.3687 150.995 46.1047 141.618 48.9434 135.358C51.782 129.098 60.2171 135.412 60.2171 135.412Z" fill="#FFD7C7"/>
<path d="M53.1567 157.492C51.4442 157.167 50.0351 156.105 48.903 154.301C46.7871 150.927 45.6954 141.407 48.5246 135.167C49.2225 133.627 50.3019 132.66 51.7316 132.294C55.4755 131.337 60.2844 134.893 60.4878 135.044L60.8376 135.306L60.5927 135.665C59.9692 136.579 57.1383 151.778 59.3395 155.67L59.5785 156.093L59.1406 156.305C56.8351 157.417 54.8477 157.814 53.1549 157.492L53.1567 157.492ZM54.3416 133.167C53.5275 133.012 52.711 132.987 51.9594 133.178C50.7953 133.476 49.9438 134.25 49.358 135.542C46.6896 141.425 47.7122 150.684 49.6768 153.817C51.5945 156.875 54.3517 157.471 58.3308 155.678C56.4512 151.209 58.6877 138.257 59.6503 135.569C58.8643 135.032 56.6082 133.598 54.3398 133.167L54.3416 133.167Z" fill="#634C37"/>
<path d="M49.2903 154.061C50.3792 154.275 52.8848 155.238 58.4923 153.812C59.0502 155.285 61.2895 159.514 58.9948 160.52C56.6983 161.526 50.7494 161.992 49.6562 158.136C48.5626 154.282 49.2924 154.059 49.2924 154.059L49.2903 154.061Z" fill="#6389D3"/>
<path d="M53.2505 161.512C52.6767 161.403 52.1231 161.237 51.6149 160.997C50.3716 160.412 49.5639 159.491 49.2143 158.262C48.4077 155.419 48.3884 153.86 49.1557 153.625C49.2268 153.604 49.3001 153.599 49.3772 153.614C49.5081 153.639 49.6592 153.675 49.8314 153.717C51.0324 154.006 53.5272 154.605 58.3774 153.371C58.602 153.313 58.8352 153.436 58.9168 153.651C58.991 153.847 59.0973 154.099 59.2222 154.39C60.0405 156.311 61.5656 159.889 59.1754 160.938C57.9043 161.496 55.4343 161.929 53.2484 161.514L53.2505 161.512ZM49.5278 154.581C49.4745 154.919 49.4716 155.824 50.0939 158.013C50.3672 158.98 51.0112 159.707 52.0038 160.174C54.0961 161.159 57.3 160.765 58.8099 160.105C60.3746 159.42 59.0797 156.381 58.3849 154.748C58.3244 154.607 58.268 154.474 58.217 154.351C53.3994 155.512 50.8586 154.901 49.62 154.604C49.5877 154.598 49.5579 154.588 49.5274 154.583L49.5278 154.581Z" fill="#634C37"/>
<path d="M66.0941 144.059L65.9301 145.722C63.3009 146.163 61.0114 146.252 58.763 145.813L58.9184 144.361C59.1668 144.432 65.8704 144.17 66.0941 144.059Z" fill="#F3A49F"/>
<path d="M57.9987 144.322L57.8271 146.054C54.4253 146.268 51.2126 146.093 47.7811 145.592C47.7101 144.735 47.7139 143.855 47.7785 142.958C48.1886 143.02 57.775 144.433 57.9987 144.322Z" fill="#F3A49F"/>
<path d="M79.1694 101.108C79.5946 102.409 89.413 113.281 94.178 114.566C94.545 114.424 101.836 111.65 102.276 114.769C102.728 117.968 98.9984 120.699 98.213 120.852C97.4259 121.005 102.192 120.791 98.5216 122.561C94.8762 124.319 92.3402 123.184 86.9116 121.11C85.5627 120.523 75.3569 115.86 72.2337 109.977C69.0098 103.901 79.1691 101.11 79.1691 101.11L79.1694 101.108Z" fill="#FFD7C7"/>
<path d="M41.7946 96.4574C41.2014 97.6909 30.0307 107.159 25.1382 107.795C24.7934 107.605 17.9335 103.883 17.0852 106.916C16.213 110.027 19.5483 113.232 20.3079 113.488C21.0675 113.743 16.3734 112.897 19.7761 115.141C23.1558 117.369 25.8196 116.581 31.476 115.25C35.9998 113.768 43.6239 111.587 47.4982 106.173C51.4975 100.58 41.7979 96.4599 41.7979 96.4599L41.7946 96.4574Z" fill="#FFD7C7"/>
<path d="M57.3012 85.2349C57.3012 85.2349 58.1621 89.775 54.3587 91.8167C52.4447 92.8435 51.8973 95.5952 57.0699 96.4268C62.2425 97.2585 70.4243 95.2224 68.0772 92.547C66.283 90.5016 63.2735 91.5538 64.2046 85.8468C65.1357 80.1397 57.3009 85.2367 57.3009 85.2367L57.3012 85.2349Z" fill="#FFD7C7"/>
<path d="M56.5964 96.806C53.3955 96.1973 52.6921 94.8544 52.5629 94.0881C52.3903 93.0705 53.0097 92.0219 54.1396 91.4153C57.5972 89.5601 56.8827 85.491 56.8502 85.3197L56.7954 85.0219L57.0501 84.8552C57.5423 84.5334 61.9234 81.7597 63.8617 83.0185C64.6208 83.5114 64.8864 84.4892 64.6535 85.9191C64.0529 89.6046 65.1313 90.1676 66.4989 90.8802C67.1229 91.2047 67.8292 91.5745 68.4186 92.2466C68.9848 92.894 69.0975 93.6108 68.7352 94.2651C67.9797 95.6291 65.4189 96.3345 63.961 96.634C61.6292 97.1122 59.0255 97.203 56.9973 96.8767C56.8603 96.8543 56.7255 96.8305 56.5964 96.806ZM57.7892 85.4631C57.9047 86.5754 58.0236 90.3662 54.5724 92.2171C53.8046 92.6293 53.3575 93.3194 53.4631 93.9366C53.6231 94.8831 54.9643 95.6277 57.1406 95.9767C61.1791 96.626 67.0312 95.458 67.9365 93.824C68.0551 93.611 68.1369 93.3076 67.7325 92.845C67.2546 92.2998 66.6563 91.9875 66.0762 91.6862C64.587 90.9097 63.0455 90.1048 63.7524 85.7719C63.9229 84.7288 63.7921 84.0585 63.3638 83.7805C62.3254 83.1046 59.4981 84.4009 57.7892 85.4631Z" fill="#634C37"/>
<path d="M58.4441 87.1008C59.7846 89.1285 61.749 89.517 63.823 89.6128C63.7554 89.3719 63.8169 87.6515 63.8169 87.6515C63.8169 87.6515 60.4937 87.4906 58.4441 87.1008Z" fill="#F3A49F"/>
<path d="M37.7725 67.1326C36.9905 64.816 35.113 61.2638 32.7826 63.5819C30.4539 65.9002 29.6943 73.9783 37.5201 74.2927C41.0477 72.2357 37.7707 67.1322 37.7707 67.1322L37.7725 67.1326Z" fill="#FFD7C7"/>
<path d="M35.9776 74.5779C33.0726 74.0255 31.7827 72.2985 31.2113 70.838C30.1435 68.1092 30.995 64.7162 32.4594 63.2589C33.2021 62.5193 33.9793 62.2425 34.7712 62.4264C36.6029 62.8582 37.7583 65.6834 38.1852 66.9366C38.4394 67.3484 40.0514 70.0787 39.4936 72.3963C39.2566 73.3786 38.6696 74.1497 37.7481 74.6866L37.6332 74.7537L37.5003 74.7488C36.947 74.7271 36.4399 74.6677 35.9755 74.5794L35.9776 74.5779ZM34.5156 63.3013C34.0601 63.2147 33.5989 63.4126 33.1061 63.903C31.8711 65.1313 31.1397 68.1466 32.0621 70.5065C32.8572 72.5399 34.7016 73.6862 37.4039 73.8293C38.046 73.4229 38.4402 72.884 38.6091 72.1818C39.1109 70.1001 37.4054 67.4021 37.3883 67.3748L37.3582 67.3282L37.3405 67.2748C36.7807 65.6162 35.7183 63.582 34.564 63.3105C34.5479 63.3075 34.5318 63.3044 34.5138 63.301L34.5156 63.3013Z" fill="#634C37"/>
<path d="M38.8446 75.9058C40.2501 79.702 39.6552 79.919 44.158 82.6705C50.0372 86.2642 62.5176 90.6813 78.005 85.3836C86.9481 82.3241 86.2225 76.9751 86.9042 71.6806C87.5838 66.3875 87.9557 59.8787 87.1283 54.8795C86.3005 49.882 85.5149 40.989 78.6667 39.618C71.8185 38.2471 46.5442 41.8671 40.6827 50.4807C33.3674 61.2286 36.2239 68.8168 38.8503 75.905L38.8446 75.9058Z" fill="#FFD7C7"/>
<path d="M56.0645 87.5848C49.9873 86.4291 45.7314 84.1677 43.9188 83.0589C40.1053 80.7278 39.8228 80.1715 38.9548 77.6031C38.8051 77.1593 38.6351 76.6559 38.4152 76.0633L38.3832 75.9775C35.8035 69.015 32.88 61.1247 40.2983 50.2258C43.8312 45.034 53.6551 42.1308 59.1954 40.8627C66.6998 39.1447 74.8531 38.431 78.6565 39.1543C78.6887 39.1605 78.7192 39.1663 78.7497 39.1721C85.3494 40.492 86.5634 48.3242 87.3672 53.5063C87.4386 53.9612 87.5045 54.3965 87.5733 54.8065C88.5305 60.5889 87.8468 67.8969 87.3519 71.7398C87.2685 72.3933 87.2046 73.0618 87.1433 73.7066C86.707 78.2967 86.2543 83.0414 78.1496 85.8154C69.4709 88.7843 61.919 88.7 56.0624 87.5862L56.0645 87.5848ZM39.2723 75.7479C39.4956 76.3522 39.6678 76.8634 39.82 77.3133C40.6035 79.632 40.7433 80.0499 44.3955 82.2817C47.8694 84.4055 60.5468 90.8739 77.8548 84.9526C85.4029 82.3696 85.8078 78.1202 86.2364 73.6194C86.2991 72.9674 86.3626 72.2915 86.4487 71.6236C86.9358 67.8312 87.6137 60.6222 86.6737 54.9543C86.6052 54.5426 86.5383 54.1034 86.4654 53.6463C85.7013 48.7147 84.5454 41.2608 78.5706 40.0652C78.5401 40.0594 78.5096 40.0536 78.4791 40.0478C74.3476 39.2621 65.5914 40.3322 59.4 41.7509C46.7942 44.6369 42.4934 48.6201 41.0519 50.7382C33.8968 61.2495 36.6115 68.577 39.2382 75.6635L39.2702 75.7493L39.2723 75.7479Z" fill="#634C37"/>
<path d="M56.1115 60.0592C56.1622 60.0763 56.3061 60.0814 56.3762 60.0743C57.2985 60.0123 58.182 59.6556 58.9879 59.1987C59.9433 58.6498 60.7547 57.8713 61.4089 56.9813C61.4191 56.9666 61.4424 56.9617 61.4568 56.9738C60.7276 58.5022 59.3273 59.7788 57.7661 60.5037C57.1858 60.7512 56.5544 61.0132 55.9008 60.9426C55.3483 60.858 55.4102 60.0538 55.9676 60.0541L56.1119 60.0574L56.1115 60.0592Z" fill="#634C37"/>
<path d="M53.7319 60.0462C53.7825 60.0632 53.9265 60.0684 53.9966 60.0613C54.9188 59.9993 55.8024 59.6425 56.6083 59.1857C57.5637 58.6367 58.3751 57.8583 59.0293 56.9683C59.0395 56.9536 59.0627 56.9487 59.0772 56.9607C58.348 58.4892 56.9476 59.7658 55.3865 60.4907C54.8062 60.7382 54.1748 61.0001 53.5211 60.9296C52.9687 60.8449 53.0306 60.0408 53.5879 60.0411L53.7322 60.0444L53.7319 60.0462Z" fill="#634C37"/>
<path d="M78.9538 60.6202C78.9652 60.6186 78.9664 60.6319 79.0169 60.6303C79.0474 60.6361 79.1135 60.6302 79.1439 60.6267C80.838 60.3554 82.2143 59.0687 83.1627 57.6969C83.182 57.6635 83.2396 57.693 83.2196 57.73C83.005 58.1546 82.7808 58.5812 82.4983 58.9725C81.6933 60.1082 80.5823 61.1431 79.1919 61.4981C79.0579 61.519 78.9413 61.5357 78.7797 61.5161C78.2605 61.4619 78.2513 60.7184 78.7629 60.6469L78.9535 60.622L78.9538 60.6202Z" fill="#634C37"/>
<path d="M79.8569 61.6746C79.8683 61.6731 79.8695 61.6863 79.92 61.6848C79.9505 61.6906 80.0166 61.6846 80.047 61.6811C81.7411 61.4099 83.1174 60.1232 84.0657 58.7514C84.0851 58.718 84.1427 58.7474 84.1226 58.7844C83.9081 59.2091 83.6839 59.6356 83.4014 60.027C82.5964 61.1627 81.4854 62.1976 80.095 62.5526C79.9609 62.5734 79.8444 62.5902 79.6828 62.5706C79.1635 62.5164 79.1544 61.7728 79.666 61.7014L79.8565 61.6764L79.8569 61.6746Z" fill="#634C37"/>
<path d="M78.7636 54.7611C78.6812 54.7547 78.6024 54.7101 78.5537 54.634C77.42 52.8477 75.0999 51.6425 72.7752 51.6343C72.623 51.6332 72.5012 51.5118 72.5022 51.3599C72.5029 51.2098 72.6248 51.0865 72.7769 51.0876C75.2817 51.0966 77.7865 52.4056 79.0162 54.3418C79.098 54.4687 79.0603 54.6377 78.9315 54.7189C78.8788 54.7515 78.8206 54.7645 78.7636 54.7611Z" fill="#634C37"/>
<path d="M78.5981 36.4135L80.6103 45.1485L36.0597 49.5347L35.8251 40.9394L78.5981 36.4135Z" fill="#E18E6B"/>
<path d="M77.8623 45.1674C77.8623 45.1674 56.6893 57.7732 44.3399 56.8489C42.8807 63.5347 43.3149 85.5607 51.449 88.0738C48.1325 91.278 33.0604 86.4293 33.705 69.8398C34.0577 60.7942 34.4424 52.5281 36.7424 46.7847" fill="#E18E6B"/>
<path d="M46.5681 89.2651C45.5962 89.0803 44.5721 88.7594 43.5496 88.3035C40.6552 87.0113 38.0813 84.7861 36.3016 82.0387C34.0938 78.6314 33.0675 74.5215 33.2511 69.8239C33.5805 61.3599 33.9218 52.6089 36.321 46.6173C36.4135 46.3846 36.6805 46.2703 36.9138 46.3629C37.147 46.4555 37.2617 46.722 37.1691 46.9548C34.8293 52.8 34.4919 61.4721 34.1642 69.8585C33.6936 81.947 41.5154 86.396 43.9251 87.4718C46.7339 88.7255 49.1546 88.776 50.48 88.1769C42.7677 84.3736 42.4925 63.1827 43.8973 56.7535C43.9452 56.5308 44.1506 56.3789 44.3778 56.3961C50.6597 56.8657 59.3536 53.6902 65.5413 50.9429C72.2768 47.9531 77.5796 44.8076 77.6319 44.7768C77.8479 44.6473 78.1279 44.719 78.2578 44.9348C78.3877 45.1505 78.316 45.4298 78.1 45.5594C77.2391 46.0706 57.1019 57.9685 44.7113 57.3293C43.3115 64.5921 44.0463 85.3103 51.5873 87.6401C51.7417 87.688 51.8593 87.8124 51.8963 87.9696C51.9333 88.1269 51.8855 88.2902 51.7695 88.4017C50.7359 89.4012 48.7867 89.6852 46.5703 89.2637L46.5681 89.2651Z" fill="#634C37"/>
<path d="M77.9525 44.6931C85.0874 53.2229 85.8863 53.1059 87.3122 55.0758C90.1908 52.1907 93.0669 39.2559 81.2637 30.3984" fill="#E18E6B"/>
<path d="M87.2272 55.5232C87.1124 55.5014 87.0112 55.4376 86.9419 55.3428C86.4196 54.6204 85.9786 54.1842 85.2452 53.4587C84.0407 52.2691 82.0265 50.2764 77.6018 44.9843C77.4399 44.7903 77.4664 44.5042 77.6588 44.3424C77.853 44.1809 78.1397 44.2076 78.3019 44.3998C82.6995 49.6589 84.6952 51.6314 85.8867 52.8111C86.4919 53.4102 86.9079 53.8213 87.3345 54.353C88.5771 52.7238 89.6414 49.1988 89.3561 45.2373C89.0709 41.285 87.3883 35.565 80.9899 30.7636C80.7884 30.6121 80.748 30.3263 80.8995 30.1252C81.0511 29.924 81.3375 29.8839 81.5391 30.0354C88.2122 35.043 89.9701 41.0314 90.2676 45.1733C90.6029 49.8193 89.1969 53.8319 87.6355 55.3987C87.5412 55.4939 87.4096 55.5412 87.2759 55.5306C87.2598 55.5275 87.2433 55.5262 87.2272 55.5232Z" fill="#634C37"/>
<path d="M52.7914 54.8993C52.7419 54.8955 52.6916 54.8766 52.6476 54.8442C52.5275 54.7527 52.5044 54.5814 52.5941 54.4612C54.465 52.0002 57.9812 50.5307 61.3463 50.8035C61.4964 50.8153 61.6086 50.9479 61.5969 51.0978C61.5851 51.2476 61.4523 51.3596 61.3022 51.3477C58.1166 51.0887 54.7914 52.4721 53.0294 54.7907C52.97 54.8684 52.8795 54.9049 52.7899 54.8972L52.7914 54.8993Z" fill="#634C37"/>
<path d="M61.1459 72.1005C59.0187 76.193 53.9199 77.2595 50.3477 75.4082C46.7756 73.5568 45.6052 68.739 47.7324 64.6466C49.8597 60.5541 54.3808 58.9494 57.9511 60.8004C61.5233 62.6517 63.2714 68.0078 61.1445 72.0984L61.1459 72.1005Z" fill="white"/>
<path d="M52.3906 76.4883C51.6124 76.3403 50.8635 76.0867 50.1803 75.7323C48.3589 74.787 47.0686 73.0914 46.5496 70.9547C46.0344 68.8373 46.34 66.5366 47.4091 64.4812C49.6034 60.2606 54.3077 58.5034 58.1199 60.4801C62.0267 62.5063 63.6245 68.125 61.4706 72.2698C59.6216 75.8273 55.7242 77.1223 52.3924 76.4887L52.3906 76.4883ZM56.0178 60.5124C52.9819 59.9351 49.73 61.5976 48.0571 64.8158C47.0695 66.7161 46.7854 68.8355 47.2585 70.7836C47.7278 72.7124 48.8847 74.2398 50.5168 75.0861C53.8134 76.7941 58.7406 75.9361 60.8229 71.9334C62.7657 68.1953 61.2896 62.9429 57.7854 61.1249C57.2155 60.8292 56.6204 60.627 56.0196 60.5128L56.0178 60.5124Z" fill="#634C37"/>
<path d="M61.3354 69.3341C60.726 72.5382 57.629 74.6423 54.4162 74.0314C51.2035 73.4204 49.095 70.3263 49.7043 67.1222C50.3137 63.9181 53.4107 61.814 56.6235 62.425C59.8362 63.036 61.9447 66.13 61.3354 69.3341Z" fill="#437EB6" stroke="#634C37"/>
<mask id="path-90-inside-1_119_155" fill="white">
<path d="M54.3095 74.6127C54.1086 74.5745 53.9095 74.5274 53.7088 74.4688C50.2607 73.47 48.2663 69.8585 49.2645 66.4173C49.7489 64.7496 50.8525 63.3721 52.3757 62.5343C53.8985 61.6982 55.6581 61.5025 57.3275 61.9869C58.9986 62.4716 60.3794 63.5742 61.2198 65.0952C62.0585 66.6158 62.2558 68.3724 61.7718 70.0384C60.8318 73.281 57.5659 75.232 54.3095 74.6127ZM56.6874 62.0209C55.2456 61.7467 53.767 61.9792 52.4642 62.6939C50.9849 63.5067 49.9106 64.8471 49.4407 66.4675C48.4703 69.8119 50.4092 73.3239 53.7608 74.2933C57.1117 75.2662 60.629 73.3314 61.5977 69.9867C62.0675 68.3663 61.8774 66.6593 61.0603 65.1817C60.245 63.7044 58.9014 62.6311 57.2776 62.161C57.0823 62.1034 56.885 62.0566 56.6877 62.0191L56.6874 62.0209Z"/>
</mask>
<path d="M54.3095 74.6127C54.1086 74.5745 53.9095 74.5274 53.7088 74.4688C50.2607 73.47 48.2663 69.8585 49.2645 66.4173C49.7489 64.7496 50.8525 63.3721 52.3757 62.5343C53.8985 61.6982 55.6581 61.5025 57.3275 61.9869C58.9986 62.4716 60.3794 63.5742 61.2198 65.0952C62.0585 66.6158 62.2558 68.3724 61.7718 70.0384C60.8318 73.281 57.5659 75.232 54.3095 74.6127ZM56.6874 62.0209C55.2456 61.7467 53.767 61.9792 52.4642 62.6939C50.9849 63.5067 49.9106 64.8471 49.4407 66.4675C48.4703 69.8119 50.4092 73.3239 53.7608 74.2933C57.1117 75.2662 60.629 73.3314 61.5977 69.9867C62.0675 68.3663 61.8774 66.6593 61.0603 65.1817C60.245 63.7044 58.9014 62.6311 57.2776 62.161C57.0823 62.1034 56.885 62.0566 56.6877 62.0191L56.6874 62.0209Z" fill="#437EB6"/>
<path d="M53.7088 74.4688L53.989 73.5089L53.9871 73.5083L53.7088 74.4688ZM49.2645 66.4173L48.3042 66.1384L48.3041 66.1387L49.2645 66.4173ZM52.3757 62.5343L51.8944 61.6577L51.8937 61.6581L52.3757 62.5343ZM57.3275 61.9869L57.0488 62.9473L57.0489 62.9473L57.3275 61.9869ZM61.2198 65.0952L62.0955 64.6123L62.0951 64.6115L61.2198 65.0952ZM61.7718 70.0384L60.8115 69.7593L60.8113 69.7599L61.7718 70.0384ZM56.6874 62.0209L56.5006 63.0033L57.483 63.1901L57.6698 62.2077L56.6874 62.0209ZM52.4642 62.6939L51.9833 61.8172L51.9827 61.8175L52.4642 62.6939ZM49.4407 66.4675L50.4011 66.7462L50.4012 66.746L49.4407 66.4675ZM53.7608 74.2933L54.0396 73.3329L54.0386 73.3326L53.7608 74.2933ZM61.5977 69.9867L60.6372 69.7082L60.6372 69.7085L61.5977 69.9867ZM61.0603 65.1817L60.1848 65.6649L60.1852 65.6656L61.0603 65.1817ZM57.2776 62.161L56.995 63.1202L56.9995 63.1215L57.2776 62.161ZM56.6877 62.0191L56.8746 61.0367L55.8922 60.8499L55.7053 61.8323L56.6877 62.0191ZM54.4963 73.6303C54.325 73.5977 54.1571 73.5579 53.989 73.5089L53.4287 75.4288C53.6619 75.4968 53.8923 75.5513 54.1227 75.5951L54.4963 73.6303ZM53.9871 73.5083C51.0674 72.6626 49.3812 69.6044 50.2249 66.6959L48.3041 66.1387C47.1514 70.1125 49.4539 74.2774 53.4306 75.4293L53.9871 73.5083ZM50.2248 66.6962C50.6351 65.2834 51.5666 64.1206 52.8576 63.4105L51.8937 61.6581C50.1385 62.6236 48.8626 64.2158 48.3042 66.1384L50.2248 66.6962ZM52.8569 63.4108C54.1481 62.702 55.6345 62.5369 57.0488 62.9473L57.6061 61.0265C55.6818 60.4681 53.6489 60.6945 51.8944 61.6577L52.8569 63.4108ZM57.0489 62.9473C58.4663 63.3584 59.6323 64.2898 60.3446 65.5788L62.0951 64.6115C61.1265 62.8586 59.5309 61.5848 57.606 61.0264L57.0489 62.9473ZM60.3442 65.5781C61.0551 66.8671 61.2211 68.3496 60.8115 69.7593L62.7321 70.3174C63.2906 68.3952 63.0619 66.3646 62.0955 64.6123L60.3442 65.5781ZM60.8113 69.7599C60.0169 72.5004 57.2529 74.1546 54.4963 73.6303L54.1227 75.5951C57.879 76.3095 61.6467 74.0616 62.7323 70.3168L60.8113 69.7599ZM56.8742 61.0385C55.2036 60.7208 53.4889 60.9912 51.9833 61.8172L52.9452 63.5706C54.0451 62.9672 55.2877 62.7727 56.5006 63.0033L56.8742 61.0385ZM51.9827 61.8175C50.2709 62.7579 49.0241 64.3133 48.4803 66.1891L50.4012 66.746C50.797 65.3809 51.6988 64.2554 52.9458 63.5703L51.9827 61.8175ZM48.4804 66.1889C47.3554 70.0658 49.6023 74.1316 53.483 75.2539L54.0386 73.3326C51.2161 72.5163 49.5852 69.5581 50.4011 66.7462L48.4804 66.1889ZM53.482 75.2536C57.3625 76.3803 61.4355 74.1414 62.5582 70.2649L60.6372 69.7085C59.8225 72.5215 56.8609 74.152 54.0396 73.3329L53.482 75.2536ZM62.5581 70.2652C63.1019 68.3897 62.8814 66.4083 61.9354 64.6978L60.1852 65.6656C60.8735 66.9102 61.0331 68.3428 60.6372 69.7082L62.5581 70.2652ZM61.9358 64.6985C60.9923 62.9889 59.4336 61.7441 57.5557 61.2004L56.9995 63.1215C58.3691 63.5181 59.4977 64.4199 60.1848 65.6649L61.9358 64.6985ZM57.5602 61.2017C57.3309 61.1342 57.1014 61.0799 56.8746 61.0367L56.5009 63.0015C56.6686 63.0334 56.8338 63.0727 56.995 63.1202L57.5602 61.2017ZM55.7053 61.8323L55.705 61.8341L57.6698 62.2077L57.6701 62.2059L55.7053 61.8323Z" fill="#634C37" mask="url(#path-90-inside-1_119_155)"/>
<path d="M58.1857 69.3409C59.4643 69.5841 60.6975 68.7467 60.9402 67.4707C61.1828 66.1946 60.3431 64.9631 59.0645 64.7199C57.786 64.4768 56.5528 65.3141 56.3101 66.5902C56.0674 67.8662 56.9072 69.0978 58.1857 69.3409Z" fill="white"/>
<path d="M58.1709 69.429C58.0956 69.4147 58.021 69.3968 57.9452 69.3749C57.3166 69.1923 56.7971 68.7783 56.4822 68.2066C56.1673 67.6349 56.0938 66.9756 56.2745 66.3479C56.6505 65.0545 58.0096 64.3079 59.3059 64.6824C59.9345 64.865 60.454 65.279 60.7689 65.8507C61.0839 66.4224 61.1573 67.0817 60.9766 67.7094C60.6242 68.9275 59.3957 69.6619 58.1709 69.429ZM59.0461 64.8073C57.9128 64.5918 56.7765 65.2714 56.4508 66.3981C56.2829 66.9781 56.3508 67.5882 56.642 68.1183C56.9333 68.6484 57.4142 69.031 57.9954 69.199C59.1966 69.5461 60.4541 68.8544 60.8007 67.6574C60.9686 67.0774 60.9007 66.4673 60.6094 65.9372C60.3178 65.4089 59.8372 65.0245 59.256 64.8565C59.1875 64.836 59.1164 64.8188 59.0465 64.8055L59.0461 64.8073Z" fill="#634C37"/>
<path d="M84.4594 68.5527C84.1819 72.6594 80.8013 75.7902 77.2189 75.5466C73.6364 75.3029 70.9552 71.7759 71.2327 67.6692C71.5101 63.5625 74.6384 60.43 78.2226 60.674C81.8051 60.9176 84.7369 64.446 84.4612 68.553L84.4594 68.5527Z" fill="white"/>
<path d="M76.458 75.8154C74.9104 75.5211 73.5196 74.6372 72.4853 73.276C71.3008 71.7174 70.7259 69.7184 70.8659 67.6439C71.0058 65.5695 71.8437 63.6649 73.2269 62.283C74.6221 60.8868 76.4054 60.1856 78.2452 60.3111C80.0706 60.4339 81.8302 61.3916 83.0729 62.9371C84.3409 64.5153 84.9635 66.5178 84.8244 68.5776C84.6851 70.6392 83.8003 72.546 82.3321 73.945C80.8912 75.3178 79.0196 76.0337 77.1942 75.9109C76.9467 75.8935 76.7015 75.8636 76.4594 75.8175L76.458 75.8154ZM78.8363 61.1208C78.6247 61.0805 78.4107 61.0528 78.1961 61.038C76.5709 60.9273 74.9899 61.552 73.7439 62.7986C72.4862 64.0578 71.7226 65.7967 71.5938 67.6952C71.465 69.5938 71.9891 71.4199 73.0666 72.8376C74.1321 74.2401 75.6144 75.0727 77.2414 75.1837C78.8613 75.2933 80.5331 74.6507 81.8247 73.4183C83.1613 72.1445 83.9672 70.4081 84.0941 68.5296C84.2206 66.6528 83.6553 64.8281 82.5028 63.3943C81.5366 62.1925 80.2257 61.3869 78.8377 61.1229L78.8363 61.1208Z" fill="#634C37"/>
<path d="M83.8662 69.0783C83.3615 71.7319 80.7965 73.4747 78.1354 72.9686C75.4743 72.4626 73.7281 69.8998 74.2328 67.2463C74.7374 64.5928 77.3024 62.8499 79.9635 63.356C82.6246 63.8621 84.3708 66.4248 83.8662 69.0783Z" fill="#437EB6" stroke="#634C37"/>
<mask id="path-97-inside-2_119_155" fill="white">
<path d="M78.0141 73.5473C76.8432 73.3246 75.782 72.7296 74.9684 71.8294C73.9862 70.7414 73.488 69.3356 73.5635 67.8738C73.7214 64.8551 76.3098 62.5287 79.3345 62.6866C80.799 62.763 82.1484 63.4054 83.1303 64.4952C84.1125 65.5832 84.6107 66.9891 84.5352 68.4508C84.4598 69.9126 83.8172 71.2591 82.7261 72.2384C81.6368 73.2181 80.2288 73.7144 78.7643 73.638C78.5103 73.6249 78.2598 73.594 78.0141 73.5473ZM80.0506 62.9563C79.8121 62.911 79.5705 62.8817 79.3259 62.8686C76.4008 62.7147 73.8993 64.965 73.7476 67.8828C73.6738 69.2967 74.1568 70.6552 75.1069 71.7074C76.0569 72.7597 77.3585 73.3799 78.7768 73.4549C80.1933 73.5296 81.5539 73.0484 82.6073 72.1009C83.6608 71.1533 84.2816 69.8528 84.3554 68.4389C84.4292 67.025 83.9462 65.6666 82.9961 64.6143C82.2122 63.7439 81.1842 63.1701 80.0527 62.9549L80.0506 62.9563Z"/>
</mask>
<path d="M78.0141 73.5473C76.8432 73.3246 75.782 72.7296 74.9684 71.8294C73.9862 70.7414 73.488 69.3356 73.5635 67.8738C73.7214 64.8551 76.3098 62.5287 79.3345 62.6866C80.799 62.763 82.1484 63.4054 83.1303 64.4952C84.1125 65.5832 84.6107 66.9891 84.5352 68.4508C84.4598 69.9126 83.8172 71.2591 82.7261 72.2384C81.6368 73.2181 80.2288 73.7144 78.7643 73.638C78.5103 73.6249 78.2598 73.594 78.0141 73.5473ZM80.0506 62.9563C79.8121 62.911 79.5705 62.8817 79.3259 62.8686C76.4008 62.7147 73.8993 64.965 73.7476 67.8828C73.6738 69.2967 74.1568 70.6552 75.1069 71.7074C76.0569 72.7597 77.3585 73.3799 78.7768 73.4549C80.1933 73.5296 81.5539 73.0484 82.6073 72.1009C83.6608 71.1533 84.2816 69.8528 84.3554 68.4389C84.4292 67.025 83.9462 65.6666 82.9961 64.6143C82.2122 63.7439 81.1842 63.1701 80.0527 62.9549L80.0506 62.9563Z" fill="#437EB6"/>
<path d="M74.9684 71.8294L74.2262 72.4995L74.2265 72.4999L74.9684 71.8294ZM73.5635 67.8738L72.5649 67.8216L72.5648 67.8222L73.5635 67.8738ZM79.3345 62.6866L79.2823 63.6853L79.2824 63.6853L79.3345 62.6866ZM83.1303 64.4952L82.3873 65.1646L82.388 65.1653L83.1303 64.4952ZM82.7261 72.2384L82.0581 71.4942L82.0574 71.4949L82.7261 72.2384ZM78.7643 73.638L78.8163 72.6393L78.8156 72.6393L78.7643 73.638ZM80.0506 62.9563L79.8637 63.9387L80.2692 64.0158L80.611 63.7845L80.0506 62.9563ZM79.3259 62.8686L79.3795 61.87L79.3784 61.87L79.3259 62.8686ZM73.7476 67.8828L74.7462 67.935L74.7462 67.9348L73.7476 67.8828ZM78.7768 73.4549L78.724 74.4535L78.7241 74.4535L78.7768 73.4549ZM82.9961 64.6143L82.2531 65.2835L82.2539 65.2845L82.9961 64.6143ZM80.0527 62.9549L80.2395 61.9725L79.834 61.8954L79.4922 62.1267L80.0527 62.9549ZM78.201 72.5649C77.2454 72.3831 76.3787 71.8985 75.7103 71.1589L74.2265 72.4999C75.1853 73.5608 76.441 74.266 77.8273 74.5297L78.201 72.5649ZM75.7107 71.1593C74.9066 70.2686 74.5004 69.1225 74.5622 67.9254L72.5648 67.8222C72.4757 69.5486 73.0658 71.2142 74.2262 72.4995L75.7107 71.1593ZM74.5621 67.926C74.691 65.4608 76.8073 63.556 79.2823 63.6853L79.3866 61.688C75.8124 61.5013 72.7517 64.2495 72.5649 67.8216L74.5621 67.926ZM79.2824 63.6853C80.4824 63.7479 81.5832 64.272 82.3873 65.1646L83.8732 63.8258C82.7136 62.5387 81.1155 61.7782 79.3865 61.688L79.2824 63.6853ZM82.388 65.1653C83.1921 66.056 83.5984 67.2021 83.5366 68.3993L85.5339 68.5024C85.623 66.776 85.0329 65.1105 83.8726 63.8251L82.388 65.1653ZM83.5366 68.3993C83.4748 69.5953 82.9513 70.6926 82.0581 71.4942L83.3941 72.9826C84.6831 71.8257 85.4447 70.2299 85.5339 68.5024L83.5366 68.3993ZM82.0574 71.4949C81.1659 72.2967 80.0174 72.702 78.8163 72.6393L78.7122 74.6366C80.4401 74.7267 82.1076 74.1396 83.3948 72.982L82.0574 71.4949ZM78.8156 72.6393C78.609 72.6287 78.4037 72.6034 78.201 72.5649L77.8273 74.5297C78.1159 74.5845 78.4117 74.6212 78.7129 74.6367L78.8156 72.6393ZM80.2374 61.9739C79.9545 61.9201 79.6684 61.8856 79.3795 61.87L79.2722 63.8672C79.4726 63.8779 79.6696 63.9018 79.8637 63.9387L80.2374 61.9739ZM79.3784 61.87C75.9032 61.6872 72.9294 64.3597 72.7489 67.8309L74.7462 67.9348C74.8692 65.5703 76.8985 63.7423 79.2733 63.8672L79.3784 61.87ZM72.7489 67.8307C72.6613 69.5104 73.237 71.1286 74.3646 72.3775L75.8491 71.0373C75.0767 70.1817 74.6863 69.083 74.7462 67.935L72.7489 67.8307ZM74.3646 72.3775C75.4921 73.6263 77.0417 74.3646 78.724 74.4535L78.8296 72.4563C77.6753 72.3953 76.6217 71.893 75.8491 71.0373L74.3646 72.3775ZM78.7241 74.4535C80.4053 74.5422 82.0253 73.9693 83.2761 72.8444L81.9386 71.3574C81.0824 72.1275 79.9813 72.517 78.8294 72.4563L78.7241 74.4535ZM83.2761 72.8444C84.5268 71.7194 85.2664 70.1702 85.3541 68.491L83.3568 68.3868C83.2968 69.5353 82.7949 70.5872 81.9386 71.3574L83.2761 72.8444ZM85.3541 68.491C85.4417 66.8113 84.866 65.1932 83.7384 63.9442L82.2539 65.2845C83.0263 66.14 83.4167 67.2387 83.3568 68.3868L85.3541 68.491ZM83.7392 63.9451C82.8086 62.9117 81.5849 62.2284 80.2395 61.9725L79.8659 63.9373C80.7835 64.1118 81.6159 64.576 82.2531 65.2835L83.7392 63.9451ZM79.4922 62.1267L79.4901 62.1282L80.611 63.7845L80.6132 63.7831L79.4922 62.1267Z" fill="#634C37" mask="url(#path-97-inside-2_119_155)"/>
<path d="M81.3426 69.9171C82.426 70.1231 83.471 69.4135 83.6767 68.3322C83.8823 67.2509 83.1707 66.2072 82.0873 66.0012C81.0038 65.7952 79.9588 66.5047 79.7531 67.5861C79.5475 68.6674 80.2591 69.711 81.3426 69.9171Z" fill="white"/>
<path d="M81.3199 70.0073C80.8752 69.9227 80.4703 69.6974 80.1619 69.355C79.7891 68.941 79.5988 68.4079 79.6284 67.8516C79.6887 66.7041 80.6727 65.8193 81.8224 65.8803C82.972 65.9413 83.8591 66.9241 83.7988 68.0717C83.7692 68.6279 83.5254 69.1379 83.1106 69.5115C82.6962 69.8833 82.1622 70.0729 81.6049 70.043C81.5093 70.0378 81.4129 70.0268 81.3196 70.0091L81.3199 70.0073ZM82.07 66.0925C81.9857 66.0764 81.9004 66.0658 81.812 66.0619C80.7633 66.0072 79.8649 66.8136 79.8107 67.8603C79.7849 68.3672 79.958 68.8545 80.2985 69.2326C80.6391 69.6108 81.106 69.8331 81.6156 69.8596C82.1235 69.8857 82.6115 69.7133 82.9901 69.3736C83.3687 69.0339 83.5911 68.5681 83.6172 68.0594C83.6679 67.0992 82.9921 66.266 82.0704 66.0907L82.07 66.0925Z" fill="#634C37"/>
<path d="M67.1209 91.4398C67.1209 91.4398 61.7405 97.0258 53.8624 91.0362C44.5979 92.5807 32.1348 101.194 32.1348 101.194C32.1348 101.194 34.6111 109.14 42.2628 113.155C40.4846 117.024 32.3758 137.464 32.3758 137.464C32.3758 137.464 61.8321 152.294 82.035 137.364C79.5372 126.072 76.4264 114.828 76.4264 114.828C76.4264 114.828 83.0117 113.058 86.8437 105.991C77.475 94.5123 67.1209 91.4398 67.1209 91.4398Z" fill="#FF81F2"/>
<path d="M49.2973 143.414C39.5799 141.566 32.2449 137.909 32.1722 137.871C31.9621 137.764 31.8662 137.516 31.9525 137.297C32.0311 137.099 39.6071 118.003 41.673 113.354C34.238 109.246 31.8017 101.656 31.7001 101.33C31.6413 101.141 31.7123 100.934 31.8751 100.82C32.3864 100.467 44.5273 92.1315 53.786 90.5877C53.9107 90.5669 54.0385 90.5986 54.1373 90.6749C61.5801 96.3351 66.5808 91.339 66.7906 91.1248C66.9086 91.0026 67.0864 90.9567 67.2483 91.0042C67.3557 91.0357 69.9336 91.8134 73.6986 94.0185C77.1608 96.0473 82.3148 99.722 87.1956 105.703C87.3133 105.846 87.3311 106.046 87.2428 106.208C83.889 112.392 78.5473 114.599 76.9799 115.132C77.5689 117.291 80.2776 127.318 82.4789 137.266C82.5179 137.443 82.4499 137.624 82.3052 137.73C77.6334 141.183 72.0827 143.336 65.8093 144.13C60.8057 144.764 55.334 144.538 49.5447 143.461C49.4622 143.445 49.378 143.429 49.2955 143.414L49.2973 143.414ZM32.9574 137.239C34.5604 137.995 41.1219 140.932 49.4674 142.519C49.5571 142.536 49.6468 142.553 49.7364 142.57C55.4289 143.629 60.8017 143.848 65.7083 143.225C71.7137 142.462 77.0338 140.427 81.5251 137.172C79.0694 126.118 76.0163 115.06 75.9855 114.949C75.9539 114.831 75.9684 114.706 76.0293 114.601C76.0902 114.496 76.1886 114.418 76.306 114.386C76.3689 114.369 82.5861 112.619 86.2921 106.038C77.9628 95.9532 68.8346 92.5019 67.233 91.9544C66.7518 92.384 65.4755 93.3893 63.5649 93.9198C61.3676 94.5311 57.8906 94.6024 53.7432 91.5161C45.4756 92.9776 34.5761 100.101 32.6806 101.372C33.2356 102.871 35.9405 109.321 42.4739 112.748C42.6884 112.861 42.7783 113.121 42.677 113.341C41.0603 116.859 34.093 134.375 32.9563 137.236L32.9574 137.239Z" fill="#634C37"/>
<path d="M45.0748 108.226C45.0748 108.226 44.9382 107.156 44.0974 107.269C42.242 107.519 43.9352 110.105 43.9352 110.105C44.2191 109.668 44.7168 109.024 45.0748 108.226Z" fill="#DF62D2"/>
<path d="M74.7385 110.064C74.7385 110.064 74.9971 109.017 75.8193 109.228C77.6337 109.691 75.6553 112.063 75.6553 112.063C75.4245 111.597 75.0034 110.899 74.7403 110.065L74.7385 110.064Z" fill="#DF62D2"/>
<path d="M42.3725 113.174C42.3725 113.174 43.8235 110.253 45.0254 108.486L42.3725 113.174Z" fill="white"/>
<path d="M42.3043 113.532C42.272 113.526 42.2405 113.516 42.2099 113.501C42.03 113.411 41.9545 113.193 42.0443 113.013C42.1044 112.893 43.5204 110.049 44.7219 108.284C44.8352 108.118 45.0628 108.074 45.229 108.187C45.3951 108.3 45.4392 108.527 45.3259 108.693C44.1523 110.419 42.7127 113.309 42.698 113.338C42.6232 113.487 42.46 113.563 42.3022 113.533L42.3043 113.532Z" fill="#634C37"/>
<path d="M76.4218 115.135C76.4218 115.135 75.6468 111.609 74.9431 110.493L76.4218 115.135Z" fill="white"/>
<path d="M76.3538 115.493C76.2139 115.467 76.0969 115.359 76.065 115.214C76.0568 115.179 75.2955 111.737 74.6348 110.688C74.5279 110.517 74.5783 110.291 74.749 110.185C74.9198 110.078 75.1441 110.13 75.2531 110.299C75.9808 111.456 76.7469 114.912 76.7787 115.057C76.8211 115.254 76.697 115.447 76.5013 115.49C76.4509 115.501 76.4026 115.501 76.3559 115.492L76.3538 115.493Z" fill="#634C37"/>
<path d="M69.8808 73.9953C71.3995 74.1284 71.6961 75.9595 70.5557 76.4844L69.8808 73.9953Z" fill="#FFD7C7"/>
<path d="M70.5096 76.7371C70.4307 76.7221 70.3604 76.6716 70.3253 76.5926C70.266 76.4645 70.3211 76.3118 70.4494 76.2527C70.9362 76.0282 71.0374 75.5449 70.9767 75.1995C70.9038 74.7814 70.5695 74.3117 69.8605 74.2492C69.7194 74.2391 69.615 74.1135 69.6269 73.973C69.6387 73.8325 69.7626 73.7281 69.9034 73.74C70.7278 73.8115 71.3463 74.3501 71.4802 75.1117C71.6 75.791 71.271 76.4368 70.6641 76.7164C70.6131 76.74 70.5602 76.7448 70.5082 76.7349L70.5096 76.7371Z" fill="#634C37"/>
<path d="M69.6946 80.8955L68.287 80.6278C68.0897 80.5903 67.9589 80.3985 67.9964 80.2016C68.0338 80.0048 68.2258 79.8744 68.4231 79.9119L69.8308 80.1796C70.028 80.2171 70.1588 80.4089 70.1213 80.6057C70.0839 80.8026 69.8919 80.933 69.6946 80.8955Z" fill="#634C37"/>
<path d="M34.4384 40.2818C35.371 38.7323 35.1623 36.8973 33.9724 36.1831C32.7824 35.4689 31.0617 36.146 30.1291 37.6954C29.1965 39.2449 29.4051 41.0799 30.5951 41.7941C31.785 42.5083 33.5057 41.8312 34.4384 40.2818Z" fill="#FFDDD9"/>
<path d="M37.8555 42.1598C38.2668 41.2735 38.0485 40.2996 37.3679 39.9845C36.6874 39.6695 35.8022 40.1325 35.3909 41.0188C34.9797 41.9051 35.1979 42.879 35.8785 43.1941C36.5591 43.5091 37.4442 43.046 37.8555 42.1598Z" fill="#FFDDD9"/>
</g>
<defs>
<clipPath id="clip0_119_155">
<rect width="95.3378" height="155.068" fill="white" transform="translate(29.0408 0.454041) rotate(10.7676)"/>
</clipPath>
</defs>
</svg>
