<svg width="96" height="153" viewBox="0 0 96 153" fill="none" xmlns="http://www.w3.org/2000/svg">
<g filter="url(#filter0_d_208_10)">
<path d="M4 22C4 19.7909 5.79086 18 8 18H88C90.2091 18 92 19.7909 92 22V141C92 143.209 90.2091 145 88 145H8C5.79086 145 4 143.209 4 141V22Z" fill="white"/>
<path d="M5.5 22C5.5 20.6193 6.61929 19.5 8 19.5H88C89.3807 19.5 90.5 20.6193 90.5 22V141C90.5 142.381 89.3807 143.5 88 143.5H8C6.61929 143.5 5.5 142.381 5.5 141V22Z" stroke="#634C37" stroke-width="3"/>
</g>
<rect x="35.5" y="1.5" width="25" height="25" rx="12.5" fill="#FF7A6B" stroke="#634C37" stroke-width="3"/>
<path d="M44.574 20.928C44.286 20.868 44.046 20.718 43.854 20.478C43.674 20.238 43.584 19.962 43.584 19.65V19.092C43.584 18.84 43.686 18.642 43.89 18.498C44.094 18.354 44.316 18.312 44.556 18.372C45.528 18.624 46.302 18.75 46.878 18.75C48.642 18.75 49.524 18.012 49.524 16.536C49.524 15.336 48.924 14.736 47.724 14.736C47.448 14.736 47.208 14.778 47.004 14.862C46.932 14.886 46.782 14.946 46.554 15.042C46.338 15.126 46.17 15.192 46.05 15.24C45.942 15.276 45.798 15.318 45.618 15.366C45.45 15.402 45.288 15.42 45.132 15.42H44.574C44.298 15.42 44.064 15.318 43.872 15.114C43.68 14.91 43.59 14.67 43.602 14.394L43.854 8.886C43.878 8.598 43.992 8.358 44.196 8.166C44.4 7.962 44.646 7.86 44.934 7.86H50.892C51.168 7.86 51.408 7.962 51.612 8.166C51.816 8.37 51.918 8.61 51.918 8.886V9.3C51.918 9.576 51.816 9.816 51.612 10.02C51.408 10.224 51.168 10.326 50.892 10.326H46.824C46.716 10.326 46.662 10.374 46.662 10.47L46.554 12.756C46.554 12.768 46.56 12.774 46.572 12.774H46.608C47.184 12.534 47.754 12.414 48.318 12.414C49.662 12.414 50.694 12.774 51.414 13.494C52.146 14.202 52.512 15.216 52.512 16.536C52.512 19.632 50.676 21.18 47.004 21.18C46.2 21.18 45.39 21.096 44.574 20.928Z" fill="white"/>
<defs>
<filter id="filter0_d_208_10" x="0" y="18" width="96" height="135" filterUnits="userSpaceOnUse" color-interpolation-filters="sRGB">
<feFlood flood-opacity="0" result="BackgroundImageFix"/>
<feColorMatrix in="SourceAlpha" type="matrix" values="0 0 0 0 0 0 0 0 0 0 0 0 0 0 0 0 0 0 127 0" result="hardAlpha"/>
<feOffset dy="4"/>
<feGaussianBlur stdDeviation="2"/>
<feComposite in2="hardAlpha" operator="out"/>
<feColorMatrix type="matrix" values="0 0 0 0 0 0 0 0 0 0 0 0 0 0 0 0 0 0 0.25 0"/>
<feBlend mode="normal" in2="BackgroundImageFix" result="effect1_dropShadow_208_10"/>
<feBlend mode="normal" in="SourceGraphic" in2="effect1_dropShadow_208_10" result="shape"/>
</filter>
</defs>
</svg>
