<svg width="96" height="151" viewBox="0 0 96 151" fill="none" xmlns="http://www.w3.org/2000/svg">
<g filter="url(#filter0_d_208_8)">
<path d="M4 20C4 17.7909 5.79086 16 8 16H88C90.2091 16 92 17.7909 92 20V139C92 141.209 90.2091 143 88 143H8C5.79086 143 4 141.209 4 139V20Z" fill="white"/>
<path d="M5.5 20C5.5 18.6193 6.61929 17.5 8 17.5H88C89.3807 17.5 90.5 18.6193 90.5 20V139C90.5 140.381 89.3807 141.5 88 141.5H8C6.61929 141.5 5.5 140.381 5.5 139V20Z" stroke="#634C37" stroke-width="3"/>
</g>
<rect x="35.5" y="1.5" width="25" height="25" rx="12.5" fill="#FF7A6B" stroke="#634C37" stroke-width="3"/>
<path d="M44.376 10.326C44.1 10.326 43.86 10.224 43.656 10.02C43.452 9.816 43.35 9.576 43.35 9.3V8.886C43.35 8.61 43.452 8.37 43.656 8.166C43.86 7.962 44.1 7.86 44.376 7.86H51.09C51.366 7.86 51.606 7.962 51.81 8.166C52.014 8.37 52.116 8.61 52.116 8.886V9.3C52.116 9.984 51.852 10.542 51.324 10.974L48.606 13.224V13.242C48.606 13.254 48.612 13.26 48.624 13.26H48.84C49.884 13.26 50.718 13.584 51.342 14.232C51.978 14.88 52.296 15.756 52.296 16.86C52.296 18.252 51.87 19.32 51.018 20.064C50.166 20.808 48.942 21.18 47.346 21.18C46.386 21.18 45.414 21.066 44.43 20.838C44.142 20.766 43.902 20.61 43.71 20.37C43.53 20.118 43.44 19.836 43.44 19.524V18.912C43.44 18.672 43.536 18.486 43.728 18.354C43.932 18.21 44.154 18.174 44.394 18.246C45.426 18.582 46.326 18.75 47.094 18.75C47.79 18.75 48.33 18.588 48.714 18.264C49.098 17.94 49.29 17.49 49.29 16.914C49.29 16.326 49.068 15.912 48.624 15.672C48.18 15.432 47.352 15.306 46.14 15.294C45.864 15.294 45.624 15.198 45.42 15.006C45.216 14.802 45.114 14.562 45.114 14.286V14.25C45.114 13.578 45.372 13.02 45.888 12.576L48.444 10.362V10.344C48.444 10.332 48.438 10.326 48.426 10.326H44.376Z" fill="white"/>
<defs>
<filter id="filter0_d_208_8" x="0" y="16" width="96" height="135" filterUnits="userSpaceOnUse" color-interpolation-filters="sRGB">
<feFlood flood-opacity="0" result="BackgroundImageFix"/>
<feColorMatrix in="SourceAlpha" type="matrix" values="0 0 0 0 0 0 0 0 0 0 0 0 0 0 0 0 0 0 127 0" result="hardAlpha"/>
<feOffset dy="4"/>
<feGaussianBlur stdDeviation="2"/>
<feComposite in2="hardAlpha" operator="out"/>
<feColorMatrix type="matrix" values="0 0 0 0 0 0 0 0 0 0 0 0 0 0 0 0 0 0 0.25 0"/>
<feBlend mode="normal" in2="BackgroundImageFix" result="effect1_dropShadow_208_8"/>
<feBlend mode="normal" in="SourceGraphic" in2="effect1_dropShadow_208_8" result="shape"/>
</filter>
</defs>
</svg>
