<svg width="96" height="151" viewBox="0 0 96 151" fill="none" xmlns="http://www.w3.org/2000/svg">
<g filter="url(#filter0_d_208_6)">
<path d="M4 20C4 17.7909 5.79086 16 8 16H88C90.2091 16 92 17.7909 92 20V139C92 141.209 90.2091 143 88 143H8C5.79086 143 4 141.209 4 139V20Z" fill="white"/>
<path d="M5.5 20C5.5 18.6193 6.61929 17.5 8 17.5H88C89.3807 17.5 90.5 18.6193 90.5 20V139C90.5 140.381 89.3807 141.5 88 141.5H8C6.61929 141.5 5.5 140.381 5.5 139V20Z" stroke="#634C37" stroke-width="3"/>
</g>
<rect x="35.5" y="1.5" width="25" height="25" rx="12.5" fill="#FF7A6B" stroke="#634C37" stroke-width="3"/>
<path d="M44.556 13.134C44.388 13.266 44.208 13.284 44.016 13.188C43.836 13.092 43.746 12.936 43.746 12.72V11.406C43.746 10.722 44.022 10.182 44.574 9.786L46.392 8.454C46.932 8.058 47.55 7.86 48.246 7.86H49.38C49.656 7.86 49.896 7.962 50.1 8.166C50.304 8.37 50.406 8.61 50.406 8.886V19.974C50.406 20.25 50.304 20.49 50.1 20.694C49.896 20.898 49.656 21 49.38 21H48.246C47.97 21 47.73 20.898 47.526 20.694C47.322 20.49 47.22 20.25 47.22 19.974V11.226H47.202H47.184L44.556 13.134Z" fill="white"/>
<defs>
<filter id="filter0_d_208_6" x="0" y="16" width="96" height="135" filterUnits="userSpaceOnUse" color-interpolation-filters="sRGB">
<feFlood flood-opacity="0" result="BackgroundImageFix"/>
<feColorMatrix in="SourceAlpha" type="matrix" values="0 0 0 0 0 0 0 0 0 0 0 0 0 0 0 0 0 0 127 0" result="hardAlpha"/>
<feOffset dy="4"/>
<feGaussianBlur stdDeviation="2"/>
<feComposite in2="hardAlpha" operator="out"/>
<feColorMatrix type="matrix" values="0 0 0 0 0 0 0 0 0 0 0 0 0 0 0 0 0 0 0.25 0"/>
<feBlend mode="normal" in2="BackgroundImageFix" result="effect1_dropShadow_208_6"/>
<feBlend mode="normal" in="SourceGraphic" in2="effect1_dropShadow_208_6" result="shape"/>
</filter>
</defs>
</svg>
