<svg width="97" height="130" viewBox="0 0 97 130" fill="none" xmlns="http://www.w3.org/2000/svg">
<g clip-path="url(#clip0_119_1236)">
<path d="M47.2338 126.013C45.1314 126.262 42.8777 125.693 41.6741 125.059C41.6081 125.024 41.5434 124.988 41.4798 124.948C41.2472 124.999 41.0088 125.039 40.7662 125.068C38.6638 125.317 36.4101 124.749 35.2065 124.115C33.2285 123.075 33.4537 120.945 33.6413 120.079C33.8998 118.891 34.5099 117.697 34.9128 116.907C35.0217 116.694 35.115 116.512 35.1724 116.387C35.2229 116.278 35.2831 116.177 35.3512 116.08C35.5705 114.784 35.6546 113.006 35.5975 110.869C31.254 109.71 27.4264 107.733 24.207 104.98C23.6596 104.513 23.4369 103.765 23.6408 103.073C25.1468 97.9741 26.8125 92.893 27.9767 89.4374C25.4252 90.7575 23.2312 91.5521 22.8947 91.6715L22.8636 91.6826L22.1968 91.8868C20.2717 92.4757 18.7503 92.9402 17.3439 93.1067C15.4958 93.3256 13.9448 93.0054 12.3136 92.07C11.7019 91.7196 10.2698 90.8977 10.5477 89.5374C10.5732 89.4165 10.6164 89.2715 10.6914 89.1211C9.57129 87.8483 8.62466 86.0128 9.04395 84.042C9.30432 82.8193 10.2414 82.0233 11.6129 81.8608C13.4392 81.6446 15.9544 82.6049 17.0909 83.095C18.2507 82.7116 20.0284 81.5995 22.1314 79.9376C21.9569 79.6091 21.7923 79.2765 21.6391 78.941C21.3319 78.2629 21.4626 77.4754 21.9716 76.9334C26.358 72.2594 30.8442 69.5094 33.8345 68.0253C35.7631 67.0677 37.3224 66.5 38.3149 66.1851C36.6899 65.8618 35.0675 65.4234 33.4597 64.8728C30.7877 68.5099 26.3067 70.9926 21.2273 71.5941C19.2499 71.8282 17.2958 71.7488 15.5751 71.3647L16.0934 68.4879C16.1114 68.4902 16.2787 68.5102 16.6361 68.4679C17.7549 68.3354 20.1522 67.6036 21.211 65.7825C21.9454 64.5199 21.9017 62.8942 21.0819 60.9479C17.6799 52.8721 14.9399 25.5775 25.2851 11.5912C27.8839 8.08204 30.8094 6.11209 33.9826 5.73633C37.8168 5.28229 41.0102 7.30407 42.9409 9.57408C43.4663 9.4824 43.9976 9.40327 44.5308 9.34013C45.5944 9.21419 46.694 9.14438 47.7991 9.13285C52.9831 9.07881 57.6429 9.79843 61.6775 11.2727C63.1206 8.6415 66.157 6.05291 69.8953 5.61022C72.3232 5.32273 76.9926 5.81285 80.9845 12.3263C90.0749 27.158 84.9737 54.1127 80.8821 61.8618C79.7845 63.9395 79.6828 65.7061 80.5802 67.1129C81.8231 69.0622 84.542 69.8393 85.1966 69.8059L85.4634 72.7179C85.3966 72.7258 85.3284 72.7354 85.2602 72.7434C78.9312 73.4929 70.5189 70.1105 67.3939 63.1541C67.0699 62.4338 66.7437 61.3836 66.4072 59.9723C64.4438 65.513 61.6691 68.6319 58.3201 69.0285C58.1748 69.0457 58.0288 69.0571 57.8823 69.0641C63.3711 71.9441 68.1814 75.7765 68.4647 76.0037C69.0913 76.5056 69.316 77.3452 69.0246 78.0943C68.9986 78.1607 68.832 78.5826 68.504 79.2225C70.5504 80.7525 71.781 81.3405 72.4338 81.5652C73.2715 81.2126 74.9729 80.5633 76.4956 80.383C77.3731 80.279 78.0972 80.3347 78.7083 80.5556C79.6456 80.8939 80.2709 81.6081 80.4684 82.5673C80.8743 84.5391 79.9164 86.3659 78.789 87.6323C78.8399 87.7383 78.8819 87.8571 78.9134 87.9859C79.25 89.3854 77.7752 90.2186 77.1441 90.5748C76.1359 91.1435 75.1531 91.4779 74.1404 91.5978C72.1048 91.8389 70.073 91.2029 67.2622 90.3218L66.5691 90.1048L66.5118 90.0806C66.2889 89.9906 66.0582 89.8957 65.8169 89.799C64.3841 89.2203 62.6575 88.5246 60.9087 87.6164C62.7376 92.9835 66.7983 105.775 66.8431 105.917C67.1317 106.824 66.6859 107.788 65.8074 108.157C65.7568 108.178 61.0745 110.117 54.6256 111.259C54.409 114.295 53.6647 117.216 52.6198 119.105C52.6694 119.959 52.4217 121.089 51.8493 122.676C51.3579 124.038 50.3493 125.05 48.9307 125.599C48.4166 125.799 47.8466 125.937 47.2364 126.009L47.2338 126.013ZM51.1223 66.3347C53.2771 66.8766 55.5727 67.8614 57.7633 69.0045L57.4125 66.1791C57.3795 66.186 57.3616 66.1969 57.3616 66.1969C57.3893 66.1819 57.8492 65.8976 58.419 64.1035C56.7746 64.8477 54.2917 65.7649 51.1238 66.3345L51.1223 66.3347Z" fill="#634C37"/>
<path d="M79.5872 61.1798C83.6222 53.5376 88.397 27.2227 79.7358 13.0915C73.0704 2.21555 64.0243 8.28697 62.4445 13.1472C58.4417 11.457 53.5666 10.536 47.8116 10.5958C45.8383 10.6158 44.0185 10.8254 42.3381 11.1791C39.4146 7.09376 32.6406 4.10965 26.4622 12.4624C16.6074 25.7882 19.0772 52.4179 22.432 60.3814C25.6476 68.0151 17.8121 70.2011 15.8951 69.9375C21.2538 71.1342 29.2436 69.0831 32.8827 63.1113C36.1869 64.3524 39.301 65.0075 42.1544 65.2663C41.9426 66.5628 41.2436 66.8681 40.4184 67.228C40.3218 67.2704 40.2209 67.3147 40.1203 67.3605C40.034 67.2912 39.9213 67.2604 39.8123 67.285C39.7247 67.3043 37.6199 67.7819 34.4861 69.336C31.6042 70.766 27.2775 73.419 23.0403 77.9353C22.9382 78.0432 22.9128 78.2024 22.9744 78.3365C23.2954 79.044 23.652 79.6912 24.0288 80.286C21.5268 82.3605 18.7571 84.2899 16.9644 84.6407C16.6789 84.5065 11.0042 81.8725 10.478 84.3465C9.93727 86.8842 12.7671 89.282 13.3864 89.4488C14.0073 89.6154 10.2086 89.1754 13.0441 90.8005C15.8607 92.4146 17.9519 91.6484 22.4086 90.2927C23.1566 90.0273 27.2099 88.5116 30.6448 86.1661C29.9874 88.0545 27.32 95.7868 25.0464 103.486C25.0054 103.625 25.0496 103.774 25.1594 103.867C28.4691 106.697 32.4557 108.662 37.0209 109.715C37.1364 112.258 37.0961 114.941 36.7029 116.808C36.617 116.842 36.5451 116.907 36.504 116.995C36.4337 117.148 36.3346 117.344 36.2185 117.57C35.4567 119.063 34.0372 121.843 35.8897 122.818C36.8748 123.337 38.8256 123.823 40.5967 123.613C41.021 123.563 41.4328 123.47 41.8215 123.331C41.9576 123.498 42.134 123.643 42.3588 123.763C43.3439 124.281 45.2947 124.767 47.0658 124.558C47.5307 124.503 47.9827 124.401 48.4025 124.237C49.4293 123.839 50.1267 123.146 50.475 122.181C51.086 120.485 51.2914 119.359 51.0914 118.814C52.2164 117.093 53.1386 113.608 53.2238 110.011C60.1096 108.938 65.1892 106.832 65.2454 106.809C65.4194 106.735 65.5099 106.542 65.4532 106.362C65.4015 106.198 60.4117 90.4744 59.0198 86.6335C59.5784 86.3743 60.1044 86.0881 60.6018 85.7847C62.8986 87.0905 65.2916 88.002 67.0688 88.727C71.5174 90.114 73.6033 90.8953 76.4301 89.2995C79.2765 87.694 75.4757 88.1072 76.0959 87.9454C76.7176 87.7833 79.5623 85.4046 79.0403 82.8631C78.5305 80.3866 72.8384 82.9803 72.5521 83.1129C71.023 82.8033 68.7896 81.3367 66.62 79.6121C67.304 78.4704 67.6301 77.6539 67.6665 77.5627C67.724 77.4144 67.6789 77.2444 67.555 77.1442C67.166 76.8323 57.9244 69.4702 50.6075 67.7113C50.5089 67.6876 50.405 67.7058 50.3217 67.7613C50.1644 67.8639 50.0108 67.9602 49.8568 68.0536C48.8419 67.2338 48.4645 66.1618 48.3529 65.2439C48.5553 65.2243 48.756 65.202 48.9551 65.1785C53.879 64.5954 57.4086 63.0239 58.9199 62.2379C59.6027 61.883 60.1507 61.5839 60.5991 61.3142C59.9554 64.7613 59.0408 67.3152 57.7405 67.6062C61.3826 67.5078 64.0316 63.128 65.6532 57.563C66.2328 57.456 66.7827 57.3217 67.3073 57.1609C67.7867 59.6175 68.2675 61.5126 68.7357 62.5547C71.689 69.1308 79.7074 72.0117 85.2754 71.2684C83.3435 71.3646 75.7269 68.5053 79.5946 61.1804L79.5872 61.1798Z" fill="#634C37"/>
<path d="M85.5465 72.7125C85.4825 72.72 85.4125 72.7254 85.3407 72.7295L85.074 69.8175L85.1772 69.8053C85.2077 69.8017 85.2367 69.7982 85.2671 69.7932L85.8408 72.6599C85.7492 72.6826 85.6511 72.7001 85.5479 72.7123L85.5465 72.7125Z" fill="#634C37"/>
<path d="M85.487 71.2404C85.4147 71.2519 85.3417 71.2576 85.2694 71.2691C85.3529 71.2651 85.427 71.2563 85.487 71.2404Z" fill="#634C37"/>
<path d="M15.697 71.3871C15.5159 71.3629 15.3553 71.3259 15.2063 71.2743L16.0261 68.4679C16.0549 68.4748 16.0866 68.4814 16.1154 68.4883L16.2153 68.5103L15.697 71.3871Z" fill="#634C37"/>
<path d="M62.2075 14.3701C62.4399 9.46461 72.4934 1.27614 79.7356 13.0915C88.3968 27.2227 83.622 53.5376 79.587 61.1798C75.552 68.8221 84.0154 71.6032 85.4868 71.2389C79.9122 72.0876 71.7194 69.2155 68.728 62.5541C65.7366 55.8927 62.2089 14.3699 62.2089 14.3699L62.2075 14.3701Z" fill="#CA6EB0"/>
<path d="M85.1239 71.6576C79.2396 72.3544 71.3128 69.2033 68.3937 62.7042C67.1372 59.9065 65.6535 50.923 63.9826 36.0038C62.7401 24.9144 61.852 14.5035 61.8442 14.3998L61.8429 14.3514C61.9714 11.6548 64.9033 7.93536 68.9084 6.90861C74.5232 5.46585 78.2978 10.0441 80.0488 12.8997C82.7277 17.2704 85.725 25.45 84.789 39.5921C84.1385 49.4265 81.805 57.7644 79.912 61.3491C78.5065 64.0112 78.522 66.2944 79.9595 68.1322C81.5552 70.1738 84.3579 70.9498 85.2482 70.9033C85.3107 70.8959 85.3713 70.8857 85.4322 70.8771L85.5745 71.5939C85.5144 71.6084 85.4435 71.6197 85.3662 71.6259C85.2864 71.6369 85.2052 71.6479 85.1239 71.6576ZM62.5752 14.3648C62.6786 15.5739 66.1594 55.9414 69.0626 62.4055C71.4638 67.7534 77.4389 70.7216 82.6448 71.0024C81.4962 70.5093 80.2679 69.7163 79.3825 68.5851C78.2611 67.1518 77.3311 64.6734 79.2649 61.0103C81.123 57.4916 83.4147 49.2735 84.0587 39.546C84.9819 25.594 82.048 17.5645 79.4255 13.2844C76.5857 8.64988 72.9148 6.63897 69.0913 7.61917C66.1387 8.3769 62.7332 11.4188 62.5767 14.3647L62.5752 14.3648Z" fill="#634C37"/>
<path d="M43.8143 15.2591C44.0082 10.3523 34.706 1.32077 26.4636 12.4623C16.6074 25.7882 19.0772 52.4179 22.432 60.3814C25.7868 68.3448 17.1143 70.3795 15.6804 69.8908C21.1596 71.222 29.5709 69.0724 33.1309 62.6944C36.6897 56.3181 43.8143 15.2591 43.8143 15.2591Z" fill="#CA6EB0"/>
<path d="M21.0845 70.5134C19.2204 70.7341 17.3947 70.6572 15.7671 70.2871C15.6904 70.2741 15.6207 70.2573 15.5624 70.2377L15.7665 69.5358C15.8272 69.5507 15.8863 69.5644 15.9468 69.5778C16.8307 69.7015 19.6895 69.1715 21.457 67.2767C23.048 65.5709 23.2637 63.2986 22.0937 60.5231C20.5199 56.7877 18.9201 48.279 19.1263 38.425C19.2903 30.6033 20.6451 19.7117 26.1683 12.2453C28.161 9.55195 32.3186 5.32197 37.7869 7.24526C41.687 8.61615 44.285 12.578 44.1784 15.2734L44.1738 15.3211C44.1564 15.4233 42.3669 25.7167 40.1648 36.6571C37.2034 51.3749 34.9447 60.1947 33.4496 62.8718C30.9154 67.4119 25.8761 69.9445 21.0843 70.5119L21.0845 70.5134ZM18.5339 69.9005C23.7447 70.0732 29.9534 67.6363 32.8123 62.5171C36.2668 56.3299 43.2413 16.4171 43.4503 15.2211C43.5491 12.2732 40.4221 8.94567 37.5459 7.93528C33.8226 6.62597 29.9912 8.3113 26.7591 12.6807C21.3503 19.9935 20.0223 30.7258 19.8605 38.4412C19.6564 48.1889 21.2254 56.5745 22.7705 60.2411C24.379 64.0579 23.2356 66.4459 21.9937 67.7775C21.0145 68.8274 19.7223 69.5108 18.534 69.902L18.5339 69.9005Z" fill="#634C37"/>
<path d="M24.8329 25.3415C24.8329 25.3415 30.5452 10.7753 47.8132 10.5971C65.0812 10.4188 74.6048 19.2046 76.0277 31.1713C77.7162 45.368 76.179 57.6056 62.5113 57.8673" fill="#CA6EB0"/>
<path d="M64.5496 58.0973C63.8972 58.1746 63.2189 58.2196 62.5164 58.2335C62.3149 58.2367 62.1472 58.0769 62.1439 57.8754C62.1405 57.6725 62.3008 57.5077 62.502 57.503C66.8945 57.4204 70.1312 56.1134 72.3971 53.5129C75.9496 49.4356 76.9876 42.3501 75.6632 31.2159C74.9454 25.1796 72.1878 20.1317 67.6908 16.6186C62.7767 12.7808 56.091 10.8779 47.8168 10.9635C39.0362 11.053 33.3526 14.9878 30.1303 18.2702C26.6281 21.8392 25.1878 25.4395 25.1728 25.4751C25.0992 25.6621 24.8863 25.7551 24.6993 25.6815C24.5108 25.608 24.4193 25.3949 24.4929 25.208C24.5531 25.0565 25.9903 21.455 29.5876 17.7805C32.9088 14.3877 38.7658 10.3248 47.8112 10.2319C56.2561 10.1453 63.0967 12.0991 68.1441 16.042C72.7985 19.6778 75.6514 24.8956 76.3926 31.1296C77.7429 42.4831 76.6497 49.749 72.952 53.9938C70.9443 56.2985 68.1239 57.6755 64.5541 58.0983L64.5496 58.0973Z" fill="#634C37"/>
<path d="M36.4848 102.314C37.0561 103.294 38.3952 115.709 36.3562 118.796C40.0387 120.904 42.4678 120.217 44.1773 117.869C45.8868 115.522 47.4219 108.081 45.5023 102.906C43.5826 97.7312 36.4848 102.314 36.4848 102.314Z" fill="#FFD7C7"/>
<path d="M40.8939 120.4C42.2814 120.236 43.4675 119.465 44.4736 118.083C46.3542 115.5 47.7596 107.935 45.8464 102.777C45.3745 101.504 44.5654 100.669 43.4427 100.295C40.5026 99.3173 36.4586 101.894 36.2875 102.004L35.9946 102.194L36.1703 102.495C36.6178 103.263 38.0312 115.598 36.0521 118.591L35.8373 118.917L36.1755 119.112C37.9568 120.132 39.5238 120.563 40.8953 120.4L40.8939 120.4ZM41.3084 100.847C41.968 100.769 42.6223 100.794 43.2126 100.99C44.1267 101.294 44.7643 101.962 45.1604 103.031C46.965 107.894 45.6295 115.253 43.8834 117.652C42.179 119.993 39.941 120.316 36.8596 118.655C38.6123 115.18 37.5486 104.679 36.9292 102.472C37.5878 102.086 39.4719 101.064 41.3099 100.847L41.3084 100.847Z" fill="#634C37"/>
<path d="M44.1772 117.869C43.2946 117.98 41.2373 118.609 36.8332 117.151C36.3048 118.299 34.2778 121.561 36.0563 122.497C37.8363 123.432 42.567 124.14 43.6568 121.113C44.7467 118.088 44.1756 117.868 44.1756 117.868L44.1772 117.869Z" fill="#6389D3"/>
<path d="M40.594 123.615C41.0589 123.56 41.5109 123.458 41.9306 123.295C42.9575 122.896 43.6548 122.204 44.0017 121.239C44.8056 119.008 44.9083 117.759 44.3078 117.528C44.2522 117.507 44.1902 117.505 44.1314 117.507C44.0253 117.519 43.9025 117.54 43.7624 117.563C42.7874 117.728 40.7574 118.065 36.9484 116.804C36.7706 116.746 36.5788 116.83 36.5015 116.999C36.4312 117.151 36.3321 117.347 36.2159 117.573C35.4542 119.066 34.0346 121.846 35.8871 122.822C36.8723 123.34 38.8231 123.826 40.5942 123.617L40.594 123.615ZM43.9584 118.273C43.982 118.547 43.9337 119.271 43.3137 120.99C43.0411 121.749 42.4855 122.295 41.6658 122.613C39.9376 123.285 37.3978 122.789 36.2274 122.174C35.0146 121.537 36.22 119.176 36.8669 117.907C36.9231 117.797 36.9757 117.694 37.0233 117.598C40.8091 118.8 42.8765 118.455 43.8819 118.286C43.908 118.283 43.9324 118.277 43.9571 118.274L43.9584 118.273Z" fill="#634C37"/>
<path d="M42.9523 103.258C43.5236 104.238 44.8627 116.654 42.8238 119.74C46.5062 121.848 48.9353 121.161 50.6448 118.814C52.3543 116.467 53.8894 109.026 51.9698 103.851C50.0502 98.6758 42.9523 103.258 42.9523 103.258Z" fill="#FFD7C7"/>
<path d="M47.3614 121.345C48.7489 121.181 49.935 120.41 50.9412 119.028C52.8217 116.445 54.2271 108.88 52.3139 103.722C51.842 102.449 51.033 101.613 49.9102 101.24C46.9701 100.262 42.9261 102.839 42.755 102.949L42.4607 103.138L42.6364 103.44C43.0838 104.208 44.4973 116.542 42.5196 119.536L42.3048 119.862L42.6431 120.056C44.4243 121.077 45.9913 121.507 47.3629 121.345L47.3614 121.345ZM47.7745 101.792C48.4341 101.713 49.0884 101.739 49.6787 101.934C50.5928 102.239 51.2304 102.907 51.6265 103.976C53.4311 108.839 52.0956 116.198 50.3495 118.597C48.6451 120.938 46.407 121.261 43.3257 119.6C45.0786 116.126 44.0147 105.624 43.3953 103.417C44.0538 103.031 45.938 102.009 47.776 101.791L47.7745 101.792Z" fill="#634C37"/>
<path d="M50.6448 118.813C49.7621 118.923 47.7048 119.553 43.3008 118.094C42.7723 119.242 40.7453 122.504 42.5238 123.44C44.3038 124.375 49.0345 125.083 50.1243 122.056C51.2143 119.031 50.6431 118.811 50.6431 118.811L50.6448 118.813Z" fill="#6389D3"/>
<path d="M47.0615 124.56C47.5265 124.505 47.9785 124.403 48.3982 124.239C49.425 123.841 50.1224 123.148 50.4707 122.183C51.2746 119.952 51.3773 118.704 50.7768 118.473C50.7212 118.451 50.6629 118.444 50.6004 118.451C50.4943 118.463 50.3715 118.484 50.2314 118.508C49.2549 118.672 47.2266 119.011 43.4174 117.749C43.2411 117.69 43.0478 117.775 42.9705 117.943C42.9001 118.096 42.8011 118.292 42.6849 118.518C41.9232 120.01 40.5036 122.79 42.3561 123.766C43.3413 124.284 45.292 124.771 47.0632 124.561L47.0615 124.56ZM50.4259 119.217C50.4495 119.491 50.4013 120.216 49.7813 121.935C49.5087 122.694 48.9531 123.24 48.1333 123.558C46.4051 124.229 43.8653 123.733 42.695 123.119C41.4821 122.482 42.6876 120.12 43.3344 118.852C43.3907 118.742 43.4432 118.638 43.4909 118.543C47.2781 119.745 49.3439 119.398 50.3509 119.23C50.377 119.227 50.4014 119.221 50.4261 119.219L50.4259 119.217Z" fill="#634C37"/>
<path d="M37.7681 109.854L37.8062 111.196C39.8839 111.697 41.7095 111.897 43.5319 111.673L43.4889 110.501C43.2862 110.544 37.9407 109.956 37.7681 109.854Z" fill="#F3A49F"/>
<path d="M44.2263 110.521L44.2666 111.919C46.9747 112.282 49.5534 112.322 52.3252 112.115C52.4299 111.432 52.4761 110.727 52.4746 110.005C52.1432 110.031 44.3989 110.623 44.2263 110.521Z" fill="#F3A49F"/>
<path d="M29.7168 74.7094C29.3041 75.7277 20.8452 83.8835 16.9632 84.6437C16.6777 84.5096 11.003 81.8756 10.4769 84.3496C9.93611 86.8873 12.7659 89.285 13.3853 89.4518C14.0061 89.6185 10.2074 89.1784 13.043 90.8036C15.8595 92.4177 17.9507 91.6515 22.4075 90.2957C23.5188 89.9019 31.9402 86.7419 34.7666 82.2055C37.6842 77.5198 29.717 74.7109 29.717 74.7109L29.7168 74.7094Z" fill="#FFD7C7"/>
<path d="M59.8603 73.092C60.2656 74.1136 68.6682 82.3279 72.5447 83.1137C72.831 82.9811 78.5244 80.3858 79.0329 82.864C79.5563 85.4052 76.7102 87.7842 76.0885 87.9462C75.4668 88.1082 79.2676 87.695 76.4213 89.3005C73.5943 90.8949 71.5084 90.1136 67.06 88.7281C63.5257 87.2859 57.5515 85.1087 54.7564 80.5529C51.8713 75.8472 59.8576 73.0938 59.8576 73.0938L59.8603 73.092Z" fill="#FFD7C7"/>
<path d="M48.0904 63.2271C48.0904 63.2271 47.1481 66.8156 50.0751 68.6656C51.5481 69.5961 51.832 71.8313 47.6494 72.2058C43.4669 72.5803 37.0386 70.4878 39.065 68.477C40.614 66.9396 42.9616 67.9522 42.5363 63.328C42.111 58.7037 48.0906 63.2286 48.0906 63.2286L48.0904 63.2271Z" fill="#FFD7C7"/>
<path d="M48.0053 72.5364C50.5988 72.2293 51.2363 71.1932 51.3825 70.5866C51.5774 69.7812 51.1408 68.9063 50.2713 68.3566C47.6104 66.6754 48.4093 63.456 48.4448 63.3207L48.5053 63.0852L48.311 62.9373C47.9354 62.6518 44.5874 60.1828 42.9672 61.0818C42.3326 61.4339 42.0656 62.2022 42.1718 63.3608C42.4459 66.347 41.5521 66.7372 40.4187 67.2309C39.9017 67.4557 39.3162 67.7121 38.8073 68.2173C38.3184 68.7039 38.1882 69.2718 38.4413 69.8164C38.9691 70.9516 40.9772 71.6611 42.1262 71.9833C43.964 72.4979 46.0408 72.7175 47.6808 72.5704C47.7916 72.5602 47.9007 72.5488 48.0053 72.5364ZM47.686 63.3826C47.5315 64.2672 47.2243 67.2972 49.8804 68.9745C50.4712 69.348 50.7901 69.926 50.6712 70.4145C50.4903 71.1637 49.3763 71.6846 47.6166 71.8414C44.351 72.1338 39.7371 70.8681 39.1046 69.508C39.0217 69.3307 38.9732 69.0831 39.3225 68.7353C39.7351 68.3255 40.231 68.1091 40.7116 67.9004C41.9459 67.3624 43.2235 66.8045 42.9005 63.2937C42.8225 62.4484 42.9646 61.9189 43.3227 61.7203C44.1907 61.2374 46.379 62.4354 47.686 63.3826Z" fill="#634C37"/>
<path d="M47.0708 64.6576C45.8855 66.2064 44.293 66.4067 42.6294 66.3666C42.6968 66.1774 42.7439 64.7958 42.7439 64.7958C42.7439 64.7958 45.4101 64.8543 47.0708 64.6576Z" fill="#F3A49F"/>
<path d="M64.718 49.8272C65.4729 48.0156 67.1727 45.2758 68.9065 47.2642C70.6389 49.2527 70.7944 55.7667 64.5193 55.5772C61.8137 53.7305 64.7194 49.827 64.7194 49.827L64.718 49.8272Z" fill="#FFD7C7"/>
<path d="M65.7367 55.8927C68.0904 55.614 69.2185 54.3033 69.757 53.1655C70.7635 51.0398 70.2724 48.2737 69.183 47.0237C68.6305 46.3894 68.0245 46.1238 67.381 46.2265C65.8922 46.4691 64.8104 48.6671 64.3989 49.6469C64.1726 49.9625 62.731 52.0587 63.0474 53.9468C63.1819 54.7471 63.6081 55.3978 64.3149 55.8799L64.4031 55.9402L64.5096 55.9438C64.9532 55.9575 65.362 55.9386 65.7383 55.894L65.7367 55.8927ZM67.5364 46.9417C67.9055 46.898 68.2632 47.0826 68.6298 47.5032C69.5487 48.5568 69.9648 51.0135 69.0952 52.852C68.3458 54.4361 66.8069 55.2504 64.6381 55.2125C64.1474 54.8508 63.8623 54.3969 63.7666 53.8248C63.4818 52.1289 64.9964 50.0638 65.0116 50.0429L65.0383 50.0073L65.0554 49.9655C65.5958 48.6684 66.5591 47.0987 67.4972 46.9464C67.5103 46.9448 67.5233 46.9433 67.5379 46.9416L67.5364 46.9417Z" fill="#634C37"/>
<path d="M63.3684 56.7949C62.0322 59.7567 62.4958 59.9641 58.7415 61.9143C53.8394 64.4616 43.6131 67.2961 31.5257 62.1788C24.5459 59.2235 25.4253 54.9795 25.1763 50.6997C24.929 46.4212 24.9956 41.1862 25.9369 37.2281C26.8783 33.2715 28.0038 26.1918 33.5563 25.4798C39.1088 24.7677 59.1156 29.0931 63.3207 36.3238C68.5688 45.3462 65.8604 51.2639 63.3638 56.794L63.3684 56.7949Z" fill="#FFD7C7"/>
<path d="M48.9462 65.1795C53.8702 64.5964 57.3997 63.0249 58.9111 62.239C62.0907 60.5866 62.3478 60.1569 63.1854 58.1484C63.33 57.8013 63.494 57.4076 63.703 56.9453L63.7334 56.8784C66.1855 51.4463 68.9645 45.2905 63.6424 36.1413C61.1079 31.783 53.4151 28.9033 49.056 27.575C43.1516 25.7755 36.6722 24.744 33.5905 25.1089C33.5644 25.112 33.5397 25.1149 33.515 25.1178C28.1641 25.803 26.7553 32.0087 25.8227 36.1146C25.7402 36.475 25.6632 36.82 25.5852 37.1445C24.4964 41.7227 24.6344 47.6156 24.8151 50.7219C24.8453 51.2502 24.859 51.7892 24.872 52.3092C24.9641 56.0109 25.0607 59.8373 31.386 62.5165C38.1595 65.3843 44.2026 65.7427 48.9479 65.1808L48.9462 65.1795ZM63.0353 56.6443C62.823 57.1158 62.6567 57.5156 62.5098 57.8674C61.7536 59.6807 61.6185 60.0075 58.5734 61.5895C55.6769 63.0949 45.1782 67.5616 31.67 61.842C25.779 59.3471 25.6929 55.9202 25.602 52.2906C25.5883 51.7647 25.5754 51.2197 25.5438 50.6798C25.3665 47.6143 25.2276 41.8011 26.2962 37.3138C26.374 36.9878 26.4521 36.6397 26.536 36.2777C27.4228 32.3702 28.7639 26.4642 33.6083 25.8434C33.633 25.8405 33.6577 25.8375 33.6824 25.8346C37.0299 25.4382 43.9715 26.7893 48.8428 28.275C58.7609 31.2978 61.9771 34.7312 63.0112 36.5092C68.1445 45.3331 65.564 51.05 63.0673 56.5786L63.0369 56.6456L63.0353 56.6443Z" fill="#634C37"/>
<path d="M50.4483 43.1268C50.4068 43.1376 50.2914 43.1336 50.2358 43.124C49.5018 43.0223 48.8153 42.6867 48.1964 42.2752C47.4632 41.7816 46.858 41.1122 46.3846 40.3624C46.3773 40.35 46.359 40.3448 46.3468 40.3536C46.8443 41.6192 47.8926 42.7208 49.1004 43.3895C49.5506 43.6206 50.0408 43.866 50.5674 43.8464C51.0139 43.8097 51.0093 43.162 50.5637 43.1308L50.4481 43.1253L50.4483 43.1268Z" fill="#634C37"/>
<path d="M32.1537 42.2877C32.1446 42.2859 32.1429 42.2964 32.1027 42.2923C32.078 42.2952 32.0254 42.2867 32.0013 42.2822C30.6619 41.9694 29.6334 40.861 28.9518 39.7086C28.9382 39.6807 28.8905 39.7011 28.9045 39.7319C29.0523 40.0842 29.2077 40.4385 29.4117 40.7679C29.9918 41.7231 30.8223 42.6148 31.9142 42.9776C32.0202 43.0019 32.1125 43.0219 32.2428 43.0153C32.661 43.0011 32.7099 42.406 32.3048 42.3199L32.1539 42.2892L32.1537 42.2877Z" fill="#634C37"/>
<path d="M73.3293 29.2953C74.3207 28.7903 74.5902 27.332 73.9311 26.0382C73.2721 24.7444 71.9341 24.105 70.9426 24.61C69.9512 25.115 69.6817 26.5732 70.3408 27.867C70.9998 29.1608 72.3378 29.8003 73.3293 29.2953Z" fill="#FFE9E6"/>
<path d="M33.7921 22.9164L31.6944 29.7988L67.0704 35.8267L67.74 28.9528L33.7921 22.9164Z" fill="#CA6EB0"/>
<path d="M69.0267 30.1233C69.5885 29.9093 69.8175 29.1415 69.5382 28.4083C69.2589 27.6751 68.5771 27.2542 68.0153 27.4682C67.4535 27.6822 67.2245 28.4501 67.5038 29.1832C67.7831 29.9164 68.4649 30.3373 69.0267 30.1233Z" fill="#FFE9E6"/>
<path d="M45.7507 52.4887C47.2227 55.887 51.24 57.0289 54.1999 55.7473C57.1597 54.4657 58.365 50.6723 56.893 47.274C55.4209 43.8756 51.8956 42.3352 48.9372 43.6166C45.9774 44.8982 44.2801 49.0902 45.7519 52.4871L45.7507 52.4887Z" fill="white"/>
<path d="M52.5047 56.4976C53.1352 56.4229 53.7482 56.262 54.3144 56.0167C55.8236 55.3621 56.9502 54.0766 57.4847 52.3942C58.015 50.727 57.8994 48.8667 57.1595 47.1599C55.641 43.6551 51.9777 41.9822 48.8189 43.3507C45.5817 44.7535 43.9899 49.1644 45.4803 52.6062C46.7598 55.5603 49.8037 56.8175 52.5032 56.4978L52.5047 56.4976ZM50.4979 43.4951C52.9577 43.2038 55.4649 44.719 56.6226 47.3914C57.306 48.9694 57.4146 50.6832 56.9274 52.2171C56.4443 53.7358 55.4337 54.8941 54.0814 55.48C51.35 56.6623 47.4581 55.6971 46.017 52.3732C44.6726 49.2691 46.1467 45.1448 49.0503 43.8861C49.5225 43.6813 50.0097 43.5529 50.4965 43.4953L50.4979 43.4951Z" fill="#634C37"/>
<path d="M52.9702 55.1681C55.7924 54.8339 57.8092 52.2753 57.4751 49.4532C57.1409 46.6312 54.5822 44.6144 51.7601 44.9485C48.9379 45.2827 46.9211 47.8414 47.2552 50.6634C47.5894 53.4855 50.1481 55.5023 52.9702 55.1681Z" fill="#634C37"/>
<path d="M52.9746 55.2413C53.1373 55.222 53.2992 55.1955 53.4629 55.1599C56.2759 54.5542 58.0726 51.7736 57.4669 48.9606C57.1729 47.5974 56.3675 46.4316 55.1964 45.6746C54.0255 44.9189 52.6295 44.6629 51.2676 44.9568C49.9043 45.2508 48.7385 46.0562 47.9814 47.2273C47.2258 48.3981 46.9697 49.7941 47.2636 51.156C47.8338 53.8066 50.3361 55.5537 52.9746 55.2413ZM51.7775 45.0202C52.9456 44.8818 54.115 45.1514 55.1167 45.7974C56.2541 46.532 57.0382 47.6663 57.3232 48.9909C57.9121 51.7248 56.1653 54.4288 53.4312 55.0163C50.6974 55.6067 47.9932 53.8585 47.4057 51.1244C47.1207 49.7998 47.3681 48.4431 48.1041 47.3055C48.8387 46.1681 49.9731 45.3841 51.2977 45.0991C51.4571 45.064 51.6175 45.0376 51.7773 45.0187L51.7775 45.0202Z" fill="#634C37"/>
<path d="M54.6537 50.4341C55.6896 50.3114 56.43 49.3722 56.3073 48.3363C56.1846 47.3004 55.2454 46.5601 54.2095 46.6828C53.1735 46.8054 52.4332 47.7446 52.5559 48.7805C52.6785 49.8165 53.6178 50.5568 54.6537 50.4341Z" fill="white"/>
<path d="M54.6608 50.5069C54.7218 50.4997 54.7825 50.4896 54.8443 50.4763C55.3571 50.3655 55.7957 50.0631 56.0795 49.6229C56.3633 49.1827 56.4589 48.6587 56.3495 48.1457C56.1212 47.0884 55.0763 46.4136 54.0188 46.6405C53.506 46.7513 53.0674 47.0537 52.7836 47.4939C52.4998 47.9342 52.4042 48.4582 52.5136 48.9712C52.7273 49.9668 53.6685 50.6244 54.6608 50.5069ZM54.2195 46.7552C55.1377 46.6465 56.0083 47.255 56.2058 48.176C56.3076 48.6501 56.2192 49.1349 55.9566 49.5432C55.6941 49.9514 55.2882 50.2308 54.814 50.3326C53.8341 50.5429 52.8673 49.9178 52.6572 48.9394C52.5553 48.4653 52.6438 47.9805 52.9063 47.5722C53.169 47.1654 53.5748 46.8846 54.0489 46.7828C54.1049 46.7703 54.1627 46.7605 54.2193 46.7538L54.2195 46.7552Z" fill="#634C37"/>
<path d="M27.3077 48.3318C27.2999 51.6372 29.8279 54.3359 32.7061 54.3428C35.5842 54.3496 37.9254 51.6754 37.9332 48.37C37.941 45.0645 35.6149 42.3788 32.7353 42.3721C29.8571 42.3652 27.3156 45.0263 27.3063 48.3319L27.3077 48.3318Z" fill="white"/>
<path d="M33.298 54.6012C34.5519 54.4527 35.7134 53.8231 36.6166 52.791C37.6509 51.6092 38.2223 50.0403 38.2265 48.3706C38.2306 46.7009 37.6672 45.1279 36.6384 43.943C35.6009 42.7458 34.2142 42.0835 32.7361 42.0803C31.2696 42.0757 29.8091 42.7436 28.729 43.9116C27.6268 45.1044 27.017 46.6734 27.013 48.3313C27.0091 49.9906 27.6099 51.5681 28.7057 52.7716C29.781 53.9525 31.2375 54.6316 32.704 54.6362C32.9029 54.6362 33.1006 54.6261 33.2967 54.6028L33.298 54.6012ZM32.2182 42.6955C32.3896 42.6752 32.5623 42.6651 32.7347 42.6653C34.0404 42.6683 35.2697 43.2579 36.1962 44.3268C37.1315 45.4065 37.6448 46.8425 37.6416 48.3706C37.6384 49.8988 37.1171 51.3321 36.1763 52.407C35.2459 53.4704 34.014 54.0538 32.7069 54.051C31.4055 54.0474 30.1047 53.4383 29.1409 52.3783C28.1433 51.2824 27.5961 49.846 27.5997 48.334C27.6035 46.8235 28.1576 45.3936 29.1593 44.31C29.9991 43.4018 31.0923 42.8303 32.2169 42.6972L32.2182 42.6955Z" fill="#634C37"/>
<path d="M34.2549 52.9764C36.6301 52.6951 38.3276 50.5417 38.0463 48.1666C37.7651 45.7914 35.6116 44.094 33.2364 44.3753C30.8613 44.6566 29.1638 46.81 29.445 49.1851C29.7263 51.5602 31.8798 53.2576 34.2549 52.9764Z" fill="#634C37"/>
<path d="M34.2737 53.0478C35.2224 52.9355 36.1042 52.5187 36.8051 51.8435C37.6514 51.0272 38.1283 49.9292 38.1497 48.7539C38.1923 46.3269 36.2527 44.3172 33.8254 44.2732C32.6501 44.2517 31.5352 44.6902 30.6891 45.5079C29.8429 46.3241 29.3659 47.4222 29.3445 48.5974C29.3231 49.7726 29.7615 50.8875 30.5792 51.7336C31.3954 52.5798 32.4935 53.0568 33.6688 53.0782C33.8726 53.082 34.0746 53.0714 34.2737 53.0478ZM33.2377 44.4488C33.431 44.4259 33.6258 44.4161 33.8221 44.4194C36.1696 44.4611 38.0439 46.4048 38.002 48.7508C37.982 49.8876 37.5197 50.9485 36.7013 51.7379C35.8828 52.5272 34.8073 52.9507 33.669 52.9308C32.5322 52.9108 31.4712 52.4486 30.6819 51.6301C29.8925 50.8116 29.4689 49.7348 29.4889 48.598C29.509 47.4612 29.9712 46.4002 30.7897 45.6109C31.4652 44.9578 32.3193 44.5561 33.2361 44.4475L33.2377 44.4488Z" fill="#634C37"/>
<path d="M35.6249 48.745C36.5027 48.641 37.1301 47.8452 37.0261 46.9673C36.9222 46.0895 36.1263 45.4621 35.2484 45.5661C34.3706 45.67 33.7432 46.4659 33.8472 47.3438C33.9511 48.2216 34.747 48.849 35.6249 48.745Z" fill="white"/>
<path d="M35.6363 48.8173C35.9967 48.7746 36.3331 48.6169 36.5988 48.3601C36.92 48.0495 37.102 47.6331 37.1094 47.1858C37.1254 46.2631 36.3881 45.4989 35.4654 45.4829C34.5427 45.467 33.7785 46.2042 33.7625 47.1269C33.7551 47.5742 33.9215 47.9965 34.2322 48.3191C34.5428 48.6403 34.9592 48.8223 35.4065 48.8298C35.4833 48.831 35.561 48.8277 35.6365 48.8188L35.6363 48.8173ZM35.2556 45.6389C35.3238 45.6308 35.3926 45.6271 35.4636 45.629C36.3052 45.6443 36.9785 46.3409 36.9632 47.1825C36.9555 47.59 36.7899 47.9706 36.4964 48.2543C36.2029 48.5381 35.8172 48.6898 35.4082 48.6823C35.0007 48.6745 34.6201 48.5089 34.3364 48.2155C34.0526 47.922 33.9009 47.5363 33.9084 47.1273C33.9216 46.3552 34.5086 45.7259 35.2554 45.6375L35.2556 45.6389Z" fill="#634C37"/>
<path d="M39.8915 67.6425C39.8915 67.6425 43.8812 72.4207 50.5155 68.0669C57.837 69.8267 67.3207 77.4298 67.3207 77.4298C67.3207 77.4298 64.8963 83.6555 58.5534 86.4397C59.7589 89.6398 65.0993 106.471 65.0993 106.471C65.0993 106.471 40.7168 116.69 25.3976 103.59C28.0264 94.6851 31.1427 85.8537 31.1427 85.8537C31.1427 85.8537 25.9761 84.0641 23.3073 78.1866C31.4405 69.5198 39.8915 67.6425 39.8915 67.6425Z" fill="white"/>
<path d="M51.2349 110.285C59.1082 109.352 65.1779 106.836 65.2381 106.81C65.4121 106.736 65.5026 106.543 65.4459 106.363C65.3941 106.199 60.4044 90.4753 59.0125 86.6343C65.1873 83.7625 67.5598 77.8198 67.6593 77.565C67.7169 77.4167 67.6717 77.2468 67.5479 77.1465C67.1588 76.8346 57.9173 69.4725 50.6003 67.7136C50.5018 67.6899 50.3978 67.7081 50.3145 67.7636C44.0467 71.8781 40.3276 67.5938 40.1718 67.4104C40.0843 67.3059 39.9447 67.2591 39.8126 67.288C39.725 67.3072 37.6202 67.7848 34.4864 69.3389C31.6045 70.7689 27.2778 73.4219 23.0406 77.9382C22.9385 78.0461 22.9131 78.2053 22.9747 78.3394C25.3105 83.4829 29.4583 85.5523 30.6817 86.0674C30.09 87.7639 27.3633 95.6431 25.0467 103.489C25.0057 103.627 25.0499 103.777 25.1597 103.87C28.7022 106.899 33.02 108.937 37.9918 109.927C41.9572 110.717 46.345 110.845 51.0344 110.308C51.1012 110.301 51.1695 110.292 51.2363 110.285L51.2349 110.285ZM64.6455 106.26C63.3216 106.775 57.9107 108.758 51.1488 109.558C51.0762 109.567 51.0035 109.575 50.9309 109.584C46.32 110.111 42.0117 109.983 38.1232 109.208C33.364 108.258 29.2238 106.328 25.8147 103.467C28.3965 94.7503 31.4563 86.0641 31.4871 85.9764C31.519 85.8843 31.5143 85.7832 31.4715 85.6954C31.4287 85.6077 31.3544 85.5399 31.2622 85.5081C31.213 85.4903 26.3396 83.7382 23.7443 78.2571C30.9685 70.6482 38.4605 68.3983 39.7717 68.05C40.1324 68.4213 41.0967 69.2986 42.5948 69.8313C44.3175 70.445 47.0937 70.6982 50.5826 68.4597C57.1116 70.0968 65.4284 76.4178 66.8729 77.5432C66.3454 78.7121 63.8218 83.7268 58.406 86.1036C58.2282 86.1821 58.1418 86.3854 58.2105 86.5673C59.3064 89.4768 63.8977 103.901 64.6466 106.257L64.6455 106.26Z" fill="#634C37"/>
<path d="M56.5792 82.3348C56.5792 82.3348 56.7482 81.4853 57.4143 81.623C58.8839 81.9278 57.3853 83.9041 57.3853 83.9041C57.1828 83.5377 56.8208 82.9942 56.5792 82.3348Z" fill="#DDD7D7"/>
<path d="M32.7573 82.1341C32.7573 82.1341 32.6092 81.2809 31.94 81.4029C30.4632 81.672 31.9125 83.6838 31.9125 83.6838C32.1232 83.3229 32.4989 82.7879 32.7559 82.1342L32.7573 82.1341Z" fill="#DDD7D7"/>
<path d="M58.4631 86.4504C58.4631 86.4504 57.4662 84.0286 56.604 82.5454L58.4631 86.4504Z" fill="white"/>
<path d="M58.4976 86.741C58.5237 86.7379 58.5495 86.7319 58.5748 86.7215C58.7237 86.6597 58.7963 86.489 58.7345 86.3402C58.6932 86.2405 57.72 83.8821 56.858 82.4005C56.7767 82.2613 56.5972 82.2133 56.458 82.2946C56.3188 82.3759 56.2708 82.5554 56.3521 82.6946C57.194 84.1433 58.1835 86.5395 58.1937 86.5633C58.2451 86.6869 58.3713 86.7574 58.4992 86.7423L58.4976 86.741Z" fill="#634C37"/>
<path d="M31.129 86.1013C31.129 86.1013 31.9459 83.3203 32.571 82.4655L31.129 86.1013Z" fill="white"/>
<path d="M31.1635 86.3919C31.2768 86.3785 31.3764 86.2989 31.41 86.1844C31.4185 86.1569 32.2198 83.4426 32.8068 82.6394C32.9018 82.5088 32.8742 82.325 32.7436 82.23C32.613 82.1349 32.4308 82.1639 32.3341 82.2932C31.6876 83.1786 30.8817 85.9037 30.8482 86.0182C30.8032 86.1738 30.8916 86.3357 31.0458 86.3808C31.0855 86.3923 31.1241 86.3951 31.1619 86.3906L31.1635 86.3919Z" fill="#634C37"/>
<path d="M39.2291 56.0277C39.668 55.9758 39.9817 55.5778 39.9297 55.1389C39.8777 54.7 39.4798 54.3863 39.0408 54.4383C38.6019 54.4903 38.2882 54.8882 38.3402 55.3271C38.3922 55.766 38.7901 56.0797 39.2291 56.0277Z" fill="#F3A49F"/>
<path d="M38.382 55.3693C38.4314 55.3635 38.4777 55.3315 38.4986 55.2833L38.6411 54.9571C38.6736 54.8825 38.6398 54.7966 38.5667 54.764C38.4922 54.7316 38.4063 54.7654 38.3737 54.8385L38.2311 55.1647C38.1987 55.2393 38.2324 55.3251 38.3055 55.3577C38.3303 55.3681 38.3559 55.3724 38.382 55.3693Z" fill="#634C37"/>
<path d="M36.4848 102.314C37.0561 103.294 38.3952 115.709 36.3562 118.796C40.0387 120.904 42.4678 120.217 44.1773 117.869C45.8868 115.522 47.4219 108.081 45.5023 102.906C43.5826 97.7312 36.4848 102.314 36.4848 102.314Z" fill="#FFD7C7"/>
<path d="M40.8939 120.4C42.2814 120.236 43.4675 119.465 44.4736 118.083C46.3542 115.5 47.7596 107.935 45.8464 102.777C45.3745 101.504 44.5654 100.669 43.4427 100.295C40.5026 99.3173 36.4586 101.894 36.2875 102.004L35.9946 102.194L36.1703 102.495C36.6178 103.263 38.0312 115.598 36.0521 118.591L35.8373 118.917L36.1755 119.112C37.9568 120.132 39.5238 120.563 40.8953 120.4L40.8939 120.4ZM41.3084 100.847C41.968 100.769 42.6223 100.794 43.2126 100.99C44.1267 101.294 44.7643 101.962 45.1604 103.031C46.965 107.894 45.6295 115.253 43.8834 117.652C42.179 119.993 39.941 120.316 36.8596 118.655C38.6123 115.18 37.5486 104.679 36.9292 102.472C37.5878 102.086 39.4719 101.064 41.3099 100.847L41.3084 100.847Z" fill="#634C37"/>
<path d="M44.1772 117.869C43.2946 117.98 41.2373 118.609 36.8332 117.151C36.3048 118.299 34.2778 121.561 36.0563 122.497C37.8363 123.432 42.567 124.14 43.6568 121.113C44.7467 118.088 44.1756 117.868 44.1756 117.868L44.1772 117.869Z" fill="#6389D3"/>
<path d="M40.594 123.615C41.0589 123.56 41.5109 123.458 41.9306 123.295C42.9575 122.896 43.6548 122.204 44.0017 121.239C44.8056 119.008 44.9083 117.759 44.3078 117.528C44.2522 117.507 44.1902 117.505 44.1314 117.507C44.0253 117.519 43.9025 117.54 43.7624 117.563C42.7874 117.728 40.7574 118.065 36.9484 116.804C36.7706 116.746 36.5788 116.83 36.5015 116.999C36.4312 117.151 36.3321 117.347 36.2159 117.573C35.4542 119.066 34.0346 121.846 35.8871 122.822C36.8723 123.34 38.8231 123.826 40.5942 123.617L40.594 123.615ZM43.9584 118.273C43.982 118.547 43.9337 119.271 43.3137 120.99C43.0411 121.749 42.4855 122.295 41.6658 122.613C39.9376 123.285 37.3978 122.789 36.2274 122.174C35.0146 121.537 36.22 119.176 36.8669 117.907C36.9231 117.797 36.9757 117.694 37.0233 117.598C40.8091 118.8 42.8765 118.455 43.8819 118.286C43.908 118.283 43.9324 118.277 43.9571 118.274L43.9584 118.273Z" fill="#634C37"/>
<path d="M42.9523 103.258C43.5236 104.238 44.8627 116.654 42.8238 119.74C46.5062 121.848 48.9353 121.161 50.6448 118.814C52.3543 116.467 53.8894 109.026 51.9698 103.851C50.0502 98.6758 42.9523 103.258 42.9523 103.258Z" fill="#FFD7C7"/>
<path d="M47.3614 121.345C48.7489 121.181 49.935 120.41 50.9412 119.028C52.8217 116.445 54.2271 108.88 52.3139 103.722C51.842 102.449 51.033 101.613 49.9102 101.24C46.9701 100.262 42.9261 102.839 42.755 102.949L42.4607 103.138L42.6364 103.44C43.0838 104.208 44.4973 116.542 42.5196 119.536L42.3048 119.862L42.6431 120.056C44.4243 121.077 45.9913 121.507 47.3629 121.345L47.3614 121.345ZM47.7745 101.792C48.4341 101.713 49.0884 101.739 49.6787 101.934C50.5928 102.239 51.2304 102.907 51.6265 103.976C53.4311 108.839 52.0956 116.198 50.3495 118.597C48.6451 120.938 46.407 121.261 43.3257 119.6C45.0786 116.126 44.0147 105.624 43.3953 103.417C44.0538 103.031 45.938 102.009 47.776 101.791L47.7745 101.792Z" fill="#634C37"/>
<path d="M50.6448 118.813C49.7621 118.923 47.7048 119.553 43.3008 118.094C42.7723 119.242 40.7453 122.504 42.5238 123.44C44.3038 124.375 49.0345 125.083 50.1243 122.056C51.2143 119.031 50.6431 118.811 50.6431 118.811L50.6448 118.813Z" fill="#6389D3"/>
<path d="M47.0615 124.56C47.5265 124.505 47.9785 124.403 48.3982 124.239C49.425 123.841 50.1224 123.148 50.4707 122.183C51.2746 119.952 51.3773 118.704 50.7768 118.473C50.7212 118.451 50.6629 118.444 50.6004 118.451C50.4943 118.463 50.3715 118.484 50.2314 118.508C49.2549 118.672 47.2266 119.011 43.4174 117.749C43.2411 117.69 43.0478 117.775 42.9705 117.943C42.9001 118.096 42.8011 118.292 42.6849 118.518C41.9232 120.01 40.5036 122.79 42.3561 123.766C43.3413 124.284 45.292 124.771 47.0632 124.561L47.0615 124.56ZM50.4259 119.217C50.4495 119.491 50.4013 120.216 49.7813 121.935C49.5087 122.694 48.9531 123.24 48.1333 123.558C46.4051 124.229 43.8653 123.733 42.695 123.119C41.4821 122.482 42.6876 120.12 43.3344 118.852C43.3907 118.742 43.4432 118.638 43.4909 118.543C47.2781 119.745 49.3439 119.398 50.3509 119.23C50.377 119.227 50.4014 119.221 50.4261 119.219L50.4259 119.217Z" fill="#634C37"/>
<path d="M37.7681 109.854L37.8062 111.196C39.8839 111.697 41.7095 111.897 43.5319 111.673L43.4889 110.501C43.2862 110.544 37.9407 109.956 37.7681 109.854Z" fill="#F3A49F"/>
<path d="M44.2263 110.521L44.2666 111.919C46.9747 112.282 49.5534 112.322 52.3252 112.115C52.4299 111.432 52.4761 110.727 52.4746 110.005C52.1432 110.031 44.3989 110.623 44.2263 110.521Z" fill="#F3A49F"/>
<path d="M29.7168 74.7094C29.3041 75.7277 20.8452 83.8835 16.9632 84.6437C16.6777 84.5096 11.003 81.8756 10.4769 84.3496C9.93611 86.8873 12.7659 89.285 13.3853 89.4518C14.0061 89.6185 10.2074 89.1784 13.043 90.8036C15.8595 92.4177 17.9507 91.6515 22.4075 90.2957C23.5188 89.9019 31.9402 86.7419 34.7666 82.2055C37.6842 77.5198 29.717 74.7109 29.717 74.7109L29.7168 74.7094Z" fill="#FFD7C7"/>
<path d="M59.8603 73.092C60.2656 74.1136 68.6682 82.3279 72.5447 83.1137C72.831 82.9811 78.5244 80.3858 79.0329 82.864C79.5563 85.4052 76.7102 87.7842 76.0885 87.9462C75.4668 88.1082 79.2676 87.695 76.4213 89.3005C73.5943 90.8949 71.5084 90.1136 67.06 88.7281C63.5257 87.2859 57.5515 85.1087 54.7564 80.5529C51.8713 75.8472 59.8576 73.0938 59.8576 73.0938L59.8603 73.092Z" fill="#FFD7C7"/>
<path d="M48.0904 63.2271C48.0904 63.2271 47.1481 66.8156 50.0751 68.6656C51.5481 69.5961 51.832 71.8313 47.6494 72.2058C43.4669 72.5803 37.0386 70.4878 39.065 68.477C40.614 66.9396 42.9616 67.9522 42.5363 63.328C42.111 58.7037 48.0906 63.2286 48.0906 63.2286L48.0904 63.2271Z" fill="#FFD7C7"/>
<path d="M48.0053 72.5364C50.5988 72.2293 51.2363 71.1932 51.3825 70.5866C51.5774 69.7812 51.1408 68.9063 50.2713 68.3566C47.6104 66.6754 48.4093 63.456 48.4448 63.3207L48.5053 63.0852L48.311 62.9373C47.9354 62.6518 44.5874 60.1828 42.9672 61.0818C42.3326 61.4339 42.0656 62.2022 42.1718 63.3608C42.4459 66.347 41.5521 66.7372 40.4187 67.2309C39.9017 67.4557 39.3162 67.7121 38.8073 68.2173C38.3184 68.7039 38.1882 69.2718 38.4413 69.8164C38.9691 70.9516 40.9772 71.6611 42.1262 71.9833C43.964 72.4979 46.0408 72.7175 47.6808 72.5704C47.7916 72.5602 47.9007 72.5488 48.0053 72.5364ZM47.686 63.3826C47.5315 64.2672 47.2243 67.2972 49.8804 68.9745C50.4712 69.348 50.7901 69.926 50.6712 70.4145C50.4903 71.1637 49.3763 71.6846 47.6166 71.8414C44.351 72.1338 39.7371 70.8681 39.1046 69.508C39.0217 69.3307 38.9732 69.0831 39.3225 68.7353C39.7351 68.3255 40.231 68.1091 40.7116 67.9004C41.9459 67.3624 43.2235 66.8045 42.9005 63.2937C42.8225 62.4484 42.9646 61.9189 43.3227 61.7203C44.1907 61.2374 46.379 62.4354 47.686 63.3826Z" fill="#634C37"/>
<path d="M47.0708 64.6576C45.8855 66.2064 44.293 66.4067 42.6294 66.3666C42.6968 66.1774 42.7439 64.7958 42.7439 64.7958C42.7439 64.7958 45.4101 64.8543 47.0708 64.6576Z" fill="#F3A49F"/>
<path d="M64.718 49.8272C65.4729 48.0156 67.1727 45.2758 68.9065 47.2642C70.6389 49.2527 70.7944 55.7667 64.5193 55.5772C61.8137 53.7305 64.7194 49.827 64.7194 49.827L64.718 49.8272Z" fill="#FFD7C7"/>
<path d="M65.7367 55.8927C68.0904 55.614 69.2185 54.3033 69.757 53.1655C70.7635 51.0398 70.2724 48.2737 69.183 47.0237C68.6305 46.3894 68.0245 46.1238 67.381 46.2265C65.8922 46.4691 64.8104 48.6671 64.3989 49.6469C64.1726 49.9625 62.731 52.0587 63.0474 53.9468C63.1819 54.7471 63.6081 55.3978 64.3149 55.8799L64.4031 55.9402L64.5096 55.9438C64.9532 55.9575 65.362 55.9386 65.7383 55.894L65.7367 55.8927ZM67.5364 46.9417C67.9055 46.898 68.2632 47.0826 68.6298 47.5032C69.5487 48.5568 69.9648 51.0135 69.0952 52.852C68.3458 54.4361 66.8069 55.2504 64.6381 55.2125C64.1474 54.8508 63.8623 54.3969 63.7666 53.8248C63.4818 52.1289 64.9964 50.0638 65.0116 50.0429L65.0383 50.0073L65.0554 49.9655C65.5958 48.6684 66.5591 47.0987 67.4972 46.9464C67.5103 46.9448 67.5233 46.9433 67.5379 46.9416L67.5364 46.9417Z" fill="#634C37"/>
<path d="M63.3684 56.7949C62.0322 59.7567 62.4958 59.9641 58.7415 61.9143C53.8394 64.4616 43.6131 67.2961 31.5257 62.1788C24.5459 59.2235 25.4253 54.9795 25.1763 50.6997C24.929 46.4212 24.9956 41.1862 25.9369 37.2281C26.8783 33.2715 28.0038 26.1918 33.5563 25.4798C39.1088 24.7677 59.1156 29.0931 63.3207 36.3238C68.5688 45.3462 65.8604 51.2639 63.3638 56.794L63.3684 56.7949Z" fill="#FFD7C7"/>
<path d="M48.9462 65.1795C53.8702 64.5964 57.3997 63.0249 58.9111 62.239C62.0907 60.5866 62.3478 60.1569 63.1854 58.1484C63.33 57.8013 63.494 57.4076 63.703 56.9453L63.7334 56.8784C66.1855 51.4463 68.9645 45.2905 63.6424 36.1413C61.1079 31.783 53.4151 28.9033 49.056 27.575C43.1516 25.7755 36.6722 24.744 33.5905 25.1089C33.5644 25.112 33.5397 25.1149 33.515 25.1178C28.1641 25.803 26.7553 32.0087 25.8227 36.1146C25.7402 36.475 25.6632 36.82 25.5852 37.1445C24.4964 41.7227 24.6344 47.6156 24.8151 50.7219C24.8453 51.2502 24.859 51.7892 24.872 52.3092C24.9641 56.0109 25.0607 59.8373 31.386 62.5165C38.1595 65.3843 44.2026 65.7427 48.9479 65.1808L48.9462 65.1795ZM63.0353 56.6443C62.823 57.1158 62.6567 57.5156 62.5098 57.8674C61.7536 59.6807 61.6185 60.0075 58.5734 61.5895C55.6769 63.0949 45.1782 67.5616 31.67 61.842C25.779 59.3471 25.6929 55.9202 25.602 52.2906C25.5883 51.7647 25.5754 51.2197 25.5438 50.6798C25.3665 47.6143 25.2276 41.8011 26.2962 37.3138C26.374 36.9878 26.4521 36.6397 26.536 36.2777C27.4228 32.3702 28.7639 26.4642 33.6083 25.8434C33.633 25.8405 33.6577 25.8375 33.6824 25.8346C37.0299 25.4382 43.9715 26.7893 48.8428 28.275C58.7609 31.2978 61.9771 34.7312 63.0112 36.5092C68.1445 45.3331 65.564 51.05 63.0673 56.5786L63.0369 56.6456L63.0353 56.6443Z" fill="#634C37"/>
<path d="M50.4483 43.1268C50.4068 43.1376 50.2914 43.1336 50.2358 43.124C49.5018 43.0223 48.8153 42.6867 48.1964 42.2752C47.4632 41.7816 46.858 41.1122 46.3846 40.3624C46.3773 40.35 46.359 40.3448 46.3468 40.3536C46.8443 41.6192 47.8926 42.7208 49.1004 43.3895C49.5506 43.6206 50.0408 43.866 50.5674 43.8464C51.0139 43.8097 51.0093 43.162 50.5637 43.1308L50.4481 43.1253L50.4483 43.1268Z" fill="#634C37"/>
<path d="M49.2925 44.1152C49.2511 44.126 49.1357 44.122 49.08 44.1124C48.3461 44.0107 47.6595 43.6751 47.0407 43.2637C46.3074 42.77 45.7022 42.1006 45.2289 41.3508C45.2215 41.3384 45.2032 41.3332 45.191 41.342C45.6886 42.6076 46.7369 43.7092 47.9446 44.3779C48.3948 44.609 48.885 44.8544 49.4116 44.8348C49.8581 44.7981 49.8536 44.1504 49.4079 44.1192L49.2923 44.1137L49.2925 44.1152Z" fill="#634C37"/>
<path d="M52.3516 43.2491C52.3101 43.2599 52.1948 43.2559 52.1391 43.2463C51.4051 43.1446 50.7186 42.809 50.0997 42.3975C49.3665 41.9039 48.7613 41.2345 48.288 40.4847C48.2806 40.4723 48.2623 40.4671 48.2501 40.4759C48.7477 41.7415 49.796 42.8431 51.0037 43.5118C51.4539 43.7429 51.9441 43.9883 52.4707 43.9687C52.9172 43.932 52.9127 43.2843 52.467 43.2531L52.3514 43.2476L52.3516 43.2491Z" fill="#634C37"/>
<path d="M32.1537 42.2877C32.1446 42.2859 32.1429 42.2964 32.1027 42.2923C32.078 42.2952 32.0254 42.2867 32.0013 42.2822C30.6619 41.9694 29.6334 40.861 28.9518 39.7086C28.9382 39.6807 28.8905 39.7011 28.9045 39.7319C29.0523 40.0842 29.2077 40.4385 29.4117 40.7679C29.9918 41.7231 30.8223 42.6148 31.9142 42.9776C32.0202 43.0019 32.1125 43.0219 32.2428 43.0153C32.661 43.0011 32.7099 42.406 32.3048 42.3199L32.1539 42.2892L32.1537 42.2877Z" fill="#634C37"/>
<path d="M31.3725 43.08C31.3634 43.0782 31.3617 43.0887 31.3214 43.0846C31.2967 43.0875 31.2442 43.079 31.2201 43.0745C29.8806 42.7617 28.8521 41.6533 28.1705 40.5009C28.1569 40.4731 28.1093 40.4934 28.1232 40.5242C28.271 40.8765 28.4264 41.2308 28.6304 41.5602C29.2106 42.5154 30.041 43.4071 31.133 43.7699C31.239 43.7942 31.3312 43.8142 31.4616 43.8076C31.8798 43.7934 31.9286 43.1983 31.5236 43.1122L31.3726 43.0815L31.3725 43.08Z" fill="#634C37"/>
<path d="M30.7243 44.3133C30.7152 44.3114 30.7135 44.3219 30.6732 44.3179C30.6485 44.3208 30.596 44.3123 30.5719 44.3078C29.2324 43.9949 28.2039 42.8866 27.5224 41.7342C27.5087 41.7063 27.4611 41.7267 27.475 41.7574C27.6228 42.1097 27.7782 42.4641 27.9822 42.7935C28.5624 43.7487 29.3928 44.6404 30.4848 45.0031C30.5908 45.0274 30.683 45.0474 30.8134 45.0408C31.2316 45.0267 31.2804 44.4316 30.8754 44.3455L30.7244 44.3147L30.7243 44.3133Z" fill="#634C37"/>
<path d="M73.3293 29.2953C74.3207 28.7903 74.5902 27.332 73.9311 26.0382C73.2721 24.7444 71.9341 24.105 70.9426 24.61C69.9512 25.115 69.6817 26.5732 70.3408 27.867C70.9998 29.1608 72.3378 29.8003 73.3293 29.2953Z" fill="#FFE9E6"/>
<path d="M29.5444 22.7535L27.2552 31.7388L68.5551 41.622L68.8193 31.3118L29.5444 22.7535Z" fill="#CA6EB0"/>
<path d="M69.0267 30.1233C69.5885 29.9093 69.8175 29.1415 69.5382 28.4083C69.2589 27.6751 68.5771 27.2542 68.0153 27.4682C67.4535 27.6822 67.2245 28.4501 67.5038 29.1832C67.7831 29.9164 68.4649 30.3373 69.0267 30.1233Z" fill="#FFE9E6"/>
<path d="M45.7507 52.4887C47.2227 55.887 51.24 57.0289 54.1999 55.7473C57.1597 54.4657 58.365 50.6723 56.893 47.274C55.4209 43.8756 51.8956 42.3352 48.9372 43.6166C45.9774 44.8982 44.2801 49.0902 45.7519 52.4871L45.7507 52.4887Z" fill="white"/>
<path d="M52.5047 56.4976C53.1352 56.4229 53.7482 56.262 54.3144 56.0167C55.8236 55.3621 56.9502 54.0766 57.4847 52.3942C58.015 50.727 57.8994 48.8667 57.1595 47.1599C55.641 43.6551 51.9777 41.9822 48.8189 43.3507C45.5817 44.7535 43.9899 49.1644 45.4803 52.6062C46.7598 55.5603 49.8037 56.8175 52.5032 56.4978L52.5047 56.4976ZM50.4979 43.4951C52.9577 43.2038 55.4649 44.719 56.6226 47.3914C57.306 48.9694 57.4146 50.6832 56.9274 52.2171C56.4443 53.7358 55.4337 54.8941 54.0814 55.48C51.35 56.6623 47.4581 55.6971 46.017 52.3732C44.6726 49.2691 46.1467 45.1448 49.0503 43.8861C49.5225 43.6813 50.0097 43.5529 50.4965 43.4953L50.4979 43.4951Z" fill="#634C37"/>
<path d="M52.9702 55.1681C55.7924 54.8339 57.8092 52.2753 57.4751 49.4532C57.1409 46.6312 54.5822 44.6144 51.7601 44.9485C48.9379 45.2827 46.9211 47.8414 47.2552 50.6634C47.5894 53.4855 50.1481 55.5023 52.9702 55.1681Z" fill="#634C37"/>
<path d="M52.9746 55.2413C53.1373 55.222 53.2992 55.1955 53.4629 55.1599C56.2759 54.5542 58.0726 51.7736 57.4669 48.9606C57.1729 47.5974 56.3675 46.4316 55.1964 45.6746C54.0255 44.9189 52.6295 44.6629 51.2676 44.9568C49.9043 45.2508 48.7385 46.0562 47.9814 47.2273C47.2258 48.3981 46.9697 49.7941 47.2636 51.156C47.8338 53.8066 50.3361 55.5537 52.9746 55.2413ZM51.7775 45.0202C52.9456 44.8818 54.115 45.1514 55.1167 45.7974C56.2541 46.532 57.0382 47.6663 57.3232 48.9909C57.9121 51.7248 56.1653 54.4288 53.4312 55.0163C50.6974 55.6067 47.9932 53.8585 47.4057 51.1244C47.1207 49.7998 47.3681 48.4431 48.1041 47.3055C48.8387 46.1681 49.9731 45.3841 51.2977 45.0991C51.4571 45.064 51.6175 45.0376 51.7773 45.0187L51.7775 45.0202Z" fill="#634C37"/>
<path d="M54.6537 50.4341C55.6896 50.3114 56.43 49.3722 56.3073 48.3363C56.1846 47.3004 55.2454 46.5601 54.2095 46.6828C53.1735 46.8054 52.4332 47.7446 52.5559 48.7805C52.6785 49.8165 53.6178 50.5568 54.6537 50.4341Z" fill="white"/>
<path d="M54.6608 50.5069C54.7218 50.4997 54.7825 50.4896 54.8443 50.4763C55.3571 50.3655 55.7957 50.0631 56.0795 49.6229C56.3633 49.1827 56.4589 48.6587 56.3495 48.1457C56.1212 47.0884 55.0763 46.4136 54.0188 46.6405C53.506 46.7513 53.0674 47.0537 52.7836 47.4939C52.4998 47.9342 52.4042 48.4582 52.5136 48.9712C52.7273 49.9668 53.6685 50.6244 54.6608 50.5069ZM54.2195 46.7552C55.1377 46.6465 56.0083 47.255 56.2058 48.176C56.3076 48.6501 56.2192 49.1349 55.9566 49.5432C55.6941 49.9514 55.2882 50.2308 54.814 50.3326C53.8341 50.5429 52.8673 49.9178 52.6572 48.9394C52.5553 48.4653 52.6438 47.9805 52.9063 47.5722C53.169 47.1654 53.5748 46.8846 54.0489 46.7828C54.1049 46.7703 54.1627 46.7605 54.2193 46.7538L54.2195 46.7552Z" fill="#634C37"/>
<path d="M27.3077 48.3318C27.2999 51.6372 29.8279 54.3359 32.7061 54.3428C35.5842 54.3496 37.9254 51.6754 37.9332 48.37C37.941 45.0645 35.6149 42.3788 32.7353 42.3721C29.8571 42.3652 27.3156 45.0263 27.3063 48.3319L27.3077 48.3318Z" fill="white"/>
<path d="M33.298 54.6012C34.5519 54.4527 35.7134 53.8231 36.6166 52.791C37.6509 51.6092 38.2223 50.0403 38.2265 48.3706C38.2306 46.7009 37.6672 45.1279 36.6384 43.943C35.6009 42.7458 34.2142 42.0835 32.7361 42.0803C31.2696 42.0757 29.8091 42.7436 28.729 43.9116C27.6268 45.1044 27.017 46.6734 27.013 48.3313C27.0091 49.9906 27.6099 51.5681 28.7057 52.7716C29.781 53.9525 31.2375 54.6316 32.704 54.6362C32.9029 54.6362 33.1006 54.6261 33.2967 54.6028L33.298 54.6012ZM32.2182 42.6955C32.3896 42.6752 32.5623 42.6651 32.7347 42.6653C34.0404 42.6683 35.2697 43.2579 36.1962 44.3268C37.1315 45.4065 37.6448 46.8425 37.6416 48.3706C37.6384 49.8988 37.1171 51.3321 36.1763 52.407C35.2459 53.4704 34.014 54.0538 32.7069 54.051C31.4055 54.0474 30.1047 53.4383 29.1409 52.3783C28.1433 51.2824 27.5961 49.846 27.5997 48.334C27.6035 46.8235 28.1576 45.3936 29.1593 44.31C29.9991 43.4018 31.0923 42.8303 32.2169 42.6972L32.2182 42.6955Z" fill="#634C37"/>
<path d="M34.2549 52.9764C36.6301 52.6951 38.3276 50.5417 38.0463 48.1666C37.7651 45.7914 35.6116 44.094 33.2364 44.3753C30.8613 44.6566 29.1638 46.81 29.445 49.1851C29.7263 51.5602 31.8798 53.2576 34.2549 52.9764Z" fill="#634C37"/>
<path d="M34.2737 53.0478C35.2224 52.9355 36.1042 52.5187 36.8051 51.8435C37.6514 51.0272 38.1283 49.9292 38.1497 48.7539C38.1923 46.3269 36.2527 44.3172 33.8254 44.2732C32.6501 44.2517 31.5352 44.6902 30.6891 45.5079C29.8429 46.3241 29.3659 47.4222 29.3445 48.5974C29.3231 49.7726 29.7615 50.8875 30.5792 51.7336C31.3954 52.5798 32.4935 53.0568 33.6688 53.0782C33.8726 53.082 34.0746 53.0714 34.2737 53.0478ZM33.2377 44.4488C33.431 44.4259 33.6258 44.4161 33.8221 44.4194C36.1696 44.4611 38.0439 46.4048 38.002 48.7508C37.982 49.8876 37.5197 50.9485 36.7013 51.7379C35.8828 52.5272 34.8073 52.9507 33.669 52.9308C32.5322 52.9108 31.4712 52.4486 30.6819 51.6301C29.8925 50.8116 29.4689 49.7348 29.4889 48.598C29.509 47.4612 29.9712 46.4002 30.7897 45.6109C31.4652 44.9578 32.3193 44.5561 33.2361 44.4475L33.2377 44.4488Z" fill="#634C37"/>
<path d="M35.6249 48.745C36.5027 48.641 37.1301 47.8452 37.0261 46.9673C36.9222 46.0895 36.1263 45.4621 35.2484 45.5661C34.3706 45.67 33.7432 46.4659 33.8472 47.3438C33.9511 48.2216 34.747 48.849 35.6249 48.745Z" fill="white"/>
<path d="M35.6363 48.8173C35.9967 48.7746 36.3331 48.6169 36.5988 48.3601C36.92 48.0495 37.102 47.6331 37.1094 47.1858C37.1254 46.2631 36.3881 45.4989 35.4654 45.4829C34.5427 45.467 33.7785 46.2042 33.7625 47.1269C33.7551 47.5742 33.9215 47.9965 34.2322 48.3191C34.5428 48.6403 34.9592 48.8223 35.4065 48.8298C35.4833 48.831 35.561 48.8277 35.6365 48.8188L35.6363 48.8173ZM35.2556 45.6389C35.3238 45.6308 35.3926 45.6271 35.4636 45.629C36.3052 45.6443 36.9785 46.3409 36.9632 47.1825C36.9555 47.59 36.7899 47.9706 36.4964 48.2543C36.2029 48.5381 35.8172 48.6898 35.4082 48.6823C35.0007 48.6745 34.6201 48.5089 34.3364 48.2155C34.0526 47.922 33.9009 47.5363 33.9084 47.1273C33.9216 46.3552 34.5086 45.7259 35.2554 45.6375L35.2556 45.6389Z" fill="#634C37"/>
<path d="M39.8915 67.6425C39.8915 67.6425 43.8812 72.4207 50.5155 68.0669C57.837 69.8267 67.3207 77.4298 67.3207 77.4298C67.3207 77.4298 64.8963 83.6555 58.5534 86.4397C59.7589 89.6398 65.0993 106.471 65.0993 106.471C65.0993 106.471 40.7168 116.69 25.3976 103.59C28.0264 94.6851 31.1427 85.8537 31.1427 85.8537C31.1427 85.8537 25.9761 84.0641 23.3073 78.1866C31.4405 69.5198 39.8915 67.6425 39.8915 67.6425Z" fill="#7B7B7B"/>
<path d="M51.2349 110.285C59.1082 109.352 65.1779 106.836 65.2381 106.81C65.4121 106.736 65.5026 106.543 65.4459 106.363C65.3941 106.199 60.4044 90.4753 59.0125 86.6343C65.1873 83.7625 67.5598 77.8198 67.6593 77.565C67.7169 77.4167 67.6717 77.2468 67.5479 77.1465C67.1588 76.8346 57.9173 69.4725 50.6003 67.7136C50.5018 67.6899 50.3978 67.7081 50.3145 67.7636C44.0467 71.8781 40.3276 67.5938 40.1718 67.4104C40.0843 67.3059 39.9447 67.2591 39.8126 67.288C39.725 67.3072 37.6202 67.7848 34.4864 69.3389C31.6045 70.7689 27.2778 73.4219 23.0406 77.9382C22.9385 78.0461 22.9131 78.2053 22.9747 78.3394C25.3105 83.4829 29.4583 85.5523 30.6817 86.0674C30.09 87.7639 27.3633 95.6431 25.0467 103.489C25.0057 103.627 25.0499 103.777 25.1597 103.87C28.7022 106.899 33.02 108.937 37.9918 109.927C41.9572 110.717 46.345 110.845 51.0344 110.308C51.1012 110.301 51.1695 110.292 51.2363 110.285L51.2349 110.285ZM64.6455 106.26C63.3216 106.775 57.9107 108.758 51.1488 109.558C51.0762 109.567 51.0035 109.575 50.9309 109.584C46.32 110.111 42.0117 109.983 38.1232 109.208C33.364 108.258 29.2238 106.328 25.8147 103.467C28.3965 94.7503 31.4563 86.0641 31.4871 85.9764C31.519 85.8843 31.5143 85.7832 31.4715 85.6954C31.4287 85.6077 31.3544 85.5399 31.2622 85.5081C31.213 85.4903 26.3396 83.7382 23.7443 78.2571C30.9685 70.6482 38.4605 68.3983 39.7717 68.05C40.1324 68.4213 41.0967 69.2986 42.5948 69.8313C44.3175 70.445 47.0937 70.6982 50.5826 68.4597C57.1116 70.0968 65.4284 76.4178 66.8729 77.5432C66.3454 78.7121 63.8218 83.7268 58.406 86.1036C58.2282 86.1821 58.1418 86.3854 58.2105 86.5673C59.3064 89.4768 63.8977 103.901 64.6466 106.257L64.6455 106.26Z" fill="#634C37"/>
<path d="M56.5792 82.3348C56.5792 82.3348 56.7482 81.4853 57.4143 81.623C58.8839 81.9278 57.3853 83.9041 57.3853 83.9041C57.1828 83.5377 56.8208 82.9942 56.5792 82.3348Z" fill="#5B5B5B"/>
<path d="M32.7573 82.1341C32.7573 82.1341 32.6092 81.2809 31.94 81.4029C30.4632 81.672 31.9125 83.6838 31.9125 83.6838C32.1232 83.3229 32.4989 82.7879 32.7559 82.1342L32.7573 82.1341Z" fill="#5B5B5B"/>
<path d="M58.4631 86.4504C58.4631 86.4504 57.4662 84.0286 56.604 82.5454L58.4631 86.4504Z" fill="white"/>
<path d="M58.4976 86.741C58.5237 86.7379 58.5495 86.7319 58.5748 86.7215C58.7237 86.6597 58.7963 86.489 58.7345 86.3402C58.6932 86.2405 57.72 83.8821 56.858 82.4005C56.7767 82.2613 56.5972 82.2133 56.458 82.2946C56.3188 82.3759 56.2708 82.5554 56.3521 82.6946C57.194 84.1433 58.1835 86.5395 58.1937 86.5633C58.2451 86.6869 58.3713 86.7574 58.4992 86.7423L58.4976 86.741Z" fill="#634C37"/>
<path d="M31.129 86.1013C31.129 86.1013 31.9459 83.3203 32.571 82.4655L31.129 86.1013Z" fill="white"/>
<path d="M31.1635 86.3919C31.2768 86.3785 31.3764 86.2989 31.41 86.1844C31.4185 86.1569 32.2198 83.4426 32.8068 82.6394C32.9018 82.5088 32.8742 82.325 32.7436 82.23C32.613 82.1349 32.4308 82.1639 32.3341 82.2932C31.6876 83.1786 30.8817 85.9037 30.8482 86.0182C30.8032 86.1738 30.8916 86.3357 31.0458 86.3808C31.0855 86.3923 31.1241 86.3951 31.1619 86.3906L31.1635 86.3919Z" fill="#634C37"/>
<path d="M50.9601 53.2964C51.3284 53.2528 51.5916 52.9189 51.548 52.5506C51.5044 52.1823 51.1705 51.9191 50.8021 51.9627C50.4338 52.0063 50.1706 52.3402 50.2142 52.7085C50.2578 53.0768 50.5918 53.3401 50.9601 53.2964Z" fill="white"/>
<path d="M50.9681 53.3633C50.9913 53.3605 51.0146 53.3578 51.0375 53.3521C51.4354 53.2667 51.6908 52.8725 51.6052 52.4731C51.5633 52.2807 51.4493 52.1144 51.2834 52.0074C51.1175 51.9003 50.9203 51.8647 50.7262 51.9054C50.3282 51.9908 50.0728 52.385 50.1584 52.7844C50.2397 53.1593 50.5932 53.4077 50.9681 53.3633ZM50.8103 52.031C51.1154 51.9948 51.4045 52.1963 51.4702 52.5024C51.5034 52.659 51.4741 52.8216 51.3868 52.9557C51.2998 53.0912 51.1649 53.1838 51.0069 53.2187C50.6794 53.2899 50.3616 53.0815 50.2907 52.7569C50.2575 52.6003 50.2868 52.4377 50.3741 52.3036C50.4612 52.1681 50.596 52.0755 50.754 52.0406C50.7727 52.0369 50.7914 52.0332 50.8103 52.031Z" fill="#634C37"/>
<path d="M49.231 49.9787L49.7484 49.8938C49.919 49.8663 50.0612 49.7478 50.1216 49.5859L50.3019 49.0931C50.3141 49.0593 50.3483 49.0375 50.3841 49.0407C50.4198 49.0438 50.4496 49.0712 50.4553 49.1074L50.5401 49.6247C50.5677 49.7953 50.6862 49.9375 50.848 49.9979L51.3409 50.1782C51.3747 50.1904 51.3964 50.2246 51.3933 50.2603C51.3902 50.2961 51.3628 50.3258 51.3266 50.3316L50.8092 50.4164C50.6386 50.444 50.4965 50.5625 50.4361 50.7243L50.2558 51.2171C50.2436 51.251 50.2093 51.2727 50.1736 51.2696C50.1379 51.2664 50.1081 51.239 50.1023 51.2029L50.0175 50.6855C49.9899 50.5149 49.8715 50.3728 49.7096 50.3124L49.2168 50.1321C49.1829 50.1199 49.1612 50.0856 49.1643 50.0499C49.1675 50.0142 49.1949 49.9844 49.231 49.9787Z" fill="white"/>
<path d="M32.8871 51.9141C33.2554 51.8704 33.5186 51.5365 33.475 51.1682C33.4314 50.7999 33.0975 50.5367 32.7291 50.5803C32.3608 50.6239 32.0976 50.9578 32.1412 51.3262C32.1848 51.6945 32.5188 51.9577 32.8871 51.9141Z" fill="white"/>
<path d="M32.8936 51.9825C32.9168 51.9798 32.9401 51.977 32.963 51.9713C33.361 51.8859 33.6163 51.4918 33.5307 51.0924C33.4888 50.8999 33.3748 50.7337 33.2089 50.6266C33.043 50.5196 32.8458 50.484 32.6517 50.5246C32.2537 50.6101 31.9984 51.0042 32.084 51.4036C32.1652 51.7785 32.5187 52.0269 32.8936 51.9825ZM32.7358 50.6502C33.0409 50.6141 33.33 50.8156 33.3957 51.1216C33.429 51.2782 33.3996 51.4408 33.3124 51.5749C33.2253 51.7105 33.0904 51.803 32.9325 51.8379C32.605 51.9091 32.2871 51.7007 32.2163 51.3762C32.183 51.2195 32.2124 51.0569 32.2996 50.9229C32.3867 50.7873 32.5216 50.6947 32.6795 50.6598C32.6982 50.6561 32.7169 50.6525 32.7358 50.6502Z" fill="#634C37"/>
<path d="M31.1566 48.5979L31.674 48.513C31.8446 48.4855 31.9867 48.367 32.0471 48.2052L32.2274 47.7124C32.2396 47.6785 32.2739 47.6568 32.3096 47.6599C32.3453 47.663 32.3751 47.6905 32.3808 47.7266L32.4657 48.244C32.4932 48.4146 32.6117 48.5567 32.7736 48.6171L33.2664 48.7974C33.3002 48.8096 33.322 48.8438 33.3188 48.8796C33.3157 48.9153 33.2883 48.9451 33.2521 48.9508L32.7348 49.0357C32.5642 49.0632 32.422 49.1817 32.3616 49.3436L32.1813 49.8364C32.1691 49.8702 32.1349 49.8919 32.0991 49.8888C32.0634 49.8857 32.0336 49.8583 32.0279 49.8221L31.943 49.3047C31.9155 49.1342 31.797 48.992 31.6351 48.9316L31.1423 48.7513C31.1085 48.7391 31.0867 48.7049 31.0899 48.6691C31.093 48.6334 31.1204 48.6036 31.1566 48.5979Z" fill="white"/>
<path d="M38.2574 55.4621C38.6963 55.4102 39.01 55.0122 38.958 54.5733C38.906 54.1344 38.5081 53.8207 38.0692 53.8727C37.6302 53.9247 37.3165 54.3226 37.3685 54.7615C37.4205 55.2004 37.8185 55.5141 38.2574 55.4621Z" fill="#F3A49F"/>
<path d="M37.412 54.805C37.3873 54.8079 37.3605 54.8052 37.3355 54.7934C37.2609 54.761 37.2287 54.675 37.2611 54.6004L37.4038 54.2756C37.4363 54.201 37.5223 54.1688 37.5969 54.2012C37.6714 54.2336 37.7037 54.3196 37.6713 54.3942L37.5285 54.719C37.5064 54.7688 37.4614 54.7992 37.412 54.805Z" fill="#634C37"/>
<path d="M38.8278 59.06C38.4166 59.1087 37.9933 58.9806 37.5567 58.6773C37.0224 58.8805 36.5316 58.7544 36.2862 58.536C36.1016 58.3707 36.035 58.1444 36.1083 57.9295C36.1477 57.8143 36.2717 57.7539 36.3868 57.7933C36.502 57.8327 36.5623 57.9567 36.5229 58.0719C36.5163 58.0903 36.5 58.1394 36.5776 58.2098C36.7374 58.3529 37.1124 58.4087 37.489 58.23C37.5629 58.1948 37.6494 58.2037 37.7157 58.2533C38.4505 58.8101 39.0895 58.7447 39.7276 58.0489C39.8098 57.9596 39.9476 57.9536 40.0384 58.0357C40.1276 58.1179 40.1338 58.2572 40.0516 58.3465C39.6601 58.7729 39.2522 59.0113 38.828 59.0615L38.8278 59.06Z" fill="#392525"/>
<path d="M24.8174 29.1679C24.8174 29.1679 24.4219 34.1266 26.2962 37.3138C28.878 37.7667 46.8184 42.3589 62.1198 39.9429C62.1198 39.9429 62.115 66.627 57.7331 67.607C65.6709 67.3934 68.8976 46.841 67.0325 37.9836" fill="#CA6EB0"/>
<path d="M58.1938 67.9399C58.0442 67.9576 57.8937 67.9681 57.7425 67.9728C57.5544 67.9773 57.3922 67.8389 57.37 67.6515C57.3478 67.4641 57.4687 67.2906 57.6539 67.2496C58.5782 67.0429 60.2682 64.9658 61.205 53.3812C61.6685 47.6528 61.7412 41.9471 61.7518 40.3695C61.235 40.4469 60.7114 40.5163 60.1898 40.578C47.0975 42.1284 32.6361 39.0336 27.7233 37.9816C27.0294 37.8324 26.5276 37.7254 26.2343 37.6747C26.129 37.6562 26.0359 37.5921 25.9823 37.4997C24.0712 34.2506 24.4378 29.3469 24.4544 29.1387C24.4704 28.9379 24.6471 28.7874 24.8479 28.8034C25.0487 28.8194 25.1992 28.996 25.1832 29.1968C25.18 29.2443 24.8304 33.9309 26.5311 36.9839C26.8432 37.0442 27.2921 37.1398 27.8771 37.265C33.0059 38.3622 48.6147 41.7027 62.0635 39.5798C62.169 39.5628 62.2772 39.5928 62.3577 39.6628C62.4396 39.7326 62.4854 39.8333 62.4863 39.9407C62.4868 40.007 62.4784 46.7039 61.9347 53.4347C61.3535 60.6194 60.4198 65.0893 59.0984 66.9695C60.0875 66.6004 61.0277 65.8556 61.9052 64.744C63.9921 62.0999 65.6367 57.5119 66.5369 51.8261C67.3409 46.7469 67.3937 41.4693 66.6741 38.0555C66.633 37.8571 66.7589 37.6639 66.9573 37.6227C67.1545 37.5832 67.3489 37.7075 67.3901 37.9059C68.8005 44.6028 67.3598 59.0124 62.479 65.1976C61.1877 66.834 59.7483 67.7544 58.1951 67.9383L58.1938 67.9399Z" fill="#634C37"/>
<path d="M36.8607 36.8244L32.1126 37.3867C31.992 37.4009 31.8831 37.3151 31.8688 37.1945C31.8545 37.074 31.9404 36.9651 32.061 36.9508L36.8091 36.3885C36.9297 36.3743 37.0386 36.4601 37.0528 36.5807C37.0671 36.7013 36.9813 36.8101 36.8607 36.8244Z" fill="#634C37"/>
<path d="M48.1606 38.5639C48.1301 38.5675 48.0989 38.5653 48.0681 38.5543L43.5183 37.0835C43.4033 37.0456 43.34 36.9219 43.3765 36.8071C43.4145 36.6921 43.5381 36.6289 43.6529 36.6654L48.2028 38.1361C48.3177 38.1741 48.381 38.2977 48.3445 38.4125C48.3176 38.4967 48.2432 38.5527 48.1619 38.5623L48.1606 38.5639Z" fill="#634C37"/>
<path d="M15.8952 69.939C15.824 69.9224 15.7502 69.909 15.6804 69.8922C15.7404 69.9131 15.8128 69.9281 15.8952 69.939Z" fill="#634C37"/>
</g>
<defs>
<clipPath id="clip0_119_1236">
<rect width="83" height="121" fill="white" transform="translate(0 9.76044) rotate(-6.75336)"/>
</clipPath>
</defs>
</svg>
